<?xml version="1.0" standalone="no"?>
<!DOCTYPE svg PUBLIC "-//W3C//DTD SVG 1.1//EN" "http://www.w3.org/Graphics/SVG/1.1/DTD/svg11.dtd" >
<svg xmlns="http://www.w3.org/2000/svg" xmlns:xlink="http://www.w3.org/1999/xlink" version="1.1">
<metadata>
Created by FontForge 20190801 at Mon Jan 28 01:30:38 2019
 By Jimmy Wärting
Copyright \(c\) 2019 by Youssef Habchi. All rights reserved.
</metadata>
<defs>
<font id="MidnightDrive" horiz-adv-x="696" >
  <font-face 
    font-family="Midnight Drive"
    font-weight="400"
    font-stretch="normal"
    units-per-em="1500"
    panose-1="0 0 0 0 0 0 0 0 0 0"
    ascent="1012"
    descent="-488"
    x-height="649"
    cap-height="1000"
    bbox="-333.031 -522.594 2024.54 1321.29"
    underline-thickness="50"
    underline-position="-100"
    unicode-range="U+0020-2122"
  />
<missing-glyph horiz-adv-x="266" 
 />
    <glyph glyph-name=".notdef" horiz-adv-x="266" 
 />
    <glyph glyph-name="s" unicode="s" horiz-adv-x="459" 
d="M455 534c-20 0 -33 43 -65 43c-58 0 -179 -102 -185 -157c-7 -83 171 -161 164 -251c-12 -139 -367 -205 -434 -205c-40 0 -72 10 -70 32c1 7 7 17 22 17c87 3 350 76 338 148c-6 31 -70 89 -118 131c-46 37 -89 89 -83 147c10 121 208 252 314 252
c76 0 145 -78 140 -127c-1 -11 -7 -30 -23 -30z" />
    <glyph glyph-name="t" unicode="t" horiz-adv-x="391" 
d="M117 759c15 4 40 1 62 -1c21 55 39 107 59 169c14 50 27 79 68 79c38 0 96 -50 94 -93c-2 -38 -30 -107 -55 -165c96 1 187 12 246 28c23 5 38 2 38 -12c1 -7 -3 -19 -30 -36c-45 -27 -183 -70 -304 -94c-53 -120 -97 -206 -142 -337c-13 -36 -42 -128 -45 -173
c-1 -22 6 -37 24 -37c67 0 237 208 286 279c7 11 14 14 20 14c13 0 20 -17 12 -35c-52 -102 -264 -367 -367 -367c-84 0 -116 71 -107 176c11 112 82 298 149 468c-20 5 -34 18 -42 42c-3 11 -4 24 -3 37c2 25 13 51 37 58z" />
    <glyph glyph-name="e" unicode="e" horiz-adv-x="550" 
d="M277 457c-30 -37 -62 -78 -90 -122c24 -3 36 2 45 5c67 23 189 125 195 192c3 31 -22 28 -28 28c-36 0 -96 -72 -122 -103zM232 277c-19 0 -51 7 -66 23c-36 -61 -60 -127 -63 -191c-1 -36 19 -50 47 -50c112 0 287 154 401 278c20 22 36 44 56 44c22 0 15 -23 -2 -53
c-41 -75 -311 -359 -480 -359c-77 0 -186 68 -177 178c16 163 118 316 236 440c53 56 136 113 202 105c62 -8 157 -65 150 -137c-9 -108 -212 -278 -304 -278z" />
    <glyph glyph-name="i" unicode="i" horiz-adv-x="374" 
d="M82 497c19 41 59 136 119 136c37 -1 95 -33 90 -90c-3 -36 -61 -99 -83 -143c-41 -87 -86 -198 -93 -270c-3 -32 0 -50 10 -50c59 0 208 174 271 277c7 13 13 22 25 22c13 0 18 -15 9 -38c-37 -107 -261 -367 -353 -367c-83 0 -112 80 -102 176c10 114 67 256 107 347z
M408 854c-4 -48 -68 -154 -131 -154c-38 0 -73 21 -69 68c4 51 51 158 122 158c41 0 83 -27 78 -72z" />
    <glyph glyph-name="c" unicode="c" horiz-adv-x="491" 
d="M386 681c48 0 105 -20 127 -83c9 -30 -16 -47 -20 -48c-30 -12 -25 28 -59 28c-10 0 -22 -3 -40 -11c-56 -25 -142 -125 -201 -217c-49 -76 -89 -151 -96 -232c-3 -31 5 -53 34 -53c108 0 300 192 381 292c12 16 27 22 36 22c12 0 17 -11 10 -26
c-48 -114 -317 -379 -455 -379c-89 0 -169 84 -161 178c8 82 51 172 111 270c65 103 212 259 333 259z" />
    <glyph glyph-name="l" unicode="l" horiz-adv-x="385" 
d="M177 755c21 56 40 109 60 172c15 50 28 79 69 79c37 0 96 -50 94 -93c-3 -59 -68 -191 -90 -244c-59 -139 -108 -229 -158 -372c-12 -36 -42 -128 -44 -173c-1 -22 5 -37 23 -37c67 0 235 207 284 278c7 11 17 15 23 15c12 0 20 -17 11 -35c-51 -102 -263 -367 -366 -367
c-84 0 -117 71 -107 176c12 143 125 404 201 601z" />
    <glyph glyph-name="f" unicode="f" horiz-adv-x="403" 
d="M600 926c4 -20 -7 -30 -18 -31c-7 -1 -14 3 -22 8c-22 16 -20 9 -38 10c-39 0 -73 -18 -118 -84c-50 -74 -111 -184 -170 -310c90 1 188 14 258 31c26 6 48 7 47 -6c-2 -20 -32 -36 -55 -47c-76 -36 -199 -81 -304 -98c-117 -274 -222 -584 -248 -730
c-6 -28 -4 -77 -35 -77c-24 0 -30 79 -28 113c2 11 3 22 4 34c14 164 58 410 153 673c-6 6 -11 13 -15 20c-5 10 -6 21 -5 33c2 23 15 48 36 59c9 5 19 8 30 9c114 273 241 481 395 484c83 1 126 -63 133 -91z" />
    <glyph glyph-name="o" unicode="o" horiz-adv-x="542" 
d="M360 677c24 0 63 -15 89 -41c70 -10 112 -73 105 -154c-20 -211 -299 -507 -460 -507c-89 0 -157 87 -149 184c9 102 67 215 143 316c46 63 167 199 272 202zM479 483c5 47 -24 79 -61 83c-149 -63 -300 -300 -312 -429c-3 -25 3 -70 47 -70c91 0 311 251 326 416z" />
    <glyph glyph-name="g" unicode="g" horiz-adv-x="638" 
d="M598 407c-12 -134 -155 -432 -255 -568c-150 -206 -340 -354 -612 -354c-42 0 -65 18 -64 32c3 26 31 23 62 23c181 0 372 154 509 363c82 125 129 272 172 400c-73 -102 -261 -316 -366 -316c-48 0 -131 55 -122 155c16 176 305 547 511 547c77 0 164 -83 157 -162
c-2 -22 -11 -40 -23 -51c19 -13 33 -42 31 -69zM357 332c46 57 83 118 124 184c-4 20 -14 36 -32 36c-111 0 -376 -343 -385 -443c-1 -17 3 -25 18 -25c43 0 185 136 275 248z" />
    <glyph glyph-name="h" unicode="h" horiz-adv-x="688" 
d="M128 618c33 83 99 274 102 319c4 37 29 69 73 69c37 0 95 -54 91 -100c-6 -57 -78 -204 -105 -262c-57 -120 -112 -239 -162 -361c38 48 99 126 145 178c57 63 192 221 277 221c57 0 94 -68 90 -102c-3 -35 -22 -73 -32 -98c-33 -80 -140 -300 -147 -386
c-2 -25 4 -33 11 -33c39 0 195 200 238 284c10 20 24 30 33 30c13 0 18 -17 6 -46c-48 -117 -191 -303 -279 -347c-18 -9 -33 -12 -48 -12c-70 0 -114 83 -108 150c15 159 109 328 132 398c4 12 3 15 -4 15c-14 0 -106 -101 -130 -128c-38 -42 -146 -163 -213 -284
c-14 -26 -28 -57 -39 -82c-8 -17 -21 -40 -43 -40c-30 0 -68 51 -62 108c4 44 19 93 24 112c38 137 96 265 150 397z" />
    <glyph glyph-name="space" unicode=" " horiz-adv-x="266" 
 />
    <glyph glyph-name="v" unicode="v" horiz-adv-x="530" 
d="M3 215c11 105 45 208 59 321c3 26 7 51 20 73c16 27 42 38 64 38c45 0 98 -71 91 -120c-4 -35 -23 -85 -35 -127c-18 -65 -42 -144 -50 -205c-3 -22 -5 -48 0 -65c46 4 183 185 276 317c94 134 134 195 159 233c6 10 15 15 22 15c13 0 24 -6 22 -27
c-4 -48 -104 -183 -139 -242c-58 -89 -294 -445 -407 -445c-87 0 -94 119 -82 234z" />
    <glyph glyph-name="z" unicode="z" horiz-adv-x="526" 
d="M411 548c-11 5 -119 -6 -177 -46c-19 -12 -48 -30 -77 -30c-31 0 -83 62 -79 96c2 16 6 34 22 50c34 37 173 80 275 80c49 0 92 -7 117 -27c24 -20 45 -82 42 -117c-1 -6 -2 -11 -3 -16c-61 -153 -357 -325 -471 -412c110 6 345 30 422 53c31 9 45 2 44 -14
c-1 -9 -7 -21 -22 -29c-74 -41 -409 -171 -559 -172c-34 0 -43 40 -37 68c5 19 20 68 41 89c42 44 105 85 137 109c119 87 296 233 325 318z" />
    <glyph glyph-name="k" unicode="k" horiz-adv-x="572" 
d="M413 907c-7 -66 -123 -277 -177 -389c10 12 20 23 31 33c111 111 207 153 269 156c56 3 109 -57 104 -121c-12 -126 -209 -247 -366 -282c11 -30 25 -63 41 -90c42 -72 136 -201 229 -223c5 -1 8 -5 8 -10c-1 -15 -32 -22 -47 -22c-91 -1 -265 142 -317 215
c-17 23 -37 48 -47 78c-36 -52 -63 -112 -83 -177l-19 -67c-7 -27 -19 -54 -46 -54c-42 0 -76 64 -71 115c9 102 151 395 238 596c40 95 71 192 102 298c7 28 32 36 58 36c33 0 98 -38 93 -92zM522 571c-58 0 -173 -88 -272 -189l5 -18c107 25 269 99 277 192
c2 11 -6 15 -10 15z" />
    <glyph glyph-name="y" unicode="y" horiz-adv-x="673" 
d="M-21 188c11 112 111 291 167 421c11 27 42 46 68 44c32 -3 99 -58 87 -111c-7 -31 -49 -95 -78 -155c-28 -59 -85 -158 -93 -230c-2 -26 6 -31 17 -31c58 0 277 268 376 422c25 38 67 115 116 115c43 0 91 -43 88 -74c-6 -53 -52 -103 -84 -155c-22 -35 -59 -96 -77 -133
c-107 -209 -307 -583 -323 -767c-2 -19 -7 -32 -18 -36c-43 -14 -47 67 -43 105c25 274 169 595 203 671c-70 -98 -211 -254 -292 -254c-95 0 -121 89 -114 168z" />
    <glyph glyph-name="j" unicode="j" horiz-adv-x="312" 
d="M467 906c-5 -48 -70 -154 -133 -154c-38 0 -73 21 -69 68c5 50 51 157 122 157c41 0 84 -27 80 -71zM131 550c19 40 59 115 108 115c43 0 91 -44 90 -75c0 -26 -19 -59 -30 -77c-25 -40 -71 -113 -105 -185c-94 -192 -281 -629 -288 -813c-1 -19 -4 -32 -16 -36
c-42 -14 -53 68 -52 98c1 15 2 31 4 48c24 264 167 691 289 925z" />
    <glyph glyph-name="u" unicode="u" horiz-adv-x="716" 
d="M494 119c-3 -31 -2 -55 18 -55c56 0 193 218 234 288c10 17 27 27 39 27s20 -12 8 -38c-26 -63 -217 -381 -336 -381c-62 0 -115 70 -107 159c3 41 11 80 19 118c-84 -127 -188 -248 -292 -248c-81 0 -117 81 -109 164c12 136 115 302 177 452c12 27 42 46 69 44
c32 -3 97 -54 86 -107c-8 -38 -58 -102 -109 -200c-26 -52 -59 -142 -68 -194c-1 -22 -4 -55 29 -55c34 0 89 61 144 138c69 94 136 214 162 271c2 4 16 30 31 57c23 42 55 90 98 90c37 0 98 -36 93 -94c-3 -35 -62 -107 -94 -173c-36 -77 -86 -190 -92 -263z" />
    <glyph glyph-name="w" unicode="w" horiz-adv-x="902" 
d="M-27 135c11 120 73 244 126 357c20 45 26 76 32 97c10 33 40 59 78 59c32 0 96 -51 92 -95c-3 -28 -23 -74 -41 -110c-46 -93 -126 -246 -130 -288c-1 -10 2 -20 11 -20c23 0 104 84 188 187c59 72 128 185 174 243c19 24 43 43 73 43c32 0 94 -43 88 -81
c-3 -11 -6 -23 -15 -36c-60 -96 -103 -243 -113 -345c-2 -23 3 -46 25 -46c61 0 213 222 296 431c32 78 36 95 47 118c7 14 15 26 30 26c17 0 21 -16 19 -39c-2 -28 -15 -68 -25 -98c-67 -200 -260 -557 -423 -557c-64 0 -124 66 -132 143c-3 23 -3 47 1 72
c5 45 18 93 28 137c-66 -111 -248 -323 -338 -336c-42 -7 -99 52 -91 138z" />
    <glyph glyph-name="x" unicode="x" horiz-adv-x="583" 
d="M651 627c-31 -47 -159 -184 -298 -319c28 -139 74 -269 130 -341c9 -11 -15 -26 -28 -21c-66 27 -152 144 -213 258c-129 -119 -247 -215 -290 -215c-25 0 -50 30 -48 55c2 24 34 44 68 69c43 33 130 101 228 182c-43 109 -71 236 -63 277c9 49 84 106 132 106
c45 0 59 -22 57 -90c-1 -57 4 -119 11 -181c106 89 208 181 274 249c12 12 23 18 33 18c16 0 26 -19 7 -47z" />
    <glyph glyph-name="m" unicode="m" horiz-adv-x="994" 
d="M-13 254c53 130 100 247 140 387c7 29 32 37 59 37c32 0 96 -39 92 -92c-4 -42 -53 -143 -100 -239c-8 -16 -14 -33 -20 -49c90 123 272 365 355 365c48 0 79 -48 75 -95c-3 -41 -44 -138 -67 -228c86 111 271 322 343 322c58 0 100 -54 95 -106
c-7 -75 -161 -315 -173 -433c-1 -13 3 -27 15 -27c42 0 209 225 237 265c9 12 18 18 24 18c8 0 14 -13 13 -24c-1 -9 -4 -19 -9 -31c-26 -52 -239 -345 -327 -345c-50 0 -102 43 -91 157c14 155 117 355 119 376c1 3 1 5 -1 5c-30 0 -172 -189 -230 -270
c-22 -31 -73 -109 -102 -109c-48 0 -91 51 -86 109c9 95 62 225 65 254c1 2 1 4 -2 4c-18 0 -112 -110 -136 -141c-62 -80 -130 -170 -194 -299c-18 -36 -43 -101 -95 -101c-34 0 -59 66 -55 101c3 32 14 88 56 189z" />
    <glyph glyph-name="n" unicode="n" horiz-adv-x="680" 
d="M56 406c31 74 54 152 78 236c9 29 34 37 60 37c33 -1 101 -41 97 -94c-4 -41 -52 -138 -101 -232c24 31 50 64 79 94c55 61 202 226 273 224c62 -2 105 -71 97 -127c-6 -45 -61 -123 -92 -199c-37 -84 -71 -170 -78 -220c-2 -19 7 -28 19 -28c44 -2 154 156 216 261
c9 16 20 21 27 21c16 0 24 -23 10 -48c-57 -116 -217 -347 -307 -347c-72 0 -111 68 -103 144c16 187 142 409 128 409c-54 2 -246 -222 -316 -348c-19 -34 -57 -99 -90 -165c-21 -41 -45 -46 -63 -46c-38 2 -71 61 -68 101c5 53 79 199 134 327z" />
    <glyph glyph-name="a" unicode="a" 
d="M529 591l3 -7c15 -3 42 -16 63 -32c17 -13 29 -26 26 -51c-3 -41 -38 -85 -55 -119c-50 -104 -132 -326 -101 -326c45 0 157 117 261 296c10 17 27 27 39 27s19 -12 8 -38c-43 -101 -239 -365 -319 -384c-69 -16 -125 49 -125 117c0 15 1 30 2 44c5 62 27 138 47 196
c-61 -91 -239 -322 -346 -322c-69 0 -103 81 -97 150c19 198 280 540 466 540c41 0 113 -48 128 -91zM356 378c26 33 77 113 80 147c2 13 -3 23 -20 23c-131 0 -336 -330 -340 -434c1 -9 4 -14 11 -14c49 0 201 194 269 278z" />
    <glyph glyph-name="d" unicode="d" horiz-adv-x="739" 
d="M820 933c-2 -24 -17 -32 -41 -73c-109 -176 -254 -600 -266 -727c-2 -20 6 -32 18 -32c45 0 135 120 224 255c7 11 13 22 25 22c15 0 25 -10 10 -43c-32 -75 -191 -328 -301 -350c-54 -10 -128 49 -119 146c6 57 26 140 54 230c-90 -130 -265 -371 -372 -371
c-64 0 -128 64 -121 145c9 87 74 209 134 294c71 99 228 254 355 254c51 0 81 -22 98 -47c42 115 68 175 85 214c20 46 62 159 109 159c31 0 112 -31 108 -76zM339 337c42 53 90 125 127 181c0 23 -7 48 -24 48c-64 0 -183 -122 -250 -221c-51 -72 -102 -170 -106 -214
c-1 -13 -2 -29 19 -29c36 0 147 122 234 235z" />
    <glyph glyph-name="b" unicode="b" horiz-adv-x="590" 
d="M409 215c-71 -64 -239 -192 -357 -192c-3 0 -7 1 -10 1c-8 -26 -19 -52 -45 -52c-42 0 -72 79 -68 116c6 63 67 218 129 365c44 103 93 204 131 307c17 46 45 125 51 156c12 64 21 95 72 96c32 0 95 -36 95 -74c-1 -49 -49 -145 -75 -199l-94 -192c87 76 178 136 249 136
c66 0 148 -74 133 -171c-13 -97 -109 -207 -211 -297zM173 306c-25 -30 -53 -68 -72 -99c-14 -36 -27 -70 -35 -98c6 -4 17 -5 23 -5c57 0 200 109 250 155c64 60 167 172 180 255c3 22 -1 38 -19 38c-73 0 -223 -124 -327 -246z" />
    <glyph glyph-name="p" unicode="p" horiz-adv-x="594" 
d="M26 391c16 43 24 61 45 112c20 50 36 109 40 131c8 49 25 67 65 67c45 0 123 -48 118 -105l-1 -2c69 50 142 89 206 89c97 0 140 -71 138 -155c-4 -129 -187 -289 -293 -365c-101 -72 -204 -129 -313 -150c-22 -58 -42 -121 -64 -198c-16 -59 -31 -114 -37 -173
c-2 -21 -2 -42 -1 -64c2 -42 -14 -58 -32 -58c-21 0 -41 16 -47 56c-7 42 -6 93 0 152c2 30 6 62 11 97c28 177 83 351 165 566zM123 220c-27 -53 -42 -88 -57 -123c66 20 158 67 227 118c120 89 226 208 233 280c2 28 -28 43 -58 43c-110 0 -269 -173 -345 -318z" />
    <glyph glyph-name="q" unicode="q" horiz-adv-x="627" 
d="M549 581c2 -15 -1 -32 -10 -47c2 1 5 1 9 1c32 1 82 -29 81 -66c0 -10 -3 -23 -10 -36c-116 -227 -365 -711 -378 -897c-1 -24 -1 -41 -21 -41c-52 -1 -45 72 -43 119c8 157 94 415 177 617c-91 -98 -238 -240 -346 -240c-50 1 -113 54 -104 142c18 193 321 548 507 548
c71 0 131 -55 138 -100zM339 308c42 50 118 167 146 199c-10 12 -20 35 -47 35c-112 0 -368 -301 -381 -428c0 -11 4 -17 13 -17c56 0 212 143 269 211z" />
    <glyph glyph-name="r" unicode="r" horiz-adv-x="509" 
d="M569 525c-6 -13 -15 -20 -23 -20c-7 0 -14 6 -14 18c0 15 -3 49 -29 49c-76 0 -233 -125 -330 -280c-29 -44 -89 -168 -111 -239c-8 -34 -37 -70 -64 -70c-36 0 -80 69 -71 121c8 66 40 141 71 212c46 107 88 208 127 325c10 29 35 37 61 37c33 0 95 -39 88 -92
c-5 -32 -39 -94 -71 -162c24 35 46 65 65 88c75 93 167 186 241 186c55 0 81 -44 74 -126c-1 -9 -7 -36 -14 -47z" />
    <glyph glyph-name="C" unicode="C" horiz-adv-x="960" 
d="M995 838c0 -20 -7 -29 -18 -29c-50 0 -31 78 -144 78c-40 0 -89 -24 -127 -47c-177 -109 -438 -445 -449 -707c-3 -92 43 -154 134 -154c186 0 416 185 623 388c5 7 12 9 18 8c19 -2 9 -32 1 -41c-127 -157 -419 -461 -700 -461c-127 0 -261 101 -253 279
c15 329 415 861 721 861c120 -1 197 -100 194 -175z" />
    <glyph glyph-name="D" unicode="D" horiz-adv-x="1165" 
d="M760 1014c39 7 83 -24 100 -54c44 -11 85 -25 125 -41c126 -55 260 -163 245 -328c-11 -119 -134 -251 -270 -357c-158 -121 -367 -220 -554 -283l-10 -37c-8 -21 -18 -29 -40 -29c-12 0 -18 17 -20 43c-110 -33 -207 -52 -276 -54c-37 0 -114 19 -109 67
c1 12 6 29 23 29c14 1 19 -19 84 -19c67 0 168 19 279 53c3 39 9 80 17 111c47 222 195 594 257 712c-42 0 -81 -3 -112 -8c-67 -12 -159 -46 -204 -38c-21 4 -59 24 -70 62c-2 8 -3 18 -2 29c2 29 16 63 34 77c43 36 198 44 308 47c39 1 90 -1 144 -8c14 13 31 22 51 26z
M897 782c-30 10 -62 19 -97 25c-28 -43 -61 -89 -82 -125c-78 -132 -202 -415 -282 -645c156 58 321 141 444 242c106 87 194 191 203 291c7 97 -77 172 -186 212z" />
    <glyph glyph-name="E" unicode="E" horiz-adv-x="957" 
d="M226 104c-6 -67 46 -85 105 -85c84 0 193 28 288 51c100 24 201 56 337 125c13 8 29 13 37 13c12 0 13 -9 -8 -34c-68 -82 -329 -195 -509 -242c-65 -15 -125 -30 -193 -30c-13 0 -26 1 -39 2c-81 7 -193 68 -184 171c10 112 55 223 106 332c-13 15 -22 34 -25 56
c-4 27 13 103 51 94c15 -3 30 -6 44 -8c52 102 105 198 143 271c37 68 62 172 108 194c36 17 89 -4 119 -36c18 -3 40 -6 68 -8c71 -6 142 -10 212 -10c38 0 76 1 111 4c68 5 120 6 205 25c32 7 41 -11 26 -26c-15 -13 -72 -42 -131 -60c-152 -45 -369 -84 -518 -84
c-49 -81 -123 -198 -174 -290c29 0 60 -1 93 -1c109 0 233 5 328 27c48 11 114 36 117 19c0 -5 -6 -14 -22 -26c-57 -43 -229 -103 -356 -128c-68 -14 -156 -25 -231 -30c-48 -96 -102 -214 -108 -286z" />
    <glyph glyph-name="F" unicode="F" horiz-adv-x="807" 
d="M202 376c-44 3 -82 42 -86 93c-4 26 22 95 58 85c29 -8 78 -17 140 -25c31 76 63 147 94 208c10 20 22 45 35 71c-18 0 -34 2 -51 4c-47 5 -87 51 -92 110c-1 31 28 110 67 97c43 -15 90 -24 138 -33c17 -3 35 -7 53 -9c21 18 42 29 64 29c20 0 61 -16 89 -37
c43 -2 85 -3 128 -3c105 0 210 6 305 22c91 16 151 38 155 15s-107 -71 -166 -87c-155 -42 -318 -83 -481 -101c-51 -78 -110 -185 -172 -302c37 -2 75 -3 111 -3c44 0 87 2 130 6c130 13 165 28 168 8c6 -21 -64 -53 -112 -66c-102 -28 -229 -62 -364 -77
c-12 -22 -23 -45 -34 -67c-50 -101 -139 -325 -153 -388c-10 -42 -11 -75 -39 -75c-18 0 -33 27 -37 79c0 15 -1 33 1 53c9 96 51 242 103 390c-18 1 -35 1 -52 3z" />
    <glyph glyph-name="G" unicode="G" horiz-adv-x="1153" 
d="M1294 643c7 3 13 4 19 4c14 0 18 -8 18 -16c-3 -32 -99 -74 -218 -113c3 -12 4 -24 3 -35c-6 -49 -62 -81 -148 -246c-66 -128 -179 -404 -187 -483c-2 -17 -7 -28 -21 -28c-28 0 -27 84 -23 131c11 117 55 285 111 430c-139 -155 -364 -355 -600 -355
c-135 0 -227 116 -215 249c31 335 479 847 850 847c152 0 188 -126 187 -177c-2 -18 -9 -33 -26 -33c-28 0 -25 81 -123 81c-286 0 -700 -488 -725 -760c-5 -54 12 -108 104 -108c192 0 479 243 614 400l18 34c-123 -32 -239 -54 -278 -54c-50 0 -82 40 -75 105
c3 39 23 77 62 77c68 0 135 -16 215 -16c97 0 251 9 438 66z" />
    <glyph glyph-name="H" unicode="H" horiz-adv-x="1104" 
d="M846 509c23 82 138 521 224 521c80 0 125 -60 122 -98c-3 -29 -45 -94 -56 -112c-36 -56 -89 -180 -141 -326c61 7 120 15 171 26c25 6 40 11 43 -7c7 -36 -100 -70 -135 -80c-36 -10 -72 -19 -110 -27c-48 -137 -92 -284 -120 -408c-15 -65 -20 -127 -39 -127
c-33 0 -48 77 -39 178c8 88 24 212 48 326c-135 -25 -273 -41 -413 -47c-131 -242 -289 -469 -399 -469c-16 0 -23 20 5 54c16 17 69 70 125 154c32 47 80 144 128 260c-45 2 -85 6 -111 14c-40 11 -56 37 -63 55c-6 18 -8 38 -6 57c3 35 17 67 37 79c27 16 64 -9 81 -15
c32 -12 75 -20 125 -26c24 65 47 132 66 195c22 77 34 155 56 237c9 32 23 83 70 83c64 0 135 -59 131 -113c-6 -49 -73 -223 -167 -415c48 -2 96 -3 143 -3c76 0 147 2 202 6c4 0 10 0 15 1c1 9 4 18 7 27z" />
    <glyph glyph-name="I" unicode="I" horiz-adv-x="933" 
d="M617 -15c-60 -3 -112 -8 -155 -13c-6 -15 -13 -27 -23 -28c-12 -1 -21 9 -24 21c-131 -19 -199 -44 -293 -64c-63 -14 -122 -40 -154 -36c-42 6 -79 66 -76 103c2 36 10 53 61 71c21 8 88 17 141 21c86 7 204 14 326 14c28 157 119 475 223 715c-40 -3 -81 -5 -119 -5
c-44 0 -83 2 -107 5c-47 5 -87 51 -91 110c-1 31 27 110 66 97c43 -15 90 -24 139 -33c24 -5 108 -21 181 -28c20 33 51 65 82 65c36 -1 82 -35 97 -75c31 -1 64 -1 96 -1c73 0 195 6 264 19c20 4 23 -2 24 -16c0 -12 -14 -23 -28 -31c-72 -37 -230 -68 -395 -88
c-22 -38 -44 -73 -61 -103c-73 -127 -231 -441 -298 -632c151 -3 298 -18 390 -54c15 -5 27 -14 23 -27c-2 -13 -23 -16 -34 -12c-22 7 -72 9 -124 9c-49 0 -102 -2 -131 -4z" />
    <glyph glyph-name="J" unicode="J" horiz-adv-x="881" 
d="M723 747c2 14 5 39 15 58c-32 -4 -63 -8 -94 -11c-35 -3 -68 -4 -98 -4c-34 0 -63 1 -90 4c-47 5 -87 51 -90 110c-2 31 26 110 65 97c44 -15 91 -24 139 -33c64 -13 131 -17 199 -17c30 0 59 1 90 2c162 6 355 26 500 68c21 6 44 5 45 -10c1 -11 -15 -20 -39 -33
c-132 -62 -301 -113 -466 -146c15 -14 22 -34 17 -60c-6 -39 -50 -157 -70 -210c-120 -309 -354 -669 -705 -669c-80 0 -159 43 -182 129c-3 16 -7 38 -7 60c-1 11 6 66 24 66c7 0 12 -12 12 -33c-3 -70 53 -130 132 -130c247 0 453 329 563 611c20 53 33 104 40 151z" />
    <glyph glyph-name="K" unicode="K" horiz-adv-x="870" 
d="M1133 982c-56 -134 -324 -346 -564 -501c-22 -155 156 -504 291 -556c29 -10 22 -38 -15 -37c-140 5 -409 305 -455 486c-39 -21 -74 -38 -105 -52c-83 -151 -176 -306 -258 -399c-30 -35 -63 -66 -81 -48c-23 21 19 70 34 93c43 72 103 203 165 349c-6 14 -9 32 -7 52
c2 24 11 50 31 73c12 13 25 23 40 30c65 160 125 319 143 418c11 53 19 85 39 101c14 13 34 19 54 19c35 0 103 -38 95 -107c-8 -66 -45 -149 -61 -189c-16 -37 -46 -102 -85 -181c222 90 515 271 704 458c14 15 24 25 34 25s13 -10 1 -34z" />
    <glyph glyph-name="L" unicode="L" horiz-adv-x="862" 
d="M440 1014c60 28 166 -46 140 -109c-25 -57 -180 -291 -247 -424c-79 -155 -150 -323 -159 -422c-5 -48 46 -63 92 -63c154 0 344 75 489 133c87 35 141 62 138 41c-1 -21 -87 -76 -116 -93c-157 -91 -396 -210 -565 -211c-124 0 -209 84 -196 220c20 212 221 548 316 734
c36 68 62 172 108 194z" />
    <glyph glyph-name="M" unicode="M" horiz-adv-x="1251" 
d="M689 937c12 -17 15 -39 10 -62c-8 -34 -13 -56 -23 -90c-27 -90 -53 -221 -62 -317c-2 -32 -5 -61 -2 -82c2 -27 8 -42 20 -42c86 0 378 419 485 569c35 49 79 106 129 105c30 0 108 -31 102 -94c-6 -56 -53 -147 -101 -272c-75 -189 -177 -489 -193 -670
c-2 -20 -2 -39 -2 -56c0 -20 0 -40 -19 -40c-58 0 -57 225 -50 301c21 228 61 428 102 558c-84 -126 -346 -492 -484 -533c-29 -9 -95 3 -122 66c-26 60 -32 145 -27 234c4 52 12 105 22 157c-134 -233 -357 -545 -468 -668c-23 -25 -77 -69 -96 -50c-17 20 5 50 81 146
c95 121 278 413 421 672c34 61 61 117 86 164c18 34 54 58 87 59c15 0 32 -1 51 -10c18 -8 42 -27 53 -45z" />
    <glyph glyph-name="N" unicode="N" horiz-adv-x="1070" 
d="M1099 954c6 30 10 71 31 85c21 13 37 -18 36 -67c-3 -76 -54 -290 -142 -518c-96 -259 -215 -499 -310 -499c-196 0 -262 542 -281 776c-90 -244 -303 -638 -404 -788c-19 -25 -54 -46 -73 -35c-20 15 -10 45 39 123c49 79 217 413 315 670c25 66 72 223 107 267
c21 26 69 29 97 22c31 -7 73 -15 76 -96c3 -128 56 -502 109 -652c13 -42 29 -104 68 -104c37 0 104 130 187 335c52 134 121 365 145 481z" />
    <glyph glyph-name="O" unicode="O" horiz-adv-x="1064" 
d="M666 1018c43 0 75 -19 93 -37c50 20 104 32 157 32c151 0 260 -118 243 -300c-34 -369 -460 -852 -824 -852c-182 0 -311 115 -290 344c22 239 170 446 276 573c71 87 245 240 345 240zM463 412c7 -5 11 -11 10 -17c-1 -10 -13 -18 -27 -18c-59 0 -75 82 -69 144
c4 47 18 93 39 132c-90 -124 -191 -304 -205 -469c-15 -158 67 -229 173 -229c310 0 652 446 680 765c9 81 -15 214 -168 214c-78 0 -161 -38 -232 -89c-102 -76 -215 -218 -225 -332c-3 -30 -11 -82 24 -101z" />
    <glyph glyph-name="P" unicode="P" horiz-adv-x="914" 
d="M202 745c-43 -4 -87 36 -88 90c-1 28 23 59 54 77c123 74 357 103 531 100c142 -2 418 -47 399 -251c-12 -128 -165 -261 -341 -358c-105 -58 -219 -87 -316 -110c-27 -6 -83 -16 -142 -21c-52 -115 -95 -234 -103 -323c-2 -28 4 -49 5 -70c0 -9 -9 -13 -22 -13
c-64 0 -74 100 -72 167c3 62 20 149 48 244c-14 5 -20 12 -19 22c1 14 8 24 29 25h4c45 150 110 313 170 420c8 17 21 41 36 63c-14 -5 -30 -10 -45 -16c-47 -17 -82 -42 -128 -46zM475 616c-29 -53 -86 -154 -140 -268c38 7 75 14 105 21c64 16 176 46 282 104
c127 71 244 162 252 248c9 112 -191 139 -272 141c-61 1 -114 -1 -174 -12c27 -19 52 -47 50 -71c-5 -51 -40 -51 -103 -163z" />
    <glyph glyph-name="Q" unicode="Q" horiz-adv-x="1070" 
d="M913 -286c-55 0 -207 156 -279 264c-100 -62 -202 -101 -296 -104c-216 -8 -319 133 -307 327c9 160 84 316 162 434c118 180 327 378 458 383c36 1 65 -10 83 -24c45 15 89 25 130 25c248 -2 286 -176 279 -316c-13 -215 -192 -480 -406 -651c31 -109 95 -220 168 -290
c19 -19 28 -27 28 -36c-1 -8 -10 -12 -20 -12zM872 948c-61 -2 -120 -20 -174 -44c-78 -40 -155 -115 -215 -174c-170 -172 -268 -405 -279 -570c-4 -81 35 -200 171 -196c71 3 145 31 221 76c-33 56 -73 124 -67 179c5 62 77 66 108 63c89 -9 77 -51 81 -122
c1 -10 2 -19 3 -29c173 152 319 380 337 574c10 115 -37 248 -186 243z" />
    <glyph glyph-name="R" unicode="R" horiz-adv-x="1003" 
d="M219 331c-33 0 -66 46 -27 66c6 3 31 5 65 9c60 158 130 317 185 417c-103 -34 -159 -72 -209 -81c-12 -2 -86 17 -78 94c6 76 119 109 226 136c61 16 115 26 183 31c30 30 60 51 89 50c22 -1 63 -21 85 -47c218 -7 412 -81 399 -227c-17 -190 -324 -329 -507 -384
c-13 -4 -30 -9 -48 -13c21 -64 79 -150 142 -221c83 -95 166 -173 233 -200c19 -7 30 -14 28 -24c-2 -9 -13 -21 -39 -20c-70 4 -231 87 -320 157c-49 39 -212 184 -249 272l-20 -3c-82 -165 -144 -315 -175 -397c-23 -60 -25 -86 -55 -84c-27 0 -25 50 -21 78
c9 62 58 219 122 391h-9zM653 842c-94 -122 -182 -274 -258 -420c68 9 142 22 205 42c169 52 371 151 380 255c8 85 -123 133 -227 143c-16 1 -31 2 -48 2c-12 0 -23 -1 -35 -1c-6 -6 -10 -14 -17 -21z" />
    <glyph glyph-name="S" unicode="S" horiz-adv-x="900" 
d="M802 1016c80 0 163 -50 155 -144c-2 -21 -10 -32 -25 -32c-23 0 -13 59 -105 59c-132 0 -398 -153 -409 -261c-9 -109 429 -177 412 -353c-24 -264 -722 -422 -907 -422c-40 0 -71 13 -61 38c13 35 58 14 199 42c185 39 565 168 577 286c6 76 -145 139 -210 174
c-109 52 -219 114 -209 223c18 186 360 390 583 390z" />
    <glyph glyph-name="T" unicode="T" horiz-adv-x="648" 
d="M465 801c-39 -3 -75 -4 -112 -6c-25 -1 -51 -2 -76 -2c-28 0 -55 1 -80 4c-46 5 -86 51 -90 110c-1 31 26 110 65 97c44 -15 91 -24 139 -33c24 -5 114 -17 222 -20c20 28 56 52 96 45c17 -3 50 -24 75 -48c202 1 367 19 531 45c21 3 38 1 37 -18c-3 -17 -39 -31 -51 -35
c-102 -35 -310 -83 -531 -114c-47 -74 -94 -160 -118 -211c-114 -246 -227 -525 -287 -716c-14 -41 -29 -45 -41 -47c-28 -4 -28 31 -25 59c13 144 126 575 183 720c22 58 42 116 63 170z" />
    <glyph glyph-name="U" unicode="U" horiz-adv-x="1081" 
d="M1029 899c21 39 60 115 108 115c43 0 104 -47 106 -79c4 -40 -31 -92 -42 -110c-25 -40 -67 -109 -102 -181c-86 -176 -225 -492 -242 -686c-2 -18 -2 -35 -2 -51c1 -19 -2 -31 -14 -35c-41 -14 -59 68 -59 97c-2 38 0 80 4 124c9 93 29 198 56 303
c-138 -228 -329 -445 -526 -475c-16 -2 -32 -3 -45 -3c-143 0 -213 113 -197 298c4 33 9 68 18 105c28 118 64 239 128 380c43 97 107 209 149 249c17 17 36 24 54 24c37 0 65 -20 81 -47c8 -16 10 -28 9 -40c-1 -11 -5 -22 -10 -33c-25 -47 -52 -87 -78 -136
c-68 -129 -126 -268 -160 -419c-7 -28 -11 -54 -13 -79c-11 -112 23 -184 95 -184c10 0 20 1 31 4c210 49 437 406 578 702c23 57 49 110 73 157z" />
    <glyph glyph-name="V" unicode="V" horiz-adv-x="865" 
d="M257 -102c-168 0 -177 211 -161 378c4 48 11 93 16 128c19 142 50 295 59 394c3 26 3 48 2 66c0 7 -3 20 -2 27c8 37 38 68 73 68c66 0 109 -63 110 -113c0 -63 -58 -335 -76 -534c-10 -102 -17 -259 50 -259c137 0 589 637 713 932c9 23 24 37 36 37c9 0 15 -11 13 -35
c-1 -14 -5 -31 -13 -54c-88 -245 -576 -1035 -820 -1035z" />
    <glyph glyph-name="W" unicode="W" horiz-adv-x="1367" 
d="M845 747c7 2 14 4 21 4c56 0 102 -58 99 -95c-5 -52 -38 -60 -84 -182c-16 -41 -29 -106 -36 -172c-10 -115 4 -234 81 -234c202 0 492 617 514 856c2 23 6 55 25 64c29 13 43 -29 37 -98c-26 -276 -355 -964 -644 -964c-184 0 -194 243 -179 410c2 12 3 28 6 47
c-121 -210 -309 -470 -459 -470c-112 0 -163 119 -154 265c1 10 1 19 2 29c17 201 122 461 253 652c24 36 70 102 131 102c46 -2 99 -56 95 -106c-2 -44 -68 -88 -118 -170c-111 -176 -169 -351 -184 -513c-1 -11 -1 -23 -2 -34c-3 -52 17 -87 43 -87c130 0 408 463 453 564
c25 63 57 116 100 132z" />
    <glyph glyph-name="X" unicode="X" horiz-adv-x="886" 
d="M560 886c-2 -32 -12 -110 -4 -196c2 -26 3 -52 6 -79c125 105 249 207 367 280c49 29 133 85 188 85c23 0 37 -25 34 -52c-1 -19 -12 -39 -32 -50c-109 -61 -300 -184 -546 -371c16 -136 43 -278 107 -403c40 -79 79 -133 121 -180c12 -12 20 -27 1 -35
c-51 -25 -173 86 -241 197c-59 93 -105 195 -141 301c-174 -149 -392 -392 -491 -497c-15 -14 -26 -21 -34 -22c-11 -2 -18 7 -16 25c10 111 301 399 515 581c-18 63 -32 126 -43 190c-7 49 -25 140 -18 209c1 22 4 40 13 57c15 26 48 40 68 42c60 6 149 -26 146 -82z" />
    <glyph glyph-name="Y" unicode="Y" horiz-adv-x="895" 
d="M34 482c16 173 106 335 176 433c30 44 62 58 92 58c14 0 26 -3 41 -7c26 -9 61 -26 59 -66c-1 -33 -52 -77 -106 -190c-24 -48 -76 -142 -83 -219c-5 -59 16 -105 64 -105c150 0 374 237 459 335c79 91 146 225 195 258c7 4 15 7 24 7c70 0 128 -43 124 -88
c-3 -40 -36 -69 -81 -138c-38 -60 -99 -146 -154 -250c-139 -256 -275 -549 -281 -677c0 -23 -12 -35 -24 -35c-30 0 -35 32 -38 41c-5 18 -5 47 -1 82c15 174 116 519 198 659c-124 -124 -310 -297 -500 -297c-104 0 -175 80 -164 199z" />
    <glyph glyph-name="Z" unicode="Z" horiz-adv-x="967" 
d="M-77 -32c5 63 143 144 215 193c138 95 317 219 471 335c75 59 257 216 319 304c7 10 14 38 -24 39c-78 3 -150 -17 -225 -37c-87 -24 -152 -48 -206 -71c-49 -22 -68 -54 -112 -72c-37 -15 -135 47 -122 124c9 48 65 71 108 90c65 28 166 60 270 85c89 21 182 37 273 37
c11 0 20 -1 31 -1c92 -4 169 -90 168 -163c0 -15 -6 -35 -19 -57c-31 -52 -268 -232 -295 -254c-195 -156 -497 -356 -610 -428c108 20 267 26 403 26c112 0 209 -4 250 -8c64 -6 86 -15 85 -29c-2 -17 -34 -27 -68 -31c-204 -23 -416 -69 -619 -120
c-57 -13 -112 -39 -169 -59c-26 -10 -36 -14 -49 -14c-41 0 -78 79 -75 111z" />
    <glyph glyph-name="zero" unicode="0" horiz-adv-x="787" 
d="M512 998c41 0 90 -14 107 -37c36 9 74 15 108 16c120 0 231 -75 225 -229c-15 -261 -465 -771 -769 -777c-140 0 -212 93 -204 257c14 231 183 478 290 595c46 47 173 175 243 175zM709 909c-103 0 -207 -77 -291 -151c-20 -23 -39 -45 -56 -66
c-108 -133 -204 -307 -213 -453c-2 -63 18 -144 116 -144c243 0 577 424 590 656c4 80 -27 158 -146 158z" />
    <glyph glyph-name="one" unicode="1" horiz-adv-x="516" 
d="M465 736c-72 -80 -295 -255 -405 -302c-11 -5 -22 -8 -29 -8c-25 0 -26 25 11 53c133 98 370 317 548 511c13 16 32 25 67 25c48 0 123 -45 88 -95c-154 -219 -441 -722 -494 -961c-6 -18 -16 -50 -40 -50c-28 0 -25 60 -20 107c14 159 176 583 274 720z" />
    <glyph glyph-name="two" unicode="2" horiz-adv-x="736" 
d="M698 836c1 14 -4 21 -16 21c-45 0 -179 -51 -262 -144c-36 -39 -54 -87 -97 -87c-55 0 -113 52 -109 95c6 73 65 110 140 156c120 71 279 121 360 121c76 0 144 -29 137 -113c-8 -86 -135 -212 -191 -275c-128 -144 -471 -420 -563 -493c15 -4 40 -6 73 -6
c139 1 392 36 488 69c19 7 38 12 52 12c10 0 15 -2 16 -8c-10 -53 -487 -257 -658 -257c-71 0 -115 51 -111 99c7 81 164 202 349 365c220 194 387 394 392 445z" />
    <glyph glyph-name="three" unicode="3" horiz-adv-x="731" 
d="M629 814c2 29 -42 31 -68 31c-81 -2 -183 -60 -260 -134c-34 -32 -55 -30 -60 -30c-39 0 -81 58 -79 83c5 53 74 109 158 151c102 53 207 72 284 74c76 0 211 -19 201 -123c-13 -112 -218 -213 -379 -311c57 -12 235 -72 262 -161c4 -18 5 -37 3 -52
c-10 -109 -183 -220 -355 -292c-122 -50 -296 -109 -431 -101c-29 2 -37 14 -36 25c2 21 24 22 47 25c231 35 608 211 616 300c3 43 -41 66 -78 83c-63 29 -171 52 -205 78c-22 16 -23 47 -16 66c16 42 68 43 183 109c71 41 209 120 213 179z" />
    <glyph glyph-name="four" unicode="4" horiz-adv-x="861" 
d="M869 517c26 13 38 -34 -15 -62c-44 -24 -108 -48 -180 -71c-85 -126 -169 -262 -206 -392c-6 -18 -17 -83 -38 -83c-36 0 -44 29 -37 92c11 94 51 217 99 334c-138 -32 -279 -55 -367 -55c-23 0 -42 2 -58 5c-42 9 -85 34 -66 110c33 127 433 532 554 590c14 6 26 8 38 8
c25 0 81 -46 78 -85c-7 -63 -64 -50 -141 -118c-121 -106 -340 -349 -333 -395c2 -12 7 -21 58 -21c61 0 165 18 272 43c52 114 110 215 155 269c29 36 41 37 52 37c44 -2 113 -75 80 -128c-25 -40 -53 -82 -82 -125c57 17 107 34 137 47z" />
    <glyph glyph-name="five" unicode="5" horiz-adv-x="761" 
d="M885 962c32 4 48 4 50 -8c6 -32 -99 -66 -138 -77c-118 -35 -337 -88 -435 -89c-44 -61 -80 -126 -80 -154c69 -14 451 -60 434 -243c-10 -116 -179 -244 -364 -335c-165 -81 -341 -114 -408 -114c-52 0 -70 13 -69 26c0 9 23 13 40 17c127 28 258 66 390 138
c137 73 242 149 250 222c8 95 -319 118 -364 130c-31 8 -49 34 -46 71c7 91 98 217 152 284c-4 14 -4 30 -2 47c7 46 42 92 62 99c10 4 22 6 39 6c52 0 134 -17 230 -26c32 -2 68 -4 106 -4c53 0 107 3 153 10z" />
    <glyph glyph-name="six" unicode="6" horiz-adv-x="806" 
d="M791 923c-8 -88 -105 -57 -292 -241c-38 -38 -85 -85 -135 -136c95 37 186 61 256 61c146 0 189 -83 183 -159c-18 -191 -357 -490 -657 -499c-115 0 -224 72 -212 197c1 6 2 13 3 20c-11 7 -16 17 -16 28c3 34 27 72 64 112c83 168 254 345 389 468
c109 99 284 229 336 229c60 0 82 -38 81 -80zM611 529c-171 0 -315 -99 -434 -207c-46 -67 -80 -131 -87 -184c-5 -54 12 -104 85 -104c238 0 519 285 531 407c5 55 -31 88 -95 88z" />
    <glyph glyph-name="seven" unicode="7" horiz-adv-x="769" 
d="M198 933c18 0 72 -3 96 -3c173 0 434 81 539 81c39 0 66 -23 61 -63c-6 -60 -65 -105 -115 -157c-141 -152 -203 -222 -264 -300l-3 -5c76 3 158 11 233 23c61 11 97 20 95 1c-2 -20 -57 -43 -79 -52c-55 -23 -211 -71 -345 -100c-80 -114 -155 -241 -213 -377
c-9 -23 -26 -46 -39 -46s-19 19 -10 55c20 86 81 214 158 349c-26 -4 -49 -6 -68 -6c-13 0 -25 1 -34 3c-28 8 -53 47 -60 71c-3 12 -5 25 -4 38c3 31 21 60 57 60c33 1 66 -10 101 -15c26 -3 59 -5 96 -6c85 134 178 264 258 358c-92 -30 -307 -87 -409 -87
c-51 0 -103 22 -109 82c-6 46 29 96 58 96zM689 853l-10 -4c2 -1 5 -1 10 4z" />
    <glyph glyph-name="eight" unicode="8" horiz-adv-x="774" 
d="M775 940c2 -15 2 -26 2 -35c-3 -26 -16 -28 -25 -28c-37 0 -28 79 -103 79c-81 0 -156 -70 -162 -141c-3 -37 24 -85 63 -140c78 47 174 112 211 152c21 23 32 35 41 35c15 0 19 -12 13 -29c-18 -54 -90 -123 -228 -210c65 -93 136 -200 126 -309
c-19 -210 -279 -364 -506 -364c-162 0 -265 106 -251 246c16 176 239 296 439 397c-41 62 -73 126 -65 201c12 133 177 239 308 239c64 0 118 -27 137 -93zM547 277c8 95 -50 176 -109 256c-163 -104 -310 -249 -320 -365c-6 -63 19 -141 136 -141c150 0 280 117 293 250z
" />
    <glyph glyph-name="nine" unicode="9" horiz-adv-x="774" 
d="M861 879c0 -20 -3 -39 -7 -57c12 -5 23 -13 33 -23c27 -24 32 -46 31 -67c-6 -48 -101 -134 -142 -189c-125 -173 -255 -350 -331 -544c-7 -23 -21 -66 -42 -66c-20 0 -21 24 -20 36c15 161 136 417 242 597l7 14c-123 -92 -299 -179 -448 -179c-84 0 -133 72 -126 147
c17 188 397 461 624 461c77 0 180 -42 179 -130zM251 483c130 0 310 103 419 205c28 36 39 78 40 105c0 50 -17 77 -76 77c-114 0 -418 -228 -420 -349c0 -25 15 -38 37 -38z" />
    <glyph glyph-name="question" unicode="?" horiz-adv-x="895" 
d="M850 822c13 33 -52 60 -90 66c-15 2 -30 3 -47 3c-113 0 -260 -52 -332 -138c-22 -27 -44 -49 -83 -42c-34 5 -62 88 -47 129c41 127 295 206 486 206c31 0 60 -2 85 -6c88 -14 188 -59 180 -151c-1 -10 -3 -21 -8 -33c-41 -126 -324 -279 -439 -362
c-53 -41 -85 -63 -125 -110c-37 -45 -47 -77 -67 -73c-11 1 -21 24 -15 43c23 65 110 143 153 181c95 84 322 198 349 287zM375 116c-6 -60 -79 -119 -119 -119c-44 0 -73 35 -69 83c6 58 69 125 122 125c40 0 70 -41 66 -89z" />
    <glyph glyph-name="exclam" unicode="!" horiz-adv-x="537" 
d="M280 361c-10 -26 -21 -33 -31 -33c-13 0 -14 27 -13 49c11 113 115 462 190 580c13 19 39 50 75 50c49 0 97 -32 90 -85c-6 -45 -72 -110 -122 -192c-49 -86 -133 -222 -189 -369zM260 100c-5 -60 -78 -120 -118 -120c-44 0 -75 35 -71 84c6 58 71 126 123 126
c41 0 72 -41 66 -90z" />
    <glyph glyph-name="numbersign" unicode="#" horiz-adv-x="1207" 
d="M350 473c-51 1 -88 53 -97 96c-4 29 20 87 60 77c36 -9 112 -19 207 -27c1 6 3 12 5 18c17 49 51 156 81 221c15 31 42 74 85 74c34 0 82 -44 79 -85c-3 -30 -52 -108 -61 -128c-15 -29 -34 -66 -55 -108c55 -2 111 -3 165 -3c21 63 41 118 58 158c19 51 32 105 65 150
c20 30 47 38 71 38c46 0 97 -50 81 -96c-26 -73 -83 -155 -115 -228l-8 -14c141 12 180 28 184 7c4 -22 -69 -49 -124 -65c-29 -8 -62 -16 -98 -23c-23 -48 -45 -95 -66 -143c37 2 72 4 103 7c143 13 182 28 186 7s-69 -50 -124 -64c-55 -15 -127 -31 -208 -47
c-21 -52 -43 -104 -62 -157c-25 -68 -53 -163 -62 -208c-2 -13 -15 -21 -28 -21c-17 0 -19 38 -17 67c7 68 32 179 64 299c-74 -12 -152 -23 -229 -30c-25 -66 -46 -131 -59 -190c-4 -18 -20 -39 -35 -39c-30 0 -23 37 -20 69c2 23 15 82 34 156c-32 -1 -61 -2 -90 -1
c-48 1 -87 55 -95 98c-4 27 21 85 61 75c29 -8 89 -14 165 -18l23 79c-24 -1 -50 -2 -74 -2c-17 0 -33 1 -50 1zM592 482c-14 -29 -28 -60 -42 -92c38 -1 76 -2 116 -2c28 0 57 1 85 1l36 118c-62 -10 -129 -19 -195 -25z" />
    <glyph glyph-name="dollar" unicode="$" horiz-adv-x="985" 
d="M310 -157c0 19 7 49 17 86c-122 -30 -235 -46 -298 -46c-39 0 -70 13 -59 38c13 35 58 14 198 42c53 11 118 29 184 49c33 106 81 244 135 387c-3 1 -5 2 -7 4c-108 52 -218 114 -209 223c15 157 288 328 478 376c16 29 29 52 41 70c15 21 39 34 66 38
c35 5 74 -32 54 -63c-9 -12 -16 -25 -24 -38c57 -18 96 -72 90 -147c-2 -21 -10 -33 -25 -33c-26 0 -14 70 -77 70c-17 0 -35 -3 -55 -7c-64 -117 -128 -252 -190 -391c114 -57 242 -122 232 -219c-14 -157 -240 -269 -461 -333l-29 -79c-22 -59 -34 -64 -44 -66
c-14 -2 -20 13 -17 39zM690 229c4 50 -60 94 -123 129c-47 -110 -90 -217 -130 -315c131 50 246 117 253 186zM458 638c-3 -33 35 -63 87 -93c41 103 84 204 123 290c-106 -54 -204 -134 -210 -197z" />
    <glyph glyph-name="percent" unicode="%" horiz-adv-x="1215" 
d="M178 662c9 128 134 307 267 307h6c22 7 45 11 67 11c87 0 158 -58 150 -148c-13 -142 -231 -320 -361 -320c-70 0 -133 66 -129 150zM635 198c9 128 135 307 268 307h5c21 7 45 11 68 11c87 0 158 -58 150 -148c-14 -142 -231 -320 -362 -320c-69 0 -133 66 -129 150z
M223 -3c50 151 514 802 681 950c19 18 45 21 72 21c60 0 99 -83 73 -109c-255 -242 -609 -620 -761 -853c-37 -53 -51 -55 -59 -53c-13 2 -15 17 -6 44zM578 846c1 22 -4 43 -16 56c-90 1 -219 -178 -226 -259c-3 -28 11 -44 23 -44c44 0 206 121 219 247zM1034 382
c2 22 -2 43 -14 56c-92 1 -220 -178 -227 -259c-2 -28 10 -44 23 -44c44 0 207 121 218 247z" />
    <glyph glyph-name="ampersand" unicode="&#x26;" horiz-adv-x="1064" 
d="M993 872c4 -39 -25 -89 -44 -89c-35 0 34 91 -86 91c-87 0 -339 -118 -349 -228c-4 -29 8 -61 37 -81c96 43 185 70 249 70c46 0 55 -47 52 -80c-5 -50 -89 -66 -194 -66h-1c-113 -52 -427 -271 -442 -430c-3 -32 26 -64 85 -64c43 0 88 5 130 12c13 32 37 61 75 65
c32 2 54 -10 63 -28c169 58 310 154 377 205c12 8 21 9 28 9c11 0 12 -20 -2 -35c-108 -121 -272 -214 -431 -269c-55 -96 -108 -205 -131 -274c-7 -21 -12 -29 -28 -29c-18 0 -18 26 -12 80c5 55 18 125 31 183c-58 -12 -112 -19 -160 -19c-137 0 -200 88 -191 194
c15 152 217 325 418 435c-50 29 -101 80 -95 148c13 146 247 288 394 319l4 11c17 43 28 90 55 128c19 26 41 33 62 33c39 0 82 -43 70 -83c-12 -31 -30 -63 -47 -96c62 -21 78 -65 83 -112z" />
    <glyph glyph-name="quotesingle" unicode="'" horiz-adv-x="419" 
d="M307 861c1 14 -15 22 -13 50c4 44 92 110 127 110s59 -27 56 -65c-3 -31 -21 -67 -31 -93c-21 -58 -135 -254 -193 -286c-7 -4 -16 -7 -21 -7c-9 0 -14 5 -13 16c0 5 4 12 8 21c32 67 71 165 80 254z" />
    <glyph glyph-name="ring" unicode="&#x2da;" horiz-adv-x="484" 
d="M123 749c5 94 101 223 204 223c1 0 2 -1 3 -1c18 6 34 9 51 9c66 0 121 -43 116 -108c-10 -104 -177 -232 -275 -232c-54 0 -102 49 -99 109zM427 883c1 17 -3 31 -13 41c-70 -3 -162 -138 -167 -197c-1 -14 4 -23 14 -23c33 0 158 87 166 179z" />
    <glyph glyph-name="grave" unicode="`" horiz-adv-x="485" 
d="M295 959c38 -93 162 -220 223 -239c11 -4 11 -15 10 -22c-6 -5 -10 -8 -14 -8c-28 -4 -75 6 -108 20c-79 30 -208 100 -246 156c-13 20 1 49 28 81c21 22 61 41 84 32c9 -3 19 -9 23 -20z" />
    <glyph glyph-name="circumflex" unicode="&#x2c6;" horiz-adv-x="604" 
d="M562 701c-54 72 -159 147 -210 147c-66 -19 -142 -54 -189 -89c-33 -23 -35 4 -27 18c31 46 217 211 290 211c81 0 167 -195 171 -273c1 -16 -17 -38 -35 -14z" />
    <glyph glyph-name="tilde" unicode="&#x2dc;" horiz-adv-x="554" 
d="M134 762c-18 -24 -31 -36 -37 -36c-10 0 -12 7 -12 16c4 40 52 110 92 147c36 34 78 57 114 57c43 0 63 -36 88 -67c21 -26 43 -49 67 -49c32 0 56 3 130 89c14 17 23 23 31 23c14 0 6 -26 2 -33c-28 -57 -132 -199 -210 -199c-36 0 -62 23 -86 47c-28 28 -52 59 -84 59
c-27 0 -73 -26 -95 -54z" />
    <glyph glyph-name="dieresis" unicode="&#xa8;" horiz-adv-x="496" 
d="M300 867c-4 -55 -80 -110 -124 -110s-76 32 -71 79c4 52 71 114 127 114c41 0 72 -37 68 -83zM528 867c-5 -55 -80 -110 -124 -110s-76 32 -72 79c5 52 72 114 127 114c41 0 73 -37 69 -83z" />
    <glyph glyph-name="acute" unicode="&#xb4;" horiz-adv-x="606" 
d="M508 962c9 8 22 11 32 12c25 1 54 -27 64 -53c6 -19 9 -36 8 -50c-2 -14 -8 -26 -18 -33c-61 -42 -213 -74 -299 -81c-9 -1 -20 -2 -30 -2c-14 0 -93 4 -91 24c0 7 7 17 19 18c65 1 239 87 315 165z" />
    <glyph glyph-name="cedilla" unicode="&#xb8;" horiz-adv-x="388" 
d="M200 -144c-12 -104 -184 -220 -317 -243c-37 -6 -59 2 -58 18c2 22 41 28 72 37c79 23 163 104 178 163c3 15 6 27 7 38c2 22 -4 38 -29 63c-18 16 26 54 60 48c68 -14 92 -76 87 -124z" />
    <glyph glyph-name="quotedbl" unicode="&#x22;" horiz-adv-x="577" 
d="M460 911c-2 -29 -42 -73 -66 -112c-32 -53 -106 -165 -131 -260c-4 -12 -13 -19 -21 -19c-5 0 -9 1 -12 4c-5 5 -5 26 -3 52c8 89 59 409 161 409c33 0 76 -28 72 -74zM649 924c-2 -30 -42 -74 -66 -113c-32 -52 -106 -164 -131 -259c-4 -13 -13 -20 -21 -20
c-5 0 -9 1 -12 4c-5 6 -5 27 -3 53c8 89 59 408 161 408c33 0 76 -27 72 -73z" />
    <glyph glyph-name="parenleft" unicode="(" horiz-adv-x="588" 
d="M118 96c37 400 382 820 697 960c10 4 18 6 24 6c10 0 14 -4 13 -11c-1 -10 -10 -19 -21 -27c-265 -197 -524 -621 -554 -943c-8 -89 -17 -185 42 -228c7 -5 8 -11 7 -15c-1 -8 -13 -17 -27 -17c-109 0 -194 134 -181 275z" />
    <glyph glyph-name="parenright" unicode=")" horiz-adv-x="631" 
d="M629 787c-37 -400 -381 -820 -696 -959c-10 -5 -18 -7 -24 -7c-10 0 -14 4 -13 12c2 9 11 19 21 27c264 196 524 621 554 943c7 88 16 185 -42 228c-8 5 -8 10 -8 15c2 8 13 16 27 16c109 0 195 -133 181 -275z" />
    <glyph glyph-name="asterisk" unicode="*" horiz-adv-x="875" 
d="M604 428c-36 0 -114 109 -176 231c-56 -63 -105 -120 -128 -150c-9 -12 -21 -18 -28 -17c-10 1 -17 10 -15 26c1 8 3 18 9 29c16 32 45 79 79 130c-48 -6 -87 -10 -114 -12c-60 -3 -91 19 -100 63c-7 38 14 85 62 85c27 0 41 -14 174 -19c-27 70 -40 132 -32 164
c14 45 64 67 94 67c13 0 46 -4 46 -52c-1 -27 3 -64 9 -105l2 2c58 70 129 151 180 151c28 0 65 -26 60 -82c-4 -25 -50 -47 -90 -79c-24 -19 -49 -40 -74 -64c92 5 178 18 282 41c24 6 42 -1 47 -10c1 -5 -1 -14 -12 -20c-68 -40 -218 -76 -358 -102
c25 -93 59 -182 92 -230c6 -10 12 -16 11 -25c-1 -12 -8 -22 -20 -22z" />
    <glyph glyph-name="plus" unicode="+" horiz-adv-x="897" 
d="M524 640c13 12 32 19 56 20c45 1 94 -33 90 -84c-3 -31 -24 -51 -40 -81c-13 -21 -27 -46 -45 -73c71 4 151 13 227 31c20 5 40 11 43 -3c3 -13 -14 -28 -31 -37c-74 -30 -187 -62 -296 -86c-8 -18 -19 -35 -27 -54c-76 -163 -117 -269 -138 -269c-14 0 -17 21 -14 43
c5 67 25 157 51 256c-51 -8 -98 -13 -132 -13c-12 0 -21 1 -31 2c-41 4 -55 43 -51 87c4 31 27 54 72 54c50 0 127 -9 176 -11l13 43c13 43 50 149 77 175z" />
    <glyph glyph-name="comma" unicode="," horiz-adv-x="499" 
d="M59 -41c17 30 32 64 40 100c5 22 2 42 7 60c10 40 49 74 94 67c50 -8 70 -49 59 -97c-32 -129 -229 -321 -368 -376c-7 -3 -10 -4 -15 -4c-8 2 -12 7 -9 17c1 7 5 18 19 28c79 70 133 130 173 205z" />
    <glyph glyph-name="hyphen" unicode="-" horiz-adv-x="875" 
d="M258 434c37 0 159 -25 233 -25c131 0 237 9 290 30c18 7 26 4 31 -6c3 -7 1 -13 -5 -18c-24 -24 -84 -51 -132 -67c-93 -29 -259 -65 -364 -64c-54 0 -96 16 -110 74c-10 41 12 76 57 76z" />
    <glyph glyph-name="period" unicode="." horiz-adv-x="439" 
d="M259 127c-6 -59 -88 -120 -136 -120s-83 36 -78 86c6 58 79 125 139 125c45 0 80 -40 75 -91z" />
    <glyph glyph-name="slash" unicode="/" horiz-adv-x="533" 
d="M55 -34c30 156 411 853 560 1020c16 19 42 29 69 29c34 0 68 -42 44 -71c-224 -269 -487 -712 -610 -960c-30 -57 -42 -60 -52 -60c-14 0 -18 16 -11 42z" />
    <glyph glyph-name="colon" unicode=":" horiz-adv-x="539" 
d="M319 165c-5 -59 -73 -115 -122 -115c-47 0 -80 35 -76 83c5 56 76 120 137 120c43 0 65 -40 61 -88zM450 524c-5 -59 -73 -115 -120 -115c-49 0 -81 35 -76 83c4 56 76 120 136 120c44 0 66 -40 60 -88z" />
    <glyph glyph-name="semicolon" unicode=";" horiz-adv-x="520" 
d="M395 400c-4 -55 -68 -107 -113 -107c-44 0 -74 32 -70 77c4 52 71 112 126 112c41 0 61 -38 57 -82zM132 34c2 8 7 17 9 25c5 22 2 42 7 60c9 40 48 74 93 67c51 -8 71 -49 59 -97c-31 -129 -229 -321 -367 -376c-8 -3 -11 -4 -15 -4c-8 2 -13 7 -9 17c1 7 5 18 19 28
c101 92 166 166 204 280z" />
    <glyph glyph-name="less" unicode="&#x3c;" horiz-adv-x="790" 
d="M157 240c11 113 398 448 504 448c33 0 93 -45 88 -96c-1 -17 -21 -27 -44 -40c-138 -77 -383 -273 -389 -336c-2 -25 99 -87 167 -104c22 -5 41 -14 40 -26c-1 -13 -35 -20 -52 -20c-74 0 -321 87 -314 174z" />
    <glyph glyph-name="at" unicode="@" horiz-adv-x="1349" 
d="M1069 507c5 10 -118 -270 -128 -362c-1 -18 -4 -45 17 -45c39 0 277 202 310 553c12 142 -75 283 -221 283c-355 0 -840 -570 -877 -973c-12 -133 98 -246 243 -246c187 0 325 64 467 139c81 42 160 108 257 191c12 11 21 15 28 15c8 0 11 -8 10 -18
c-3 -34 -138 -172 -275 -250c-146 -83 -312 -154 -494 -154c-199 5 -387 152 -365 394c40 433 558 1021 994 1021c186 0 328 -210 309 -425c-19 -214 -263 -604 -423 -604c-89 0 -109 83 -99 184c1 13 2 27 4 40c-94 -130 -211 -242 -280 -252c-52 -9 -148 26 -136 151
c16 173 250 525 408 525c69 0 111 -31 135 -73c12 9 25 14 38 14c22 0 91 -31 86 -78c0 -8 -2 -19 -8 -30zM579 104c85 0 268 287 307 371c6 16 12 31 12 39c3 29 -4 44 -25 44c-83 0 -304 -318 -315 -434c-1 -16 8 -20 21 -20z" />
    <glyph glyph-name="bracketleft" unicode="[" horiz-adv-x="724" 
d="M552 2c-120 -61 -386 -151 -468 -151c-67 0 -90 70 -85 133c10 119 293 731 430 952l-2 8c-9 30 11 80 48 87c24 5 75 -3 117 -1c71 2 166 5 213 9c62 6 97 17 101 -1c6 -20 -70 -51 -104 -62c-40 -14 -149 -54 -234 -74c-84 -115 -417 -749 -427 -864
c-5 -47 45 -45 67 -45c72 0 227 12 335 48c38 12 50 -18 9 -39z" />
    <glyph glyph-name="underscore" unicode="_" horiz-adv-x="982" 
d="M143 151c49 0 97 -5 155 -7c29 -1 63 -2 102 -2c123 0 288 7 412 31c6 1 11 2 15 2c8 0 13 -2 12 -6c-8 -91 -580 -161 -655 -161c-62 0 -101 15 -95 88c2 28 19 55 54 55z" />
    <glyph glyph-name="Euro" unicode="&#x20ac;" horiz-adv-x="1153" 
d="M1169 838c-2 -20 -9 -29 -20 -29c-50 0 -27 78 -139 78c-40 0 -91 -24 -129 -47c-99 -59 -225 -184 -325 -328c43 -3 88 -4 133 -4c59 0 117 2 173 8c129 13 165 28 168 8c5 -21 -64 -49 -113 -62c-120 -33 -275 -72 -441 -84l-18 -36c38 -2 77 -3 116 -3
c61 0 122 3 180 8c129 13 164 28 169 8c4 -21 -66 -49 -114 -62c-110 -31 -249 -66 -399 -80c-6 -27 -11 -54 -13 -80c-9 -92 34 -154 126 -154c185 0 401 157 483 233c7 6 14 8 19 7c18 -2 6 -30 -3 -41c-35 -42 -283 -305 -564 -305c-127 0 -255 101 -238 279
c1 18 4 36 9 55c-44 5 -76 53 -81 93c-5 26 18 82 54 73c18 -5 43 -10 76 -15c5 13 10 25 17 38c-21 19 -36 47 -39 73c-4 26 18 82 54 73c15 -4 34 -8 59 -12c159 252 413 483 614 483c121 -1 193 -100 186 -175z" />
    <glyph glyph-name="trademark" unicode="&#x2122;" horiz-adv-x="811" 
d="M303 866c-27 0 -116 -4 -122 38c-4 25 36 93 74 93c11 0 17 -4 25 -6c33 -10 70 -17 106 -21c16 8 33 14 43 14c17 0 39 -5 52 -21h36c94 0 186 10 259 24c29 5 32 -8 18 -20c-42 -35 -136 -58 -192 -69c25 -34 14 -141 49 -141c43 30 106 113 161 181c15 22 41 32 63 32
c36 0 67 -28 44 -76c-62 -126 -119 -213 -163 -352c-7 -26 -17 -39 -27 -39c-22 0 -22 59 -17 120c5 60 17 121 19 132c-43 -56 -117 -113 -137 -113c-21 0 -54 47 -61 99c-50 -68 -82 -139 -103 -206c-6 -21 -19 -56 -33 -56c-19 0 -23 22 -20 50c13 138 77 304 113 351
l-40 -6c-50 -77 -132 -218 -180 -378c-2 -7 -11 -36 -21 -36c-20 0 -29 33 -26 58c8 90 47 246 87 348h-7z" />
    <glyph glyph-name="sterling" unicode="&#xa3;" horiz-adv-x="1141" 
d="M231 294c-45 1 -80 51 -87 93c-3 26 19 82 55 73c29 -8 80 -16 143 -22c149 274 379 581 545 581c78 -1 133 -62 125 -140c-4 -50 -21 -69 -34 -69c-16 0 -13 36 -15 51c-4 33 -23 52 -54 52c-115 0 -294 -251 -417 -485c29 -1 57 -2 87 -2c57 0 117 3 171 8
c130 13 166 28 169 8c4 -21 -64 -48 -113 -62c-105 -29 -235 -62 -376 -78c-40 -92 -68 -172 -72 -219c-4 -48 36 -69 117 -69c83 0 236 24 380 70c86 27 153 61 151 40c-1 -20 -87 -69 -116 -83c-148 -77 -337 -155 -507 -156c-109 0 -199 72 -190 180c5 50 33 132 77 228
c-14 0 -26 0 -39 1z" />
    <glyph glyph-name="currency" unicode="&#xa4;" horiz-adv-x="843" 
d="M635 23c-50 63 -86 78 -120 110c-1 0 -1 0 -1 1c-73 -55 -156 -91 -230 -88c-13 1 -26 2 -37 5c-57 -49 -167 -162 -224 -159c-19 1 -25 10 -23 25c2 16 37 49 44 58c59 69 83 100 121 155c-9 24 -10 53 -8 87c11 104 84 228 162 307c-22 24 -45 45 -68 61
c-31 19 -43 40 -41 65c2 19 35 64 83 62c41 -2 71 -78 96 -130c17 9 34 13 47 12c1 0 3 -1 6 -1c36 11 76 18 113 17c27 -2 51 -7 72 -16c72 74 189 150 247 175c29 13 51 -13 27 -36c-66 -62 -141 -157 -186 -244c4 -19 5 -41 3 -66c-5 -57 -43 -126 -96 -189
c30 -50 81 -173 90 -203c6 -22 15 -54 10 -81c-4 -20 -7 -33 -18 -33c-16 1 -7 28 -69 106zM543 546h-10c-60 -41 -223 -184 -238 -344c-3 -39 9 -67 66 -67c33 0 73 19 114 49v3c3 36 52 91 91 91h5c41 51 73 106 77 149c7 83 -36 112 -105 119z" />
    <glyph glyph-name="yen" unicode="&#xa5;" horiz-adv-x="1167" 
d="M222 54c-46 1 -70 35 -78 77c-5 27 11 82 49 72c47 -13 147 -26 261 -31c5 27 14 53 19 76c-20 -1 -40 -2 -60 -2c-14 0 -28 1 -43 1c-37 1 -65 42 -71 74c-3 22 12 66 42 59c30 -8 92 -16 166 -21v2c-99 65 -105 278 -94 399c2 27 6 49 10 64c14 69 43 153 96 153
c39 0 97 -54 95 -92c-3 -40 -23 -68 -37 -151c-3 -18 -6 -41 -8 -65c-9 -95 -7 -218 64 -218c153 0 416 249 542 434c55 83 53 113 70 113c18 0 24 -23 23 -44c-2 -24 -21 -68 -39 -96c-128 -198 -357 -422 -545 -493l-8 -11c38 0 75 2 110 6c104 10 133 22 138 6
c2 -18 -53 -39 -92 -50c-60 -17 -131 -36 -208 -49c-18 -30 -34 -63 -52 -98c54 1 111 3 164 8c131 14 187 45 191 24c5 -22 -65 -49 -116 -64c-81 -22 -178 -46 -284 -62c-18 -39 -35 -78 -50 -113c-21 -57 -36 -106 -67 -106c-12 0 -15 18 -12 41s8 52 12 75l18 90
c-54 -6 -109 -9 -164 -9c-13 0 -28 1 -42 1z" />
    <glyph glyph-name="section" unicode="&#xa7;" horiz-adv-x="875" 
d="M944 900c3 -14 4 -30 2 -44c-2 -25 -9 -44 -23 -44c-18 0 -15 37 -40 54c-8 5 -22 8 -38 8c-33 0 -77 -11 -112 -26c-66 -28 -122 -85 -124 -115c-6 -59 204 -122 192 -249c-9 -97 -150 -169 -245 -216c-23 -12 -46 -22 -69 -31c40 -41 73 -86 67 -139
c-14 -163 -431 -268 -532 -266c-61 1 -50 39 -31 42c68 10 392 67 407 227c8 86 -238 184 -206 325c20 90 139 202 264 233c-13 20 -20 43 -18 69c10 113 234 268 390 268c50 0 100 -25 116 -96zM358 407c-4 -42 37 -81 81 -124c88 39 209 109 214 164c4 49 -51 87 -106 127
c-80 -10 -183 -99 -189 -167z" />
    <glyph glyph-name="copyright" unicode="&#xa9;" horiz-adv-x="759" 
d="M535 993c38 0 59 -12 68 -27c15 4 31 6 48 6c110 0 159 -70 150 -176c-19 -202 -312 -423 -494 -423c-80 0 -154 57 -142 178c16 190 254 442 370 442zM635 916c-47 0 -110 -32 -144 -53c-110 -91 -217 -232 -228 -348c-5 -51 28 -84 63 -84c134 0 400 167 418 368
c9 87 -48 117 -109 117zM610 861c30 0 53 -26 50 -58c-3 -34 -29 -54 -54 -54c-7 0 -15 3 -23 6c-59 -16 -138 -117 -141 -155c-1 -9 4 -17 22 -17c51 0 110 52 169 93c40 28 35 -3 22 -20c-43 -58 -178 -144 -250 -144c-54 0 -75 31 -72 60c10 123 201 289 277 289z" />
    <glyph glyph-name="registered" unicode="&#xae;" horiz-adv-x="754" 
d="M535 993c38 0 59 -12 67 -27c16 4 32 6 48 6c111 0 160 -70 150 -176c-7 -79 -56 -160 -123 -230c11 -8 21 -15 26 -21c18 -22 2 -55 -21 -29c-6 6 -18 13 -35 21c-104 -96 -239 -164 -340 -164c-81 0 -154 57 -143 178c17 190 254 442 371 442zM410 562
c-9 -18 -25 -67 -46 -67c-8 0 -16 10 -14 36c4 47 36 143 63 205c-14 3 -24 11 -30 19c-64 -77 -114 -163 -120 -240c-5 -51 27 -84 63 -84c71 0 183 48 272 125c-65 22 -146 42 -166 42c-2 0 -4 0 -5 -1zM527 641c33 -12 74 -31 109 -50c57 59 101 131 108 208
c8 87 -49 117 -109 117c-47 0 -111 -31 -144 -52l-13 -11c13 4 24 6 32 8c25 4 55 7 86 7c45 0 135 -23 130 -90c-6 -59 -110 -101 -167 -124zM575 778c-12 0 -24 -2 -36 -3c-24 -33 -49 -69 -75 -110l69 30c59 26 90 48 91 70c2 18 -30 13 -49 13z" />
    <glyph glyph-name="paragraph" unicode="&#xb6;" horiz-adv-x="945" 
d="M1058 823c-6 -32 -22 -55 -44 -66c-4 -6 -9 -11 -15 -16l-3 -4c-81 -104 -327 -580 -402 -791c-4 -8 -19 -28 -38 -28c-10 0 -13 14 -12 36c14 142 238 665 311 814l12 23c-17 0 -35 0 -56 -2c-47 -82 -89 -179 -121 -241c-60 -126 -121 -247 -176 -375l-98 -251
c-11 -28 -14 -47 -32 -47c-24 1 -24 37 -19 83c13 111 58 262 111 409c-64 -33 -140 -58 -203 -58c-13 0 -26 2 -38 4c-63 11 -111 45 -104 116c1 16 6 35 13 55c80 205 413 381 666 433c27 7 64 10 99 9c74 -2 149 -27 149 -103z" />
    <glyph glyph-name="germandbls" unicode="&#xdf;" horiz-adv-x="743" 
d="M226 462c-36 -76 -135 -283 -144 -381c-4 -42 -36 -71 -69 -71c-34 0 -79 44 -73 103c7 79 66 216 96 285c86 195 310 614 521 614c76 0 151 -51 143 -139c-12 -125 -111 -225 -206 -326c-32 -33 -61 -48 -62 -64c-4 -38 300 -37 285 -200c-13 -140 -401 -389 -569 -389
c-19 0 -29 13 -27 28c0 7 6 19 40 26c132 31 399 187 407 276c11 109 -294 67 -282 197c4 47 86 100 149 162c75 75 160 177 167 256c2 26 -10 39 -20 39c-86 0 -261 -215 -356 -416z" />
    <glyph glyph-name="multiply" unicode="&#xd7;" horiz-adv-x="754" 
d="M415 630c5 -52 14 -113 25 -176c112 96 211 173 246 193c19 11 34 15 46 15c24 0 34 -18 38 -39c3 -26 -4 -55 -38 -79c-62 -43 -157 -102 -273 -192c25 -116 60 -232 109 -311c6 -11 9 -21 9 -28c-2 -17 -21 -19 -44 -4c-52 34 -127 140 -188 253
c-70 -59 -146 -127 -225 -207c-26 -25 -33 -36 -53 -34c-21 4 -29 24 -14 47c49 70 147 171 255 269c-32 68 -55 132 -62 180c-3 11 -3 22 -1 32c1 19 7 36 15 48c21 35 75 59 114 59c22 0 37 -8 41 -26z" />
    <glyph glyph-name="divide" unicode="&#xf7;" horiz-adv-x="683" 
d="M531 608c-5 -58 -72 -113 -120 -113c-47 0 -78 34 -74 81c5 55 74 118 133 118c43 0 65 -40 61 -86zM142 434c36 0 158 -25 233 -25c130 0 236 9 289 30c18 7 27 4 31 -6c3 -7 1 -13 -4 -18c-24 -24 -84 -51 -133 -67c-93 -29 -259 -65 -364 -64c-54 0 -96 16 -110 74
c-10 41 12 76 58 76zM357 138c-5 -57 -73 -112 -120 -112s-79 34 -74 81c5 54 74 117 133 117c43 0 65 -39 61 -86z" />
    <glyph glyph-name="greater" unicode="&#x3e;" horiz-adv-x="678" 
d="M404 680c60 9 209 -211 213 -256c3 -37 -8 -60 -31 -88c-97 -112 -434 -275 -513 -297c-30 -9 -63 13 -36 30c71 46 382 208 395 294c11 64 -75 145 -127 218c-4 8 -7 16 -5 25c4 33 65 71 104 74z" />
    <glyph glyph-name="bracketright" unicode="]" horiz-adv-x="712" 
d="M688 1062c60 20 70 30 91 30c49 0 76 -41 57 -77c-20 -34 -37 -70 -54 -107c-126 -261 -329 -741 -412 -950l-7 -15c-6 -19 -17 -40 -39 -49c-18 -8 -44 -10 -71 -10c-26 0 -53 2 -75 3c-121 0 -219 0 -326 -21c-22 -4 -32 6 -31 19c1 11 9 23 28 32c58 26 267 81 397 91
c43 139 294 703 414 933c-55 -5 -120 -9 -178 -9h-30c-20 0 -109 5 -106 35c1 11 13 18 59 24c84 12 220 50 283 71z" />
    <glyph glyph-name="cent" unicode="&#xa2;" horiz-adv-x="829" 
d="M358 -91c3 36 10 78 19 122c-19 -5 -37 -8 -53 -8c-84 -1 -187 56 -183 174c3 195 239 526 456 531c21 60 54 134 92 134c34 0 67 -28 55 -72c-12 -33 -30 -62 -43 -94c0 -1 -1 -2 -1 -2c28 -25 38 -60 36 -86c-2 -21 -11 -36 -29 -36c-19 -1 -23 29 -40 49
c-61 -139 -134 -316 -191 -473c86 37 166 112 205 150c11 12 23 17 31 17c13 0 17 -11 9 -27c-48 -80 -165 -180 -277 -232c-20 -60 -35 -115 -46 -162c-3 -13 -12 -19 -24 -19c-10 0 -19 8 -16 34zM386 126c5 0 10 0 15 1c40 157 103 338 156 487
c-95 -65 -225 -267 -238 -407c-3 -31 5 -81 67 -81z" />
    <glyph glyph-name="questiondown" unicode="&#xbf;" horiz-adv-x="927" 
d="M517 843c5 57 73 112 111 112c41 0 68 -33 64 -78c-4 -54 -65 -117 -113 -117c-38 0 -66 38 -62 83zM177 127c-3 -34 68 -50 107 -50c119 0 287 82 346 188c16 30 33 55 73 55c36 0 84 -77 80 -118c-14 -149 -328 -280 -525 -280c-103 0 -227 35 -217 149
c12 128 260 319 353 418c44 46 70 74 99 124c27 49 29 82 51 82c12 0 25 -21 24 -40c-6 -66 -74 -154 -110 -198c-76 -95 -274 -240 -281 -330z" />
    <glyph glyph-name="mu" unicode="&#xb5;" horiz-adv-x="711" 
d="M488 119c-3 -31 -2 -55 18 -55c57 0 193 218 234 288c11 17 27 27 39 27c13 0 20 -12 8 -38c-26 -63 -217 -381 -336 -381c-62 0 -115 70 -107 159c3 41 11 80 19 118c-84 -127 -188 -248 -292 -248c-21 0 -40 5 -54 14c-54 -128 -105 -269 -136 -401
c-4 -15 -15 -104 -40 -104c-31 0 -30 81 -27 122c18 197 102 492 201 716c38 89 89 182 125 269c11 27 42 46 68 44c32 -3 97 -54 86 -107c-7 -38 -58 -102 -108 -200c-26 -52 -60 -142 -68 -194c-2 -22 -5 -55 28 -55c35 0 89 61 145 138c68 94 135 214 161 271
c3 4 16 30 31 57c23 42 56 90 99 90c36 0 97 -36 92 -94c-3 -35 -62 -107 -93 -173c-37 -77 -87 -190 -93 -263z" />
    <glyph glyph-name="bar" unicode="|" horiz-adv-x="502" 
d="M212 -169c-3 -18 -9 -82 -41 -82c-30 0 -13 170 -11 193c35 290 177 891 265 1139c10 24 28 46 52 46c58 0 85 -55 71 -94c-140 -420 -266 -784 -336 -1202z" />
    <glyph glyph-name="equal" unicode="=" horiz-adv-x="892" 
d="M213 286c46 -18 219 -32 355 -32c80 0 148 14 167 14c15 0 24 -6 24 -15c-5 -51 -304 -122 -481 -122c-84 0 -147 7 -142 67c3 30 38 89 70 89c2 0 5 0 7 -1zM336 512c69 -22 204 -42 351 -42c68 0 125 14 145 14c15 0 23 -6 22 -16c-5 -53 -293 -116 -471 -116
c-75 0 -174 4 -170 54c4 47 61 117 87 117c12 0 23 -7 36 -11z" />
    <glyph glyph-name="perthousand" unicode="&#x2030;" horiz-adv-x="1522" 
d="M661 198c8 128 134 307 267 307h6c21 7 45 11 67 11c53 0 101 -22 127 -61c39 31 82 50 126 50h5c21 7 45 11 67 11c87 0 159 -58 150 -148c-13 -142 -231 -320 -361 -320c-52 0 -101 37 -121 91c-68 -54 -146 -91 -204 -91c-70 0 -134 66 -129 150zM203 662
c9 128 134 307 267 307h6c22 7 45 11 67 11c87 0 158 -58 150 -148c-13 -142 -231 -320 -361 -320c-69 0 -132 66 -129 150zM248 -3c50 151 514 802 681 950c19 18 45 21 72 21c61 0 99 -83 73 -109c-255 -242 -609 -620 -761 -853c-37 -53 -50 -55 -59 -53
c-12 2 -15 17 -6 44zM603 846c1 22 -3 43 -16 56c-90 1 -218 -178 -226 -259c-3 -28 11 -44 23 -44c44 0 206 121 219 247zM1385 382c2 22 -2 43 -15 56c-91 1 -219 -178 -226 -259c-3 -28 10 -44 23 -44c44 0 206 121 218 247zM1060 382c2 22 -3 43 -15 56
c-92 1 -220 -178 -227 -259c-2 -28 11 -44 23 -44c26 0 98 45 152 109c12 46 35 95 67 138z" />
    <glyph glyph-name="braceleft" unicode="{" horiz-adv-x="636" 
d="M475 773c66 165 218 287 354 297c30 2 93 -9 91 -33c-1 -9 -1 -17 -17 -17c-5 0 -40 4 -72 -11c-73 -32 -182 -258 -251 -412c-48 -104 -161 -164 -199 -171c16 -19 21 -45 18 -77c-11 -118 -119 -309 -132 -456c-5 -43 10 -54 34 -55c15 -1 33 2 51 4c5 1 9 -3 9 -10
c-2 -24 -41 -42 -84 -49c-88 -15 -183 45 -173 139c13 145 174 365 181 441c5 56 -30 50 -28 76c4 50 53 33 109 85c63 56 77 166 109 249z" />
    <glyph glyph-name="braceright" unicode="}" horiz-adv-x="619" 
d="M307 51c-56 -166 -200 -289 -337 -299c-30 -2 -71 9 -71 34c0 8 1 16 16 16c6 0 40 -4 72 11c69 33 170 273 231 427c41 104 151 165 189 172c-20 20 -24 50 -21 87c11 123 117 317 122 463c1 42 -15 53 -40 54c-14 1 -31 -2 -50 -4c-5 -1 -10 3 -10 10c1 25 40 42 82 50
c87 15 190 -45 188 -141c-4 -146 -183 -379 -186 -455c-1 -57 35 -51 33 -76c-1 -52 -51 -35 -105 -86c-58 -58 -87 -180 -113 -263z" />
    <glyph glyph-name="exclamdown" unicode="&#xa1;" horiz-adv-x="477" 
d="M408 621c-66 -142 -102 -295 -128 -388c-24 -91 -22 -179 -50 -216c-18 -24 -43 -34 -67 -34c-23 0 -46 9 -64 23c-27 21 -24 60 -19 81c30 134 227 480 284 549c15 18 35 36 45 28c8 -6 11 -16 -1 -43zM607 951c3 -10 4 -21 3 -33c-5 -50 -44 -111 -79 -131
c-17 -10 -33 -15 -49 -15c-25 0 -46 13 -56 38c-4 11 -5 23 -3 37c4 48 37 108 80 132c15 8 28 12 43 12c27 0 51 -14 61 -40z" />
    <glyph glyph-name="A" unicode="A" horiz-adv-x="1106" 
d="M767 893c55 80 87 117 131 124c72 13 206 -56 200 -151c-3 -34 -28 -97 -47 -157c-20 -61 -50 -168 -77 -286c145 16 222 43 221 24c-5 -41 -181 -90 -241 -105c-26 -117 -48 -237 -58 -332c-3 -34 -3 -65 -3 -91c1 -28 -2 -39 -12 -42c-9 -2 -19 4 -29 16
c-33 41 -40 222 -29 421c-128 -25 -283 -45 -433 -50c-165 -180 -329 -338 -421 -373c-50 -19 -67 10 -11 54c105 87 216 199 323 320c-29 2 -60 6 -88 12c-46 9 -81 59 -80 118c1 31 37 108 74 92c42 -18 86 -31 133 -44c30 -9 68 -18 93 -22c141 172 267 345 354 472z
M518 409c42 -3 86 -4 132 -4c57 0 117 2 180 6l6 60c12 117 31 238 37 312c4 45 4 73 -4 73c-48 -78 -190 -261 -351 -447z" />
    <glyph glyph-name="ae" unicode="&#xe6;" horiz-adv-x="938" 
d="M620 277c-19 0 -51 7 -66 23c-36 -61 -60 -127 -63 -191c-1 -36 19 -50 47 -50c113 0 287 154 401 278c20 22 36 44 56 44c22 0 15 -23 -2 -53c-41 -75 -311 -359 -480 -359c-77 0 -187 68 -177 178c5 56 23 110 42 167c-61 -91 -240 -322 -347 -322
c-68 0 -103 81 -96 150c18 198 280 540 466 540c41 0 112 -48 128 -91l3 -7c6 -2 17 -5 27 -10l13 13c53 56 136 113 203 105c61 -8 156 -65 150 -137c-10 -108 -212 -278 -305 -278zM356 378c26 33 76 113 79 147c2 13 -3 23 -20 23c-131 0 -336 -330 -340 -434
c1 -9 4 -14 12 -14c48 0 200 194 269 278zM665 457c-30 -37 -62 -78 -90 -122c24 -3 36 2 45 5c67 23 189 125 195 192c4 31 -22 28 -28 28c-36 0 -95 -72 -122 -103z" />
    <glyph glyph-name="oe" unicode="&#x153;" horiz-adv-x="979" 
d="M660 277c-18 0 -51 7 -66 23c-35 -61 -60 -127 -63 -191c-1 -36 19 -50 48 -50c112 0 286 154 401 278c20 22 35 44 55 44c22 0 15 -23 -2 -53c-41 -75 -311 -359 -480 -359c-76 0 -187 68 -177 178v1c-91 -100 -202 -173 -281 -173c-90 0 -158 87 -150 184
c10 102 68 215 143 316c46 63 167 199 272 202c24 0 63 -15 89 -41c58 -9 97 -54 104 -115c19 23 39 45 59 66c54 56 137 113 203 105c62 -8 156 -65 150 -137c-9 -108 -212 -278 -305 -278zM480 483c4 47 -24 79 -61 83c-149 -63 -300 -300 -313 -429c-2 -25 3 -70 47 -70
c92 0 311 251 327 416zM706 457c-31 -37 -62 -78 -91 -122c24 -3 36 2 45 5c68 23 189 125 196 192c3 31 -22 28 -29 28c-35 0 -95 -72 -121 -103z" />
    <glyph glyph-name="OE" unicode="&#x152;" horiz-adv-x="1746" 
d="M1015 104c-6 -67 46 -85 105 -85c84 0 193 28 288 51c101 24 202 56 337 125c14 8 29 13 38 13c11 0 12 -9 -9 -34c-68 -82 -328 -195 -509 -242c-65 -15 -125 -30 -193 -30c-13 0 -25 1 -39 2c-81 7 -193 68 -184 171c1 13 2 25 5 38c-151 -148 -332 -252 -501 -252
c-182 0 -311 115 -290 344c22 239 170 446 276 573c71 87 245 240 346 240c43 0 74 -19 92 -37c50 20 104 32 157 32c118 0 209 -72 237 -190c34 68 60 169 106 191c35 17 88 -4 118 -36c18 -3 40 -6 69 -8c70 -6 141 -10 212 -10c38 0 75 1 110 4c68 5 121 6 206 25
c31 7 41 -11 25 -26c-15 -13 -71 -42 -130 -60c-152 -45 -370 -84 -519 -84c-48 -81 -123 -198 -173 -290c28 0 60 -1 92 -1c109 0 233 5 329 27c47 11 113 36 116 19c0 -5 -6 -14 -22 -26c-56 -43 -229 -103 -356 -128c-68 -14 -156 -25 -231 -30
c-48 -96 -101 -214 -108 -286zM481 412c7 -5 11 -11 10 -17c-1 -10 -13 -18 -27 -18c-59 0 -75 82 -69 144c4 47 19 93 40 132c-91 -124 -191 -304 -206 -469c-15 -158 67 -229 173 -229c179 0 369 149 503 337c15 38 33 77 50 115c-12 15 -22 34 -25 56c-4 27 14 103 52 94
c14 -3 29 -6 44 -8l42 80c6 31 12 62 14 91c9 81 -15 214 -168 214c-78 0 -161 -38 -232 -89c-101 -76 -215 -218 -225 -332c-2 -30 -11 -82 24 -101z" />
    <glyph glyph-name="AE" unicode="&#xc6;" horiz-adv-x="1714" 
d="M983 104c-6 -67 47 -85 105 -85c84 0 194 28 288 51c101 24 202 56 337 125c14 8 30 13 38 13c12 0 13 -9 -8 -34c-69 -82 -329 -195 -510 -242c-65 -15 -125 -30 -193 -30c-12 0 -25 1 -39 2c-34 3 -74 16 -109 37l1 -22c1 -28 -2 -39 -12 -42c-9 -2 -19 4 -29 16
c-16 19 -25 69 -30 136c-7 90 -3 180 1 285c-128 -25 -283 -45 -433 -50c-165 -180 -330 -338 -421 -373c-50 -19 -67 10 -11 54c105 87 216 199 323 320c-29 2 -60 6 -88 12c-46 9 -81 59 -80 118c1 31 37 108 73 92c42 -18 87 -31 134 -44c30 -9 68 -18 93 -22
c141 172 267 345 354 472c55 80 87 117 131 124c72 13 206 -56 200 -151c-3 -34 -28 -97 -47 -157c-10 -29 -22 -69 -35 -115c45 85 88 164 121 226c36 68 62 172 108 194c36 17 88 -4 119 -36c17 -3 39 -6 68 -8c70 -6 142 -10 212 -10c38 0 75 1 110 4c68 5 121 6 206 25
c31 7 41 -11 25 -26c-15 -13 -71 -42 -130 -60c-152 -45 -370 -84 -519 -84c-48 -81 -123 -198 -173 -290c28 0 60 -1 92 -1c110 0 233 5 329 27c47 11 113 36 117 19c0 -5 -7 -14 -22 -26c-57 -43 -229 -103 -356 -128c-62 -13 -141 -23 -210 -29l-27 -9
c-46 -95 -96 -208 -103 -278zM518 409c42 -3 86 -4 132 -4c57 0 117 2 180 6l6 60c12 117 31 238 37 312c4 45 4 73 -4 73c-48 -78 -190 -261 -351 -447z" />
    <glyph glyph-name="ccedilla" unicode="&#xe7;" horiz-adv-x="490" 
d="M209 -98c-12 -104 -184 -220 -317 -243c-37 -6 -59 2 -58 18c2 22 41 28 73 37c78 23 162 104 177 163c3 15 6 27 7 38c2 22 -4 38 -29 63c-1 1 -3 2 -3 3c-68 22 -124 93 -117 171c8 82 51 172 110 270c66 103 213 259 333 259c49 0 105 -20 127 -83
c10 -30 -15 -47 -20 -48c-29 -12 -24 28 -58 28c-10 0 -22 -3 -40 -11c-56 -25 -142 -125 -201 -217c-49 -76 -89 -151 -96 -232c-4 -31 5 -53 34 -53c107 0 299 192 380 292c13 16 28 22 37 22c12 0 17 -11 10 -26c-39 -95 -235 -296 -377 -359c23 -26 31 -62 28 -92z" />
    <glyph glyph-name="Ccedilla" unicode="&#xc7;" horiz-adv-x="961" 
d="M576 -183c-12 -104 -184 -220 -318 -243c-36 -6 -59 2 -57 18c2 22 40 28 72 37c79 23 163 104 178 163c4 15 7 27 8 38c1 20 -3 35 -22 56c-34 -8 -69 -13 -103 -13c-127 0 -261 101 -253 279c15 329 415 861 721 861c120 -1 197 -100 194 -175c0 -20 -7 -29 -18 -29
c-50 0 -31 78 -144 78c-40 0 -89 -24 -127 -47c-177 -109 -438 -445 -449 -707c-3 -92 43 -154 134 -154c186 0 416 185 623 388c5 7 12 9 18 8c19 -2 9 -32 1 -41c-98 -120 -289 -324 -497 -414c32 -26 43 -68 39 -103z" />
    <glyph glyph-name="Ydieresis" unicode="&#x178;" horiz-adv-x="890" 
d="M29 482c16 173 106 335 176 433c30 44 62 58 92 58c14 0 26 -3 41 -7c26 -9 61 -26 59 -66c-1 -33 -52 -77 -106 -190c-24 -48 -76 -142 -83 -219c-5 -59 16 -105 64 -105c150 0 374 237 459 335c79 91 146 225 195 258c7 4 15 7 24 7c70 0 128 -43 124 -88
c-3 -40 -36 -69 -81 -138c-38 -60 -99 -146 -154 -250c-139 -256 -275 -549 -281 -677c0 -23 -12 -35 -24 -35c-30 0 -35 32 -38 41c-5 18 -5 47 -1 82c15 174 116 519 198 659c-124 -124 -310 -297 -500 -297c-104 0 -175 80 -164 199zM671 1138c-4 -55 -80 -110 -124 -110
s-76 32 -71 79c4 52 71 114 127 114c41 0 72 -37 68 -83zM899 1138c-5 -55 -80 -110 -124 -110s-76 32 -72 79c5 52 72 114 127 114c41 0 73 -37 69 -83z" />
    <glyph glyph-name="Agrave" unicode="&#xc0;" horiz-adv-x="1107" 
d="M768 893c54 80 87 117 131 124c71 13 206 -56 199 -151c-3 -34 -28 -97 -47 -157c-20 -61 -49 -168 -77 -286c145 16 222 43 221 24c-4 -41 -181 -90 -241 -105c-26 -117 -48 -237 -57 -332c-3 -34 -3 -65 -3 -91c1 -28 -3 -39 -13 -42c-8 -2 -19 4 -28 16
c-34 41 -40 222 -30 421c-128 -25 -282 -45 -432 -50c-165 -180 -330 -338 -421 -373c-51 -19 -68 10 -12 54c105 87 216 199 323 320c-29 2 -59 6 -88 12c-46 9 -81 59 -80 118c1 31 37 108 74 92c42 -18 86 -31 133 -44c31 -9 68 -18 94 -22c140 172 266 345 354 472z
M519 409c42 -3 86 -4 131 -4c58 0 118 2 181 6l6 60c11 117 30 238 37 312c4 45 4 73 -5 73c-48 -78 -190 -261 -350 -447zM992 1282c38 -93 161 -220 223 -239c10 -4 10 -15 9 -22c-6 -5 -10 -8 -14 -8c-28 -4 -74 6 -109 20c-77 30 -206 100 -244 156c-14 20 0 49 28 81
c21 22 60 41 83 32c8 -3 20 -9 24 -20z" />
    <glyph glyph-name="Aacute" unicode="&#xc1;" horiz-adv-x="1107" 
d="M768 893c54 80 87 117 131 124c71 13 206 -56 199 -151c-3 -34 -28 -97 -47 -157c-20 -61 -49 -168 -77 -286c145 16 222 43 221 24c-4 -41 -181 -90 -241 -105c-26 -117 -48 -237 -57 -332c-3 -34 -3 -65 -3 -91c1 -28 -3 -39 -13 -42c-8 -2 -19 4 -28 16
c-34 41 -40 222 -30 421c-128 -25 -282 -45 -432 -50c-165 -180 -330 -338 -421 -373c-51 -19 -68 10 -12 54c105 87 216 199 323 320c-29 2 -59 6 -88 12c-46 9 -81 59 -80 118c1 31 37 108 74 92c42 -18 86 -31 133 -44c31 -9 68 -18 94 -22c140 172 266 345 354 472z
M519 409c42 -3 86 -4 131 -4c58 0 118 2 181 6l6 60c11 117 30 238 37 312c4 45 4 73 -5 73c-48 -78 -190 -261 -350 -447zM1104 1285c9 8 22 11 31 12c25 1 56 -27 64 -53c7 -19 10 -36 8 -50c-1 -14 -7 -26 -17 -33c-61 -42 -212 -74 -300 -81c-9 -1 -20 -2 -30 -2
c-14 0 -92 4 -90 24c1 7 6 17 19 18c66 1 238 87 315 165z" />
    <glyph glyph-name="Acircumflex" unicode="&#xc2;" horiz-adv-x="1107" 
d="M768 893c54 80 87 117 131 124c71 13 206 -56 199 -151c-3 -34 -28 -97 -47 -157c-20 -61 -49 -168 -77 -286c145 16 222 43 221 24c-4 -41 -181 -90 -241 -105c-26 -117 -48 -237 -57 -332c-3 -34 -3 -65 -3 -91c1 -28 -3 -39 -13 -42c-8 -2 -19 4 -28 16
c-34 41 -40 222 -30 421c-128 -25 -282 -45 -432 -50c-165 -180 -330 -338 -421 -373c-51 -19 -68 10 -12 54c105 87 216 199 323 320c-29 2 -59 6 -88 12c-46 9 -81 59 -80 118c1 31 37 108 74 92c42 -18 86 -31 133 -44c31 -9 68 -18 94 -22c140 172 266 345 354 472z
M519 409c42 -3 86 -4 131 -4c58 0 118 2 181 6l6 60c11 117 30 238 37 312c4 45 4 73 -5 73c-48 -78 -190 -261 -350 -447zM1162 990c-53 72 -158 147 -210 147c-66 -19 -141 -54 -189 -89c-32 -23 -33 4 -25 18c30 46 215 211 289 211c81 0 167 -195 171 -273
c1 -16 -18 -38 -36 -14z" />
    <glyph glyph-name="Atilde" unicode="&#xc3;" horiz-adv-x="1109" 
d="M768 893c54 80 87 117 131 124c71 13 206 -56 199 -151c-3 -34 -28 -97 -47 -157c-20 -61 -49 -168 -77 -286c145 16 222 43 221 24c-4 -41 -181 -90 -241 -105c-26 -117 -48 -237 -57 -332c-3 -34 -3 -65 -3 -91c1 -28 -3 -39 -13 -42c-8 -2 -19 4 -28 16
c-34 41 -40 222 -30 421c-128 -25 -282 -45 -432 -50c-165 -180 -330 -338 -421 -373c-51 -19 -68 10 -12 54c105 87 216 199 323 320c-29 2 -59 6 -88 12c-46 9 -81 59 -80 118c1 31 37 108 74 92c42 -18 86 -31 133 -44c31 -9 68 -18 94 -22c140 172 266 345 354 472z
M519 409c42 -3 86 -4 131 -4c58 0 118 2 181 6l6 60c11 117 30 238 37 312c4 45 4 73 -5 73c-48 -78 -190 -261 -350 -447zM801 1085c-18 -24 -30 -36 -37 -36c-9 0 -11 7 -10 16c3 40 50 110 91 147c37 34 79 57 115 57c43 0 62 -36 88 -67c20 -26 42 -49 66 -49
c32 0 57 3 129 89c16 17 23 23 32 23c13 0 6 -26 2 -33c-29 -57 -133 -199 -210 -199c-36 0 -62 23 -86 47c-29 28 -53 59 -84 59c-28 0 -74 -26 -96 -54z" />
    <glyph glyph-name="Adieresis" unicode="&#xc4;" horiz-adv-x="1107" 
d="M768 893c54 80 87 117 131 124c71 13 206 -56 199 -151c-3 -34 -28 -97 -47 -157c-20 -61 -49 -168 -77 -286c145 16 222 43 221 24c-4 -41 -181 -90 -241 -105c-26 -117 -48 -237 -57 -332c-3 -34 -3 -65 -3 -91c1 -28 -3 -39 -13 -42c-8 -2 -19 4 -28 16
c-34 41 -40 222 -30 421c-128 -25 -282 -45 -432 -50c-165 -180 -330 -338 -421 -373c-51 -19 -68 10 -12 54c105 87 216 199 323 320c-29 2 -59 6 -88 12c-46 9 -81 59 -80 118c1 31 37 108 74 92c42 -18 86 -31 133 -44c31 -9 68 -18 94 -22c140 172 266 345 354 472z
M519 409c42 -3 86 -4 131 -4c58 0 118 2 181 6l6 60c11 117 30 238 37 312c4 45 4 73 -5 73c-48 -78 -190 -261 -350 -447zM987 1183c-5 -55 -81 -110 -125 -110s-76 32 -71 79c5 52 71 114 127 114c41 0 73 -37 69 -83zM1215 1183c-5 -55 -81 -110 -125 -110s-76 32 -72 79
c6 52 72 114 128 114c40 0 73 -37 69 -83z" />
    <glyph glyph-name="Aring" unicode="&#xc5;" horiz-adv-x="1107" 
d="M817 1087c5 94 100 223 203 223c1 0 3 -1 4 -1c18 6 34 9 51 9c66 0 121 -43 115 -108c-8 -79 -104 -171 -193 -211c55 -26 104 -75 101 -133c-3 -34 -28 -97 -47 -157c-20 -61 -49 -168 -77 -286c145 16 222 43 221 24c-4 -41 -181 -90 -241 -105
c-26 -117 -48 -237 -57 -332c-3 -34 -3 -65 -3 -91c1 -28 -3 -39 -13 -42c-8 -2 -19 4 -28 16c-34 41 -40 222 -30 421c-128 -25 -282 -45 -432 -50c-165 -180 -330 -338 -421 -373c-51 -19 -68 10 -12 54c105 87 216 199 323 320c-29 2 -59 6 -88 12c-46 9 -81 59 -80 118
c1 31 37 108 74 92c42 -18 86 -31 133 -44c31 -9 68 -18 94 -22c140 172 266 345 354 472c35 53 61 87 89 106c-25 20 -43 52 -40 88zM519 409c42 -3 86 -4 131 -4c58 0 118 2 181 6l6 60c11 117 30 238 37 312c4 45 4 73 -5 73c-48 -78 -190 -261 -350 -447zM1120 1221
c2 17 -2 31 -12 41c-70 -3 -162 -138 -167 -197c-2 -14 4 -23 14 -23c33 0 157 87 165 179z" />
    <glyph glyph-name="Egrave" unicode="&#xc8;" horiz-adv-x="957" 
d="M226 104c-7 -67 46 -85 105 -85c84 0 193 28 287 51c101 24 202 56 337 125c14 8 30 13 38 13c12 0 13 -9 -8 -34c-68 -82 -329 -195 -509 -242c-65 -15 -125 -30 -194 -30c-12 0 -25 1 -38 2c-81 7 -194 68 -184 171c10 112 54 223 106 332c-13 15 -22 34 -25 56
c-5 27 13 103 51 94c15 -3 30 -6 44 -8c52 102 105 198 143 271c37 68 62 172 108 194c36 17 88 -4 119 -36c18 -3 40 -6 68 -8c70 -6 142 -10 212 -10c38 0 76 1 110 4c69 5 121 6 206 25c32 7 41 -11 25 -26c-14 -13 -71 -42 -130 -60c-152 -45 -369 -84 -518 -84
c-49 -81 -123 -198 -174 -290c29 0 60 -1 93 -1c109 0 233 5 328 27c48 11 114 36 117 19c0 -5 -6 -14 -22 -26c-57 -43 -229 -103 -356 -128c-68 -14 -157 -25 -231 -30c-48 -96 -102 -214 -108 -286zM801 1285c38 -93 162 -220 223 -239c11 -4 11 -15 9 -22
c-5 -5 -10 -8 -15 -8c-27 -4 -73 6 -108 20c-77 30 -207 100 -244 156c-13 20 0 49 28 81c21 22 60 41 84 32c7 -3 19 -9 23 -20z" />
    <glyph glyph-name="Eacute" unicode="&#xc9;" horiz-adv-x="957" 
d="M226 104c-7 -67 46 -85 105 -85c84 0 193 28 287 51c101 24 202 56 337 125c14 8 30 13 38 13c12 0 13 -9 -8 -34c-68 -82 -329 -195 -509 -242c-65 -15 -125 -30 -194 -30c-12 0 -25 1 -38 2c-81 7 -194 68 -184 171c10 112 54 223 106 332c-13 15 -22 34 -25 56
c-5 27 13 103 51 94c15 -3 30 -6 44 -8c52 102 105 198 143 271c37 68 62 172 108 194c36 17 88 -4 119 -36c18 -3 40 -6 68 -8c70 -6 142 -10 212 -10c38 0 76 1 110 4c69 5 121 6 206 25c32 7 41 -11 25 -26c-14 -13 -71 -42 -130 -60c-152 -45 -369 -84 -518 -84
c-49 -81 -123 -198 -174 -290c29 0 60 -1 93 -1c109 0 233 5 328 27c48 11 114 36 117 19c0 -5 -6 -14 -22 -26c-57 -43 -229 -103 -356 -128c-68 -14 -157 -25 -231 -30c-48 -96 -102 -214 -108 -286zM1000 1285c9 8 22 11 31 12c25 1 56 -27 64 -53c7 -19 10 -36 9 -50
c-2 -14 -8 -26 -18 -33c-61 -42 -212 -74 -300 -81c-9 -1 -20 -2 -30 -2c-14 0 -92 4 -90 24c1 7 6 17 19 18c66 1 238 87 315 165z" />
    <glyph glyph-name="Ecircumflex" unicode="&#xca;" horiz-adv-x="957" 
d="M226 104c-7 -67 46 -85 105 -85c84 0 193 28 287 51c101 24 202 56 337 125c14 8 30 13 38 13c12 0 13 -9 -8 -34c-68 -82 -329 -195 -509 -242c-65 -15 -125 -30 -194 -30c-12 0 -25 1 -38 2c-81 7 -194 68 -184 171c10 112 54 223 106 332c-13 15 -22 34 -25 56
c-5 27 13 103 51 94c15 -3 30 -6 44 -8c52 102 105 198 143 271c37 68 62 172 108 194c36 17 88 -4 119 -36c18 -3 40 -6 68 -8c70 -6 142 -10 212 -10c38 0 76 1 110 4c69 5 121 6 206 25c32 7 41 -11 25 -26c-14 -13 -71 -42 -130 -60c-152 -45 -369 -84 -518 -84
c-49 -81 -123 -198 -174 -290c29 0 60 -1 93 -1c109 0 233 5 328 27c48 11 114 36 117 19c0 -5 -6 -14 -22 -26c-57 -43 -229 -103 -356 -128c-68 -14 -157 -25 -231 -30c-48 -96 -102 -214 -108 -286zM1033 1022c-53 72 -158 147 -210 147c-66 -19 -142 -54 -189 -89
c-32 -23 -34 4 -25 18c29 46 215 211 289 211c81 0 167 -195 171 -273c1 -16 -18 -38 -36 -14z" />
    <glyph glyph-name="Edieresis" unicode="&#xcb;" horiz-adv-x="957" 
d="M226 104c-7 -67 46 -85 105 -85c84 0 193 28 287 51c101 24 202 56 337 125c14 8 30 13 38 13c12 0 13 -9 -8 -34c-68 -82 -329 -195 -509 -242c-65 -15 -125 -30 -194 -30c-12 0 -25 1 -38 2c-81 7 -194 68 -184 171c10 112 54 223 106 332c-13 15 -22 34 -25 56
c-5 27 13 103 51 94c15 -3 30 -6 44 -8c52 102 105 198 143 271c37 68 62 172 108 194c36 17 88 -4 119 -36c18 -3 40 -6 68 -8c70 -6 142 -10 212 -10c38 0 76 1 110 4c69 5 121 6 206 25c32 7 41 -11 25 -26c-14 -13 -71 -42 -130 -60c-152 -45 -369 -84 -518 -84
c-49 -81 -123 -198 -174 -290c29 0 60 -1 93 -1c109 0 233 5 328 27c48 11 114 36 117 19c0 -5 -6 -14 -22 -26c-57 -43 -229 -103 -356 -128c-68 -14 -157 -25 -231 -30c-48 -96 -102 -214 -108 -286zM858 1190c-5 -55 -81 -110 -125 -110s-76 32 -72 79
c5 52 72 114 128 114c40 0 73 -37 69 -83zM1086 1190c-6 -55 -81 -110 -125 -110s-76 32 -72 79c5 52 72 114 127 114c41 0 74 -37 70 -83z" />
    <glyph glyph-name="Igrave" unicode="&#xcc;" horiz-adv-x="1063" 
d="M747 -15c-60 -3 -112 -8 -155 -13c-6 -15 -13 -27 -23 -28c-13 -1 -21 9 -24 21c-131 -19 -200 -44 -293 -64c-63 -14 -123 -40 -155 -36c-42 6 -79 66 -76 103c2 36 9 53 61 71c21 8 89 17 142 21c86 7 204 14 326 14c27 157 119 475 223 715c-40 -3 -81 -5 -119 -5
c-44 0 -83 2 -107 5c-47 5 -87 51 -91 110c-1 31 27 110 66 97c43 -15 90 -24 138 -33c25 -5 109 -21 182 -28c20 33 50 65 82 65c36 -1 82 -35 97 -75c31 -1 64 -1 96 -1c73 0 194 6 264 19c20 4 23 -2 24 -16c0 -12 -14 -23 -28 -31c-72 -37 -230 -68 -395 -88
c-22 -38 -44 -73 -61 -103c-73 -127 -231 -441 -298 -632c151 -3 298 -18 390 -54c15 -5 26 -14 23 -27c-2 -13 -23 -16 -34 -12c-22 7 -72 9 -124 9c-50 0 -102 -2 -131 -4zM946 1294c38 -93 161 -220 223 -239c10 -4 10 -15 9 -22c-6 -5 -10 -8 -15 -8
c-27 -4 -73 6 -108 20c-77 30 -207 100 -244 156c-14 20 0 49 28 81c21 22 60 41 83 32c8 -3 20 -9 24 -20z" />
    <glyph glyph-name="Iacute" unicode="&#xcd;" horiz-adv-x="1063" 
d="M747 -15c-60 -3 -112 -8 -155 -13c-6 -15 -13 -27 -23 -28c-13 -1 -21 9 -24 21c-131 -19 -200 -44 -293 -64c-63 -14 -123 -40 -155 -36c-42 6 -79 66 -76 103c2 36 9 53 61 71c21 8 89 17 142 21c86 7 204 14 326 14c27 157 119 475 223 715c-40 -3 -81 -5 -119 -5
c-44 0 -83 2 -107 5c-47 5 -87 51 -91 110c-1 31 27 110 66 97c43 -15 90 -24 138 -33c25 -5 109 -21 182 -28c20 33 50 65 82 65c36 -1 82 -35 97 -75c31 -1 64 -1 96 -1c73 0 194 6 264 19c20 4 23 -2 24 -16c0 -12 -14 -23 -28 -31c-72 -37 -230 -68 -395 -88
c-22 -38 -44 -73 -61 -103c-73 -127 -231 -441 -298 -632c151 -3 298 -18 390 -54c15 -5 26 -14 23 -27c-2 -13 -23 -16 -34 -12c-22 7 -72 9 -124 9c-50 0 -102 -2 -131 -4zM1107 1285c9 8 22 11 31 12c25 1 56 -27 64 -53c8 -19 10 -36 9 -50s-8 -26 -18 -33
c-61 -42 -212 -74 -299 -81c-10 -1 -20 -2 -31 -2c-14 0 -92 4 -90 24c1 7 6 17 19 18c66 1 238 87 315 165z" />
    <glyph glyph-name="Icircumflex" unicode="&#xce;" horiz-adv-x="1063" 
d="M747 -15c-60 -3 -112 -8 -155 -13c-6 -15 -13 -27 -23 -28c-13 -1 -21 9 -24 21c-131 -19 -200 -44 -293 -64c-63 -14 -123 -40 -155 -36c-42 6 -79 66 -76 103c2 36 9 53 61 71c21 8 89 17 142 21c86 7 204 14 326 14c27 157 119 475 223 715c-40 -3 -81 -5 -119 -5
c-44 0 -83 2 -107 5c-47 5 -87 51 -91 110c-1 31 27 110 66 97c43 -15 90 -24 138 -33c25 -5 109 -21 182 -28c20 33 50 65 82 65c36 -1 82 -35 97 -75c31 -1 64 -1 96 -1c73 0 194 6 264 19c20 4 23 -2 24 -16c0 -12 -14 -23 -28 -31c-72 -37 -230 -68 -395 -88
c-22 -38 -44 -73 -61 -103c-73 -127 -231 -441 -298 -632c151 -3 298 -18 390 -54c15 -5 26 -14 23 -27c-2 -13 -23 -16 -34 -12c-22 7 -72 9 -124 9c-50 0 -102 -2 -131 -4zM1179 1024c-53 72 -158 147 -210 147c-66 -19 -142 -54 -189 -89c-32 -23 -33 4 -25 18
c29 46 215 211 289 211c81 0 167 -195 171 -273c1 -16 -18 -38 -36 -14z" />
    <glyph glyph-name="Idieresis" unicode="&#xcf;" horiz-adv-x="1063" 
d="M747 -15c-60 -3 -112 -8 -155 -13c-6 -15 -13 -27 -23 -28c-13 -1 -21 9 -24 21c-131 -19 -200 -44 -293 -64c-63 -14 -123 -40 -155 -36c-42 6 -79 66 -76 103c2 36 9 53 61 71c21 8 89 17 142 21c86 7 204 14 326 14c27 157 119 475 223 715c-40 -3 -81 -5 -119 -5
c-44 0 -83 2 -107 5c-47 5 -87 51 -91 110c-1 31 27 110 66 97c43 -15 90 -24 138 -33c25 -5 109 -21 182 -28c20 33 50 65 82 65c36 -1 82 -35 97 -75c31 -1 64 -1 96 -1c73 0 194 6 264 19c20 4 23 -2 24 -16c0 -12 -14 -23 -28 -31c-72 -37 -230 -68 -395 -88
c-22 -38 -44 -73 -61 -103c-73 -127 -231 -441 -298 -632c151 -3 298 -18 390 -54c15 -5 26 -14 23 -27c-2 -13 -23 -16 -34 -12c-22 7 -72 9 -124 9c-50 0 -102 -2 -131 -4zM1007 1176c-4 -55 -80 -110 -124 -110s-76 32 -71 79c4 52 71 114 127 114c41 0 72 -37 68 -83z
M1235 1176c-4 -55 -80 -110 -124 -110s-76 32 -72 79c5 52 72 114 128 114c40 0 72 -37 68 -83z" />
    <glyph glyph-name="Ntilde" unicode="&#xd1;" horiz-adv-x="1070" 
d="M1099 954c6 30 10 71 31 85c21 13 37 -18 36 -67c-3 -76 -54 -290 -142 -518c-96 -259 -215 -499 -310 -499c-196 0 -262 542 -281 776c-90 -244 -303 -638 -404 -788c-19 -25 -54 -46 -73 -35c-20 15 -10 45 39 123c49 79 217 413 315 670c25 66 72 223 107 267
c21 26 69 29 97 22c31 -7 73 -15 76 -96c3 -128 56 -502 109 -652c13 -42 29 -104 68 -104c37 0 104 130 187 335c52 134 121 365 145 481zM638 1084c-18 -24 -31 -36 -37 -36c-9 0 -11 7 -10 16c3 40 50 110 90 147c37 34 79 57 114 57c43 0 63 -36 90 -67
c20 -26 42 -49 66 -49c31 0 56 3 129 89c16 17 23 23 31 23c14 0 7 -26 2 -33c-28 -57 -132 -199 -210 -199c-35 0 -61 23 -86 47c-28 28 -52 59 -84 59c-27 0 -73 -26 -95 -54z" />
    <glyph glyph-name="Ograve" unicode="&#xd2;" horiz-adv-x="1065" 
d="M667 1018c43 0 74 -19 92 -37c50 20 104 32 157 32c152 0 260 -118 243 -300c-34 -369 -460 -852 -824 -852c-182 0 -311 115 -290 344c22 239 170 446 276 573c72 87 245 240 346 240zM463 412c7 -5 11 -11 10 -17c-1 -10 -13 -18 -27 -18c-59 0 -74 82 -69 144
c4 47 19 93 40 132c-91 -124 -191 -304 -206 -469c-15 -158 67 -229 173 -229c310 0 652 446 681 765c8 81 -16 214 -168 214c-79 0 -162 -38 -233 -89c-101 -76 -215 -218 -225 -332c-2 -30 -11 -82 24 -101zM902 1299c38 -93 161 -220 222 -239c12 -4 12 -15 10 -22
c-5 -5 -10 -8 -14 -8c-28 -4 -74 6 -109 20c-78 30 -207 100 -245 156c-12 20 0 49 29 81c21 22 61 41 84 32c8 -3 19 -9 23 -20z" />
    <glyph glyph-name="Oacute" unicode="&#xd3;" horiz-adv-x="1065" 
d="M667 1018c43 0 74 -19 92 -37c50 20 104 32 157 32c152 0 260 -118 243 -300c-34 -369 -460 -852 -824 -852c-182 0 -311 115 -290 344c22 239 170 446 276 573c72 87 245 240 346 240zM463 412c7 -5 11 -11 10 -17c-1 -10 -13 -18 -27 -18c-59 0 -74 82 -69 144
c4 47 19 93 40 132c-91 -124 -191 -304 -206 -469c-15 -158 67 -229 173 -229c310 0 652 446 681 765c8 81 -16 214 -168 214c-79 0 -162 -38 -233 -89c-101 -76 -215 -218 -225 -332c-2 -30 -11 -82 24 -101zM1009 1285c9 8 22 11 31 12c26 1 56 -27 64 -53
c8 -19 10 -36 9 -50s-8 -26 -18 -33c-61 -42 -212 -74 -299 -81c-10 -1 -20 -2 -31 -2c-13 0 -92 4 -90 24c1 7 6 17 19 18c66 1 238 87 315 165z" />
    <glyph glyph-name="Ocircumflex" unicode="&#xd4;" horiz-adv-x="1065" 
d="M667 1018c43 0 74 -19 92 -37c50 20 104 32 157 32c152 0 260 -118 243 -300c-34 -369 -460 -852 -824 -852c-182 0 -311 115 -290 344c22 239 170 446 276 573c72 87 245 240 346 240zM463 412c7 -5 11 -11 10 -17c-1 -10 -13 -18 -27 -18c-59 0 -74 82 -69 144
c4 47 19 93 40 132c-91 -124 -191 -304 -206 -469c-15 -158 67 -229 173 -229c310 0 652 446 681 765c8 81 -16 214 -168 214c-79 0 -162 -38 -233 -89c-101 -76 -215 -218 -225 -332c-2 -30 -11 -82 24 -101zM1120 1027c-52 72 -158 147 -210 147
c-65 -19 -142 -54 -189 -89c-32 -23 -33 4 -25 18c29 46 215 211 289 211c81 0 167 -195 172 -273c0 -16 -19 -38 -37 -14z" />
    <glyph glyph-name="Otilde" unicode="&#xd5;" horiz-adv-x="1067" 
d="M667 1018c43 0 74 -19 92 -37c50 20 104 32 157 32c152 0 260 -118 243 -300c-34 -369 -460 -852 -824 -852c-182 0 -311 115 -290 344c22 239 170 446 276 573c72 87 245 240 346 240zM463 412c7 -5 11 -11 10 -17c-1 -10 -13 -18 -27 -18c-59 0 -74 82 -69 144
c4 47 19 93 40 132c-91 -124 -191 -304 -206 -469c-15 -158 67 -229 173 -229c310 0 652 446 681 765c8 81 -16 214 -168 214c-79 0 -162 -38 -233 -89c-101 -76 -215 -218 -225 -332c-2 -30 -11 -82 24 -101zM732 1114c-18 -24 -31 -36 -37 -36c-10 0 -13 7 -12 16
c5 40 52 110 92 147c36 34 78 57 114 57c43 0 63 -36 88 -67c21 -26 43 -49 68 -49c31 0 55 3 129 89c14 17 23 23 31 23c14 0 5 -26 2 -33c-28 -57 -133 -199 -211 -199c-35 0 -62 23 -85 47c-28 28 -52 59 -84 59c-27 0 -74 -26 -95 -54z" />
    <glyph glyph-name="Odieresis" unicode="&#xd6;" horiz-adv-x="1065" 
d="M667 1018c43 0 74 -19 92 -37c50 20 104 32 157 32c152 0 260 -118 243 -300c-34 -369 -460 -852 -824 -852c-182 0 -311 115 -290 344c22 239 170 446 276 573c72 87 245 240 346 240zM463 412c7 -5 11 -11 10 -17c-1 -10 -13 -18 -27 -18c-59 0 -74 82 -69 144
c4 47 19 93 40 132c-91 -124 -191 -304 -206 -469c-15 -158 67 -229 173 -229c310 0 652 446 681 765c8 81 -16 214 -168 214c-79 0 -162 -38 -233 -89c-101 -76 -215 -218 -225 -332c-2 -30 -11 -82 24 -101zM941 1198c-6 -55 -80 -110 -124 -110s-77 32 -72 79
c5 52 72 114 127 114c41 0 73 -37 69 -83zM1168 1198c-5 -55 -79 -110 -123 -110c-45 0 -77 32 -72 79c4 52 72 114 127 114c41 0 73 -37 68 -83z" />
    <glyph glyph-name="Oslash" unicode="&#xd8;" horiz-adv-x="1065" 
d="M667 1018c43 0 74 -19 92 -37c50 20 104 32 157 32h6c23 32 42 58 59 76c15 19 42 29 68 29c34 0 68 -42 44 -71c-17 -20 -34 -42 -53 -66c81 -47 131 -142 119 -268c-34 -366 -451 -842 -814 -851c-17 -32 -31 -60 -43 -84c-29 -57 -42 -60 -51 -60c-14 0 -19 16 -12 42
c7 27 19 63 37 106c-150 23 -249 136 -231 339c22 239 170 446 276 573c72 87 245 240 346 240zM989 911c-187 -262 -441 -684 -591 -955c305 13 638 449 667 764c6 60 -6 149 -76 191zM463 412c7 -5 11 -11 10 -17c-1 -10 -13 -18 -27 -18c-59 0 -74 82 -69 144
c4 47 19 93 40 132c-91 -124 -191 -304 -206 -469c-12 -125 37 -194 108 -219c132 281 385 721 547 967c-69 -8 -141 -43 -202 -87c-101 -76 -215 -218 -225 -332c-2 -30 -11 -82 24 -101z" />
    <glyph glyph-name="Ugrave" unicode="&#xd9;" horiz-adv-x="1082" 
d="M1029 899c21 39 60 115 109 115c43 0 104 -47 106 -79c4 -40 -32 -92 -42 -110c-26 -40 -68 -109 -102 -181c-86 -176 -225 -492 -243 -686c-2 -18 -2 -35 -2 -51c1 -19 -1 -31 -14 -35c-40 -14 -58 68 -58 97c-2 38 0 80 4 124c8 93 28 198 56 303
c-138 -228 -329 -445 -527 -475c-15 -2 -31 -3 -45 -3c-142 0 -213 113 -196 298c3 33 8 68 18 105c27 118 64 239 128 380c43 97 107 209 149 249c17 17 36 24 54 24c36 0 65 -20 80 -47c9 -16 11 -28 10 -40c-1 -11 -5 -22 -11 -33c-25 -47 -51 -87 -77 -136
c-69 -129 -126 -268 -160 -419c-7 -28 -11 -54 -14 -79c-10 -112 24 -184 96 -184c9 0 20 1 30 4c210 49 437 406 579 702c23 57 48 110 72 157zM743 1246c37 -93 160 -220 222 -239c11 -4 11 -15 10 -22c-6 -5 -11 -8 -15 -8c-27 -4 -73 6 -108 20
c-79 30 -208 100 -246 156c-12 20 1 49 29 81c21 22 61 41 84 32c8 -3 19 -9 24 -20z" />
    <glyph glyph-name="Uacute" unicode="&#xda;" horiz-adv-x="1082" 
d="M1029 899c21 39 60 115 109 115c43 0 104 -47 106 -79c4 -40 -32 -92 -42 -110c-26 -40 -68 -109 -102 -181c-86 -176 -225 -492 -243 -686c-2 -18 -2 -35 -2 -51c1 -19 -1 -31 -14 -35c-40 -14 -58 68 -58 97c-2 38 0 80 4 124c8 93 28 198 56 303
c-138 -228 -329 -445 -527 -475c-15 -2 -31 -3 -45 -3c-142 0 -213 113 -196 298c3 33 8 68 18 105c27 118 64 239 128 380c43 97 107 209 149 249c17 17 36 24 54 24c36 0 65 -20 80 -47c9 -16 11 -28 10 -40c-1 -11 -5 -22 -11 -33c-25 -47 -51 -87 -77 -136
c-69 -129 -126 -268 -160 -419c-7 -28 -11 -54 -14 -79c-10 -112 24 -184 96 -184c9 0 20 1 30 4c210 49 437 406 579 702c23 57 48 110 72 157zM923 1229c10 8 22 11 32 12c25 1 56 -27 64 -53c7 -19 9 -36 8 -50s-7 -26 -18 -33c-59 -42 -212 -74 -299 -81
c-9 -1 -20 -2 -30 -2c-14 0 -93 4 -91 24c2 7 8 17 20 18c66 1 238 87 314 165z" />
    <glyph glyph-name="Ucircumflex" unicode="&#xdb;" horiz-adv-x="1082" 
d="M1029 899c21 39 60 115 109 115c43 0 104 -47 106 -79c4 -40 -32 -92 -42 -110c-26 -40 -68 -109 -102 -181c-86 -176 -225 -492 -243 -686c-2 -18 -2 -35 -2 -51c1 -19 -1 -31 -14 -35c-40 -14 -58 68 -58 97c-2 38 0 80 4 124c8 93 28 198 56 303
c-138 -228 -329 -445 -527 -475c-15 -2 -31 -3 -45 -3c-142 0 -213 113 -196 298c3 33 8 68 18 105c27 118 64 239 128 380c43 97 107 209 149 249c17 17 36 24 54 24c36 0 65 -20 80 -47c9 -16 11 -28 10 -40c-1 -11 -5 -22 -11 -33c-25 -47 -51 -87 -77 -136
c-69 -129 -126 -268 -160 -419c-7 -28 -11 -54 -14 -79c-10 -112 24 -184 96 -184c9 0 20 1 30 4c210 49 437 406 579 702c23 57 48 110 72 157zM973 988c-54 72 -159 147 -210 147c-66 -19 -142 -54 -189 -89c-33 -23 -35 4 -25 18c29 46 215 211 288 211
c81 0 167 -195 171 -273c1 -16 -17 -38 -35 -14z" />
    <glyph glyph-name="Udieresis" unicode="&#xdc;" horiz-adv-x="1082" 
d="M1029 899c21 39 60 115 109 115c43 0 104 -47 106 -79c4 -40 -32 -92 -42 -110c-26 -40 -68 -109 -102 -181c-86 -176 -225 -492 -243 -686c-2 -18 -2 -35 -2 -51c1 -19 -1 -31 -14 -35c-40 -14 -58 68 -58 97c-2 38 0 80 4 124c8 93 28 198 56 303
c-138 -228 -329 -445 -527 -475c-15 -2 -31 -3 -45 -3c-142 0 -213 113 -196 298c3 33 8 68 18 105c27 118 64 239 128 380c43 97 107 209 149 249c17 17 36 24 54 24c36 0 65 -20 80 -47c9 -16 11 -28 10 -40c-1 -11 -5 -22 -11 -33c-25 -47 -51 -87 -77 -136
c-69 -129 -126 -268 -160 -419c-7 -28 -11 -54 -14 -79c-10 -112 24 -184 96 -184c9 0 20 1 30 4c210 49 437 406 579 702c23 57 48 110 72 157zM775 1120c-4 -55 -79 -110 -124 -110c-44 0 -75 32 -71 79c4 52 71 114 127 114c41 0 74 -37 68 -83zM1003 1120
c-4 -55 -80 -110 -124 -110s-75 32 -71 79c4 52 71 114 127 114c41 0 73 -37 68 -83z" />
    <glyph glyph-name="Yacute" unicode="&#xdd;" horiz-adv-x="895" 
d="M34 482c16 173 106 335 176 433c30 44 62 58 92 58c14 0 26 -3 41 -7c26 -9 61 -26 59 -66c-1 -33 -52 -77 -106 -190c-24 -48 -76 -142 -83 -219c-5 -59 16 -105 64 -105c150 0 374 237 459 335c79 91 146 225 195 258c7 4 15 7 24 7c70 0 128 -43 124 -88
c-3 -40 -36 -69 -81 -138c-38 -60 -99 -146 -154 -250c-139 -256 -275 -549 -281 -677c0 -23 -12 -35 -24 -35c-30 0 -35 32 -38 41c-5 18 -5 47 -1 82c15 174 116 519 198 659c-124 -124 -310 -297 -500 -297c-104 0 -175 80 -164 199zM775 1210c9 8 22 11 31 12
c25 1 56 -27 65 -53c7 -19 10 -36 8 -50c-1 -14 -8 -26 -17 -33c-61 -42 -213 -74 -301 -81c-9 -1 -19 -2 -30 -2c-14 0 -91 4 -90 24c1 7 7 17 20 18c65 1 238 87 314 165z" />
    <glyph glyph-name="agrave" unicode="&#xe0;" 
d="M529 591l3 -7c15 -3 42 -16 63 -32c17 -13 29 -26 26 -51c-4 -41 -38 -85 -55 -119c-50 -104 -132 -326 -101 -326c45 0 157 117 261 296c10 17 27 27 38 27c13 0 20 -12 9 -38c-43 -101 -240 -365 -319 -384c-69 -16 -125 49 -125 117c0 15 1 30 2 44
c5 62 27 138 47 196c-61 -91 -239 -322 -347 -322c-68 0 -102 81 -96 150c19 198 280 540 466 540c41 0 112 -48 128 -91zM356 378c26 33 77 113 80 147c2 13 -3 23 -20 23c-131 0 -336 -330 -340 -434c1 -9 4 -14 11 -14c48 0 201 194 269 278zM425 968
c38 -93 162 -220 223 -239c11 -4 11 -15 9 -22c-5 -5 -9 -8 -13 -8c-29 -4 -75 6 -110 20c-77 30 -206 100 -244 156c-13 20 0 49 28 81c21 22 61 41 84 32c9 -3 19 -9 23 -20z" />
    <glyph glyph-name="aacute" unicode="&#xe1;" 
d="M529 591l3 -7c15 -3 42 -16 63 -32c17 -13 29 -26 26 -51c-4 -41 -38 -85 -55 -119c-50 -104 -132 -326 -101 -326c45 0 157 117 261 296c10 17 27 27 38 27c13 0 20 -12 9 -38c-43 -101 -240 -365 -319 -384c-69 -16 -125 49 -125 117c0 15 1 30 2 44
c5 62 27 138 47 196c-61 -91 -239 -322 -347 -322c-68 0 -102 81 -96 150c19 198 280 540 466 540c41 0 112 -48 128 -91zM356 378c26 33 77 113 80 147c2 13 -3 23 -20 23c-131 0 -336 -330 -340 -434c1 -9 4 -14 11 -14c48 0 201 194 269 278zM594 973c9 8 22 11 32 12
c25 1 54 -27 64 -53c6 -19 9 -36 8 -50c-2 -14 -8 -26 -18 -33c-61 -42 -213 -74 -299 -81c-9 -1 -20 -2 -30 -2c-14 0 -93 4 -91 24c0 7 7 17 19 18c65 1 239 87 315 165z" />
    <glyph glyph-name="acircumflex" unicode="&#xe2;" 
d="M529 591l3 -7c15 -3 42 -16 63 -32c17 -13 29 -26 26 -51c-4 -41 -38 -85 -55 -119c-50 -104 -132 -326 -101 -326c45 0 157 117 261 296c10 17 27 27 38 27c13 0 20 -12 9 -38c-43 -101 -240 -365 -319 -384c-69 -16 -125 49 -125 117c0 15 1 30 2 44
c5 62 27 138 47 196c-61 -91 -239 -322 -347 -322c-68 0 -102 81 -96 150c19 198 280 540 466 540c41 0 112 -48 128 -91zM356 378c26 33 77 113 80 147c2 13 -3 23 -20 23c-131 0 -336 -330 -340 -434c1 -9 4 -14 11 -14c48 0 201 194 269 278zM642 689
c-54 72 -159 147 -210 147c-67 -19 -142 -54 -189 -89c-33 -23 -35 4 -27 18c30 46 217 211 290 211c81 0 167 -195 171 -273c1 -16 -18 -38 -35 -14z" />
    <glyph glyph-name="atilde" unicode="&#xe3;" 
d="M529 591l3 -7c15 -3 42 -16 63 -32c17 -13 29 -26 26 -51c-4 -41 -38 -85 -55 -119c-50 -104 -132 -326 -101 -326c45 0 157 117 261 296c10 17 27 27 38 27c13 0 20 -12 9 -38c-43 -101 -240 -365 -319 -384c-69 -16 -125 49 -125 117c0 15 1 30 2 44
c5 62 27 138 47 196c-61 -91 -239 -322 -347 -322c-68 0 -102 81 -96 150c19 198 280 540 466 540c41 0 112 -48 128 -91zM356 378c26 33 77 113 80 147c2 13 -3 23 -20 23c-131 0 -336 -330 -340 -434c1 -9 4 -14 11 -14c48 0 201 194 269 278zM293 774
c-18 -24 -31 -36 -37 -36c-9 0 -11 7 -11 16c4 40 51 110 91 147c37 34 79 57 114 57c43 0 63 -36 89 -67c21 -26 43 -49 67 -49c31 0 55 3 129 89c15 17 23 23 31 23c14 0 7 -26 3 -33c-29 -57 -133 -199 -210 -199c-36 0 -62 23 -87 47c-28 28 -52 59 -84 59
c-27 0 -73 -26 -95 -54z" />
    <glyph glyph-name="adieresis" unicode="&#xe4;" 
d="M529 591l3 -7c15 -3 42 -16 63 -32c17 -13 29 -26 26 -51c-4 -41 -38 -85 -55 -119c-50 -104 -132 -326 -101 -326c45 0 157 117 261 296c10 17 27 27 38 27c13 0 20 -12 9 -38c-43 -101 -240 -365 -319 -384c-69 -16 -125 49 -125 117c0 15 1 30 2 44
c5 62 27 138 47 196c-61 -91 -239 -322 -347 -322c-68 0 -102 81 -96 150c19 198 280 540 466 540c41 0 112 -48 128 -91zM356 378c26 33 77 113 80 147c2 13 -3 23 -20 23c-131 0 -336 -330 -340 -434c1 -9 4 -14 11 -14c48 0 201 194 269 278zM477 860
c-6 -55 -81 -110 -125 -110s-76 32 -72 79c6 52 72 114 127 114c41 0 74 -37 70 -83zM705 860c-6 -55 -81 -110 -125 -110c-45 0 -76 32 -72 79c5 52 72 114 127 114c41 0 74 -37 70 -83z" />
    <glyph glyph-name="aring" unicode="&#xe5;" 
d="M355 751c5 94 101 223 204 223c1 0 3 -1 4 -1c17 6 33 9 50 9c66 0 122 -43 116 -108c-9 -94 -145 -208 -245 -229c21 -16 39 -36 45 -54l3 -7c15 -3 42 -16 63 -32c17 -13 29 -26 26 -51c-4 -41 -38 -85 -55 -119c-50 -104 -132 -326 -101 -326c45 0 157 117 261 296
c10 17 27 27 38 27c13 0 20 -12 9 -38c-43 -101 -240 -365 -319 -384c-69 -16 -125 49 -125 117c0 15 1 30 2 44c5 62 27 138 47 196c-61 -91 -239 -322 -347 -322c-68 0 -102 81 -96 150c19 190 259 512 443 538c-16 19 -24 44 -23 71zM356 378c26 33 77 113 80 147
c2 13 -3 23 -20 23c-131 0 -336 -330 -340 -434c1 -9 4 -14 11 -14c48 0 201 194 269 278zM659 885c1 17 -2 31 -12 41c-71 -3 -163 -138 -168 -197c-1 -14 4 -23 14 -23c33 0 158 87 166 179z" />
    <glyph glyph-name="egrave" unicode="&#xe8;" horiz-adv-x="550" 
d="M277 457c-30 -37 -62 -78 -90 -122c24 -3 36 2 45 5c67 23 189 125 195 192c3 31 -22 28 -28 28c-36 0 -96 -72 -122 -103zM232 277c-19 0 -51 7 -66 23c-36 -61 -60 -127 -63 -191c-1 -36 19 -50 47 -50c112 0 287 154 401 278c20 22 36 44 56 44c22 0 15 -23 -2 -53
c-41 -75 -311 -359 -480 -359c-77 0 -186 68 -176 178c15 163 117 316 235 440c53 56 136 113 202 105c62 -8 157 -65 151 -137c-10 -108 -213 -278 -305 -278zM411 985c37 -93 160 -220 222 -239c11 -4 11 -15 10 -22c-7 -5 -11 -8 -15 -8c-27 -4 -74 6 -108 20
c-78 30 -207 100 -245 156c-14 20 0 49 28 81c21 22 60 41 83 32c9 -3 20 -9 25 -20z" />
    <glyph glyph-name="eacute" unicode="&#xe9;" horiz-adv-x="550" 
d="M277 457c-30 -37 -62 -78 -90 -122c24 -3 36 2 45 5c67 23 189 125 195 192c3 31 -22 28 -28 28c-36 0 -96 -72 -122 -103zM232 277c-19 0 -51 7 -66 23c-36 -61 -60 -127 -63 -191c-1 -36 19 -50 47 -50c112 0 287 154 401 278c20 22 36 44 56 44c22 0 15 -23 -2 -53
c-41 -75 -311 -359 -480 -359c-77 0 -186 68 -176 178c15 163 117 316 235 440c53 56 136 113 202 105c62 -8 157 -65 151 -137c-10 -108 -213 -278 -305 -278zM582 971c9 8 22 11 32 12c25 1 55 -27 64 -53c7 -19 10 -36 8 -50c-1 -14 -8 -26 -17 -33
c-61 -42 -213 -74 -299 -81c-11 -1 -21 -2 -32 -2c-14 0 -91 4 -90 24c1 7 7 17 20 18c65 1 238 87 314 165z" />
    <glyph glyph-name="ecircumflex" unicode="&#xea;" horiz-adv-x="550" 
d="M277 457c-30 -37 -62 -78 -90 -122c24 -3 36 2 45 5c67 23 189 125 195 192c3 31 -22 28 -28 28c-36 0 -96 -72 -122 -103zM232 277c-19 0 -51 7 -66 23c-36 -61 -60 -127 -63 -191c-1 -36 19 -50 47 -50c112 0 287 154 401 278c20 22 36 44 56 44c22 0 15 -23 -2 -53
c-41 -75 -311 -359 -480 -359c-77 0 -186 68 -176 178c15 163 117 316 235 440c53 56 136 113 202 105c62 -8 157 -65 151 -137c-10 -108 -213 -278 -305 -278zM610 694c-52 72 -159 147 -210 147c-66 -19 -142 -54 -189 -89c-33 -23 -34 4 -25 18c29 46 215 211 289 211
c80 0 167 -195 171 -273c1 -16 -18 -38 -36 -14z" />
    <glyph glyph-name="edieresis" unicode="&#xeb;" horiz-adv-x="550" 
d="M277 457c-30 -37 -62 -78 -90 -122c24 -3 36 2 45 5c67 23 189 125 195 192c3 31 -22 28 -28 28c-36 0 -96 -72 -122 -103zM232 277c-19 0 -51 7 -66 23c-36 -61 -60 -127 -63 -191c-1 -36 19 -50 47 -50c112 0 287 154 401 278c20 22 36 44 56 44c22 0 15 -23 -2 -53
c-41 -75 -311 -359 -480 -359c-77 0 -186 68 -176 178c15 163 117 316 235 440c53 56 136 113 202 105c62 -8 157 -65 151 -137c-10 -108 -213 -278 -305 -278zM442 874c-5 -55 -81 -110 -125 -110s-76 32 -71 79c5 52 71 114 127 114c41 0 73 -37 69 -83zM670 874
c-5 -55 -81 -110 -125 -110s-76 32 -71 79c5 52 71 114 127 114c41 0 73 -37 69 -83z" />
    <glyph glyph-name="igrave" unicode="&#xec;" horiz-adv-x="374" 
d="M82 497c19 41 59 136 120 136c36 -1 94 -33 89 -90c-3 -36 -61 -99 -83 -143c-41 -87 -86 -198 -93 -270c-3 -32 0 -50 10 -50c59 0 208 174 271 277c7 13 13 22 25 22c13 0 18 -15 9 -38c-37 -107 -261 -367 -353 -367c-83 0 -112 80 -102 176c10 114 67 256 107 347z
M269 959c38 -93 161 -220 222 -239c12 -4 12 -15 11 -22c-6 -5 -11 -8 -15 -8c-27 -4 -74 6 -108 20c-79 30 -208 100 -246 156c-12 20 1 49 29 81c21 22 61 41 84 32c8 -3 19 -9 23 -20z" />
    <glyph glyph-name="iacute" unicode="&#xed;" horiz-adv-x="374" 
d="M82 497c19 41 59 136 120 136c36 -1 94 -33 89 -90c-3 -36 -61 -99 -83 -143c-41 -87 -86 -198 -93 -270c-3 -32 0 -50 10 -50c59 0 208 174 271 277c7 13 13 22 25 22c13 0 18 -15 9 -38c-37 -107 -261 -367 -353 -367c-83 0 -112 80 -102 176c10 114 67 256 107 347z
M428 962c9 8 22 11 32 12c25 1 54 -27 64 -53c6 -19 9 -36 8 -50c-2 -14 -8 -26 -18 -33c-60 -42 -213 -74 -299 -81c-9 -1 -20 -2 -30 -2c-14 0 -93 4 -91 24c0 7 7 17 19 18c65 1 239 87 315 165z" />
    <glyph glyph-name="icircumflex" unicode="&#xee;" horiz-adv-x="374" 
d="M82 497c19 41 59 136 120 136c36 -1 94 -33 89 -90c-3 -36 -61 -99 -83 -143c-41 -87 -86 -198 -93 -270c-3 -32 0 -50 10 -50c59 0 208 174 271 277c7 13 13 22 25 22c13 0 18 -15 9 -38c-37 -107 -261 -367 -353 -367c-83 0 -112 80 -102 176c10 114 67 256 107 347z
M478 685c-53 72 -159 147 -210 147c-65 -19 -141 -54 -188 -89c-34 -23 -35 4 -26 18c29 46 216 211 289 211c81 0 166 -195 171 -273c0 -16 -18 -38 -36 -14z" />
    <glyph glyph-name="idieresis" unicode="&#xef;" horiz-adv-x="374" 
d="M82 497c19 41 59 136 120 136c36 -1 94 -33 89 -90c-3 -36 -61 -99 -83 -143c-41 -87 -86 -198 -93 -270c-3 -32 0 -50 10 -50c59 0 208 174 271 277c7 13 13 22 25 22c13 0 18 -15 9 -38c-37 -107 -261 -367 -353 -367c-83 0 -112 80 -102 176c10 114 67 256 107 347z
M312 865c-5 -55 -80 -110 -124 -110s-77 32 -73 79c6 52 72 114 128 114c40 0 73 -37 69 -83zM540 865c-6 -55 -80 -110 -124 -110s-77 32 -73 79c6 52 72 114 127 114c41 0 74 -37 70 -83z" />
    <glyph glyph-name="ntilde" unicode="&#xf1;" horiz-adv-x="680" 
d="M56 406c31 74 54 152 78 236c9 29 34 37 60 37c33 -1 101 -41 97 -94c-4 -41 -52 -138 -101 -232c24 31 50 64 79 94c55 61 202 226 273 224c62 -2 105 -71 97 -127c-6 -45 -60 -123 -92 -199c-37 -84 -71 -170 -78 -220c-2 -19 7 -28 19 -28c44 -2 155 156 217 261
c8 16 19 21 26 21c17 0 24 -23 10 -48c-56 -116 -217 -347 -307 -347c-72 0 -111 68 -103 144c17 187 143 409 128 409c-54 2 -246 -222 -316 -348c-19 -34 -57 -99 -89 -165c-21 -41 -46 -46 -63 -46c-39 2 -72 61 -69 101c6 53 79 199 134 327zM277 790
c-18 -24 -31 -36 -38 -36c-9 0 -11 7 -10 16c3 40 50 110 91 147c37 34 79 57 115 57c43 0 63 -36 88 -67c21 -26 43 -49 67 -49c32 0 56 3 128 89c16 17 23 23 32 23c13 0 6 -26 2 -33c-29 -57 -133 -199 -210 -199c-36 0 -62 23 -86 47c-28 28 -53 59 -84 59
c-28 0 -74 -26 -95 -54z" />
    <glyph glyph-name="ograve" unicode="&#xf2;" horiz-adv-x="543" 
d="M360 677c24 0 63 -15 89 -41c71 -10 113 -73 105 -154c-20 -211 -299 -507 -460 -507c-89 0 -157 87 -149 184c10 102 68 215 143 316c46 63 167 199 272 202zM480 483c4 47 -24 79 -61 83c-149 -63 -300 -300 -313 -429c-2 -25 3 -70 47 -70c92 0 311 251 327 416z
M433 983c36 -93 160 -220 222 -239c11 -4 11 -15 10 -22c-7 -5 -11 -8 -15 -8c-27 -4 -75 6 -108 20c-79 30 -208 100 -246 156c-13 20 1 49 28 81c21 22 61 41 84 32c9 -3 19 -9 25 -20z" />
    <glyph glyph-name="oacute" unicode="&#xf3;" horiz-adv-x="543" 
d="M360 677c24 0 63 -15 89 -41c71 -10 113 -73 105 -154c-20 -211 -299 -507 -460 -507c-89 0 -157 87 -149 184c10 102 68 215 143 316c46 63 167 199 272 202zM480 483c4 47 -24 79 -61 83c-149 -63 -300 -300 -313 -429c-2 -25 3 -70 47 -70c92 0 311 251 327 416z
M567 962c8 8 22 11 31 12c26 1 55 -27 65 -53c6 -19 9 -36 8 -50c-2 -14 -8 -26 -18 -33c-61 -42 -213 -74 -299 -81c-10 -1 -20 -2 -31 -2c-13 0 -92 4 -90 24c0 7 6 17 19 18c65 1 238 87 315 165z" />
    <glyph glyph-name="ocircumflex" unicode="&#xf4;" horiz-adv-x="543" 
d="M360 677c24 0 63 -15 89 -41c71 -10 113 -73 105 -154c-20 -211 -299 -507 -460 -507c-89 0 -157 87 -149 184c10 102 68 215 143 316c46 63 167 199 272 202zM480 483c4 47 -24 79 -61 83c-149 -63 -300 -300 -313 -429c-2 -25 3 -70 47 -70c92 0 311 251 327 416z
M612 679c-53 72 -158 147 -210 147c-66 -19 -142 -54 -189 -89c-32 -23 -35 4 -25 18c29 46 215 211 289 211c81 0 167 -195 171 -273c1 -16 -18 -38 -36 -14z" />
    <glyph glyph-name="otilde" unicode="&#xf5;" horiz-adv-x="543" 
d="M360 677c24 0 63 -15 89 -41c71 -10 113 -73 105 -154c-20 -211 -299 -507 -460 -507c-89 0 -157 87 -149 184c10 102 68 215 143 316c46 63 167 199 272 202zM480 483c4 47 -24 79 -61 83c-149 -63 -300 -300 -313 -429c-2 -25 3 -70 47 -70c92 0 311 251 327 416z
M274 771c-18 -24 -30 -36 -37 -36c-9 0 -12 7 -11 16c4 40 51 110 91 147c37 34 79 57 115 57c43 0 63 -36 88 -67c21 -26 43 -49 67 -49c31 0 56 3 129 89c15 17 23 23 32 23c13 0 5 -26 2 -33c-29 -57 -134 -199 -211 -199c-36 0 -62 23 -85 47c-29 28 -53 59 -84 59
c-28 0 -75 -26 -96 -54z" />
    <glyph glyph-name="odieresis" unicode="&#xf6;" horiz-adv-x="543" 
d="M360 677c24 0 63 -15 89 -41c71 -10 113 -73 105 -154c-20 -211 -299 -507 -460 -507c-89 0 -157 87 -149 184c10 102 68 215 143 316c46 63 167 199 272 202zM480 483c4 47 -24 79 -61 83c-149 -63 -300 -300 -313 -429c-2 -25 3 -70 47 -70c92 0 311 251 327 416z
M469 867c-4 -55 -79 -110 -124 -110c-44 0 -75 32 -71 79c4 52 71 114 127 114c41 0 73 -37 68 -83zM697 867c-4 -55 -80 -110 -124 -110s-75 32 -71 79c4 52 71 114 127 114c41 0 72 -37 68 -83z" />
    <glyph glyph-name="oslash" unicode="&#xf8;" horiz-adv-x="543" 
d="M-13 -208c9 37 34 105 73 188c-71 19 -122 95 -115 179c10 102 68 215 143 316c46 63 167 199 272 202c19 0 47 -10 70 -26c47 70 87 126 118 161c16 19 42 29 68 29c35 0 68 -42 44 -71c-45 -53 -90 -113 -136 -176c23 -28 35 -67 30 -112c-17 -192 -251 -454 -413 -500
c-36 -63 -66 -121 -91 -172c-29 -57 -42 -60 -50 -60c-14 0 -18 16 -13 42zM480 483c1 15 -1 28 -5 39c-99 -143 -197 -301 -280 -443c104 53 271 261 285 404zM106 137c-1 -13 0 -32 7 -47c71 140 160 301 243 440c-126 -92 -239 -282 -250 -393z" />
    <glyph glyph-name="ugrave" unicode="&#xf9;" horiz-adv-x="716" 
d="M493 119c-3 -31 -2 -55 18 -55c57 0 194 218 234 288c11 17 28 27 39 27c13 0 20 -12 9 -38c-27 -63 -218 -381 -336 -381c-62 0 -116 70 -107 159c3 41 10 80 19 118c-84 -127 -188 -248 -292 -248c-81 0 -117 81 -110 164c13 136 116 302 178 452c11 27 42 46 68 44
c33 -3 98 -54 86 -107c-7 -38 -58 -102 -108 -200c-26 -52 -60 -142 -68 -194c-1 -22 -4 -55 28 -55c35 0 89 61 145 138c68 94 136 214 162 271c2 4 16 30 30 57c23 42 56 90 99 90c37 0 98 -36 92 -94c-3 -35 -62 -107 -93 -173c-37 -77 -86 -190 -93 -263zM388 961
c37 -93 161 -220 223 -239c11 -4 11 -15 10 -22c-7 -5 -11 -8 -15 -8c-27 -4 -74 6 -108 20c-79 30 -207 100 -246 156c-13 20 1 49 29 81c20 22 60 41 83 32c9 -3 20 -9 24 -20z" />
    <glyph glyph-name="uacute" unicode="&#xfa;" horiz-adv-x="716" 
d="M493 119c-3 -31 -2 -55 18 -55c57 0 194 218 234 288c11 17 28 27 39 27c13 0 20 -12 9 -38c-27 -63 -218 -381 -336 -381c-62 0 -116 70 -107 159c3 41 10 80 19 118c-84 -127 -188 -248 -292 -248c-81 0 -117 81 -110 164c13 136 116 302 178 452c11 27 42 46 68 44
c33 -3 98 -54 86 -107c-7 -38 -58 -102 -108 -200c-26 -52 -60 -142 -68 -194c-1 -22 -4 -55 28 -55c35 0 89 61 145 138c68 94 136 214 162 271c2 4 16 30 30 57c23 42 56 90 99 90c37 0 98 -36 92 -94c-3 -35 -62 -107 -93 -173c-37 -77 -86 -190 -93 -263zM567 955
c9 8 22 11 31 12c26 1 56 -27 65 -53c7 -19 9 -36 8 -50s-7 -26 -18 -33c-60 -42 -212 -74 -299 -81c-10 -1 -20 -2 -31 -2c-13 0 -92 4 -90 24c1 7 7 17 20 18c65 1 237 87 314 165z" />
    <glyph glyph-name="ucircumflex" unicode="&#xfb;" horiz-adv-x="716" 
d="M493 119c-3 -31 -2 -55 18 -55c57 0 194 218 234 288c11 17 28 27 39 27c13 0 20 -12 9 -38c-27 -63 -218 -381 -336 -381c-62 0 -116 70 -107 159c3 41 10 80 19 118c-84 -127 -188 -248 -292 -248c-81 0 -117 81 -110 164c13 136 116 302 178 452c11 27 42 46 68 44
c33 -3 98 -54 86 -107c-7 -38 -58 -102 -108 -200c-26 -52 -60 -142 -68 -194c-1 -22 -4 -55 28 -55c35 0 89 61 145 138c68 94 136 214 162 271c2 4 16 30 30 57c23 42 56 90 99 90c37 0 98 -36 92 -94c-3 -35 -62 -107 -93 -173c-37 -77 -86 -190 -93 -263zM623 701
c-54 72 -159 147 -210 147c-67 -19 -142 -54 -189 -89c-33 -23 -35 4 -27 18c31 46 217 211 290 211c81 0 167 -195 171 -273c1 -16 -18 -38 -35 -14z" />
    <glyph glyph-name="udieresis" unicode="&#xfc;" horiz-adv-x="716" 
d="M493 119c-3 -31 -2 -55 18 -55c57 0 194 218 234 288c11 17 28 27 39 27c13 0 20 -12 9 -38c-27 -63 -218 -381 -336 -381c-62 0 -116 70 -107 159c3 41 10 80 19 118c-84 -127 -188 -248 -292 -248c-81 0 -117 81 -110 164c13 136 116 302 178 452c11 27 42 46 68 44
c33 -3 98 -54 86 -107c-7 -38 -58 -102 -108 -200c-26 -52 -60 -142 -68 -194c-1 -22 -4 -55 28 -55c35 0 89 61 145 138c68 94 136 214 162 271c2 4 16 30 30 57c23 42 56 90 99 90c37 0 98 -36 92 -94c-3 -35 -62 -107 -93 -173c-37 -77 -86 -190 -93 -263zM466 860
c-5 -55 -81 -110 -125 -110s-75 32 -71 79c5 52 71 114 127 114c41 0 73 -37 69 -83zM694 860c-5 -55 -81 -110 -125 -110s-76 32 -71 79c5 52 71 114 127 114c41 0 73 -37 69 -83z" />
    <glyph glyph-name="yacute" unicode="&#xfd;" horiz-adv-x="673" 
d="M-21 188c10 112 111 291 167 421c10 27 42 46 68 44c32 -3 99 -58 87 -111c-7 -31 -49 -95 -78 -155c-28 -59 -85 -158 -93 -230c-2 -26 5 -31 17 -31c58 0 277 268 376 422c25 38 67 115 115 115c43 0 92 -43 89 -74c-6 -53 -52 -103 -84 -155c-22 -35 -59 -96 -77 -133
c-107 -209 -307 -583 -323 -767c-3 -19 -7 -32 -18 -36c-43 -14 -48 67 -43 105c25 274 169 595 203 671c-70 -98 -211 -254 -293 -254c-94 0 -120 89 -113 168zM601 953c9 8 22 11 31 12c25 1 56 -27 64 -53c7 -19 10 -36 9 -50c-2 -14 -8 -26 -18 -33
c-61 -42 -212 -74 -300 -81c-9 -1 -20 -2 -30 -2c-14 0 -92 4 -90 24c0 7 6 17 19 18c66 1 238 87 315 165z" />
    <glyph glyph-name="ydieresis" unicode="&#xff;" horiz-adv-x="673" 
d="M-21 188c10 112 111 291 167 421c10 27 42 46 68 44c32 -3 99 -58 87 -111c-7 -31 -49 -95 -78 -155c-28 -59 -85 -158 -93 -230c-2 -26 5 -31 17 -31c58 0 277 268 376 422c25 38 67 115 115 115c43 0 92 -43 89 -74c-6 -53 -52 -103 -84 -155c-22 -35 -59 -96 -77 -133
c-107 -209 -307 -583 -323 -767c-3 -19 -7 -32 -18 -36c-43 -14 -48 67 -43 105c25 274 169 595 203 671c-70 -98 -211 -254 -293 -254c-94 0 -120 89 -113 168zM492 857c-4 -55 -79 -110 -123 -110c-45 0 -76 32 -72 79c4 52 72 114 127 114c41 0 74 -37 68 -83zM720 857
c-4 -55 -80 -110 -124 -110s-75 32 -71 79c4 52 71 114 127 114c41 0 74 -37 68 -83z" />
    <glyph glyph-name="B" unicode="B" horiz-adv-x="1107" 
d="M279 353l5 11l-3 3c-12 13 -23 37 -21 61c1 17 11 35 29 48c11 8 30 14 53 19c52 110 118 234 178 335c-125 -40 -159 -87 -202 -96c-66 -16 -101 52 -95 101c8 96 235 157 421 175c12 14 24 23 32 25c32 8 70 -2 94 -20c115 -4 371 -38 356 -206
c-12 -134 -287 -247 -439 -300c143 -8 390 -50 378 -181c-10 -101 -123 -184 -210 -234c-176 -98 -436 -176 -612 -208l-1 -3c-4 -13 -16 -32 -31 -32c-19 0 -31 9 -39 24c-27 -3 -50 -5 -69 -5c-25 0 -54 13 -50 46c1 9 8 24 42 24c11 0 23 -1 34 -1c9 0 20 1 34 3
c5 121 84 327 116 411zM354 219c-52 -107 -78 -196 -94 -256c226 56 628 201 638 306c5 55 -182 81 -229 87c-73 8 -146 12 -222 15c-5 0 -9 0 -13 1c-35 -63 -64 -119 -80 -153zM989 786c6 67 -152 77 -254 77h-12c-15 -23 -30 -48 -46 -74c-15 -24 -92 -152 -168 -285
c164 56 471 181 480 282z" />
    </font>
</defs>
</svg>
