<?xml version="1.0" standalone="no"?>
<!DOCTYPE svg PUBLIC "-//W3C//DTD SVG 1.1//EN" "http://www.w3.org/Graphics/SVG/1.1/DTD/svg11.dtd" >
<svg xmlns="http://www.w3.org/2000/svg" xmlns:xlink="http://www.w3.org/1999/xlink" version="1.1">
<metadata>
Created by FontForge 20190801 at Wed May  4 03:25:49 2016
 By Jimmy Wärting
Copyright (c) 2011 by Vincenzo Vuono. All rights reserved.
</metadata>
<defs>
<font id="Gravity-Bold" horiz-adv-x="597" >
  <font-face 
    font-family="Gravity"
    font-weight="700"
    font-stretch="normal"
    units-per-em="1000"
    panose-1="0 0 8 0 0 0 0 0 0 0"
    ascent="800"
    descent="-200"
    x-height="537"
    cap-height="732"
    bbox="-33 -278.531 1128 986"
    underline-thickness="85"
    underline-position="-220"
    stemh="107"
    stemv="129"
    unicode-range="U+0020-F8FF"
  />
<missing-glyph horiz-adv-x="698" 
d="M89 732h515c13 0 20 -7 20 -20v-692c0 -13 -7 -20 -20 -20h-515c-13 0 -20 7 -20 20v692c0 13 7 20 20 20zM528 645h-363v-558h363v558zM277 127h-45c-15 0 -21 9 -16 23l87 215l-87 215c-5 14 1 23 16 23h45c12 0 19 -5 23 -16l47 -114l46 114c4 11 11 16 23 16h45
c15 0 21 -9 16 -23l-87 -215l87 -215c5 -14 -1 -23 -16 -23h-45c-12 0 -19 5 -23 16l-46 114l-47 -114c-4 -11 -11 -16 -23 -16z" />
    <glyph glyph-name=".notdef" horiz-adv-x="698" 
d="M89 732h515c13 0 20 -7 20 -20v-692c0 -13 -7 -20 -20 -20h-515c-13 0 -20 7 -20 20v692c0 13 7 20 20 20zM528 645h-363v-558h363v558zM277 127h-45c-15 0 -21 9 -16 23l87 215l-87 215c-5 14 1 23 16 23h45c12 0 19 -5 23 -16l47 -114l46 114c4 11 11 16 23 16h45
c15 0 21 -9 16 -23l-87 -215l87 -215c5 -14 -1 -23 -16 -23h-45c-12 0 -19 5 -23 16l-46 114l-47 -114c-4 -11 -11 -16 -23 -16z" />
    <glyph glyph-name="A" unicode="A" horiz-adv-x="693" 
d="M482 213h-269l-69 -197c-4 -11 -11 -16 -23 -16h-82c-15 0 -22 9 -17 23l255 693c4 11 11 16 23 16h95c12 0 19 -5 23 -16l255 -693c5 -14 -2 -23 -17 -23h-83c-12 0 -19 5 -23 16zM445 320l-94 268h-6l-94 -268h194z" />
    <glyph glyph-name="Aacute" unicode="&#xc1;" horiz-adv-x="693" 
d="M475 934l-99 -124c-6 -9 -13 -12 -24 -12h-33c-16 0 -22 10 -14 24l65 122c6 10 13 14 24 14h70c17 0 22 -11 11 -24zM482 213h-269l-69 -197c-4 -11 -11 -16 -23 -16h-82c-15 0 -22 9 -17 23l255 693c4 11 11 16 23 16h95c12 0 19 -5 23 -16l255 -693
c5 -14 -2 -23 -17 -23h-83c-12 0 -19 5 -23 16zM445 320l-94 268h-6l-94 -268h194z" />
    <glyph glyph-name="Abreve" unicode="&#x102;" horiz-adv-x="693" 
d="M345 776c-85 0 -146 45 -146 144c0 10 7 16 20 16h45c13 0 20 -6 20 -16c0 -48 28 -69 61 -69c35 0 62 21 62 69c0 10 7 16 20 16h46c13 0 20 -6 20 -16c0 -99 -61 -144 -148 -144zM482 213h-269l-69 -197c-4 -11 -11 -16 -23 -16h-82c-15 0 -22 9 -17 23l255 693
c4 11 11 16 23 16h95c12 0 19 -5 23 -16l255 -693c5 -14 -2 -23 -17 -23h-83c-12 0 -19 5 -23 16zM445 320l-94 268h-6l-94 -268h194z" />
    <glyph glyph-name="Acaron" unicode="&#x1cd;" horiz-adv-x="693" 
d="M370 798h-50c-11 0 -18 3 -25 11l-105 124c-11 14 -6 25 11 25h58c10 0 18 -4 24 -12l59 -80h10l54 79c6 9 14 13 24 13h58c17 0 22 -11 11 -25l-104 -124c-7 -8 -14 -11 -25 -11zM482 213h-269l-69 -197c-4 -11 -11 -16 -23 -16h-82c-15 0 -22 9 -17 23l255 693
c4 11 11 16 23 16h95c12 0 19 -5 23 -16l255 -693c5 -14 -2 -23 -17 -23h-83c-12 0 -19 5 -23 16zM445 320l-94 268h-6l-94 -268h194z" />
    <glyph glyph-name="Acircumflex" unicode="&#xc2;" horiz-adv-x="693" 
d="M340 890l-54 -79c-6 -9 -14 -13 -24 -13h-58c-17 0 -22 11 -11 25l104 124c7 8 14 11 25 11h50c11 0 18 -3 25 -11l105 -124c11 -14 6 -25 -11 -25h-58c-10 0 -18 4 -24 12l-59 80h-10zM482 213h-269l-69 -197c-4 -11 -11 -16 -23 -16h-82c-15 0 -22 9 -17 23l255 693
c4 11 11 16 23 16h95c12 0 19 -5 23 -16l255 -693c5 -14 -2 -23 -17 -23h-83c-12 0 -19 5 -23 16zM445 320l-94 268h-6l-94 -268h194z" />
    <glyph glyph-name="Adieresis" unicode="&#xc4;" horiz-adv-x="693" 
d="M321 929v-75c0 -13 -7 -20 -20 -20h-62c-13 0 -20 7 -20 20v75c0 13 7 20 20 20h62c13 0 20 -7 20 -20zM481 929v-75c0 -13 -7 -20 -20 -20h-62c-13 0 -20 7 -20 20v75c0 13 7 20 20 20h62c13 0 20 -7 20 -20zM482 213h-269l-69 -197c-4 -11 -11 -16 -23 -16h-82
c-15 0 -22 9 -17 23l255 693c4 11 11 16 23 16h95c12 0 19 -5 23 -16l255 -693c5 -14 -2 -23 -17 -23h-83c-12 0 -19 5 -23 16zM445 320l-94 268h-6l-94 -268h194z" />
    <glyph glyph-name="Adotbelow" unicode="&#x1ea0;" horiz-adv-x="693" 
d="M656 0h-83c-12 0 -19 5 -23 16l-68 197h-269l-69 -197c-4 -11 -11 -16 -23 -16h-82c-15 0 -22 9 -17 23l255 693c4 11 11 16 23 16h95c12 0 19 -5 23 -16l255 -693c5 -14 -2 -23 -17 -23zM445 320l-94 268h-6l-94 -268h194zM288 -166v80c0 13 7 20 20 20h79
c13 0 20 -7 20 -20v-80c0 -13 -7 -20 -20 -20h-79c-13 0 -20 7 -20 20z" />
    <glyph glyph-name="Agrave" unicode="&#xc0;" horiz-adv-x="693" 
d="M386 798h-33c-11 0 -18 3 -24 12l-99 124c-11 13 -6 24 11 24h70c11 0 18 -4 24 -14l65 -122c8 -14 2 -24 -14 -24zM482 213h-269l-69 -197c-4 -11 -11 -16 -23 -16h-82c-15 0 -22 9 -17 23l255 693c4 11 11 16 23 16h95c12 0 19 -5 23 -16l255 -693
c5 -14 -2 -23 -17 -23h-83c-12 0 -19 5 -23 16zM445 320l-94 268h-6l-94 -268h194z" />
    <glyph glyph-name="Amacron" unicode="&#x100;" horiz-adv-x="693" 
d="M474 911v-48c0 -13 -7 -20 -20 -20h-215c-13 0 -20 7 -20 20v48c0 13 7 20 20 20h215c13 0 20 -7 20 -20zM482 213h-269l-69 -197c-4 -11 -11 -16 -23 -16h-82c-15 0 -22 9 -17 23l255 693c4 11 11 16 23 16h95c12 0 19 -5 23 -16l255 -693c5 -14 -2 -23 -17 -23h-83
c-12 0 -19 5 -23 16zM445 320l-94 268h-6l-94 -268h194z" />
    <glyph glyph-name="Aogonek" unicode="&#x104;" horiz-adv-x="693" 
d="M675 0c-73 -42 -119 -84 -119 -118c0 -19 15 -31 47 -31c12 0 28 1 44 4c14 2 22 -4 22 -18v-41c0 -12 -5 -20 -17 -22c-19 -4 -38 -6 -53 -6c-80 0 -125 44 -125 110c0 49 27 95 76 138l-68 197h-269l-69 -197c-4 -11 -11 -16 -23 -16h-82c-15 0 -22 9 -17 23l255 693
c4 11 11 16 23 16h95c12 0 19 -5 23 -16l255 -693c5 -14 6 -23 2 -23zM445 320l-94 268h-6l-94 -268h194z" />
    <glyph glyph-name="Aring" unicode="&#xc5;" horiz-adv-x="693" 
d="M347 768c-56 0 -102 41 -102 102s46 101 102 101s101 -40 101 -101s-45 -102 -101 -102zM347 911c-23 0 -41 -16 -41 -41s18 -41 41 -41c22 0 41 16 41 41s-19 41 -41 41zM482 213h-269l-69 -197c-4 -11 -11 -16 -23 -16h-82c-15 0 -22 9 -17 23l255 693
c4 11 11 16 23 16h95c12 0 19 -5 23 -16l255 -693c5 -14 -2 -23 -17 -23h-83c-12 0 -19 5 -23 16zM445 320l-94 268h-6l-94 -268h194z" />
    <glyph glyph-name="Atilde" unicode="&#xc3;" horiz-adv-x="693" 
d="M298 863c-17 0 -25 -14 -28 -31c-2 -12 -8 -19 -20 -19h-30c-13 0 -20 7 -19 20c4 59 29 106 96 106c69 0 89 -67 119 -67c15 0 21 13 23 30c2 13 8 20 20 20h31c13 0 20 -7 19 -20c-5 -52 -29 -106 -93 -106c-63 0 -78 67 -118 67zM482 213h-269l-69 -197
c-4 -11 -11 -16 -23 -16h-82c-15 0 -22 9 -17 23l255 693c4 11 11 16 23 16h95c12 0 19 -5 23 -16l255 -693c5 -14 -2 -23 -17 -23h-83c-12 0 -19 5 -23 16zM445 320l-94 268h-6l-94 -268h194z" />
    <glyph glyph-name="AE" unicode="&#xc6;" horiz-adv-x="979" 
d="M615 626v-191h258c13 0 20 -7 20 -20v-67c0 -13 -7 -20 -20 -20h-258v-221h299c13 0 20 -7 20 -20v-67c0 -13 -7 -20 -20 -20h-397c-13 0 -20 7 -20 20v193h-239l-112 -199c-6 -10 -13 -14 -24 -14h-84c-16 0 -22 10 -14 24l396 695c6 10 13 14 24 14h471
c13 0 20 -7 20 -20v-67c0 -13 -7 -20 -20 -20h-300zM497 320v317l-179 -317h179z" />
    <glyph glyph-name="B" unicode="B" horiz-adv-x="692" 
d="M550 386c64 -36 97 -95 97 -165c0 -123 -94 -221 -240 -221h-318c-13 0 -20 7 -20 20l4 692c0 13 7 20 20 20h284c141 0 231 -85 231 -200c0 -57 -20 -108 -58 -146zM192 628l1 -203h190c68 0 107 36 107 99c0 64 -47 104 -127 104h-171zM195 104h203
c87 0 131 40 131 105c0 68 -51 111 -147 111h-188z" />
    <glyph glyph-name="Bdotbelow" unicode="&#x1e04;" horiz-adv-x="692" 
d="M550 386c64 -36 97 -95 97 -165c0 -123 -94 -221 -240 -221h-318c-13 0 -20 7 -20 20l4 692c0 13 7 20 20 20h284c141 0 231 -85 231 -200c0 -57 -20 -108 -58 -146zM192 628l1 -203h190c68 0 107 36 107 99c0 64 -47 104 -127 104h-171zM195 104h203
c87 0 131 40 131 105c0 68 -51 111 -147 111h-188zM279 -166v80c0 13 7 20 20 20h79c13 0 20 -7 20 -20v-80c0 -13 -7 -20 -20 -20h-79c-13 0 -20 7 -20 20z" />
    <glyph glyph-name="C" unicode="C" horiz-adv-x="766" 
d="M398 748c145 0 265 -80 313 -216c5 -14 -2 -23 -17 -23l-74 -1c-11 0 -18 4 -24 14c-46 78 -119 121 -205 121c-128 0 -228 -93 -228 -269c0 -178 100 -284 244 -284c100 0 158 50 193 124c5 10 12 15 24 15l74 -1c15 0 22 -9 17 -22c-37 -107 -141 -222 -319 -222
c-211 0 -352 157 -352 380c0 228 154 384 354 384z" />
    <glyph glyph-name="Cacute" unicode="&#x106;" horiz-adv-x="766" 
d="M512 933l-99 -124c-6 -9 -13 -12 -24 -12h-33c-16 0 -22 10 -14 24l65 122c6 10 13 14 24 14h70c17 0 22 -11 11 -24zM398 748c145 0 265 -80 313 -216c5 -14 -2 -23 -17 -23l-74 -1c-11 0 -18 4 -24 14c-46 78 -119 121 -205 121c-128 0 -228 -93 -228 -269
c0 -178 100 -284 244 -284c100 0 158 50 193 124c5 10 12 15 24 15l74 -1c15 0 22 -9 17 -22c-37 -107 -141 -222 -319 -222c-211 0 -352 157 -352 380c0 228 154 384 354 384z" />
    <glyph glyph-name="Cacute.loclPLK" horiz-adv-x="766" 
d="M476 957l-51 -126c-4 -11 -11 -16 -23 -16h-33c-14 0 -21 8 -18 22l29 126c3 11 10 17 22 17h58c15 0 21 -9 16 -23zM398 748c145 0 265 -80 313 -216c5 -14 -2 -23 -17 -23l-74 -1c-11 0 -18 4 -24 14c-46 78 -119 121 -205 121c-128 0 -228 -93 -228 -269
c0 -178 100 -284 244 -284c100 0 158 50 193 124c5 10 12 15 24 15l74 -1c15 0 22 -9 17 -22c-37 -107 -141 -222 -319 -222c-211 0 -352 157 -352 380c0 228 154 384 354 384z" />
    <glyph glyph-name="Ccaron" unicode="&#x10c;" horiz-adv-x="766" 
d="M238 957h58c10 0 18 -4 24 -12l59 -80h10l54 79c6 9 14 13 24 13h58c17 0 22 -11 11 -25l-104 -124c-7 -8 -14 -11 -25 -11h-50c-11 0 -18 3 -25 11l-105 124c-11 14 -6 25 11 25zM398 748c145 0 265 -80 313 -216c5 -14 -2 -23 -17 -23l-74 -1c-11 0 -18 4 -24 14
c-46 78 -119 121 -205 121c-128 0 -228 -93 -228 -269c0 -178 100 -284 244 -284c100 0 158 50 193 124c5 10 12 15 24 15l74 -1c15 0 22 -9 17 -22c-37 -107 -141 -222 -319 -222c-211 0 -352 157 -352 380c0 228 154 384 354 384z" />
    <glyph glyph-name="Ccedilla" unicode="&#xc7;" horiz-adv-x="766" 
d="M624 229l74 -1c15 0 22 -9 17 -22c-36 -103 -133 -214 -300 -222l-13 -42c36 -8 68 -35 68 -84c0 -52 -37 -94 -107 -94c-21 0 -40 4 -61 14c-11 6 -14 15 -11 26l7 22c4 14 13 17 26 12c15 -6 28 -9 39 -9c18 0 34 13 34 26c0 16 -12 33 -53 32h-4c-15 0 -21 9 -17 23
l23 77c-183 23 -302 172 -302 377c0 228 154 384 354 384c145 0 265 -80 313 -216c5 -14 -2 -23 -17 -23l-74 -1c-11 0 -18 4 -24 14c-46 78 -119 121 -205 121c-128 0 -228 -93 -228 -269c0 -178 100 -284 244 -284c100 0 158 50 193 124c5 10 12 15 24 15z" />
    <glyph glyph-name="Cdotaccent" unicode="&#x10a;" horiz-adv-x="766" 
d="M441 926v-75c0 -13 -7 -20 -20 -20h-75c-13 0 -20 7 -20 20v75c0 13 7 20 20 20h75c13 0 20 -7 20 -20zM398 748c145 0 265 -80 313 -216c5 -14 -2 -23 -17 -23l-74 -1c-11 0 -18 4 -24 14c-46 78 -119 121 -205 121c-128 0 -228 -93 -228 -269c0 -178 100 -284 244 -284
c100 0 158 50 193 124c5 10 12 15 24 15l74 -1c15 0 22 -9 17 -22c-37 -107 -141 -222 -319 -222c-211 0 -352 157 -352 380c0 228 154 384 354 384z" />
    <glyph glyph-name="D" unicode="D" horiz-adv-x="754" 
d="M93 732h257c237 0 359 -141 359 -355c0 -216 -121 -377 -359 -377h-261c-13 0 -20 7 -20 20l4 692c0 13 7 20 20 20zM196 105h147c158 0 248 96 248 259c0 173 -91 264 -249 264h-150z" />
    <glyph glyph-name="Eth" unicode="&#xd0;" horiz-adv-x="754" 
d="M93 732h257c237 0 359 -141 359 -355c0 -216 -121 -377 -359 -377h-261c-13 0 -20 7 -20 20l1 209h-52c-13 0 -20 7 -20 20v64c0 13 7 20 20 20h53l2 379c0 13 7 20 20 20zM196 105h147c158 0 248 96 248 259c0 173 -91 264 -249 264h-150l2 -295h165c13 0 20 -7 20 -20
v-64c0 -13 -7 -20 -20 -20h-164z" />
    <glyph glyph-name="Dcaron" unicode="&#x10e;" horiz-adv-x="754" 
d="M359 797h-50c-11 0 -18 3 -25 11l-105 124c-11 14 -6 25 11 25h58c10 0 18 -4 24 -12l59 -80h10l54 79c6 9 14 13 24 13h58c17 0 22 -11 11 -25l-104 -124c-7 -8 -14 -11 -25 -11zM93 732h257c237 0 359 -141 359 -355c0 -216 -121 -377 -359 -377h-261
c-13 0 -20 7 -20 20l4 692c0 13 7 20 20 20zM196 105h147c158 0 248 96 248 259c0 173 -91 264 -249 264h-150z" />
    <glyph glyph-name="Dcroat" unicode="&#x110;" horiz-adv-x="754" 
d="M93 732h257c237 0 359 -141 359 -355c0 -216 -121 -377 -359 -377h-261c-13 0 -20 7 -20 20l1 209h-52c-13 0 -20 7 -20 20v64c0 13 7 20 20 20h53l2 379c0 13 7 20 20 20zM196 105h147c158 0 248 96 248 259c0 173 -91 264 -249 264h-150l2 -295h165c13 0 20 -7 20 -20
v-64c0 -13 -7 -20 -20 -20h-164z" />
    <glyph glyph-name="Ddotbelow" unicode="&#x1e0c;" horiz-adv-x="754" 
d="M93 732h257c237 0 359 -141 359 -355c0 -216 -121 -377 -359 -377h-261c-13 0 -20 7 -20 20l4 692c0 13 7 20 20 20zM196 105h147c158 0 248 96 248 259c0 173 -91 264 -249 264h-150zM294 -166v80c0 13 7 20 20 20h79c13 0 20 -7 20 -20v-80c0 -13 -7 -20 -20 -20h-79
c-13 0 -20 7 -20 20z" />
    <glyph glyph-name="E" unicode="E" horiz-adv-x="605" 
d="M192 625l1 -190h306c13 0 20 -7 20 -20v-67c0 -13 -7 -20 -20 -20h-305l1 -221h346c13 0 20 -7 20 -20v-67c0 -13 -7 -20 -20 -20h-452c-13 0 -20 7 -20 20l4 692c0 13 7 20 20 20h448c13 0 20 -7 20 -20v-67c0 -13 -7 -20 -20 -20h-349z" />
    <glyph glyph-name="Eacute" unicode="&#xc9;" horiz-adv-x="605" 
d="M443 934l-99 -124c-6 -9 -13 -12 -24 -12h-33c-16 0 -22 10 -14 24l65 122c6 10 13 14 24 14h70c17 0 22 -11 11 -24zM192 625l1 -190h306c13 0 20 -7 20 -20v-67c0 -13 -7 -20 -20 -20h-305l1 -221h346c13 0 20 -7 20 -20v-67c0 -13 -7 -20 -20 -20h-452
c-13 0 -20 7 -20 20l4 692c0 13 7 20 20 20h448c13 0 20 -7 20 -20v-67c0 -13 -7 -20 -20 -20h-349z" />
    <glyph glyph-name="Ecaron" unicode="&#x11a;" horiz-adv-x="605" 
d="M339 798h-50c-11 0 -18 3 -25 11l-105 124c-11 14 -6 25 11 25h58c10 0 18 -4 24 -12l59 -80h10l54 79c6 9 14 13 24 13h58c17 0 22 -11 11 -25l-104 -124c-7 -8 -14 -11 -25 -11zM192 625l1 -190h306c13 0 20 -7 20 -20v-67c0 -13 -7 -20 -20 -20h-305l1 -221h346
c13 0 20 -7 20 -20v-67c0 -13 -7 -20 -20 -20h-452c-13 0 -20 7 -20 20l4 692c0 13 7 20 20 20h448c13 0 20 -7 20 -20v-67c0 -13 -7 -20 -20 -20h-349z" />
    <glyph glyph-name="Ecedilla" unicode="&#x228;" horiz-adv-x="605" 
d="M192 625l1 -190h306c13 0 20 -7 20 -20v-67c0 -13 -7 -20 -20 -20h-305l1 -221h346c13 0 20 -7 20 -20v-67c0 -13 -7 -20 -20 -20h-195l-18 -58c36 -8 68 -35 68 -84c0 -52 -37 -94 -107 -94c-21 0 -40 4 -61 14c-11 6 -14 15 -11 26l7 22c4 14 13 17 26 12
c15 -6 28 -9 39 -9c18 0 34 13 34 26c0 16 -12 33 -53 32h-4c-15 0 -21 9 -17 23l27 90h-187c-13 0 -20 7 -20 20l4 692c0 13 7 20 20 20h448c13 0 20 -7 20 -20v-67c0 -13 -7 -20 -20 -20h-349z" />
    <glyph glyph-name="Ecircumflex" unicode="&#xca;" horiz-adv-x="605" 
d="M308 890l-54 -79c-6 -9 -14 -13 -24 -13h-58c-17 0 -22 11 -11 25l104 124c7 8 14 11 25 11h50c11 0 18 -3 25 -11l105 -124c11 -14 6 -25 -11 -25h-58c-10 0 -18 4 -24 12l-59 80h-10zM192 625l1 -190h306c13 0 20 -7 20 -20v-67c0 -13 -7 -20 -20 -20h-305l1 -221h346
c13 0 20 -7 20 -20v-67c0 -13 -7 -20 -20 -20h-452c-13 0 -20 7 -20 20l4 692c0 13 7 20 20 20h448c13 0 20 -7 20 -20v-67c0 -13 -7 -20 -20 -20h-349z" />
    <glyph glyph-name="Edieresis" unicode="&#xcb;" horiz-adv-x="605" 
d="M289 929v-75c0 -13 -7 -20 -20 -20h-62c-13 0 -20 7 -20 20v75c0 13 7 20 20 20h62c13 0 20 -7 20 -20zM449 929v-75c0 -13 -7 -20 -20 -20h-62c-13 0 -20 7 -20 20v75c0 13 7 20 20 20h62c13 0 20 -7 20 -20zM192 625l1 -190h306c13 0 20 -7 20 -20v-67
c0 -13 -7 -20 -20 -20h-305l1 -221h346c13 0 20 -7 20 -20v-67c0 -13 -7 -20 -20 -20h-452c-13 0 -20 7 -20 20l4 692c0 13 7 20 20 20h448c13 0 20 -7 20 -20v-67c0 -13 -7 -20 -20 -20h-349z" />
    <glyph glyph-name="Edotaccent" unicode="&#x116;" horiz-adv-x="605" 
d="M373 927v-75c0 -13 -7 -20 -20 -20h-75c-13 0 -20 7 -20 20v75c0 13 7 20 20 20h75c13 0 20 -7 20 -20zM192 625l1 -190h306c13 0 20 -7 20 -20v-67c0 -13 -7 -20 -20 -20h-305l1 -221h346c13 0 20 -7 20 -20v-67c0 -13 -7 -20 -20 -20h-452c-13 0 -20 7 -20 20l4 692
c0 13 7 20 20 20h448c13 0 20 -7 20 -20v-67c0 -13 -7 -20 -20 -20h-349z" />
    <glyph glyph-name="Edotbelow" unicode="&#x1eb8;" horiz-adv-x="605" 
d="M192 625l1 -190h306c13 0 20 -7 20 -20v-67c0 -13 -7 -20 -20 -20h-305l1 -221h346c13 0 20 -7 20 -20v-67c0 -13 -7 -20 -20 -20h-452c-13 0 -20 7 -20 20l4 692c0 13 7 20 20 20h448c13 0 20 -7 20 -20v-67c0 -13 -7 -20 -20 -20h-349zM249 -166v80c0 13 7 20 20 20h79
c13 0 20 -7 20 -20v-80c0 -13 -7 -20 -20 -20h-79c-13 0 -20 7 -20 20z" />
    <glyph glyph-name="Egrave" unicode="&#xc8;" horiz-adv-x="605" 
d="M354 798h-33c-11 0 -18 3 -24 12l-99 124c-11 13 -6 24 11 24h70c11 0 18 -4 24 -14l65 -122c8 -14 2 -24 -14 -24zM192 625l1 -190h306c13 0 20 -7 20 -20v-67c0 -13 -7 -20 -20 -20h-305l1 -221h346c13 0 20 -7 20 -20v-67c0 -13 -7 -20 -20 -20h-452
c-13 0 -20 7 -20 20l4 692c0 13 7 20 20 20h448c13 0 20 -7 20 -20v-67c0 -13 -7 -20 -20 -20h-349z" />
    <glyph glyph-name="Emacron" unicode="&#x112;" horiz-adv-x="605" 
d="M442 911v-48c0 -13 -7 -20 -20 -20h-215c-13 0 -20 7 -20 20v48c0 13 7 20 20 20h215c13 0 20 -7 20 -20zM192 625l1 -190h306c13 0 20 -7 20 -20v-67c0 -13 -7 -20 -20 -20h-305l1 -221h346c13 0 20 -7 20 -20v-67c0 -13 -7 -20 -20 -20h-452c-13 0 -20 7 -20 20l4 692
c0 13 7 20 20 20h448c13 0 20 -7 20 -20v-67c0 -13 -7 -20 -20 -20h-349z" />
    <glyph glyph-name="Eogonek" unicode="&#x118;" horiz-adv-x="605" 
d="M192 625l1 -190h306c13 0 20 -7 20 -20v-67c0 -13 -7 -20 -20 -20h-305l1 -221h346c13 0 20 -7 20 -20v-67c0 -4 0 -8 -1 -11c-2 -9 -10 -11 -18 -16c-67 -39 -108 -79 -108 -111c0 -19 15 -31 47 -31c12 0 28 1 44 4c14 2 22 -4 22 -18v-41c0 -12 -5 -20 -17 -22
c-19 -4 -38 -6 -53 -6c-80 0 -125 44 -125 110c0 43 21 84 59 122h-322c-13 0 -20 7 -20 20l4 692c0 13 7 20 20 20h448c13 0 20 -7 20 -20v-67c0 -13 -7 -20 -20 -20h-349z" />
    <glyph glyph-name="Etilde" unicode="&#x1ebc;" horiz-adv-x="605" 
d="M266 863c-17 0 -25 -14 -28 -31c-2 -12 -8 -19 -20 -19h-30c-13 0 -20 7 -19 20c4 59 29 106 96 106c69 0 89 -67 119 -67c15 0 21 13 23 30c2 13 8 20 20 20h31c13 0 20 -7 19 -20c-5 -52 -29 -106 -93 -106c-63 0 -78 67 -118 67zM192 625l1 -190h306
c13 0 20 -7 20 -20v-67c0 -13 -7 -20 -20 -20h-305l1 -221h346c13 0 20 -7 20 -20v-67c0 -13 -7 -20 -20 -20h-452c-13 0 -20 7 -20 20l4 692c0 13 7 20 20 20h448c13 0 20 -7 20 -20v-67c0 -13 -7 -20 -20 -20h-349z" />
    <glyph glyph-name="F" unicode="F" horiz-adv-x="606" 
d="M192 625l1 -177h306c13 0 20 -7 20 -20v-67c0 -13 -7 -20 -20 -20h-305l2 -321c0 -13 -7 -20 -20 -20h-87c-13 0 -20 7 -20 20l4 692c0 13 7 20 20 20h449c13 0 20 -7 20 -20v-67c0 -13 -7 -20 -20 -20h-350z" />
    <glyph glyph-name="G" unicode="G" horiz-adv-x="796" 
d="M456 365h270c13 0 22 -8 22 -25c-6 -197 -138 -356 -354 -356c-202 0 -345 157 -345 382s154 382 356 382c143 0 262 -82 309 -206c6 -14 -1 -23 -16 -23l-74 -2c-11 0 -18 4 -24 14c-47 71 -119 112 -204 112c-129 0 -228 -93 -228 -269c0 -178 100 -284 244 -284
c100 0 183 61 211 168h-167c-13 0 -20 7 -20 20v67c0 13 7 20 20 20z" />
    <glyph glyph-name="Gbreve" unicode="&#x11e;" horiz-adv-x="796" 
d="M396 775c-85 0 -146 45 -146 144c0 10 7 16 20 16h45c13 0 20 -6 20 -16c0 -48 28 -69 61 -69c35 0 62 21 62 69c0 10 7 16 20 16h46c13 0 20 -6 20 -16c0 -99 -61 -144 -148 -144zM456 365h270c13 0 22 -8 22 -25c-6 -197 -138 -356 -354 -356c-202 0 -345 157 -345 382
s154 382 356 382c143 0 262 -82 309 -206c6 -14 -1 -23 -16 -23l-74 -2c-11 0 -18 4 -24 14c-47 71 -119 112 -204 112c-129 0 -228 -93 -228 -269c0 -178 100 -284 244 -284c100 0 183 61 211 168h-167c-13 0 -20 7 -20 20v67c0 13 7 20 20 20z" />
    <glyph glyph-name="Gcaron" unicode="&#x1e6;" horiz-adv-x="796" 
d="M422 797h-50c-11 0 -18 3 -25 11l-105 124c-11 14 -6 25 11 25h58c10 0 18 -4 24 -12l59 -80h10l54 79c6 9 14 13 24 13h58c17 0 22 -11 11 -25l-104 -124c-7 -8 -14 -11 -25 -11zM456 365h270c13 0 22 -8 22 -25c-6 -197 -138 -356 -354 -356c-202 0 -345 157 -345 382
s154 382 356 382c143 0 262 -82 309 -206c6 -14 -1 -23 -16 -23l-74 -2c-11 0 -18 4 -24 14c-47 71 -119 112 -204 112c-129 0 -228 -93 -228 -269c0 -178 100 -284 244 -284c100 0 183 61 211 168h-167c-13 0 -20 7 -20 20v67c0 13 7 20 20 20z" />
    <glyph glyph-name="Gcommaaccent" unicode="&#x122;" horiz-adv-x="796" 
d="M456 365h270c13 0 22 -8 22 -25c-6 -197 -138 -356 -354 -356c-202 0 -345 157 -345 382s154 382 356 382c143 0 262 -82 309 -206c6 -14 -1 -23 -16 -23l-74 -2c-11 0 -18 4 -24 14c-47 71 -119 112 -204 112c-129 0 -228 -93 -228 -269c0 -178 100 -284 244 -284
c100 0 183 61 211 168h-167c-13 0 -20 7 -20 20v67c0 13 7 20 20 20zM346 -138v51c0 13 7 20 20 20h64c13 0 20 -7 20 -20v-41c0 -71 -22 -116 -62 -145c-9 -7 -17 -7 -27 -2c-13 7 -14 16 -4 28c25 30 29 65 3 85c-9 7 -14 13 -14 24z" />
    <glyph glyph-name="Gdotaccent" unicode="&#x120;" horiz-adv-x="796" 
d="M456 926v-75c0 -13 -7 -20 -20 -20h-75c-13 0 -20 7 -20 20v75c0 13 7 20 20 20h75c13 0 20 -7 20 -20zM456 365h270c13 0 22 -8 22 -25c-6 -197 -138 -356 -354 -356c-202 0 -345 157 -345 382s154 382 356 382c143 0 262 -82 309 -206c6 -14 -1 -23 -16 -23l-74 -2
c-11 0 -18 4 -24 14c-47 71 -119 112 -204 112c-129 0 -228 -93 -228 -269c0 -178 100 -284 244 -284c100 0 183 61 211 168h-167c-13 0 -20 7 -20 20v67c0 13 7 20 20 20z" />
    <glyph glyph-name="H" unicode="H" horiz-adv-x="751" 
d="M662 0h-87c-13 0 -20 7 -20 20l2 308h-363l2 -308c0 -13 -7 -20 -20 -20h-87c-13 0 -20 7 -20 20l4 692c0 13 7 20 20 20h78c13 0 20 -7 20 -20l2 -277h365l2 277c0 13 7 20 20 20h78c13 0 20 -7 20 -20l4 -692c0 -13 -7 -20 -20 -20z" />
    <glyph glyph-name="Hbar" unicode="&#x126;" horiz-adv-x="751" 
d="M760 597v-37c0 -13 -7 -20 -20 -20h-61l3 -520c0 -13 -7 -20 -20 -20h-87c-13 0 -20 7 -20 20l2 308h-363l2 -308c0 -13 -7 -20 -20 -20h-87c-13 0 -20 7 -20 20l3 520h-60c-13 0 -20 7 -20 20v37c0 13 7 20 20 20h60l1 95c0 13 7 20 20 20h78c13 0 20 -7 20 -20l1 -95
h367l1 95c0 13 7 20 20 20h78c13 0 20 -7 20 -20l1 -95h61c13 0 20 -7 20 -20zM558 540h-366l1 -105h365v105z" />
    <glyph glyph-name="I" unicode="I" horiz-adv-x="385" 
d="M251 712l5 -692c0 -13 -7 -20 -20 -20h-86c-13 0 -20 7 -20 20l3 692c0 13 7 20 20 20h78c13 0 20 -7 20 -20z" />
    <glyph glyph-name="IJ" unicode="&#x132;" horiz-adv-x="767" 
d="M251 712l5 -692c0 -13 -7 -20 -20 -20h-86c-13 0 -20 7 -20 20l3 692c0 13 7 20 20 20h78c13 0 20 -7 20 -20zM635 526l3 -392c1 -266 -111 -340 -334 -340h-39c-13 0 -20 7 -20 20v65c0 13 7 20 20 20h38c159 0 211 55 212 226l2 401v186c0 13 7 20 20 20h78
c13 0 20 -7 20 -20v-186z" />
    <glyph glyph-name="Iacute" unicode="&#xcd;" horiz-adv-x="385" 
d="M321 934l-99 -124c-6 -9 -13 -12 -24 -12h-33c-16 0 -22 10 -14 24l65 122c6 10 13 14 24 14h70c17 0 22 -11 11 -24zM251 712l5 -692c0 -13 -7 -20 -20 -20h-86c-13 0 -20 7 -20 20l3 692c0 13 7 20 20 20h78c13 0 20 -7 20 -20z" />
    <glyph glyph-name="Iacute_J.loclNLD" horiz-adv-x="892" 
d="M761 713l3 -373c1 -258 -104 -334 -315 -339c-13 0 -20 7 -20 20v65c0 13 7 20 20 20c143 5 191 61 192 225l2 382c0 13 7 20 20 20h78c13 0 20 -7 20 -20zM251 712l5 -692c0 -13 -7 -20 -20 -20h-86c-13 0 -20 7 -20 20l3 692c0 13 7 20 20 20h78c13 0 20 -7 20 -20z
" />
    <glyph glyph-name="Icaron" unicode="&#x1cf;" horiz-adv-x="385" 
d="M47 958h58c10 0 18 -4 24 -12l59 -80h10l54 79c6 9 14 13 24 13h58c17 0 22 -11 11 -25l-104 -124c-7 -8 -14 -11 -25 -11h-50c-11 0 -18 3 -25 11l-105 124c-11 14 -6 25 11 25zM251 712l5 -692c0 -13 -7 -20 -20 -20h-86c-13 0 -20 7 -20 20l3 692c0 13 7 20 20 20h78
c13 0 20 -7 20 -20z" />
    <glyph glyph-name="Icircumflex" unicode="&#xce;" horiz-adv-x="385" 
d="M336 798h-58c-10 0 -18 4 -24 12l-59 80h-10l-54 -79c-6 -9 -14 -13 -24 -13h-58c-17 0 -22 11 -11 25l104 124c7 8 14 11 25 11h50c11 0 18 -3 25 -11l105 -124c11 -14 6 -25 -11 -25zM251 712l5 -692c0 -13 -7 -20 -20 -20h-86c-13 0 -20 7 -20 20l3 692
c0 13 7 20 20 20h78c13 0 20 -7 20 -20z" />
    <glyph glyph-name="Idieresis" unicode="&#xcf;" horiz-adv-x="385" 
d="M167 929v-75c0 -13 -7 -20 -20 -20h-62c-13 0 -20 7 -20 20v75c0 13 7 20 20 20h62c13 0 20 -7 20 -20zM327 929v-75c0 -13 -7 -20 -20 -20h-62c-13 0 -20 7 -20 20v75c0 13 7 20 20 20h62c13 0 20 -7 20 -20zM251 712l5 -692c0 -13 -7 -20 -20 -20h-86
c-13 0 -20 7 -20 20l3 692c0 13 7 20 20 20h78c13 0 20 -7 20 -20z" />
    <glyph glyph-name="Idotaccent" unicode="&#x130;" horiz-adv-x="385" 
d="M250 927v-75c0 -13 -7 -20 -20 -20h-75c-13 0 -20 7 -20 20v75c0 13 7 20 20 20h75c13 0 20 -7 20 -20zM251 712l5 -692c0 -13 -7 -20 -20 -20h-86c-13 0 -20 7 -20 20l3 692c0 13 7 20 20 20h78c13 0 20 -7 20 -20z" />
    <glyph glyph-name="Idotbelow" unicode="&#x1eca;" horiz-adv-x="385" 
d="M251 712l5 -692c0 -13 -7 -20 -20 -20h-86c-13 0 -20 7 -20 20l3 692c0 13 7 20 20 20h78c13 0 20 -7 20 -20zM252 -86v-80c0 -13 -7 -20 -20 -20h-79c-13 0 -20 7 -20 20v80c0 13 7 20 20 20h79c13 0 20 -7 20 -20z" />
    <glyph glyph-name="Igrave" unicode="&#xcc;" horiz-adv-x="385" 
d="M87 958h70c11 0 18 -4 24 -14l65 -122c8 -14 2 -24 -14 -24h-33c-11 0 -18 3 -24 12l-99 124c-11 13 -6 24 11 24zM251 712l5 -692c0 -13 -7 -20 -20 -20h-86c-13 0 -20 7 -20 20l3 692c0 13 7 20 20 20h78c13 0 20 -7 20 -20z" />
    <glyph glyph-name="Imacron" unicode="&#x12a;" horiz-adv-x="385" 
d="M320 911v-48c0 -13 -7 -20 -20 -20h-215c-13 0 -20 7 -20 20v48c0 13 7 20 20 20h215c13 0 20 -7 20 -20zM251 712l5 -692c0 -13 -7 -20 -20 -20h-86c-13 0 -20 7 -20 20l3 692c0 13 7 20 20 20h78c13 0 20 -7 20 -20z" />
    <glyph glyph-name="Iogonek" unicode="&#x12e;" horiz-adv-x="385" 
d="M256 0h-1s-4 -2 -14 -8c-65 -39 -105 -78 -105 -110c0 -19 15 -31 47 -31c12 0 28 1 44 4c14 2 22 -4 22 -18v-41c0 -12 -5 -20 -17 -22c-19 -4 -38 -6 -53 -6c-80 0 -125 44 -125 110c0 49 27 95 76 138l3 696c0 13 7 20 20 20h78c13 0 20 -7 20 -20z" />
    <glyph glyph-name="Itilde" unicode="&#x128;" horiz-adv-x="385" 
d="M143 939c69 0 89 -67 119 -67c15 0 21 13 23 30c2 13 8 20 20 20h31c13 0 20 -7 19 -20c-5 -52 -29 -106 -93 -106c-63 0 -78 67 -118 67c-17 0 -25 -14 -28 -31c-2 -12 -8 -19 -20 -19h-30c-13 0 -20 7 -19 19c4 59 28 107 96 107zM251 712l5 -692c0 -13 -7 -20 -20 -20
h-86c-13 0 -20 7 -20 20l3 692c0 13 7 20 20 20h78c13 0 20 -7 20 -20z" />
    <glyph glyph-name="J" unicode="J" horiz-adv-x="508" 
d="M376 713l3 -373c1 -258 -104 -334 -315 -339c-13 0 -20 7 -20 20v65c0 13 7 20 20 20c143 5 191 61 192 225l2 382c0 13 7 20 20 20h78c13 0 20 -7 20 -20z" />
    <glyph glyph-name="K" unicode="K" horiz-adv-x="707" 
d="M301 345l-107 -104l2 -221c0 -13 -7 -20 -20 -20h-87c-13 0 -20 7 -20 20l4 692c0 13 7 20 20 20h78c13 0 20 -7 20 -20l2 -333l350 343c7 7 14 10 24 10h95c18 0 23 -12 10 -25l-293 -286l302 -397c11 -13 5 -24 -12 -24h-106c-10 0 -18 4 -24 12z" />
    <glyph glyph-name="Kcommaaccent" unicode="&#x136;" horiz-adv-x="707" 
d="M379 421l302 -397c11 -13 5 -24 -12 -24h-106c-10 0 -18 4 -24 12l-238 333l-107 -104l2 -221c0 -13 -7 -20 -20 -20h-87c-13 0 -20 7 -20 20l4 692c0 13 7 20 20 20h78c13 0 20 -7 20 -20l2 -333l350 343c7 7 14 10 24 10h95c18 0 23 -12 10 -25zM302 -138v51
c0 13 7 20 20 20h64c13 0 20 -7 20 -20v-41c0 -71 -22 -116 -62 -145c-9 -7 -17 -7 -27 -2c-13 7 -14 16 -4 28c25 30 29 65 3 85c-9 7 -14 13 -14 24z" />
    <glyph glyph-name="L" unicode="L" 
d="M195 107h357c13 0 20 -7 20 -20v-67c0 -13 -7 -20 -20 -20h-463c-13 0 -20 7 -20 20l4 692c0 13 7 20 20 20h78c13 0 20 -7 20 -20z" />
    <glyph glyph-name="Lacute" unicode="&#x139;" 
d="M263 940l-99 -124c-6 -9 -13 -12 -24 -12h-33c-16 0 -22 10 -14 24l65 122c6 10 13 14 24 14h70c17 0 22 -11 11 -24zM195 107h357c13 0 20 -7 20 -20v-67c0 -13 -7 -20 -20 -20h-463c-13 0 -20 7 -20 20l4 692c0 13 7 20 20 20h78c13 0 20 -7 20 -20z" />
    <glyph glyph-name="Lcaron" unicode="&#x13d;" 
d="M195 107h357c13 0 20 -7 20 -20v-67c0 -13 -7 -20 -20 -20h-463c-13 0 -20 7 -20 20l4 692c0 13 7 20 20 20h78c13 0 20 -7 20 -20z" />
    <glyph glyph-name="Lcommaaccent" unicode="&#x13b;" 
d="M195 107h357c13 0 20 -7 20 -20v-67c0 -13 -7 -20 -20 -20h-463c-13 0 -20 7 -20 20l4 692c0 13 7 20 20 20h78c13 0 20 -7 20 -20zM251 -138v51c0 13 7 20 20 20h64c13 0 20 -7 20 -20v-41c0 -71 -22 -116 -62 -145c-9 -7 -17 -7 -27 -2c-13 7 -14 16 -4 28
c25 30 29 65 3 85c-9 7 -14 13 -14 24z" />
    <glyph glyph-name="Ldot" unicode="&#x13f;" 
d="M195 107h357c13 0 20 -7 20 -20v-67c0 -13 -7 -20 -20 -20h-463c-13 0 -20 7 -20 20l4 692c0 13 7 20 20 20h78c13 0 20 -7 20 -20zM430 435v-80c0 -13 -7 -20 -20 -20h-92c-13 0 -20 7 -20 20v80c0 13 7 20 20 20h92c13 0 20 -7 20 -20z" />
    <glyph glyph-name="Ldotbelow" unicode="&#x1e36;" 
d="M195 107h357c13 0 20 -7 20 -20v-67c0 -13 -7 -20 -20 -20h-463c-13 0 -20 7 -20 20l4 692c0 13 7 20 20 20h78c13 0 20 -7 20 -20zM243 -166v80c0 13 7 20 20 20h79c13 0 20 -7 20 -20v-80c0 -13 -7 -20 -20 -20h-79c-13 0 -20 7 -20 20z" />
    <glyph glyph-name="Lslash" unicode="&#x141;" 
d="M195 107h357c13 0 20 -7 20 -20v-67c0 -13 -7 -20 -20 -20h-463c-13 0 -20 7 -20 20l1 220l-45 -25c-14 -8 -24 -2 -24 14v65c0 11 4 18 14 24l56 32l2 362c0 13 7 20 20 20h78c13 0 20 -7 20 -20l2 -293l183 104c14 8 24 2 24 -14v-65c0 -11 -4 -18 -14 -24l-192 -109z
" />
    <glyph glyph-name="M" unicode="M" horiz-adv-x="893" 
d="M804 0h-81c-13 0 -20 7 -20 20l-9 569l-184 -573c-3 -11 -11 -16 -22 -16h-79c-11 0 -19 5 -22 17l-188 589l-9 -586c0 -13 -7 -20 -20 -20h-81c-13 0 -20 7 -19 20l23 692c1 13 8 20 21 20h132c11 0 19 -5 22 -16l181 -557l180 557c3 11 11 16 22 16h128
c13 0 20 -7 21 -20l23 -692c1 -13 -6 -20 -19 -20z" />
    <glyph glyph-name="Macute" unicode="&#x1e3e;" horiz-adv-x="893" 
d="M575 933l-99 -124c-6 -9 -13 -12 -24 -12h-33c-16 0 -22 10 -14 24l65 122c6 10 13 14 24 14h70c17 0 22 -11 11 -24zM804 0h-81c-13 0 -20 7 -20 20l-9 569l-184 -573c-3 -11 -11 -16 -22 -16h-79c-11 0 -19 5 -22 17l-188 589l-9 -586c0 -13 -7 -20 -20 -20h-81
c-13 0 -20 7 -19 20l23 692c1 13 8 20 21 20h132c11 0 19 -5 22 -16l181 -557l180 557c3 11 11 16 22 16h128c13 0 20 -7 21 -20l23 -692c1 -13 -6 -20 -19 -20z" />
    <glyph glyph-name="N" unicode="N" horiz-adv-x="746" 
d="M673 712l4 -692c0 -13 -7 -20 -20 -20h-114c-11 0 -18 4 -24 14l-329 577l3 -571c0 -13 -7 -20 -20 -20h-84c-13 0 -20 7 -20 20l4 692c0 13 7 20 20 20h119c11 0 18 -4 24 -14l318 -554l3 548c0 13 7 20 20 20h76c13 0 20 -7 20 -20z" />
    <glyph glyph-name="Nacute" unicode="&#x143;" horiz-adv-x="746" 
d="M502 940l-99 -124c-6 -9 -13 -12 -24 -12h-33c-16 0 -22 10 -14 24l65 122c6 10 13 14 24 14h70c17 0 22 -11 11 -24zM673 712l4 -692c0 -13 -7 -20 -20 -20h-114c-11 0 -18 4 -24 14l-329 577l3 -571c0 -13 -7 -20 -20 -20h-84c-13 0 -20 7 -20 20l4 692
c0 13 7 20 20 20h119c11 0 18 -4 24 -14l318 -554l3 548c0 13 7 20 20 20h76c13 0 20 -7 20 -20z" />
    <glyph glyph-name="Nacute.loclPLK" horiz-adv-x="746" 
d="M466 963l-51 -126c-4 -11 -11 -16 -23 -16h-33c-14 0 -21 8 -18 22l29 126c3 11 10 17 22 17h58c15 0 21 -9 16 -23zM673 712l4 -692c0 -13 -7 -20 -20 -20h-114c-11 0 -18 4 -24 14l-329 577l3 -571c0 -13 -7 -20 -20 -20h-84c-13 0 -20 7 -20 20l4 692c0 13 7 20 20 20
h119c11 0 18 -4 24 -14l318 -554l3 548c0 13 7 20 20 20h76c13 0 20 -7 20 -20z" />
    <glyph glyph-name="Ncaron" unicode="&#x147;" horiz-adv-x="746" 
d="M397 803h-50c-11 0 -18 3 -25 11l-105 124c-11 14 -6 25 11 25h58c10 0 18 -4 24 -12l59 -80h10l54 79c6 9 14 13 24 13h58c17 0 22 -11 11 -25l-104 -124c-7 -8 -14 -11 -25 -11zM673 712l4 -692c0 -13 -7 -20 -20 -20h-114c-11 0 -18 4 -24 14l-329 577l3 -571
c0 -13 -7 -20 -20 -20h-84c-13 0 -20 7 -20 20l4 692c0 13 7 20 20 20h119c11 0 18 -4 24 -14l318 -554l3 548c0 13 7 20 20 20h76c13 0 20 -7 20 -20z" />
    <glyph glyph-name="Ncommaaccent" unicode="&#x145;" horiz-adv-x="746" 
d="M673 712l4 -692c0 -13 -7 -20 -20 -20h-114c-11 0 -18 4 -24 14l-329 577l3 -571c0 -13 -7 -20 -20 -20h-84c-13 0 -20 7 -20 20l4 692c0 13 7 20 20 20h119c11 0 18 -4 24 -14l318 -554l3 548c0 13 7 20 20 20h76c13 0 20 -7 20 -20zM321 -138v51c0 13 7 20 20 20h64
c13 0 20 -7 20 -20v-41c0 -71 -22 -116 -62 -145c-9 -7 -17 -7 -27 -2c-13 7 -14 16 -4 28c25 30 29 65 3 85c-9 7 -14 13 -14 24z" />
    <glyph glyph-name="Ndotaccent" unicode="&#x1e44;" horiz-adv-x="746" 
d="M431 933v-75c0 -13 -7 -20 -20 -20h-75c-13 0 -20 7 -20 20v75c0 13 7 20 20 20h75c13 0 20 -7 20 -20zM673 712l4 -692c0 -13 -7 -20 -20 -20h-114c-11 0 -18 4 -24 14l-329 577l3 -571c0 -13 -7 -20 -20 -20h-84c-13 0 -20 7 -20 20l4 692c0 13 7 20 20 20h119
c11 0 18 -4 24 -14l318 -554l3 548c0 13 7 20 20 20h76c13 0 20 -7 20 -20z" />
    <glyph glyph-name="Ndotbelow" unicode="&#x1e46;" horiz-adv-x="746" 
d="M673 712l4 -692c0 -13 -7 -20 -20 -20h-114c-11 0 -18 4 -24 14l-329 577l3 -571c0 -13 -7 -20 -20 -20h-84c-13 0 -20 7 -20 20l4 692c0 13 7 20 20 20h119c11 0 18 -4 24 -14l318 -554l3 548c0 13 7 20 20 20h76c13 0 20 -7 20 -20zM313 -166v80c0 13 7 20 20 20h79
c13 0 20 -7 20 -20v-80c0 -13 -7 -20 -20 -20h-79c-13 0 -20 7 -20 20z" />
    <glyph glyph-name="Eng" unicode="&#x14a;" horiz-adv-x="746" 
d="M673 712l5 -712c1 -144 -71 -214 -222 -220c-14 0 -21 7 -21 20v65c0 12 7 19 20 20c71 6 99 35 99 105v12l-364 598l3 -580c0 -13 -7 -20 -20 -20h-84c-13 0 -20 7 -20 20l4 692c0 13 7 20 20 20h119c11 0 18 -4 24 -13l319 -523l4 516c0 13 7 20 20 20h74
c13 0 20 -7 20 -20z" />
    <glyph glyph-name="Ntilde" unicode="&#xd1;" horiz-adv-x="746" 
d="M325 869c-17 0 -25 -14 -28 -31c-2 -12 -8 -19 -20 -19h-30c-13 0 -20 7 -19 20c4 59 29 106 96 106c69 0 89 -67 119 -67c15 0 21 13 23 30c2 13 8 20 20 20h31c13 0 20 -7 19 -20c-5 -52 -29 -106 -93 -106c-63 0 -78 67 -118 67zM673 712l4 -692c0 -13 -7 -20 -20 -20
h-114c-11 0 -18 4 -24 14l-329 577l3 -571c0 -13 -7 -20 -20 -20h-84c-13 0 -20 7 -20 20l4 692c0 13 7 20 20 20h119c11 0 18 -4 24 -14l318 -554l3 548c0 13 7 20 20 20h76c13 0 20 -7 20 -20z" />
    <glyph glyph-name="O" unicode="O" horiz-adv-x="798" 
d="M405 748c200 0 348 -149 348 -370c0 -227 -155 -394 -359 -394c-200 0 -350 157 -350 382s156 382 361 382zM396 643c-132 0 -233 -93 -233 -269c0 -178 102 -284 239 -284c131 0 233 100 233 277c0 178 -103 276 -239 276z" />
    <glyph glyph-name="Oacute" unicode="&#xd3;" horiz-adv-x="798" 
d="M527 940l-99 -124c-6 -9 -13 -12 -24 -12h-33c-16 0 -22 10 -14 24l65 122c6 10 13 14 24 14h70c17 0 22 -11 11 -24zM405 748c200 0 348 -149 348 -370c0 -227 -155 -394 -359 -394c-200 0 -350 157 -350 382s156 382 361 382zM396 643c-132 0 -233 -93 -233 -269
c0 -178 102 -284 239 -284c131 0 233 100 233 277c0 178 -103 276 -239 276z" />
    <glyph glyph-name="Oacute.loclPLK" horiz-adv-x="798" 
d="M492 963l-51 -126c-4 -11 -11 -16 -23 -16h-33c-14 0 -21 8 -18 22l29 126c3 11 10 17 22 17h58c15 0 21 -9 16 -23zM405 748c200 0 348 -149 348 -370c0 -227 -155 -394 -359 -394c-200 0 -350 157 -350 382s156 382 361 382zM396 643c-132 0 -233 -93 -233 -269
c0 -178 102 -284 239 -284c131 0 233 100 233 277c0 178 -103 276 -239 276z" />
    <glyph glyph-name="Ocaron" unicode="&#x1d1;" horiz-adv-x="798" 
d="M254 963h58c10 0 18 -4 24 -12l59 -80h10l54 79c6 9 14 13 24 13h58c17 0 22 -11 11 -25l-104 -124c-7 -8 -14 -11 -25 -11h-50c-11 0 -18 3 -25 11l-105 124c-11 14 -6 25 11 25zM405 748c200 0 348 -149 348 -370c0 -227 -155 -394 -359 -394c-200 0 -350 157 -350 382
s156 382 361 382zM396 643c-132 0 -233 -93 -233 -269c0 -178 102 -284 239 -284c131 0 233 100 233 277c0 178 -103 276 -239 276z" />
    <glyph glyph-name="Ocircumflex" unicode="&#xd4;" horiz-adv-x="798" 
d="M543 804h-58c-10 0 -18 4 -24 12l-59 80h-10l-54 -79c-6 -9 -14 -13 -24 -13h-58c-17 0 -22 11 -11 25l104 124c7 8 14 11 25 11h50c11 0 18 -3 25 -11l105 -124c11 -14 6 -25 -11 -25zM405 748c200 0 348 -149 348 -370c0 -227 -155 -394 -359 -394
c-200 0 -350 157 -350 382s156 382 361 382zM396 643c-132 0 -233 -93 -233 -269c0 -178 102 -284 239 -284c131 0 233 100 233 277c0 178 -103 276 -239 276z" />
    <glyph glyph-name="Odieresis" unicode="&#xd6;" horiz-adv-x="798" 
d="M373 934v-75c0 -13 -7 -20 -20 -20h-62c-13 0 -20 7 -20 20v75c0 13 7 20 20 20h62c13 0 20 -7 20 -20zM533 934v-75c0 -13 -7 -20 -20 -20h-62c-13 0 -20 7 -20 20v75c0 13 7 20 20 20h62c13 0 20 -7 20 -20zM405 748c200 0 348 -149 348 -370
c0 -227 -155 -394 -359 -394c-200 0 -350 157 -350 382s156 382 361 382zM396 643c-132 0 -233 -93 -233 -269c0 -178 102 -284 239 -284c131 0 233 100 233 277c0 178 -103 276 -239 276z" />
    <glyph glyph-name="Odotbelow" unicode="&#x1ecc;" horiz-adv-x="798" 
d="M405 748c200 0 348 -149 348 -370c0 -227 -155 -394 -359 -394c-200 0 -350 157 -350 382s156 382 361 382zM396 643c-132 0 -233 -93 -233 -269c0 -178 102 -284 239 -284c131 0 233 100 233 277c0 178 -103 276 -239 276zM453 -86v-80c0 -13 -7 -20 -20 -20h-79
c-13 0 -20 7 -20 20v80c0 13 7 20 20 20h79c13 0 20 -7 20 -20z" />
    <glyph glyph-name="Ograve" unicode="&#xd2;" horiz-adv-x="798" 
d="M293 964h70c11 0 18 -4 24 -14l65 -122c8 -14 2 -24 -14 -24h-33c-11 0 -18 3 -24 12l-99 124c-11 13 -6 24 11 24zM405 748c200 0 348 -149 348 -370c0 -227 -155 -394 -359 -394c-200 0 -350 157 -350 382s156 382 361 382zM396 643c-132 0 -233 -93 -233 -269
c0 -178 102 -284 239 -284c131 0 233 100 233 277c0 178 -103 276 -239 276z" />
    <glyph glyph-name="Ohungarumlaut" unicode="&#x150;" horiz-adv-x="798" 
d="M465 942l-99 -124c-6 -9 -13 -12 -24 -12h-33c-16 0 -22 10 -14 24l65 122c6 10 13 14 24 14h70c17 0 22 -11 11 -24zM631 942l-99 -124c-6 -9 -13 -12 -24 -12h-33c-16 0 -22 10 -14 24l65 122c6 10 13 14 24 14h70c17 0 22 -11 11 -24zM405 748
c200 0 348 -149 348 -370c0 -227 -155 -394 -359 -394c-200 0 -350 157 -350 382s156 382 361 382zM396 643c-132 0 -233 -93 -233 -269c0 -178 102 -284 239 -284c131 0 233 100 233 277c0 178 -103 276 -239 276z" />
    <glyph glyph-name="Omacron" unicode="&#x14c;" horiz-adv-x="798" 
d="M526 916v-48c0 -13 -7 -20 -20 -20h-215c-13 0 -20 7 -20 20v48c0 13 7 20 20 20h215c13 0 20 -7 20 -20zM405 748c200 0 348 -149 348 -370c0 -227 -155 -394 -359 -394c-200 0 -350 157 -350 382s156 382 361 382zM396 643c-132 0 -233 -93 -233 -269
c0 -178 102 -284 239 -284c131 0 233 100 233 277c0 178 -103 276 -239 276z" />
    <glyph glyph-name="Oslash" unicode="&#xd8;" horiz-adv-x="833" 
d="M761 706l-60 -72c55 -64 88 -152 88 -256c0 -227 -156 -394 -360 -394c-80 0 -152 25 -209 70l-35 -43c-7 -8 -14 -11 -25 -11h-84c-17 0 -23 11 -12 25l86 103c-44 63 -70 145 -70 238c0 225 156 382 361 382c68 0 131 -18 183 -49l17 21c7 8 14 11 25 11h83
c17 0 23 -11 12 -25zM198 374c0 -59 11 -109 31 -151l323 389c-35 20 -76 31 -120 31c-132 0 -234 -93 -234 -269zM437 90c132 0 234 100 234 277c0 72 -17 131 -46 176l-333 -402c40 -33 90 -51 145 -51z" />
    <glyph glyph-name="Otilde" unicode="&#xd5;" horiz-adv-x="798" 
d="M349 945c69 0 89 -67 119 -67c15 0 21 13 23 30c2 13 8 20 20 20h31c13 0 20 -7 19 -20c-5 -52 -29 -106 -93 -106c-63 0 -78 67 -118 67c-17 0 -25 -14 -28 -31c-2 -12 -8 -19 -20 -19h-30c-13 0 -20 7 -19 19c4 59 28 107 96 107zM405 748c200 0 348 -149 348 -370
c0 -227 -155 -394 -359 -394c-200 0 -350 157 -350 382s156 382 361 382zM396 643c-132 0 -233 -93 -233 -269c0 -178 102 -284 239 -284c131 0 233 100 233 277c0 178 -103 276 -239 276z" />
    <glyph glyph-name="OE" unicode="&#x152;" horiz-adv-x="939" 
d="M576 626l1 -191h256c13 0 20 -7 20 -20v-67c0 -13 -7 -20 -20 -20h-256l1 -221h296c13 0 20 -7 20 -20v-67c0 -13 -7 -20 -20 -20h-465c-224 0 -365 151 -365 366s158 366 376 366l455 -1c13 0 20 -7 20 -20v-65c0 -13 -7 -20 -20 -20h-299zM454 105l2 522h-36
c-154 0 -257 -87 -257 -253c0 -169 104 -269 257 -269h34z" />
    <glyph glyph-name="P" unicode="P" horiz-adv-x="685" 
d="M93 732h290c154 0 257 -93 257 -228c0 -136 -103 -241 -257 -241h-189l2 -243c0 -13 -7 -20 -20 -20h-87c-13 0 -20 7 -20 20l4 692c0 13 7 20 20 20zM194 367h180c97 0 148 47 148 125c0 84 -61 136 -148 136h-182z" />
    <glyph glyph-name="Thorn" unicode="&#xde;" horiz-adv-x="685" 
d="M192 615h191c154 0 257 -92 257 -227c0 -137 -103 -241 -257 -241h-188l1 -127c0 -13 -7 -20 -20 -20h-87c-13 0 -20 7 -20 20l4 692c0 13 7 20 20 20h78c13 0 20 -7 20 -20zM195 251h179c97 0 148 47 148 125c0 84 -61 136 -148 136h-181z" />
    <glyph glyph-name="Q" unicode="Q" horiz-adv-x="798" 
d="M753 378c0 -125 -47 -232 -124 -303l47 -56c9 -10 8 -20 -2 -28l-49 -41c-10 -8 -20 -8 -28 2l-54 65c-45 -21 -95 -33 -149 -33c-200 0 -350 157 -350 382s156 382 361 382c200 0 348 -149 348 -370zM402 90c25 0 48 4 70 10l-41 50c-9 10 -8 20 2 28l49 41
c10 8 20 8 28 -2l51 -62c46 48 74 119 74 212c0 178 -103 276 -239 276c-132 0 -233 -93 -233 -269c0 -178 102 -284 239 -284z" />
    <glyph glyph-name="R" unicode="R" horiz-adv-x="679" 
d="M313 304h-119l2 -284c0 -13 -7 -20 -20 -20h-87c-13 0 -20 7 -20 20l4 692c0 13 7 20 20 20h289c151 0 247 -89 247 -210c0 -102 -69 -188 -185 -211l204 -287c9 -13 4 -24 -13 -24h-104c-11 0 -19 4 -25 13zM194 408h174c99 0 143 39 143 105c0 71 -53 115 -143 115
h-176z" />
    <glyph glyph-name="Racute" unicode="&#x154;" horiz-adv-x="679" 
d="M476 933l-99 -124c-6 -9 -13 -12 -24 -12h-33c-16 0 -22 10 -14 24l65 122c6 10 13 14 24 14h70c17 0 22 -11 11 -24zM313 304h-119l2 -284c0 -13 -7 -20 -20 -20h-87c-13 0 -20 7 -20 20l4 692c0 13 7 20 20 20h289c151 0 247 -89 247 -210c0 -102 -69 -188 -185 -211
l204 -287c9 -13 4 -24 -13 -24h-104c-11 0 -19 4 -25 13zM194 408h174c99 0 143 39 143 105c0 71 -53 115 -143 115h-176z" />
    <glyph glyph-name="Rcaron" unicode="&#x158;" horiz-adv-x="679" 
d="M372 797h-50c-11 0 -18 3 -25 11l-105 124c-11 14 -6 25 11 25h58c10 0 18 -4 24 -12l59 -80h10l54 79c6 9 14 13 24 13h58c17 0 22 -11 11 -25l-104 -124c-7 -8 -14 -11 -25 -11zM313 304h-119l2 -284c0 -13 -7 -20 -20 -20h-87c-13 0 -20 7 -20 20l4 692
c0 13 7 20 20 20h289c151 0 247 -89 247 -210c0 -102 -69 -188 -185 -211l204 -287c9 -13 4 -24 -13 -24h-104c-11 0 -19 4 -25 13zM194 408h174c99 0 143 39 143 105c0 71 -53 115 -143 115h-176z" />
    <glyph glyph-name="Rcommaaccent" unicode="&#x156;" horiz-adv-x="679" 
d="M444 311l204 -287c9 -13 4 -24 -13 -24h-104c-11 0 -19 4 -25 13l-193 291h-119l2 -284c0 -13 -7 -20 -20 -20h-87c-13 0 -20 7 -20 20l4 692c0 13 7 20 20 20h289c151 0 247 -89 247 -210c0 -102 -69 -188 -185 -211zM194 408h174c99 0 143 39 143 105
c0 71 -53 115 -143 115h-176zM295 -138v51c0 13 7 20 20 20h64c13 0 20 -7 20 -20v-41c0 -71 -22 -116 -62 -145c-9 -7 -17 -7 -27 -2c-13 7 -14 16 -4 28c25 30 29 65 3 85c-9 7 -14 13 -14 24z" />
    <glyph glyph-name="S" unicode="S" horiz-adv-x="676" 
d="M341 748c143 0 236 -80 273 -185c5 -14 -2 -23 -17 -23h-74c-11 0 -18 4 -24 14c-33 54 -90 88 -168 88c-92 0 -133 -38 -133 -88c0 -53 43 -82 169 -120l32 -10c173 -53 232 -134 232 -231c0 -134 -110 -209 -274 -209c-192 0 -285 111 -309 203c-3 14 4 22 18 22h79
c11 0 18 -5 23 -15c32 -62 90 -103 195 -103c98 0 146 30 146 86c0 54 -44 95 -171 137l-36 13c-140 46 -221 104 -226 209c-4 132 118 212 265 212z" />
    <glyph glyph-name="Sacute" unicode="&#x15a;" horiz-adv-x="676" 
d="M467 933l-99 -124c-6 -9 -13 -12 -24 -12h-33c-16 0 -22 10 -14 24l65 122c6 10 13 14 24 14h70c17 0 22 -11 11 -24zM341 748c143 0 236 -80 273 -185c5 -14 -2 -23 -17 -23h-74c-11 0 -18 4 -24 14c-33 54 -90 88 -168 88c-92 0 -133 -38 -133 -88
c0 -53 43 -82 169 -120l32 -10c173 -53 232 -134 232 -231c0 -134 -110 -209 -274 -209c-192 0 -285 111 -309 203c-3 14 4 22 18 22h79c11 0 18 -5 23 -15c32 -62 90 -103 195 -103c98 0 146 30 146 86c0 54 -44 95 -171 137l-36 13c-140 46 -221 104 -226 209
c-4 132 118 212 265 212z" />
    <glyph glyph-name="Sacute.loclPLK" horiz-adv-x="676" 
d="M431 957l-51 -126c-4 -11 -11 -16 -23 -16h-33c-14 0 -21 8 -18 22l29 126c3 11 10 17 22 17h58c15 0 21 -9 16 -23zM341 748c143 0 236 -80 273 -185c5 -14 -2 -23 -17 -23h-74c-11 0 -18 4 -24 14c-33 54 -90 88 -168 88c-92 0 -133 -38 -133 -88
c0 -53 43 -82 169 -120l32 -10c173 -53 232 -134 232 -231c0 -134 -110 -209 -274 -209c-192 0 -285 111 -309 203c-3 14 4 22 18 22h79c11 0 18 -5 23 -15c32 -62 90 -103 195 -103c98 0 146 30 146 86c0 54 -44 95 -171 137l-36 13c-140 46 -221 104 -226 209
c-4 132 118 212 265 212z" />
    <glyph glyph-name="Scaron" unicode="&#x160;" horiz-adv-x="676" 
d="M193 957h58c10 0 18 -4 24 -12l59 -80h10l54 79c6 9 14 13 24 13h58c17 0 22 -11 11 -25l-104 -124c-7 -8 -14 -11 -25 -11h-50c-11 0 -18 3 -25 11l-105 124c-11 14 -6 25 11 25zM341 748c143 0 236 -80 273 -185c5 -14 -2 -23 -17 -23h-74c-11 0 -18 4 -24 14
c-33 54 -90 88 -168 88c-92 0 -133 -38 -133 -88c0 -53 43 -82 169 -120l32 -10c173 -53 232 -134 232 -231c0 -134 -110 -209 -274 -209c-192 0 -285 111 -309 203c-3 14 4 22 18 22h79c11 0 18 -5 23 -15c32 -62 90 -103 195 -103c98 0 146 30 146 86
c0 54 -44 95 -171 137l-36 13c-140 46 -221 104 -226 209c-4 132 118 212 265 212z" />
    <glyph glyph-name="Scedilla" unicode="&#x15e;" horiz-adv-x="676" 
d="M631 193c0 -130 -104 -205 -260 -209l-13 -42c36 -8 68 -35 68 -84c0 -52 -37 -94 -107 -94c-21 0 -40 4 -61 14c-11 6 -14 15 -11 26l7 22c4 14 13 17 26 12c15 -6 28 -9 39 -9c18 0 34 13 34 26c0 16 -12 33 -53 32h-4c-15 0 -21 9 -17 23l23 77
c-155 19 -232 117 -254 200c-3 14 4 22 18 22h79c11 0 18 -5 23 -15c32 -62 90 -103 195 -103c98 0 146 30 146 86c0 54 -44 95 -171 137l-36 13c-140 46 -221 104 -226 209c-4 132 118 212 265 212c143 0 236 -80 273 -185c5 -14 -2 -23 -17 -23h-74c-11 0 -18 4 -24 14
c-33 54 -90 88 -168 88c-92 0 -133 -38 -133 -88c0 -53 43 -82 169 -120l32 -10c173 -53 232 -134 232 -231z" />
    <glyph glyph-name="Scommaaccent" unicode="&#x218;" horiz-adv-x="676" 
d="M341 748c143 0 236 -80 273 -185c5 -14 -2 -23 -17 -23h-74c-11 0 -18 4 -24 14c-33 54 -90 88 -168 88c-92 0 -133 -38 -133 -88c0 -53 43 -82 169 -120l32 -10c173 -53 232 -134 232 -231c0 -134 -110 -209 -274 -209c-192 0 -285 111 -309 203c-3 14 4 22 18 22h79
c11 0 18 -5 23 -15c32 -62 90 -103 195 -103c98 0 146 30 146 86c0 54 -44 95 -171 137l-36 13c-140 46 -221 104 -226 209c-4 132 118 212 265 212zM390 -87v-41c0 -71 -22 -116 -62 -145c-9 -7 -17 -7 -27 -2c-13 7 -14 16 -4 28c25 30 29 65 3 85c-9 7 -14 13 -14 24v51
c0 13 7 20 20 20h64c13 0 20 -7 20 -20z" />
    <glyph glyph-name="Sdotbelow" unicode="&#x1e62;" horiz-adv-x="676" 
d="M341 748c143 0 236 -80 273 -185c5 -14 -2 -23 -17 -23h-74c-11 0 -18 4 -24 14c-33 54 -90 88 -168 88c-92 0 -133 -38 -133 -88c0 -53 43 -82 169 -120l32 -10c173 -53 232 -134 232 -231c0 -134 -110 -209 -274 -209c-192 0 -285 111 -309 203c-3 14 4 22 18 22h79
c11 0 18 -5 23 -15c32 -62 90 -103 195 -103c98 0 146 30 146 86c0 54 -44 95 -171 137l-36 13c-140 46 -221 104 -226 209c-4 132 118 212 265 212zM397 -86v-80c0 -13 -7 -20 -20 -20h-79c-13 0 -20 7 -20 20v80c0 13 7 20 20 20h79c13 0 20 -7 20 -20z" />
    <glyph glyph-name="T" unicode="T" horiz-adv-x="609" 
d="M593 712v-67c0 -13 -7 -20 -20 -20h-209l4 -605c0 -13 -7 -20 -20 -20h-86c-13 0 -20 7 -20 20l4 605h-209c-13 0 -20 7 -20 20v67c0 13 7 20 20 20h536c13 0 20 -7 20 -20z" />
    <glyph glyph-name="Tbar" unicode="&#x166;" horiz-adv-x="609" 
d="M432 910v-48c0 -13 -7 -20 -20 -20h-215c-13 0 -20 7 -20 20v48c0 13 7 20 20 20h215c13 0 20 -7 20 -20zM593 712v-67c0 -13 -7 -20 -20 -20h-209l4 -605c0 -13 -7 -20 -20 -20h-86c-13 0 -20 7 -20 20l4 605h-209c-13 0 -20 7 -20 20v67c0 13 7 20 20 20h536
c13 0 20 -7 20 -20z" />
    <glyph glyph-name="Tcaron" unicode="&#x164;" horiz-adv-x="609" 
d="M329 797h-50c-11 0 -18 3 -25 11l-105 124c-11 14 -6 25 11 25h58c10 0 18 -4 24 -12l59 -80h10l54 79c6 9 14 13 24 13h58c17 0 22 -11 11 -25l-104 -124c-7 -8 -14 -11 -25 -11zM593 712v-67c0 -13 -7 -20 -20 -20h-209l4 -605c0 -13 -7 -20 -20 -20h-86
c-13 0 -20 7 -20 20l4 605h-209c-13 0 -20 7 -20 20v67c0 13 7 20 20 20h536c13 0 20 -7 20 -20z" />
    <glyph glyph-name="Tcedilla" unicode="&#x162;" horiz-adv-x="609" 
d="M593 712v-67c0 -13 -7 -20 -20 -20h-209l4 -605c0 -13 -7 -20 -20 -20h-6l-18 -58c36 -8 68 -35 68 -84c0 -52 -37 -94 -107 -94c-21 0 -40 4 -61 14c-11 6 -14 15 -11 26l7 22c4 14 13 17 26 12c15 -6 28 -9 39 -9c18 0 34 13 34 26c0 16 -12 33 -53 32h-4
c-15 0 -21 9 -17 23l27 90h-10c-13 0 -20 7 -20 20l4 605h-209c-13 0 -20 7 -20 20v67c0 13 7 20 20 20h536c13 0 20 -7 20 -20z" />
    <glyph glyph-name="Tcommaaccent" unicode="&#x21a;" horiz-adv-x="609" 
d="M593 712v-67c0 -13 -7 -20 -20 -20h-209l4 -605c0 -13 -7 -20 -20 -20h-86c-13 0 -20 7 -20 20l4 605h-209c-13 0 -20 7 -20 20v67c0 13 7 20 20 20h536c13 0 20 -7 20 -20zM253 -138v51c0 13 7 20 20 20h64c13 0 20 -7 20 -20v-41c0 -71 -22 -116 -62 -145
c-9 -7 -17 -7 -27 -2c-13 7 -14 16 -4 28c25 30 29 65 3 85c-9 7 -14 13 -14 24z" />
    <glyph glyph-name="Tdotbelow" unicode="&#x1e6c;" horiz-adv-x="609" 
d="M593 712v-67c0 -13 -7 -20 -20 -20h-209l4 -605c0 -13 -7 -20 -20 -20h-86c-13 0 -20 7 -20 20l4 605h-209c-13 0 -20 7 -20 20v67c0 13 7 20 20 20h536c13 0 20 -7 20 -20zM245 -166v80c0 13 7 20 20 20h79c13 0 20 -7 20 -20v-80c0 -13 -7 -20 -20 -20h-79
c-13 0 -20 7 -20 20z" />
    <glyph glyph-name="U" unicode="U" horiz-adv-x="753" 
d="M682 712l2 -396c1 -219 -130 -332 -308 -332s-308 114 -307 332l2 396c0 13 7 20 20 20h78c13 0 20 -7 20 -20l2 -383c2 -166 72 -239 188 -239c118 0 182 74 183 239l2 383c0 13 7 20 20 20h78c13 0 20 -7 20 -20z" />
    <glyph glyph-name="Uacute" unicode="&#xda;" horiz-adv-x="753" 
d="M506 940l-99 -124c-6 -9 -13 -12 -24 -12h-33c-16 0 -22 10 -14 24l65 122c6 10 13 14 24 14h70c17 0 22 -11 11 -24zM682 712l2 -396c1 -219 -130 -332 -308 -332s-308 114 -307 332l2 396c0 13 7 20 20 20h78c13 0 20 -7 20 -20l2 -383c2 -166 72 -239 188 -239
c118 0 182 74 183 239l2 383c0 13 7 20 20 20h78c13 0 20 -7 20 -20z" />
    <glyph glyph-name="Ucaron" unicode="&#x1d3;" horiz-adv-x="753" 
d="M232 963h58c10 0 18 -4 24 -12l59 -80h10l54 79c6 9 14 13 24 13h58c17 0 22 -11 11 -25l-104 -124c-7 -8 -14 -11 -25 -11h-50c-11 0 -18 3 -25 11l-105 124c-11 14 -6 25 11 25zM682 712l2 -396c1 -219 -130 -332 -308 -332s-308 114 -307 332l2 396c0 13 7 20 20 20
h78c13 0 20 -7 20 -20l2 -383c2 -166 72 -239 188 -239c118 0 182 74 183 239l2 383c0 13 7 20 20 20h78c13 0 20 -7 20 -20z" />
    <glyph glyph-name="Ucircumflex" unicode="&#xdb;" horiz-adv-x="753" 
d="M521 804h-58c-10 0 -18 4 -24 12l-59 80h-10l-54 -79c-6 -9 -14 -13 -24 -13h-58c-17 0 -22 11 -11 25l104 124c7 8 14 11 25 11h50c11 0 18 -3 25 -11l105 -124c11 -14 6 -25 -11 -25zM682 712l2 -396c1 -219 -130 -332 -308 -332s-308 114 -307 332l2 396
c0 13 7 20 20 20h78c13 0 20 -7 20 -20l2 -383c2 -166 72 -239 188 -239c118 0 182 74 183 239l2 383c0 13 7 20 20 20h78c13 0 20 -7 20 -20z" />
    <glyph glyph-name="Udieresis" unicode="&#xdc;" horiz-adv-x="753" 
d="M352 934v-75c0 -13 -7 -20 -20 -20h-62c-13 0 -20 7 -20 20v75c0 13 7 20 20 20h62c13 0 20 -7 20 -20zM512 934v-75c0 -13 -7 -20 -20 -20h-62c-13 0 -20 7 -20 20v75c0 13 7 20 20 20h62c13 0 20 -7 20 -20zM682 712l2 -396c1 -219 -130 -332 -308 -332
s-308 114 -307 332l2 396c0 13 7 20 20 20h78c13 0 20 -7 20 -20l2 -383c2 -166 72 -239 188 -239c118 0 182 74 183 239l2 383c0 13 7 20 20 20h78c13 0 20 -7 20 -20z" />
    <glyph glyph-name="Udotbelow" unicode="&#x1ee4;" horiz-adv-x="753" 
d="M682 712l2 -396c1 -219 -130 -332 -308 -332s-308 114 -307 332l2 396c0 13 7 20 20 20h78c13 0 20 -7 20 -20l2 -383c2 -166 72 -239 188 -239c118 0 182 74 183 239l2 383c0 13 7 20 20 20h78c13 0 20 -7 20 -20zM435 -86v-80c0 -13 -7 -20 -20 -20h-79
c-13 0 -20 7 -20 20v80c0 13 7 20 20 20h79c13 0 20 -7 20 -20z" />
    <glyph glyph-name="Ugrave" unicode="&#xd9;" horiz-adv-x="753" 
d="M272 964h70c11 0 18 -4 24 -14l65 -122c8 -14 2 -24 -14 -24h-33c-11 0 -18 3 -24 12l-99 124c-11 13 -6 24 11 24zM682 712l2 -396c1 -219 -130 -332 -308 -332s-308 114 -307 332l2 396c0 13 7 20 20 20h78c13 0 20 -7 20 -20l2 -383c2 -166 72 -239 188 -239
c118 0 182 74 183 239l2 383c0 13 7 20 20 20h78c13 0 20 -7 20 -20z" />
    <glyph glyph-name="Uhungarumlaut" unicode="&#x170;" horiz-adv-x="753" 
d="M443 942l-99 -124c-6 -9 -13 -12 -24 -12h-33c-16 0 -22 10 -14 24l65 122c6 10 13 14 24 14h70c17 0 22 -11 11 -24zM609 942l-99 -124c-6 -9 -13 -12 -24 -12h-33c-16 0 -22 10 -14 24l65 122c6 10 13 14 24 14h70c17 0 22 -11 11 -24zM682 712l2 -396
c1 -219 -130 -332 -308 -332s-308 114 -307 332l2 396c0 13 7 20 20 20h78c13 0 20 -7 20 -20l2 -383c2 -166 72 -239 188 -239c118 0 182 74 183 239l2 383c0 13 7 20 20 20h78c13 0 20 -7 20 -20z" />
    <glyph glyph-name="Umacron" unicode="&#x16a;" horiz-adv-x="753" 
d="M505 916v-48c0 -13 -7 -20 -20 -20h-215c-13 0 -20 7 -20 20v48c0 13 7 20 20 20h215c13 0 20 -7 20 -20zM682 712l2 -396c1 -219 -130 -332 -308 -332s-308 114 -307 332l2 396c0 13 7 20 20 20h78c13 0 20 -7 20 -20l2 -383c2 -166 72 -239 188 -239
c118 0 182 74 183 239l2 383c0 13 7 20 20 20h78c13 0 20 -7 20 -20z" />
    <glyph glyph-name="Uogonek" unicode="&#x172;" horiz-adv-x="753" 
d="M500 5c-58 -36 -93 -72 -93 -102c0 -19 15 -31 47 -31c12 0 28 1 44 4c14 2 22 -4 22 -18v-41c0 -12 -5 -20 -17 -22c-19 -4 -38 -6 -53 -6c-80 0 -125 44 -125 110c0 30 10 58 28 86c-166 9 -285 122 -284 331l2 396c0 13 7 20 20 20h78c13 0 20 -7 20 -20l2 -383
c2 -166 72 -239 188 -239c118 0 182 74 183 239l2 383c0 13 7 20 20 20h78c13 0 20 -7 20 -20l2 -396c1 -164 -72 -268 -184 -311z" />
    <glyph glyph-name="Uring" unicode="&#x16e;" horiz-adv-x="753" 
d="M377 977c56 0 101 -40 101 -101s-45 -102 -101 -102s-102 41 -102 102s46 101 102 101zM377 917c-23 0 -41 -16 -41 -41s18 -41 41 -41c22 0 41 16 41 41s-19 41 -41 41zM682 712l2 -396c1 -219 -130 -332 -308 -332s-308 114 -307 332l2 396c0 13 7 20 20 20h78
c13 0 20 -7 20 -20l2 -383c2 -166 72 -239 188 -239c118 0 182 74 183 239l2 383c0 13 7 20 20 20h78c13 0 20 -7 20 -20z" />
    <glyph glyph-name="Utilde" unicode="&#x168;" horiz-adv-x="753" 
d="M328 945c69 0 89 -67 119 -67c15 0 21 13 23 30c2 13 8 20 20 20h31c13 0 20 -7 19 -20c-5 -52 -29 -106 -93 -106c-63 0 -78 67 -118 67c-17 0 -25 -14 -28 -31c-2 -12 -8 -19 -20 -19h-30c-13 0 -20 7 -19 19c4 59 28 107 96 107zM682 712l2 -396
c1 -219 -130 -332 -308 -332s-308 114 -307 332l2 396c0 13 7 20 20 20h78c13 0 20 -7 20 -20l2 -383c2 -166 72 -239 188 -239c118 0 182 74 183 239l2 383c0 13 7 20 20 20h78c13 0 20 -7 20 -20z" />
    <glyph glyph-name="V" unicode="V" horiz-adv-x="683" 
d="M564 732h81c14 0 21 -9 16 -23l-245 -693c-4 -11 -11 -16 -23 -16h-104c-12 0 -19 5 -23 16l-244 693c-5 14 2 23 16 23h81c12 0 19 -5 23 -16l196 -554h6l197 554c4 11 11 16 23 16z" />
    <glyph glyph-name="W" unicode="W" horiz-adv-x="997" 
d="M879 732h81c14 0 21 -9 17 -22l-188 -693c-3 -11 -11 -17 -23 -17h-100c-12 0 -19 6 -22 17l-140 543h-11l-139 -543c-3 -11 -10 -17 -22 -17h-100c-12 0 -20 6 -23 17l-189 693c-4 13 3 22 17 22h81c12 0 19 -6 23 -17l139 -518h8l137 518c4 11 11 17 23 17h101
c12 0 19 -6 22 -17l136 -518h9l140 518c3 11 11 17 23 17z" />
    <glyph glyph-name="Wacute" unicode="&#x1e82;" horiz-adv-x="997" 
d="M628 940l-99 -124c-6 -9 -13 -12 -24 -12h-33c-16 0 -22 10 -14 24l65 122c6 10 13 14 24 14h70c17 0 22 -11 11 -24zM879 732h81c14 0 21 -9 17 -22l-188 -693c-3 -11 -11 -17 -23 -17h-100c-12 0 -19 6 -22 17l-140 543h-11l-139 -543c-3 -11 -10 -17 -22 -17h-100
c-12 0 -20 6 -23 17l-189 693c-4 13 3 22 17 22h81c12 0 19 -6 23 -17l139 -518h8l137 518c4 11 11 17 23 17h101c12 0 19 -6 22 -17l136 -518h9l140 518c3 11 11 17 23 17z" />
    <glyph glyph-name="Wcircumflex" unicode="&#x174;" horiz-adv-x="997" 
d="M493 896l-54 -79c-6 -9 -14 -13 -24 -13h-58c-17 0 -22 11 -11 25l104 124c7 8 14 11 25 11h50c11 0 18 -3 25 -11l105 -124c11 -14 6 -25 -11 -25h-58c-10 0 -18 4 -24 12l-59 80h-10zM879 732h81c14 0 21 -9 17 -22l-188 -693c-3 -11 -11 -17 -23 -17h-100
c-12 0 -19 6 -22 17l-140 543h-11l-139 -543c-3 -11 -10 -17 -22 -17h-100c-12 0 -20 6 -23 17l-189 693c-4 13 3 22 17 22h81c12 0 19 -6 23 -17l139 -518h8l137 518c4 11 11 17 23 17h101c12 0 19 -6 22 -17l136 -518h9l140 518c3 11 11 17 23 17z" />
    <glyph glyph-name="Wdieresis" unicode="&#x1e84;" horiz-adv-x="997" 
d="M474 934v-75c0 -13 -7 -20 -20 -20h-62c-13 0 -20 7 -20 20v75c0 13 7 20 20 20h62c13 0 20 -7 20 -20zM634 934v-75c0 -13 -7 -20 -20 -20h-62c-13 0 -20 7 -20 20v75c0 13 7 20 20 20h62c13 0 20 -7 20 -20zM879 732h81c14 0 21 -9 17 -22l-188 -693
c-3 -11 -11 -17 -23 -17h-100c-12 0 -19 6 -22 17l-140 543h-11l-139 -543c-3 -11 -10 -17 -22 -17h-100c-12 0 -20 6 -23 17l-189 693c-4 13 3 22 17 22h81c12 0 19 -6 23 -17l139 -518h8l137 518c4 11 11 17 23 17h101c12 0 19 -6 22 -17l136 -518h9l140 518
c3 11 11 17 23 17z" />
    <glyph glyph-name="Wgrave" unicode="&#x1e80;" horiz-adv-x="997" 
d="M539 804h-33c-11 0 -18 3 -24 12l-99 124c-11 13 -6 24 11 24h70c11 0 18 -4 24 -14l65 -122c8 -14 2 -24 -14 -24zM879 732h81c14 0 21 -9 17 -22l-188 -693c-3 -11 -11 -17 -23 -17h-100c-12 0 -19 6 -22 17l-140 543h-11l-139 -543c-3 -11 -10 -17 -22 -17h-100
c-12 0 -20 6 -23 17l-189 693c-4 13 3 22 17 22h81c12 0 19 -6 23 -17l139 -518h8l137 518c4 11 11 17 23 17h101c12 0 19 -6 22 -17l136 -518h9l140 518c3 11 11 17 23 17z" />
    <glyph glyph-name="X" unicode="X" horiz-adv-x="738" 
d="M665 0h-100c-11 0 -19 4 -24 13l-175 271l-175 -271c-5 -9 -13 -13 -24 -13h-94c-16 0 -22 11 -13 24l243 357l-211 327c-9 14 -4 24 13 24h84c11 0 19 -4 25 -13l169 -254l168 254c6 9 14 13 25 13h79c16 0 22 -11 13 -24l-223 -336l233 -348c9 -13 3 -24 -13 -24z" />
    <glyph glyph-name="Y" unicode="Y" horiz-adv-x="613" 
d="M368 295l3 -275c0 -13 -7 -20 -20 -20h-86c-13 0 -20 7 -20 20l2 276l-224 412c-8 14 -2 24 14 24h87c11 0 18 -4 24 -14l158 -299h8l156 299c6 10 13 14 24 14h82c16 0 22 -10 14 -24z" />
    <glyph glyph-name="Yacute" unicode="&#xdd;" horiz-adv-x="613" 
d="M435 940l-99 -124c-6 -9 -13 -12 -24 -12h-33c-16 0 -22 10 -14 24l65 122c6 10 13 14 24 14h70c17 0 22 -11 11 -24zM368 295l3 -275c0 -13 -7 -20 -20 -20h-86c-13 0 -20 7 -20 20l2 276l-224 412c-8 14 -2 24 14 24h87c11 0 18 -4 24 -14l158 -299h8l156 299
c6 10 13 14 24 14h82c16 0 22 -10 14 -24z" />
    <glyph glyph-name="Ycircumflex" unicode="&#x176;" horiz-adv-x="613" 
d="M299 896l-54 -79c-6 -9 -14 -13 -24 -13h-58c-17 0 -22 11 -11 25l104 124c7 8 14 11 25 11h50c11 0 18 -3 25 -11l105 -124c11 -14 6 -25 -11 -25h-58c-10 0 -18 4 -24 12l-59 80h-10zM368 295l3 -275c0 -13 -7 -20 -20 -20h-86c-13 0 -20 7 -20 20l2 276l-224 412
c-8 14 -2 24 14 24h87c11 0 18 -4 24 -14l158 -299h8l156 299c6 10 13 14 24 14h82c16 0 22 -10 14 -24z" />
    <glyph glyph-name="Ydieresis" unicode="&#x178;" horiz-adv-x="613" 
d="M281 934v-75c0 -13 -7 -20 -20 -20h-62c-13 0 -20 7 -20 20v75c0 13 7 20 20 20h62c13 0 20 -7 20 -20zM441 934v-75c0 -13 -7 -20 -20 -20h-62c-13 0 -20 7 -20 20v75c0 13 7 20 20 20h62c13 0 20 -7 20 -20zM368 295l3 -275c0 -13 -7 -20 -20 -20h-86
c-13 0 -20 7 -20 20l2 276l-224 412c-8 14 -2 24 14 24h87c11 0 18 -4 24 -14l158 -299h8l156 299c6 10 13 14 24 14h82c16 0 22 -10 14 -24z" />
    <glyph glyph-name="Ydotbelow" unicode="&#x1ef4;" horiz-adv-x="613" 
d="M368 295l3 -275c0 -13 -7 -20 -20 -20h-86c-13 0 -20 7 -20 20l2 276l-224 412c-8 14 -2 24 14 24h87c11 0 18 -4 24 -14l158 -299h8l156 299c6 10 13 14 24 14h82c16 0 22 -10 14 -24zM248 -166v80c0 13 7 20 20 20h79c13 0 20 -7 20 -20v-80c0 -13 -7 -20 -20 -20h-79
c-13 0 -20 7 -20 20z" />
    <glyph glyph-name="Ygrave" unicode="&#x1ef2;" horiz-adv-x="613" 
d="M346 804h-33c-11 0 -18 3 -24 12l-99 124c-11 13 -6 24 11 24h70c11 0 18 -4 24 -14l65 -122c8 -14 2 -24 -14 -24zM368 295l3 -275c0 -13 -7 -20 -20 -20h-86c-13 0 -20 7 -20 20l2 276l-224 412c-8 14 -2 24 14 24h87c11 0 18 -4 24 -14l158 -299h8l156 299
c6 10 13 14 24 14h82c16 0 22 -10 14 -24z" />
    <glyph glyph-name="Ytilde" unicode="&#x1ef8;" horiz-adv-x="613" 
d="M258 869c-17 0 -25 -14 -28 -31c-2 -12 -8 -19 -20 -19h-30c-13 0 -20 7 -19 20c4 59 29 106 96 106c69 0 89 -67 119 -67c15 0 21 13 23 30c2 13 8 20 20 20h31c13 0 20 -7 19 -20c-5 -52 -29 -106 -93 -106c-63 0 -78 67 -118 67zM368 295l3 -275c0 -13 -7 -20 -20 -20
h-86c-13 0 -20 7 -20 20l2 276l-224 412c-8 14 -2 24 14 24h87c11 0 18 -4 24 -14l158 -299h8l156 299c6 10 13 14 24 14h82c16 0 22 -10 14 -24z" />
    <glyph glyph-name="Z" unicode="Z" horiz-adv-x="672" 
d="M204 108h380c13 0 20 -7 20 -20v-68c0 -13 -7 -20 -20 -20h-514c-13 0 -20 7 -20 20v56c0 10 2 19 13 33l376 507v9h-347c-13 0 -20 7 -20 20v67c0 13 7 20 20 20h482c13 0 20 -7 20 -20v-53c0 -11 -1 -20 -12 -33l-378 -511v-7z" />
    <glyph glyph-name="Zacute" unicode="&#x179;" horiz-adv-x="672" 
d="M453 933l-99 -124c-6 -9 -13 -12 -24 -12h-33c-16 0 -22 10 -14 24l65 122c6 10 13 14 24 14h70c17 0 22 -11 11 -24zM204 108h380c13 0 20 -7 20 -20v-68c0 -13 -7 -20 -20 -20h-514c-13 0 -20 7 -20 20v56c0 10 2 19 13 33l376 507v9h-347c-13 0 -20 7 -20 20v67
c0 13 7 20 20 20h482c13 0 20 -7 20 -20v-53c0 -11 -1 -20 -12 -33l-378 -511v-7z" />
    <glyph glyph-name="Zacute.loclPLK" horiz-adv-x="672" 
d="M417 957l-51 -126c-4 -11 -11 -16 -23 -16h-33c-14 0 -21 8 -18 22l29 126c3 11 10 17 22 17h58c15 0 21 -9 16 -23zM204 108h380c13 0 20 -7 20 -20v-68c0 -13 -7 -20 -20 -20h-514c-13 0 -20 7 -20 20v56c0 10 2 19 13 33l376 507v9h-347c-13 0 -20 7 -20 20v67
c0 13 7 20 20 20h482c13 0 20 -7 20 -20v-53c0 -11 -1 -20 -12 -33l-378 -511v-7z" />
    <glyph glyph-name="Zcaron" unicode="&#x17d;" horiz-adv-x="672" 
d="M349 797h-50c-11 0 -18 3 -25 11l-105 124c-11 14 -6 25 11 25h58c10 0 18 -4 24 -12l59 -80h10l54 79c6 9 14 13 24 13h58c17 0 22 -11 11 -25l-104 -124c-7 -8 -14 -11 -25 -11zM204 108h380c13 0 20 -7 20 -20v-68c0 -13 -7 -20 -20 -20h-514c-13 0 -20 7 -20 20v56
c0 10 2 19 13 33l376 507v9h-347c-13 0 -20 7 -20 20v67c0 13 7 20 20 20h482c13 0 20 -7 20 -20v-53c0 -11 -1 -20 -12 -33l-378 -511v-7z" />
    <glyph glyph-name="Zdotaccent" unicode="&#x17b;" horiz-adv-x="672" 
d="M383 926v-75c0 -13 -7 -20 -20 -20h-75c-13 0 -20 7 -20 20v75c0 13 7 20 20 20h75c13 0 20 -7 20 -20zM204 108h380c13 0 20 -7 20 -20v-68c0 -13 -7 -20 -20 -20h-514c-13 0 -20 7 -20 20v56c0 10 2 19 13 33l376 507v9h-347c-13 0 -20 7 -20 20v67c0 13 7 20 20 20
h482c13 0 20 -7 20 -20v-53c0 -11 -1 -20 -12 -33l-378 -511v-7z" />
    <glyph glyph-name="Zdotbelow" unicode="&#x1e92;" horiz-adv-x="672" 
d="M204 108h380c13 0 20 -7 20 -20v-68c0 -13 -7 -20 -20 -20h-514c-13 0 -20 7 -20 20v56c0 10 2 19 13 33l376 507v9h-347c-13 0 -20 7 -20 20v67c0 13 7 20 20 20h482c13 0 20 -7 20 -20v-53c0 -11 -1 -20 -12 -33l-378 -511v-7zM268 -166v80c0 13 7 20 20 20h79
c13 0 20 -7 20 -20v-80c0 -13 -7 -20 -20 -20h-79c-13 0 -20 7 -20 20z" />
    <glyph glyph-name="a" unicode="a" horiz-adv-x="576" 
d="M294 553c127 0 210 -70 210 -191l4 -342c0 -13 -7 -20 -20 -20h-79c-13 0 -20 7 -20 20l1 61h-8c-36 -55 -101 -92 -181 -92c-96 0 -162 55 -162 152c0 113 88 164 285 187c44 5 66 22 66 53c0 42 -41 72 -104 72c-54 0 -88 -21 -104 -60c-5 -11 -12 -16 -23 -16h-71
c-14 0 -22 7 -19 18c25 94 102 158 225 158zM389 252l-5 3c-17 -6 -44 -12 -70 -16c-100 -16 -160 -38 -160 -91c0 -35 25 -57 75 -57c99 0 164 76 161 134z" />
    <glyph glyph-name="aacute" unicode="&#xe1;" horiz-adv-x="576" 
d="M413 739l-99 -124c-6 -9 -13 -12 -24 -12h-33c-16 0 -22 10 -14 24l65 122c6 10 13 14 24 14h70c17 0 22 -11 11 -24zM294 553c127 0 210 -70 210 -191l4 -342c0 -13 -7 -20 -20 -20h-79c-13 0 -20 7 -20 20l1 61h-8c-36 -55 -101 -92 -181 -92c-96 0 -162 55 -162 152
c0 113 88 164 285 187c44 5 66 22 66 53c0 42 -41 72 -104 72c-54 0 -88 -21 -104 -60c-5 -11 -12 -16 -23 -16h-71c-14 0 -22 7 -19 18c25 94 102 158 225 158zM389 252l-5 3c-17 -6 -44 -12 -70 -16c-100 -16 -160 -38 -160 -91c0 -35 25 -57 75 -57c99 0 164 76 161 134z
" />
    <glyph glyph-name="abreve" unicode="&#x103;" horiz-adv-x="576" 
d="M431 725c0 -99 -61 -144 -148 -144c-85 0 -146 45 -146 144c0 10 7 16 20 16h45c13 0 20 -6 20 -16c0 -48 28 -69 61 -69c35 0 62 21 62 69c0 10 7 16 20 16h46c13 0 20 -6 20 -16zM294 553c127 0 210 -70 210 -191l4 -342c0 -13 -7 -20 -20 -20h-79c-13 0 -20 7 -20 20
l1 61h-8c-36 -55 -101 -92 -181 -92c-96 0 -162 55 -162 152c0 113 88 164 285 187c44 5 66 22 66 53c0 42 -41 72 -104 72c-54 0 -88 -21 -104 -60c-5 -11 -12 -16 -23 -16h-71c-14 0 -22 7 -19 18c25 94 102 158 225 158zM389 252l-5 3c-17 -6 -44 -12 -70 -16
c-100 -16 -160 -38 -160 -91c0 -35 25 -57 75 -57c99 0 164 76 161 134z" />
    <glyph glyph-name="acaron" unicode="&#x1ce;" horiz-adv-x="576" 
d="M139 762h58c10 0 18 -4 24 -12l59 -80h10l54 79c6 9 14 13 24 13h58c17 0 22 -11 11 -25l-104 -124c-7 -8 -14 -11 -25 -11h-50c-11 0 -18 3 -25 11l-105 124c-11 14 -6 25 11 25zM294 553c127 0 210 -70 210 -191l4 -342c0 -13 -7 -20 -20 -20h-79c-13 0 -20 7 -20 20
l1 61h-8c-36 -55 -101 -92 -181 -92c-96 0 -162 55 -162 152c0 113 88 164 285 187c44 5 66 22 66 53c0 42 -41 72 -104 72c-54 0 -88 -21 -104 -60c-5 -11 -12 -16 -23 -16h-71c-14 0 -22 7 -19 18c25 94 102 158 225 158zM389 252l-5 3c-17 -6 -44 -12 -70 -16
c-100 -16 -160 -38 -160 -91c0 -35 25 -57 75 -57c99 0 164 76 161 134z" />
    <glyph glyph-name="acircumflex" unicode="&#xe2;" horiz-adv-x="576" 
d="M428 603h-58c-10 0 -18 4 -24 12l-59 80h-10l-54 -79c-6 -9 -14 -13 -24 -13h-58c-17 0 -22 11 -11 25l104 124c7 8 14 11 25 11h50c11 0 18 -3 25 -11l105 -124c11 -14 6 -25 -11 -25zM294 553c127 0 210 -70 210 -191l4 -342c0 -13 -7 -20 -20 -20h-79
c-13 0 -20 7 -20 20l1 61h-8c-36 -55 -101 -92 -181 -92c-96 0 -162 55 -162 152c0 113 88 164 285 187c44 5 66 22 66 53c0 42 -41 72 -104 72c-54 0 -88 -21 -104 -60c-5 -11 -12 -16 -23 -16h-71c-14 0 -22 7 -19 18c25 94 102 158 225 158zM389 252l-5 3
c-17 -6 -44 -12 -70 -16c-100 -16 -160 -38 -160 -91c0 -35 25 -57 75 -57c99 0 164 76 161 134z" />
    <glyph glyph-name="adieresis" unicode="&#xe4;" horiz-adv-x="576" 
d="M259 733v-75c0 -13 -7 -20 -20 -20h-62c-13 0 -20 7 -20 20v75c0 13 7 20 20 20h62c13 0 20 -7 20 -20zM419 733v-75c0 -13 -7 -20 -20 -20h-62c-13 0 -20 7 -20 20v75c0 13 7 20 20 20h62c13 0 20 -7 20 -20zM294 553c127 0 210 -70 210 -191l4 -342
c0 -13 -7 -20 -20 -20h-79c-13 0 -20 7 -20 20l1 61h-8c-36 -55 -101 -92 -181 -92c-96 0 -162 55 -162 152c0 113 88 164 285 187c44 5 66 22 66 53c0 42 -41 72 -104 72c-54 0 -88 -21 -104 -60c-5 -11 -12 -16 -23 -16h-71c-14 0 -22 7 -19 18c25 94 102 158 225 158z
M389 252l-5 3c-17 -6 -44 -12 -70 -16c-100 -16 -160 -38 -160 -91c0 -35 25 -57 75 -57c99 0 164 76 161 134z" />
    <glyph glyph-name="adotbelow" unicode="&#x1ea1;" horiz-adv-x="576" 
d="M294 553c127 0 210 -70 210 -191l4 -342c0 -13 -7 -20 -20 -20h-79c-13 0 -20 7 -20 20l1 61h-8c-36 -55 -101 -92 -181 -92c-96 0 -162 55 -162 152c0 113 88 164 285 187c44 5 66 22 66 53c0 42 -41 72 -104 72c-54 0 -88 -21 -104 -60c-5 -11 -12 -16 -23 -16h-71
c-14 0 -22 7 -19 18c25 94 102 158 225 158zM389 252l-5 3c-17 -6 -44 -12 -70 -16c-100 -16 -160 -38 -160 -91c0 -35 25 -57 75 -57c99 0 164 76 161 134zM354 -86v-80c0 -13 -7 -20 -20 -20h-79c-13 0 -20 7 -20 20v80c0 13 7 20 20 20h79c13 0 20 -7 20 -20z" />
    <glyph glyph-name="agrave" unicode="&#xe0;" horiz-adv-x="576" 
d="M179 763h70c11 0 18 -4 24 -14l65 -122c8 -14 2 -24 -14 -24h-33c-11 0 -18 3 -24 12l-99 124c-11 13 -6 24 11 24zM294 553c127 0 210 -70 210 -191l4 -342c0 -13 -7 -20 -20 -20h-79c-13 0 -20 7 -20 20l1 61h-8c-36 -55 -101 -92 -181 -92c-96 0 -162 55 -162 152
c0 113 88 164 285 187c44 5 66 22 66 53c0 42 -41 72 -104 72c-54 0 -88 -21 -104 -60c-5 -11 -12 -16 -23 -16h-71c-14 0 -22 7 -19 18c25 94 102 158 225 158zM389 252l-5 3c-17 -6 -44 -12 -70 -16c-100 -16 -160 -38 -160 -91c0 -35 25 -57 75 -57c99 0 164 76 161 134z
" />
    <glyph glyph-name="amacron" unicode="&#x101;" horiz-adv-x="576" 
d="M412 715v-48c0 -13 -7 -20 -20 -20h-215c-13 0 -20 7 -20 20v48c0 13 7 20 20 20h215c13 0 20 -7 20 -20zM294 553c127 0 210 -70 210 -191l4 -342c0 -13 -7 -20 -20 -20h-79c-13 0 -20 7 -20 20l1 61h-8c-36 -55 -101 -92 -181 -92c-96 0 -162 55 -162 152
c0 113 88 164 285 187c44 5 66 22 66 53c0 42 -41 72 -104 72c-54 0 -88 -21 -104 -60c-5 -11 -12 -16 -23 -16h-71c-14 0 -22 7 -19 18c25 94 102 158 225 158zM389 252l-5 3c-17 -6 -44 -12 -70 -16c-100 -16 -160 -38 -160 -91c0 -35 25 -57 75 -57c99 0 164 76 161 134z
" />
    <glyph glyph-name="aogonek" unicode="&#x105;" horiz-adv-x="576" 
d="M500 0c-73 -42 -119 -84 -119 -118c0 -19 15 -31 47 -31c12 0 28 1 44 4c14 2 22 -4 22 -18v-41c0 -12 -5 -20 -17 -22c-19 -4 -38 -6 -53 -6c-80 0 -125 44 -125 110c0 54 32 104 90 150l1 53h-8c-36 -55 -101 -92 -181 -92c-96 0 -162 55 -162 152
c0 113 88 164 285 187c44 5 66 22 66 53c0 42 -41 72 -104 72c-54 0 -88 -21 -104 -60c-5 -11 -12 -16 -23 -16h-71c-14 0 -22 8 -18 22c26 92 102 154 224 154c127 0 210 -70 210 -191l4 -342c0 -13 -3 -20 -8 -20zM229 91c99 0 164 76 161 134l-1 27l-5 3
c-17 -6 -44 -12 -70 -16c-100 -16 -160 -38 -160 -91c0 -35 25 -57 75 -57z" />
    <glyph glyph-name="aring" unicode="&#xe5;" horiz-adv-x="576" 
d="M284 776c56 0 101 -40 101 -101s-45 -102 -101 -102s-102 41 -102 102s46 101 102 101zM284 716c-23 0 -41 -16 -41 -41s18 -41 41 -41c22 0 41 16 41 41s-19 41 -41 41zM294 553c127 0 210 -70 210 -191l4 -342c0 -13 -7 -20 -20 -20h-79c-13 0 -20 7 -20 20l1 61h-8
c-36 -55 -101 -92 -181 -92c-96 0 -162 55 -162 152c0 113 88 164 285 187c44 5 66 22 66 53c0 42 -41 72 -104 72c-54 0 -88 -21 -104 -60c-5 -11 -12 -16 -23 -16h-71c-14 0 -22 7 -19 18c25 94 102 158 225 158zM389 252l-5 3c-17 -6 -44 -12 -70 -16
c-100 -16 -160 -38 -160 -91c0 -35 25 -57 75 -57c99 0 164 76 161 134z" />
    <glyph glyph-name="atilde" unicode="&#xe3;" horiz-adv-x="576" 
d="M235 744c69 0 89 -67 119 -67c15 0 21 13 23 30c2 13 8 20 20 20h31c13 0 20 -7 19 -20c-5 -52 -29 -106 -93 -106c-63 0 -78 67 -118 67c-17 0 -25 -14 -28 -31c-2 -12 -8 -19 -20 -19h-30c-13 0 -20 7 -19 19c4 59 28 107 96 107zM294 553c127 0 210 -70 210 -191
l4 -342c0 -13 -7 -20 -20 -20h-79c-13 0 -20 7 -20 20l1 61h-8c-36 -55 -101 -92 -181 -92c-96 0 -162 55 -162 152c0 113 88 164 285 187c44 5 66 22 66 53c0 42 -41 72 -104 72c-54 0 -88 -21 -104 -60c-5 -11 -12 -16 -23 -16h-71c-14 0 -22 7 -19 18
c25 94 102 158 225 158zM389 252l-5 3c-17 -6 -44 -12 -70 -16c-100 -16 -160 -38 -160 -91c0 -35 25 -57 75 -57c99 0 164 76 161 134z" />
    <glyph glyph-name="ae" unicode="&#xe6;" horiz-adv-x="928" 
d="M646 554c153 0 231 -119 229 -269c0 -8 0 -16 -1 -24c0 -12 -8 -19 -20 -19h-346c6 -109 69 -154 140 -154c47 0 74 16 100 57c6 10 13 14 24 14h71c15 0 22 -9 16 -23c-41 -99 -120 -152 -221 -152c-84 0 -157 41 -201 112h-9c-41 -61 -128 -107 -227 -107
c-96 0 -162 54 -163 152c0 123 107 177 319 193l32 2v45c0 42 -40 72 -103 72c-54 0 -88 -21 -105 -60c-5 -11 -11 -16 -23 -16h-71c-14 0 -22 8 -18 22c27 92 103 154 224 154c78 0 139 -26 176 -75c44 48 106 76 177 76zM515 334h239c0 61 -43 116 -118 116
c-73 0 -107 -57 -121 -116zM390 249l-29 -2c-154 -11 -207 -47 -207 -99c0 -35 24 -58 74 -58c99 0 161 89 161 144z" />
    <glyph glyph-name="b" unicode="b" horiz-adv-x="617" 
d="M324 553c152 0 255 -117 255 -291c0 -161 -90 -278 -221 -278c-63 0 -125 27 -163 87h-7v-51c0 -13 -7 -20 -20 -20h-80c-13 0 -20 7 -20 20l4 712c0 13 7 20 20 20h72c13 0 20 -7 20 -20l2 -230h6c34 37 77 51 132 51zM327 88c87 0 134 66 134 176
c0 122 -56 186 -136 186c-82 0 -147 -65 -144 -184c0 -121 65 -178 146 -178z" />
    <glyph glyph-name="bdotbelow" unicode="&#x1e05;" horiz-adv-x="617" 
d="M324 553c152 0 255 -117 255 -291c0 -161 -90 -278 -221 -278c-63 0 -125 27 -163 87h-7v-51c0 -13 -7 -20 -20 -20h-80c-13 0 -20 7 -20 20l4 712c0 13 7 20 20 20h72c13 0 20 -7 20 -20l2 -230h6c34 37 77 51 132 51zM327 88c87 0 134 66 134 176
c0 122 -56 186 -136 186c-82 0 -147 -65 -144 -184c0 -121 65 -178 146 -178zM263 -166v80c0 13 7 20 20 20h79c13 0 20 -7 20 -20v-80c0 -13 -7 -20 -20 -20h-79c-13 0 -20 7 -20 20z" />
    <glyph glyph-name="c" unicode="c" horiz-adv-x="544" 
d="M291 554c127 0 209 -83 230 -166c3 -14 -4 -22 -18 -22h-72c-11 0 -18 5 -23 15c-25 45 -59 69 -116 69c-81 0 -137 -47 -137 -185c0 -130 56 -176 143 -176c59 0 87 25 106 59c5 10 12 15 23 15h72c15 0 22 -9 17 -22c-28 -77 -103 -157 -229 -157
c-152 0 -249 110 -249 278c0 181 104 292 253 292z" />
    <glyph glyph-name="cacute" unicode="&#x107;" horiz-adv-x="544" 
d="M409 739l-99 -124c-6 -9 -13 -12 -24 -12h-33c-16 0 -22 10 -14 24l65 122c6 10 13 14 24 14h70c17 0 22 -11 11 -24zM291 554c127 0 209 -83 230 -166c3 -14 -4 -22 -18 -22h-72c-11 0 -18 5 -23 15c-25 45 -59 69 -116 69c-81 0 -137 -47 -137 -185
c0 -130 56 -176 143 -176c59 0 87 25 106 59c5 10 12 15 23 15h72c15 0 22 -9 17 -22c-28 -77 -103 -157 -229 -157c-152 0 -249 110 -249 278c0 181 104 292 253 292z" />
    <glyph glyph-name="cacute.loclPLK" horiz-adv-x="544" 
d="M373 762l-51 -126c-4 -11 -11 -16 -23 -16h-33c-14 0 -21 8 -18 22l29 126c3 11 10 17 22 17h58c15 0 21 -9 16 -23zM291 554c127 0 209 -83 230 -166c3 -14 -4 -22 -18 -22h-72c-11 0 -18 5 -23 15c-25 45 -59 69 -116 69c-81 0 -137 -47 -137 -185
c0 -130 56 -176 143 -176c59 0 87 25 106 59c5 10 12 15 23 15h72c15 0 22 -9 17 -22c-28 -77 -103 -157 -229 -157c-152 0 -249 110 -249 278c0 181 104 292 253 292z" />
    <glyph glyph-name="ccaron" unicode="&#x10d;" horiz-adv-x="544" 
d="M135 762h58c10 0 18 -4 24 -12l59 -80h10l54 79c6 9 14 13 24 13h58c17 0 22 -11 11 -25l-104 -124c-7 -8 -14 -11 -25 -11h-50c-11 0 -18 3 -25 11l-105 124c-11 14 -6 25 11 25zM291 554c127 0 209 -83 230 -166c3 -14 -4 -22 -18 -22h-72c-11 0 -18 5 -23 15
c-25 45 -59 69 -116 69c-81 0 -137 -47 -137 -185c0 -130 56 -176 143 -176c59 0 87 25 106 59c5 10 12 15 23 15h72c15 0 22 -9 17 -22c-28 -77 -103 -157 -229 -157c-152 0 -249 110 -249 278c0 181 104 292 253 292z" />
    <glyph glyph-name="ccedilla" unicode="&#xe7;" horiz-adv-x="544" 
d="M298 89c59 0 87 25 106 59c5 10 12 15 23 15h72c15 0 22 -9 17 -22c-26 -71 -93 -145 -202 -156l-14 -43c36 -8 68 -35 68 -84c0 -52 -37 -94 -107 -94c-21 0 -40 4 -61 14c-11 6 -14 15 -11 26l7 22c4 14 13 17 26 12c15 -6 28 -9 39 -9c18 0 34 13 34 26
c0 16 -12 33 -53 32h-4c-15 0 -21 9 -17 23l23 77c-127 19 -206 123 -206 275c0 181 104 292 253 292c127 0 209 -83 230 -166c3 -14 -4 -22 -18 -22h-72c-11 0 -18 5 -23 15c-25 45 -59 69 -116 69c-81 0 -137 -47 -137 -185c0 -130 56 -176 143 -176z" />
    <glyph glyph-name="cdotaccent" unicode="&#x10b;" horiz-adv-x="544" 
d="M338 732v-75c0 -13 -7 -20 -20 -20h-75c-13 0 -20 7 -20 20v75c0 13 7 20 20 20h75c13 0 20 -7 20 -20zM291 554c127 0 209 -83 230 -166c3 -14 -4 -22 -18 -22h-72c-11 0 -18 5 -23 15c-25 45 -59 69 -116 69c-81 0 -137 -47 -137 -185c0 -130 56 -176 143 -176
c59 0 87 25 106 59c5 10 12 15 23 15h72c15 0 22 -9 17 -22c-28 -77 -103 -157 -229 -157c-152 0 -249 110 -249 278c0 181 104 292 253 292z" />
    <glyph glyph-name="d" unicode="d" horiz-adv-x="616" 
d="M528 0h-84c-13 0 -20 7 -20 20v51h-7c-34 -60 -95 -87 -159 -87c-130 0 -220 117 -220 278c0 174 103 291 255 291c55 0 97 -18 130 -51h5l1 230c0 13 7 20 20 20h75c13 0 20 -7 20 -20l4 -712c0 -13 -7 -20 -20 -20zM291 89c81 0 145 66 143 185c2 121 -64 176 -144 176
c-88 0 -135 -67 -135 -178c0 -120 57 -183 136 -183z" />
    <glyph glyph-name="eth" unicode="&#xf0;" horiz-adv-x="600" 
d="M429 686l-34 -18c95 -91 151 -218 151 -367c0 -210 -102 -317 -256 -317c-161 0 -252 117 -252 279c0 173 105 290 238 290c45 0 81 -12 107 -25l5 4c-22 34 -50 62 -84 88l-76 -41c-12 -6 -21 -3 -27 9l-12 22c-6 12 -3 21 9 27l43 23c-11 6 -22 11 -33 17
c-13 6 -16 16 -8 27l32 49c7 10 16 13 27 7c29 -13 57 -29 82 -48l58 31c12 6 21 3 27 -9l11 -21c7 -12 4 -21 -8 -27zM292 89c78 0 140 62 140 183c0 118 -60 178 -140 178c-79 0 -137 -59 -137 -178c0 -121 60 -183 137 -183z" />
    <glyph glyph-name="dcaron" unicode="&#x10f;" horiz-adv-x="616" 
d="M449 752h75c13 0 20 -7 20 -20l4 -712c0 -13 -7 -20 -20 -20h-84c-13 0 -20 7 -20 20v51h-7c-34 -60 -95 -87 -159 -87c-130 0 -220 117 -220 278c0 174 103 291 255 291c55 0 97 -18 130 -51h5l1 230c0 13 7 20 20 20zM646 752h48c14 0 21 -8 18 -22l-24 -131
c-2 -12 -9 -18 -21 -18h-35c-13 0 -20 8 -19 21l12 131c1 13 9 19 21 19zM291 89c81 0 145 66 143 185c2 121 -64 176 -144 176c-88 0 -135 -67 -135 -178c0 -120 57 -183 136 -183z" />
    <glyph glyph-name="dcroat" unicode="&#x111;" horiz-adv-x="616" 
d="M631 689v-37c0 -13 -7 -20 -20 -20h-66l3 -612c0 -13 -7 -20 -20 -20h-84c-13 0 -20 7 -20 20v51h-7c-34 -60 -95 -87 -159 -87c-130 0 -220 117 -220 278c0 174 103 291 255 291c55 0 97 -18 130 -51h5l1 130h-123c-13 0 -20 7 -20 20v37c0 13 7 20 20 20h123v23
c0 13 7 20 20 20h75c13 0 20 -7 20 -20v-23h67c13 0 20 -7 20 -20zM291 89c81 0 145 66 143 185c2 121 -64 176 -144 176c-88 0 -135 -67 -135 -178c0 -120 57 -183 136 -183z" />
    <glyph glyph-name="ddotbelow" unicode="&#x1e0d;" horiz-adv-x="616" 
d="M528 0h-84c-13 0 -20 7 -20 20v51h-7c-34 -60 -95 -87 -159 -87c-130 0 -220 117 -220 278c0 174 103 291 255 291c55 0 97 -18 130 -51h5l1 230c0 13 7 20 20 20h75c13 0 20 -7 20 -20l4 -712c0 -13 -7 -20 -20 -20zM291 89c81 0 145 66 143 185c2 121 -64 176 -144 176
c-88 0 -135 -67 -135 -178c0 -120 57 -183 136 -183zM234 -166v80c0 13 7 20 20 20h79c13 0 20 -7 20 -20v-80c0 -13 -7 -20 -20 -20h-79c-13 0 -20 7 -20 20z" />
    <glyph glyph-name="e" unicode="e" horiz-adv-x="574" 
d="M302 554c165 0 243 -130 234 -293c-1 -12 -9 -19 -21 -19h-360c5 -109 68 -154 148 -154c47 0 79 16 105 57c6 10 13 14 24 14h71c15 0 22 -9 16 -23c-41 -99 -125 -152 -226 -152c-148 0 -255 111 -255 281s106 289 264 289zM292 450c-83 0 -117 -57 -131 -116h255
c-1 61 -43 116 -124 116z" />
    <glyph glyph-name="eacute" unicode="&#xe9;" horiz-adv-x="574" 
d="M415 739l-99 -124c-6 -9 -13 -12 -24 -12h-33c-16 0 -22 10 -14 24l65 122c6 10 13 14 24 14h70c17 0 22 -11 11 -24zM302 554c165 0 243 -130 234 -293c-1 -12 -9 -19 -21 -19h-360c5 -109 68 -154 148 -154c47 0 79 16 105 57c6 10 13 14 24 14h71c15 0 22 -9 16 -23
c-41 -99 -125 -152 -226 -152c-148 0 -255 111 -255 281s106 289 264 289zM292 450c-83 0 -117 -57 -131 -116h255c-1 61 -43 116 -124 116z" />
    <glyph glyph-name="ecaron" unicode="&#x11b;" horiz-adv-x="574" 
d="M141 762h58c10 0 18 -4 24 -12l59 -80h10l54 79c6 9 14 13 24 13h58c17 0 22 -11 11 -25l-104 -124c-7 -8 -14 -11 -25 -11h-50c-11 0 -18 3 -25 11l-105 124c-11 14 -6 25 11 25zM302 554c165 0 243 -130 234 -293c-1 -12 -9 -19 -21 -19h-360c5 -109 68 -154 148 -154
c47 0 79 16 105 57c6 10 13 14 24 14h71c15 0 22 -9 16 -23c-41 -99 -125 -152 -226 -152c-148 0 -255 111 -255 281s106 289 264 289zM292 450c-83 0 -117 -57 -131 -116h255c-1 61 -43 116 -124 116z" />
    <glyph glyph-name="ecedilla" unicode="&#x229;" horiz-adv-x="574" 
d="M302 554c165 0 243 -130 234 -293c-1 -12 -9 -19 -21 -19h-360c5 -109 68 -154 148 -154c47 0 79 16 105 57c6 10 13 14 24 14h71c15 0 22 -9 16 -23c-37 -91 -110 -142 -199 -151l-14 -43c36 -8 68 -35 68 -84c0 -52 -37 -94 -107 -94c-21 0 -40 4 -61 14
c-11 6 -14 15 -11 26l7 22c4 14 13 17 26 12c15 -6 28 -9 39 -9c18 0 34 13 34 26c0 16 -12 33 -53 32h-4c-15 0 -21 9 -17 23l23 77c-125 20 -212 125 -212 278c0 170 106 289 264 289zM161 334h255c-1 61 -43 116 -124 116c-83 0 -117 -57 -131 -116z" />
    <glyph glyph-name="ecircumflex" unicode="&#xea;" horiz-adv-x="574" 
d="M430 603h-58c-10 0 -18 4 -24 12l-59 80h-10l-54 -79c-6 -9 -14 -13 -24 -13h-58c-17 0 -22 11 -11 25l104 124c7 8 14 11 25 11h50c11 0 18 -3 25 -11l105 -124c11 -14 6 -25 -11 -25zM302 554c165 0 243 -130 234 -293c-1 -12 -9 -19 -21 -19h-360
c5 -109 68 -154 148 -154c47 0 79 16 105 57c6 10 13 14 24 14h71c15 0 22 -9 16 -23c-41 -99 -125 -152 -226 -152c-148 0 -255 111 -255 281s106 289 264 289zM292 450c-83 0 -117 -57 -131 -116h255c-1 61 -43 116 -124 116z" />
    <glyph glyph-name="edieresis" unicode="&#xeb;" horiz-adv-x="574" 
d="M261 733v-75c0 -13 -7 -20 -20 -20h-62c-13 0 -20 7 -20 20v75c0 13 7 20 20 20h62c13 0 20 -7 20 -20zM421 733v-75c0 -13 -7 -20 -20 -20h-62c-13 0 -20 7 -20 20v75c0 13 7 20 20 20h62c13 0 20 -7 20 -20zM302 554c165 0 243 -130 234 -293c-1 -12 -9 -19 -21 -19
h-360c5 -109 68 -154 148 -154c47 0 79 16 105 57c6 10 13 14 24 14h71c15 0 22 -9 16 -23c-41 -99 -125 -152 -226 -152c-148 0 -255 111 -255 281s106 289 264 289zM292 450c-83 0 -117 -57 -131 -116h255c-1 61 -43 116 -124 116z" />
    <glyph glyph-name="edotaccent" unicode="&#x117;" horiz-adv-x="574" 
d="M344 732v-75c0 -13 -7 -20 -20 -20h-75c-13 0 -20 7 -20 20v75c0 13 7 20 20 20h75c13 0 20 -7 20 -20zM302 554c165 0 243 -130 234 -293c-1 -12 -9 -19 -21 -19h-360c5 -109 68 -154 148 -154c47 0 79 16 105 57c6 10 13 14 24 14h71c15 0 22 -9 16 -23
c-41 -99 -125 -152 -226 -152c-148 0 -255 111 -255 281s106 289 264 289zM292 450c-83 0 -117 -57 -131 -116h255c-1 61 -43 116 -124 116z" />
    <glyph glyph-name="edotbelow" unicode="&#x1eb9;" horiz-adv-x="574" 
d="M302 554c165 0 243 -130 234 -293c-1 -12 -9 -19 -21 -19h-360c5 -109 68 -154 148 -154c47 0 79 16 105 57c6 10 13 14 24 14h71c15 0 22 -9 16 -23c-41 -99 -125 -152 -226 -152c-148 0 -255 111 -255 281s106 289 264 289zM292 450c-83 0 -117 -57 -131 -116h255
c-1 61 -43 116 -124 116zM346 -86v-80c0 -13 -7 -20 -20 -20h-79c-13 0 -20 7 -20 20v80c0 13 7 20 20 20h79c13 0 20 -7 20 -20z" />
    <glyph glyph-name="egrave" unicode="&#xe8;" horiz-adv-x="574" 
d="M181 763h70c11 0 18 -4 24 -14l65 -122c8 -14 2 -24 -14 -24h-33c-11 0 -18 3 -24 12l-99 124c-11 13 -6 24 11 24zM302 554c165 0 243 -130 234 -293c-1 -12 -9 -19 -21 -19h-360c5 -109 68 -154 148 -154c47 0 79 16 105 57c6 10 13 14 24 14h71c15 0 22 -9 16 -23
c-41 -99 -125 -152 -226 -152c-148 0 -255 111 -255 281s106 289 264 289zM292 450c-83 0 -117 -57 -131 -116h255c-1 61 -43 116 -124 116z" />
    <glyph glyph-name="emacron" unicode="&#x113;" horiz-adv-x="574" 
d="M414 715v-48c0 -13 -7 -20 -20 -20h-215c-13 0 -20 7 -20 20v48c0 13 7 20 20 20h215c13 0 20 -7 20 -20zM302 554c165 0 243 -130 234 -293c-1 -12 -9 -19 -21 -19h-360c5 -109 68 -154 148 -154c47 0 79 16 105 57c6 10 13 14 24 14h71c15 0 22 -9 16 -23
c-41 -99 -125 -152 -226 -152c-148 0 -255 111 -255 281s106 289 264 289zM292 450c-83 0 -117 -57 -131 -116h255c-1 61 -43 116 -124 116z" />
    <glyph glyph-name="eogonek" unicode="&#x119;" horiz-adv-x="574" 
d="M302 554c165 0 243 -130 234 -293c-1 -12 -9 -19 -21 -19h-360c5 -109 68 -154 148 -154c47 0 79 16 105 57c6 10 13 14 24 14h71c15 0 22 -9 16 -23c-30 -75 -86 -123 -154 -142c-65 -40 -105 -78 -105 -110c0 -19 15 -31 47 -31c12 0 28 1 44 4c14 2 22 -4 22 -18v-41
c0 -12 -5 -20 -17 -22c-19 -4 -38 -6 -53 -6c-80 0 -125 44 -125 110c0 39 17 76 49 112c-113 28 -189 129 -189 273c0 170 106 289 264 289zM161 334h255c-1 61 -43 116 -124 116c-83 0 -117 -57 -131 -116z" />
    <glyph glyph-name="etilde" unicode="&#x1ebd;" horiz-adv-x="574" 
d="M237 744c69 0 89 -67 119 -67c15 0 21 13 23 30c2 13 8 20 20 20h31c13 0 20 -7 19 -20c-5 -52 -29 -106 -93 -106c-63 0 -78 67 -118 67c-17 0 -25 -14 -28 -31c-2 -12 -8 -19 -20 -19h-30c-13 0 -20 7 -19 19c4 59 28 107 96 107zM302 554c165 0 243 -130 234 -293
c-1 -12 -9 -19 -21 -19h-360c5 -109 68 -154 148 -154c47 0 79 16 105 57c6 10 13 14 24 14h71c15 0 22 -9 16 -23c-41 -99 -125 -152 -226 -152c-148 0 -255 111 -255 281s106 289 264 289zM292 450c-83 0 -117 -57 -131 -116h255c-1 61 -43 116 -124 116z" />
    <glyph glyph-name="f" unicode="f" horiz-adv-x="401" 
d="M378 733v-65c0 -13 -7 -20 -20 -20c-87 -2 -132 -6 -131 -106v-5h126c13 0 20 -7 20 -20v-58c0 -13 -7 -20 -20 -20h-125l3 -419c0 -13 -7 -20 -20 -20h-83c-13 0 -20 7 -20 20l3 419h-64c-13 0 -20 7 -20 20v58c0 13 7 20 20 20h65c3 180 118 222 247 216
c12 0 19 -8 19 -20z" />
    <glyph glyph-name="g" unicode="g" horiz-adv-x="618" 
d="M544 517l6 -436c4 -218 -107 -317 -255 -317c-99 0 -178 45 -220 132c-7 14 0 24 15 24h76c10 0 17 -4 24 -12c26 -31 63 -40 103 -40c77 0 134 40 131 173v13h-6c-34 -39 -70 -54 -127 -54c-150 0 -253 110 -253 277c0 156 90 276 220 276c66 0 126 -31 161 -90h8l1 54
c1 13 8 20 21 20h75c13 0 20 -7 20 -20zM290 104c80 0 146 49 144 157c2 119 -62 189 -143 189c-79 0 -136 -68 -136 -183c0 -105 47 -163 135 -163z" />
    <glyph glyph-name="gbreve" unicode="&#x11f;" horiz-adv-x="618" 
d="M303 581c-85 0 -146 45 -146 144c0 10 7 16 20 16h45c13 0 20 -6 20 -16c0 -48 28 -69 61 -69c35 0 62 21 62 69c0 10 7 16 20 16h46c13 0 20 -6 20 -16c0 -99 -61 -144 -148 -144zM544 517l6 -436c4 -218 -107 -317 -255 -317c-99 0 -178 45 -220 132c-7 14 0 24 15 24
h76c10 0 17 -4 24 -12c26 -31 63 -40 103 -40c77 0 134 40 131 173v13h-6c-34 -39 -70 -54 -127 -54c-150 0 -253 110 -253 277c0 156 90 276 220 276c66 0 126 -31 161 -90h8l1 54c1 13 8 20 21 20h75c13 0 20 -7 20 -20zM290 104c80 0 146 49 144 157
c2 119 -62 189 -143 189c-79 0 -136 -68 -136 -183c0 -105 47 -163 135 -163z" />
    <glyph glyph-name="gcaron" unicode="&#x1e7;" horiz-adv-x="618" 
d="M328 602h-50c-11 0 -18 3 -25 11l-105 124c-11 14 -6 25 11 25h58c10 0 18 -4 24 -12l59 -80h10l54 79c6 9 14 13 24 13h58c17 0 22 -11 11 -25l-104 -124c-7 -8 -14 -11 -25 -11zM544 517l6 -436c4 -218 -107 -317 -255 -317c-99 0 -178 45 -220 132c-7 14 0 24 15 24
h76c10 0 17 -4 24 -12c26 -31 63 -40 103 -40c77 0 134 40 131 173v13h-6c-34 -39 -70 -54 -127 -54c-150 0 -253 110 -253 277c0 156 90 276 220 276c66 0 126 -31 161 -90h8l1 54c1 13 8 20 21 20h75c13 0 20 -7 20 -20zM290 104c80 0 146 49 144 157
c2 119 -62 189 -143 189c-79 0 -136 -68 -136 -183c0 -105 47 -163 135 -163z" />
    <glyph glyph-name="gcommaaccent" unicode="&#x123;" horiz-adv-x="618" 
d="M356 675v-51c0 -13 -7 -20 -20 -20h-64c-13 0 -20 7 -20 20v41c0 71 22 116 62 145c9 7 17 7 27 2c13 -7 14 -16 4 -28c-25 -30 -29 -65 -3 -85c9 -7 14 -13 14 -24zM544 517l6 -436c4 -218 -107 -317 -255 -317c-99 0 -178 45 -220 132c-7 14 0 24 15 24h76
c10 0 17 -4 24 -12c26 -31 63 -40 103 -40c77 0 134 40 131 173v13h-6c-34 -39 -70 -54 -127 -54c-150 0 -253 110 -253 277c0 156 90 276 220 276c66 0 126 -31 161 -90h8l1 54c1 13 8 20 21 20h75c13 0 20 -7 20 -20zM290 104c80 0 146 49 144 157c2 119 -62 189 -143 189
c-79 0 -136 -68 -136 -183c0 -105 47 -163 135 -163z" />
    <glyph glyph-name="gdotaccent" unicode="&#x121;" horiz-adv-x="618" 
d="M362 732v-75c0 -13 -7 -20 -20 -20h-75c-13 0 -20 7 -20 20v75c0 13 7 20 20 20h75c13 0 20 -7 20 -20zM544 517l6 -436c4 -218 -107 -317 -255 -317c-99 0 -178 45 -220 132c-7 14 0 24 15 24h76c10 0 17 -4 24 -12c26 -31 63 -40 103 -40c77 0 134 40 131 173v13h-6
c-34 -39 -70 -54 -127 -54c-150 0 -253 110 -253 277c0 156 90 276 220 276c66 0 126 -31 161 -90h8l1 54c1 13 8 20 21 20h75c13 0 20 -7 20 -20zM290 104c80 0 146 49 144 157c2 119 -62 189 -143 189c-79 0 -136 -68 -136 -183c0 -105 47 -163 135 -163z" />
    <glyph glyph-name="h" unicode="h" horiz-adv-x="593" 
d="M189 464h9c37 57 89 83 152 83c104 0 172 -73 173 -201l2 -326c0 -13 -7 -20 -20 -20h-84c-13 0 -20 7 -20 20l3 296c1 81 -35 118 -94 118c-73 0 -128 -56 -121 -178l2 -236c0 -13 -7 -20 -20 -20h-83c-13 0 -20 7 -20 20l4 712c0 13 7 20 20 20h75c13 0 20 -7 20 -20z
" />
    <glyph glyph-name="hbar" unicode="&#x127;" horiz-adv-x="593" 
d="M401 20l3 296c1 81 -35 118 -94 118c-73 0 -128 -56 -121 -178l2 -236c0 -13 -7 -20 -20 -20h-83c-13 0 -20 7 -20 20l3 570h-67c-13 0 -20 7 -20 20v28c0 13 7 20 20 20h68v74c0 13 7 20 20 20h75c13 0 20 -7 20 -20l1 -74h121c13 0 20 -7 20 -20v-28
c0 -13 -7 -20 -20 -20h-121l1 -126h9c37 57 89 83 152 83c104 0 172 -73 173 -201l2 -326c0 -13 -7 -20 -20 -20h-84c-13 0 -20 7 -20 20z" />
    <glyph glyph-name="i" unicode="i" horiz-adv-x="279" 
d="M198 732v-75c0 -13 -7 -20 -20 -20h-75c-13 0 -20 7 -20 20v75c0 13 7 20 20 20h75c13 0 20 -7 20 -20zM197 517l4 -497c0 -13 -7 -20 -20 -20h-83c-13 0 -20 7 -20 20l4 497c0 13 7 20 20 20h75c13 0 20 -7 20 -20z" />
    <glyph glyph-name="dotlessi" unicode="&#x131;" horiz-adv-x="279" 
d="M197 517l4 -497c0 -13 -7 -20 -20 -20h-83c-13 0 -20 7 -20 20l4 497c0 13 7 20 20 20h75c13 0 20 -7 20 -20z" />
    <glyph glyph-name="iacute" unicode="&#xed;" horiz-adv-x="279" 
d="M269 739l-99 -124c-6 -9 -13 -12 -24 -12h-33c-16 0 -22 10 -14 24l65 122c6 10 13 14 24 14h70c17 0 22 -11 11 -24zM197 517l4 -497c0 -13 -7 -20 -20 -20h-83c-13 0 -20 7 -20 20l4 497c0 13 7 20 20 20h75c13 0 20 -7 20 -20z" />
    <glyph glyph-name="iacute_j.loclNLD" horiz-adv-x="582" 
d="M269 739l-99 -124c-6 -9 -13 -12 -24 -12h-33c-16 0 -22 10 -14 24l65 122c6 10 13 14 24 14h70c17 0 22 -11 11 -24zM562 739l-99 -124c-6 -9 -13 -12 -24 -12h-33c-16 0 -22 10 -14 24l65 122c6 10 13 14 24 14h70c17 0 22 -11 11 -24zM197 517l4 -497
c0 -13 -7 -20 -20 -20h-83c-13 0 -20 7 -20 20l4 497c0 13 7 20 20 20h75c13 0 20 -7 20 -20zM491 517l4 -517c1 -144 -71 -214 -222 -220c-14 0 -21 7 -21 20v64c0 13 7 20 20 21c72 6 99 35 100 105l4 527c0 13 7 20 20 20h75c13 0 20 -7 20 -20z" />
    <glyph glyph-name="icaron" unicode="&#x1d0;" horiz-adv-x="279" 
d="M-5 762h58c10 0 18 -4 24 -12l59 -80h10l54 79c6 9 14 13 24 13h58c17 0 22 -11 11 -25l-104 -124c-7 -8 -14 -11 -25 -11h-50c-11 0 -18 3 -25 11l-105 124c-11 14 -6 25 11 25zM197 517l4 -497c0 -13 -7 -20 -20 -20h-83c-13 0 -20 7 -20 20l4 497c0 13 7 20 20 20h75
c13 0 20 -7 20 -20z" />
    <glyph glyph-name="icircumflex" unicode="&#xee;" horiz-adv-x="279" 
d="M284 603h-58c-10 0 -18 4 -24 12l-59 80h-10l-54 -79c-6 -9 -14 -13 -24 -13h-58c-17 0 -22 11 -11 25l104 124c7 8 14 11 25 11h50c11 0 18 -3 25 -11l105 -124c11 -14 6 -25 -11 -25zM197 517l4 -497c0 -13 -7 -20 -20 -20h-83c-13 0 -20 7 -20 20l4 497
c0 13 7 20 20 20h75c13 0 20 -7 20 -20z" />
    <glyph glyph-name="idieresis" unicode="&#xef;" horiz-adv-x="279" 
d="M115 733v-75c0 -13 -7 -20 -20 -20h-62c-13 0 -20 7 -20 20v75c0 13 7 20 20 20h62c13 0 20 -7 20 -20zM275 733v-75c0 -13 -7 -20 -20 -20h-62c-13 0 -20 7 -20 20v75c0 13 7 20 20 20h62c13 0 20 -7 20 -20zM197 517l4 -497c0 -13 -7 -20 -20 -20h-83
c-13 0 -20 7 -20 20l4 497c0 13 7 20 20 20h75c13 0 20 -7 20 -20z" />
    <glyph glyph-name="idotaccent" horiz-adv-x="279" 
d="M198 732v-75c0 -13 -7 -20 -20 -20h-75c-13 0 -20 7 -20 20v75c0 13 7 20 20 20h75c13 0 20 -7 20 -20zM197 517l4 -497c0 -13 -7 -20 -20 -20h-83c-13 0 -20 7 -20 20l4 497c0 13 7 20 20 20h75c13 0 20 -7 20 -20z" />
    <glyph glyph-name="idotbelow" unicode="&#x1ecb;" horiz-adv-x="279" 
d="M198 732v-75c0 -13 -7 -20 -20 -20h-75c-13 0 -20 7 -20 20v75c0 13 7 20 20 20h75c13 0 20 -7 20 -20zM197 517l4 -497c0 -13 -7 -20 -20 -20h-83c-13 0 -20 7 -20 20l4 497c0 13 7 20 20 20h75c13 0 20 -7 20 -20zM199 -86v-80c0 -13 -7 -20 -20 -20h-79
c-13 0 -20 7 -20 20v80c0 13 7 20 20 20h79c13 0 20 -7 20 -20z" />
    <glyph glyph-name="igrave" unicode="&#xec;" horiz-adv-x="279" 
d="M34 763h70c11 0 18 -4 24 -14l65 -122c8 -14 2 -24 -14 -24h-33c-11 0 -18 3 -24 12l-99 124c-11 13 -6 24 11 24zM197 517l4 -497c0 -13 -7 -20 -20 -20h-83c-13 0 -20 7 -20 20l4 497c0 13 7 20 20 20h75c13 0 20 -7 20 -20z" />
    <glyph glyph-name="ij" unicode="&#x133;" horiz-adv-x="582" 
d="M198 732v-75c0 -13 -7 -20 -20 -20h-75c-13 0 -20 7 -20 20v75c0 13 7 20 20 20h75c13 0 20 -7 20 -20zM491 732v-75c0 -13 -7 -20 -20 -20h-75c-13 0 -20 7 -20 20v75c0 13 7 20 20 20h75c13 0 20 -7 20 -20zM197 517l4 -497c0 -13 -7 -20 -20 -20h-83
c-13 0 -20 7 -20 20l4 497c0 13 7 20 20 20h75c13 0 20 -7 20 -20zM491 517l4 -517c1 -144 -71 -214 -222 -220c-14 0 -21 7 -21 20v64c0 13 7 20 20 21c72 6 99 35 100 105l4 527c0 13 7 20 20 20h75c13 0 20 -7 20 -20z" />
    <glyph glyph-name="imacron" unicode="&#x12b;" horiz-adv-x="279" 
d="M267 715v-48c0 -13 -7 -20 -20 -20h-215c-13 0 -20 7 -20 20v48c0 13 7 20 20 20h215c13 0 20 -7 20 -20zM197 517l4 -497c0 -13 -7 -20 -20 -20h-83c-13 0 -20 7 -20 20l4 497c0 13 7 20 20 20h75c13 0 20 -7 20 -20z" />
    <glyph glyph-name="iogonek" unicode="&#x12f;" horiz-adv-x="279" 
d="M198 732v-75c0 -13 -7 -20 -20 -20h-75c-13 0 -20 7 -20 20v75c0 13 7 20 20 20h75c13 0 20 -7 20 -20zM82 -118c0 -19 15 -31 47 -31c12 0 28 1 44 4c14 2 22 -4 22 -18v-41c0 -12 -5 -20 -17 -22c-19 -4 -38 -6 -53 -6c-80 0 -125 44 -125 110c0 50 28 96 78 140l4 499
c0 13 7 20 20 20h75c13 0 20 -7 20 -20l4 -501c0 -11 -10 -21 -30 -34c-55 -36 -89 -71 -89 -100z" />
    <glyph glyph-name="itilde" unicode="&#x129;" horiz-adv-x="279" 
d="M91 744c69 0 89 -67 119 -67c15 0 21 13 23 30c2 13 8 20 20 20h31c13 0 20 -7 19 -20c-5 -52 -29 -106 -93 -106c-63 0 -78 67 -118 67c-17 0 -25 -14 -28 -31c-2 -12 -8 -19 -20 -19h-30c-13 0 -20 7 -19 19c4 59 28 107 96 107zM197 517l4 -497c0 -13 -7 -20 -20 -20
h-83c-13 0 -20 7 -20 20l4 497c0 13 7 20 20 20h75c13 0 20 -7 20 -20z" />
    <glyph glyph-name="j" unicode="j" horiz-adv-x="303" 
d="M212 732v-75c0 -13 -7 -20 -20 -20h-75c-13 0 -20 7 -20 20v75c0 13 7 20 20 20h75c13 0 20 -7 20 -20zM212 517l4 -517c1 -144 -71 -214 -222 -220c-14 0 -21 7 -21 20v64c0 13 7 20 20 21c72 6 99 35 100 105l4 527c0 13 7 20 20 20h75c13 0 20 -7 20 -20z" />
    <glyph glyph-name="dotlessj" unicode="&#x237;" horiz-adv-x="303" 
d="M212 517l4 -517c1 -144 -71 -214 -222 -220c-14 0 -21 7 -21 20v64c0 13 7 20 20 21c72 6 99 35 100 105l4 527c0 13 7 20 20 20h75c13 0 20 -7 20 -20z" />
    <glyph glyph-name="k" unicode="k" horiz-adv-x="585" 
d="M240 243l-50 -47l1 -176c0 -13 -7 -20 -20 -20h-83c-13 0 -20 7 -20 20l4 712c0 13 7 20 20 20h75c13 0 20 -7 20 -20l2 -410l212 205c7 7 14 10 24 10h86c18 0 23 -12 10 -25l-209 -200l218 -288c10 -13 4 -24 -13 -24h-90c-10 0 -18 4 -24 13z" />
    <glyph glyph-name="kcommaaccent" unicode="&#x137;" horiz-adv-x="585" 
d="M312 312l218 -288c10 -13 4 -24 -13 -24h-90c-10 0 -18 4 -24 13l-163 230l-50 -47l1 -176c0 -13 -7 -20 -20 -20h-83c-13 0 -20 7 -20 20l4 712c0 13 7 20 20 20h75c13 0 20 -7 20 -20l2 -410l212 205c7 7 14 10 24 10h86c18 0 23 -12 10 -25zM241 -138v51
c0 13 7 20 20 20h64c13 0 20 -7 20 -20v-41c0 -71 -22 -116 -62 -145c-9 -7 -17 -7 -27 -2c-13 7 -14 16 -4 28c25 30 29 65 3 85c-9 7 -14 13 -14 24z" />
    <glyph glyph-name="l" unicode="l" horiz-adv-x="297" 
d="M206 732l4 -712c0 -13 -7 -20 -20 -20h-83c-13 0 -20 7 -20 20l4 712c0 13 7 20 20 20h75c13 0 20 -7 20 -20z" />
    <glyph glyph-name="lacute" unicode="&#x13a;" horiz-adv-x="297" 
d="M278 945l-99 -124c-6 -9 -13 -12 -24 -12h-33c-16 0 -22 10 -14 24l65 122c6 10 13 14 24 14h70c17 0 22 -11 11 -24zM206 732l4 -712c0 -13 -7 -20 -20 -20h-83c-13 0 -20 7 -20 20l4 712c0 13 7 20 20 20h75c13 0 20 -7 20 -20z" />
    <glyph glyph-name="lcaron" unicode="&#x13e;" horiz-adv-x="297" 
d="M206 732l4 -712c0 -13 -7 -20 -20 -20h-83c-13 0 -20 7 -20 20l4 712c0 13 7 20 20 20h75c13 0 20 -7 20 -20zM347 608l-24 -131c-2 -12 -9 -18 -21 -18h-35c-13 0 -20 8 -19 21l12 131c1 13 9 19 21 19h48c14 0 21 -8 18 -22z" />
    <glyph glyph-name="lcommaaccent" unicode="&#x13c;" horiz-adv-x="297" 
d="M206 732l4 -712c0 -13 -7 -20 -20 -20h-83c-13 0 -20 7 -20 20l4 712c0 13 7 20 20 20h75c13 0 20 -7 20 -20zM201 -87v-41c0 -71 -22 -116 -62 -145c-9 -7 -17 -7 -27 -2c-13 7 -14 16 -4 28c25 30 29 65 3 85c-9 7 -14 13 -14 24v51c0 13 7 20 20 20h64
c13 0 20 -7 20 -20z" />
    <glyph glyph-name="ldot" unicode="&#x140;" horiz-adv-x="297" 
d="M206 732l4 -712c0 -13 -7 -20 -20 -20h-83c-13 0 -20 7 -20 20l4 712c0 13 7 20 20 20h75c13 0 20 -7 20 -20zM353 455v-80c0 -13 -7 -20 -20 -20h-63c-13 0 -20 7 -20 20v80c0 13 7 20 20 20h63c13 0 20 -7 20 -20z" />
    <glyph glyph-name="ldotbelow" unicode="&#x1e37;" horiz-adv-x="297" 
d="M206 732l4 -712c0 -13 -7 -20 -20 -20h-83c-13 0 -20 7 -20 20l4 712c0 13 7 20 20 20h75c13 0 20 -7 20 -20zM208 -86v-80c0 -13 -7 -20 -20 -20h-79c-13 0 -20 7 -20 20v80c0 13 7 20 20 20h79c13 0 20 -7 20 -20z" />
    <glyph glyph-name="lslash" unicode="&#x142;" horiz-adv-x="297" 
d="M304 509v-65c0 -11 -4 -18 -14 -24l-82 -47l2 -353c0 -13 -7 -20 -20 -20h-83c-13 0 -20 7 -20 20l2 284l-70 -40c-14 -8 -24 -2 -24 14v65c0 11 4 18 14 24l80 46l2 319c0 13 7 20 20 20h75c13 0 20 -7 20 -20l1 -251l73 42c14 8 24 2 24 -14z" />
    <glyph glyph-name="m" unicode="m" horiz-adv-x="894" 
d="M656 553c105 0 169 -74 170 -207l3 -326c0 -13 -7 -20 -20 -20h-84c-13 0 -20 7 -20 20l2 296c1 86 -29 125 -85 125c-68 0 -121 -58 -114 -185l2 -236c0 -13 -7 -20 -20 -20h-84c-13 0 -20 7 -20 20l2 296c1 86 -30 125 -85 125c-61 0 -121 -48 -114 -185l2 -236
c0 -13 -7 -20 -20 -20h-84c-13 0 -20 7 -20 20l5 497c0 13 7 20 20 20h75c13 0 20 -7 20 -20l1 -53h5c40 56 91 89 151 89c65 0 115 -32 141 -98h7c46 65 96 98 164 98z" />
    <glyph glyph-name="macute" unicode="&#x1e3f;" horiz-adv-x="894" 
d="M598 739l-99 -124c-6 -9 -13 -12 -24 -12h-33c-16 0 -22 10 -14 24l65 122c6 10 13 14 24 14h70c17 0 22 -11 11 -24zM656 553c105 0 169 -74 170 -207l3 -326c0 -13 -7 -20 -20 -20h-84c-13 0 -20 7 -20 20l2 296c1 86 -29 125 -85 125c-68 0 -121 -58 -114 -185l2 -236
c0 -13 -7 -20 -20 -20h-84c-13 0 -20 7 -20 20l2 296c1 86 -30 125 -85 125c-61 0 -121 -48 -114 -185l2 -236c0 -13 -7 -20 -20 -20h-84c-13 0 -20 7 -20 20l5 497c0 13 7 20 20 20h75c13 0 20 -7 20 -20l1 -53h5c40 56 91 89 151 89c65 0 115 -32 141 -98h7
c46 65 96 98 164 98z" />
    <glyph glyph-name="n" unicode="n" 
d="M352 553c105 0 178 -76 178 -207v-326c0 -13 -7 -20 -20 -20h-84c-13 0 -20 7 -20 20v296c0 83 -37 125 -96 125c-73 0 -128 -59 -121 -185l2 -236c0 -13 -7 -20 -20 -20h-83c-13 0 -20 7 -20 20l4 497c0 13 7 20 20 20h75c13 0 20 -7 20 -20l1 -53h8c39 61 90 89 156 89
z" />
    <glyph glyph-name="nacute" unicode="&#x144;" 
d="M425 739l-99 -124c-6 -9 -13 -12 -24 -12h-33c-16 0 -22 10 -14 24l65 122c6 10 13 14 24 14h70c17 0 22 -11 11 -24zM352 553c105 0 178 -76 178 -207v-326c0 -13 -7 -20 -20 -20h-84c-13 0 -20 7 -20 20v296c0 83 -37 125 -96 125c-73 0 -128 -59 -121 -185l2 -236
c0 -13 -7 -20 -20 -20h-83c-13 0 -20 7 -20 20l4 497c0 13 7 20 20 20h75c13 0 20 -7 20 -20l1 -53h8c39 61 90 89 156 89z" />
    <glyph glyph-name="nacute.loclPLK" 
d="M389 762l-51 -126c-4 -11 -11 -16 -23 -16h-33c-14 0 -21 8 -18 22l29 126c3 11 10 17 22 17h58c15 0 21 -9 16 -23zM352 553c105 0 178 -76 178 -207v-326c0 -13 -7 -20 -20 -20h-84c-13 0 -20 7 -20 20v296c0 83 -37 125 -96 125c-73 0 -128 -59 -121 -185l2 -236
c0 -13 -7 -20 -20 -20h-83c-13 0 -20 7 -20 20l4 497c0 13 7 20 20 20h75c13 0 20 -7 20 -20l1 -53h8c39 61 90 89 156 89z" />
    <glyph glyph-name="ncaron" unicode="&#x148;" 
d="M151 762h58c10 0 18 -4 24 -12l59 -80h10l54 79c6 9 14 13 24 13h58c17 0 22 -11 11 -25l-104 -124c-7 -8 -14 -11 -25 -11h-50c-11 0 -18 3 -25 11l-105 124c-11 14 -6 25 11 25zM352 553c105 0 178 -76 178 -207v-326c0 -13 -7 -20 -20 -20h-84c-13 0 -20 7 -20 20v296
c0 83 -37 125 -96 125c-73 0 -128 -59 -121 -185l2 -236c0 -13 -7 -20 -20 -20h-83c-13 0 -20 7 -20 20l4 497c0 13 7 20 20 20h75c13 0 20 -7 20 -20l1 -53h8c39 61 90 89 156 89z" />
    <glyph glyph-name="ncommaaccent" unicode="&#x146;" 
d="M352 553c105 0 178 -76 178 -207v-326c0 -13 -7 -20 -20 -20h-84c-13 0 -20 7 -20 20v296c0 83 -37 125 -96 125c-73 0 -128 -59 -121 -185l2 -236c0 -13 -7 -20 -20 -20h-83c-13 0 -20 7 -20 20l4 497c0 13 7 20 20 20h75c13 0 20 -7 20 -20l1 -53h8c39 61 90 89 156 89
zM348 -87v-41c0 -71 -22 -116 -62 -145c-9 -7 -17 -7 -27 -2c-13 7 -14 16 -4 28c25 30 29 65 3 85c-9 7 -14 13 -14 24v51c0 13 7 20 20 20h64c13 0 20 -7 20 -20z" />
    <glyph glyph-name="ndotaccent" unicode="&#x1e45;" 
d="M354 732v-75c0 -13 -7 -20 -20 -20h-75c-13 0 -20 7 -20 20v75c0 13 7 20 20 20h75c13 0 20 -7 20 -20zM352 553c105 0 178 -76 178 -207v-326c0 -13 -7 -20 -20 -20h-84c-13 0 -20 7 -20 20v296c0 83 -37 125 -96 125c-73 0 -128 -59 -121 -185l2 -236
c0 -13 -7 -20 -20 -20h-83c-13 0 -20 7 -20 20l4 497c0 13 7 20 20 20h75c13 0 20 -7 20 -20l1 -53h8c39 61 90 89 156 89z" />
    <glyph glyph-name="ndotbelow" unicode="&#x1e47;" 
d="M352 553c105 0 178 -76 178 -207v-326c0 -13 -7 -20 -20 -20h-84c-13 0 -20 7 -20 20v296c0 83 -37 125 -96 125c-73 0 -128 -59 -121 -185l2 -236c0 -13 -7 -20 -20 -20h-83c-13 0 -20 7 -20 20l4 497c0 13 7 20 20 20h75c13 0 20 -7 20 -20l1 -53h8c39 61 90 89 156 89
zM355 -86v-80c0 -13 -7 -20 -20 -20h-79c-13 0 -20 7 -20 20v80c0 13 7 20 20 20h79c13 0 20 -7 20 -20z" />
    <glyph glyph-name="eng" unicode="&#x14b;" 
d="M352 553c105 0 178 -76 178 -207v-350c0 -144 -72 -210 -222 -216c-14 0 -21 7 -21 20v64c0 13 7 20 20 21c71 5 99 33 99 111v320c0 83 -37 125 -96 125c-73 0 -128 -59 -121 -185l2 -236c0 -13 -7 -20 -20 -20h-83c-13 0 -20 7 -20 20l4 497c0 13 7 20 20 20h75
c13 0 20 -7 20 -20l1 -53h8c39 61 90 89 156 89z" />
    <glyph glyph-name="ntilde" unicode="&#xf1;" 
d="M247 744c69 0 89 -67 119 -67c15 0 21 13 23 30c2 13 8 20 20 20h31c13 0 20 -7 19 -20c-5 -52 -29 -106 -93 -106c-63 0 -78 67 -118 67c-17 0 -25 -14 -28 -31c-2 -12 -8 -19 -20 -19h-30c-13 0 -20 7 -19 19c4 59 28 107 96 107zM352 553c105 0 178 -76 178 -207v-326
c0 -13 -7 -20 -20 -20h-84c-13 0 -20 7 -20 20v296c0 83 -37 125 -96 125c-73 0 -128 -59 -121 -185l2 -236c0 -13 -7 -20 -20 -20h-83c-13 0 -20 7 -20 20l4 497c0 13 7 20 20 20h75c13 0 20 -7 20 -20l1 -53h8c39 61 90 89 156 89z" />
    <glyph glyph-name="o" unicode="o" horiz-adv-x="599" 
d="M304 553c147 0 257 -112 257 -278c0 -168 -115 -291 -266 -291c-147 0 -257 117 -257 282c0 169 114 287 266 287zM291 450c-79 0 -136 -65 -136 -173c0 -115 68 -188 152 -188c79 0 136 67 136 173c0 117 -67 188 -152 188z" />
    <glyph glyph-name="oacute" unicode="&#xf3;" horiz-adv-x="599" 
d="M428 739l-99 -124c-6 -9 -13 -12 -24 -12h-33c-16 0 -22 10 -14 24l65 122c6 10 13 14 24 14h70c17 0 22 -11 11 -24zM304 553c147 0 257 -112 257 -278c0 -168 -115 -291 -266 -291c-147 0 -257 117 -257 282c0 169 114 287 266 287zM291 450c-79 0 -136 -65 -136 -173
c0 -115 68 -188 152 -188c79 0 136 67 136 173c0 117 -67 188 -152 188z" />
    <glyph glyph-name="oacute.loclPLK" horiz-adv-x="599" 
d="M392 762l-51 -126c-4 -11 -11 -16 -23 -16h-33c-14 0 -21 8 -18 22l29 126c3 11 10 17 22 17h58c15 0 21 -9 16 -23zM304 553c147 0 257 -112 257 -278c0 -168 -115 -291 -266 -291c-147 0 -257 117 -257 282c0 169 114 287 266 287zM291 450c-79 0 -136 -65 -136 -173
c0 -115 68 -188 152 -188c79 0 136 67 136 173c0 117 -67 188 -152 188z" />
    <glyph glyph-name="ocaron" unicode="&#x1d2;" horiz-adv-x="599" 
d="M154 762h58c10 0 18 -4 24 -12l59 -80h10l54 79c6 9 14 13 24 13h58c17 0 22 -11 11 -25l-104 -124c-7 -8 -14 -11 -25 -11h-50c-11 0 -18 3 -25 11l-105 124c-11 14 -6 25 11 25zM304 553c147 0 257 -112 257 -278c0 -168 -115 -291 -266 -291c-147 0 -257 117 -257 282
c0 169 114 287 266 287zM291 450c-79 0 -136 -65 -136 -173c0 -115 68 -188 152 -188c79 0 136 67 136 173c0 117 -67 188 -152 188z" />
    <glyph glyph-name="ocircumflex" unicode="&#xf4;" horiz-adv-x="599" 
d="M444 603h-58c-10 0 -18 4 -24 12l-59 80h-10l-54 -79c-6 -9 -14 -13 -24 -13h-58c-17 0 -22 11 -11 25l104 124c7 8 14 11 25 11h50c11 0 18 -3 25 -11l105 -124c11 -14 6 -25 -11 -25zM304 553c147 0 257 -112 257 -278c0 -168 -115 -291 -266 -291
c-147 0 -257 117 -257 282c0 169 114 287 266 287zM291 450c-79 0 -136 -65 -136 -173c0 -115 68 -188 152 -188c79 0 136 67 136 173c0 117 -67 188 -152 188z" />
    <glyph glyph-name="odieresis" unicode="&#xf6;" horiz-adv-x="599" 
d="M274 733v-75c0 -13 -7 -20 -20 -20h-62c-13 0 -20 7 -20 20v75c0 13 7 20 20 20h62c13 0 20 -7 20 -20zM434 733v-75c0 -13 -7 -20 -20 -20h-62c-13 0 -20 7 -20 20v75c0 13 7 20 20 20h62c13 0 20 -7 20 -20zM304 553c147 0 257 -112 257 -278
c0 -168 -115 -291 -266 -291c-147 0 -257 117 -257 282c0 169 114 287 266 287zM291 450c-79 0 -136 -65 -136 -173c0 -115 68 -188 152 -188c79 0 136 67 136 173c0 117 -67 188 -152 188z" />
    <glyph glyph-name="odotbelow" unicode="&#x1ecd;" horiz-adv-x="599" 
d="M304 553c147 0 257 -112 257 -278c0 -168 -115 -291 -266 -291c-147 0 -257 117 -257 282c0 169 114 287 266 287zM291 450c-79 0 -136 -65 -136 -173c0 -115 68 -188 152 -188c79 0 136 67 136 173c0 117 -67 188 -152 188zM219 -86v-80c0 -13 -7 -20 -20 -20h-79
c-13 0 -20 7 -20 20v80c0 13 7 20 20 20h79c13 0 20 -7 20 -20z" />
    <glyph glyph-name="ograve" unicode="&#xf2;" horiz-adv-x="599" 
d="M194 763h70c11 0 18 -4 24 -14l65 -122c8 -14 2 -24 -14 -24h-33c-11 0 -18 3 -24 12l-99 124c-11 13 -6 24 11 24zM304 553c147 0 257 -112 257 -278c0 -168 -115 -291 -266 -291c-147 0 -257 117 -257 282c0 169 114 287 266 287zM291 450c-79 0 -136 -65 -136 -173
c0 -115 68 -188 152 -188c79 0 136 67 136 173c0 117 -67 188 -152 188z" />
    <glyph glyph-name="ohungarumlaut" unicode="&#x151;" horiz-adv-x="599" 
d="M365 741l-99 -124c-6 -9 -13 -12 -24 -12h-33c-16 0 -22 10 -14 24l65 122c6 10 13 14 24 14h70c17 0 22 -11 11 -24zM531 741l-99 -124c-6 -9 -13 -12 -24 -12h-33c-16 0 -22 10 -14 24l65 122c6 10 13 14 24 14h70c17 0 22 -11 11 -24zM304 553
c147 0 257 -112 257 -278c0 -168 -115 -291 -266 -291c-147 0 -257 117 -257 282c0 169 114 287 266 287zM291 450c-79 0 -136 -65 -136 -173c0 -115 68 -188 152 -188c79 0 136 67 136 173c0 117 -67 188 -152 188z" />
    <glyph glyph-name="omacron" unicode="&#x14d;" horiz-adv-x="599" 
d="M427 715v-48c0 -13 -7 -20 -20 -20h-215c-13 0 -20 7 -20 20v48c0 13 7 20 20 20h215c13 0 20 -7 20 -20zM304 553c147 0 257 -112 257 -278c0 -168 -115 -291 -266 -291c-147 0 -257 117 -257 282c0 169 114 287 266 287zM291 450c-79 0 -136 -65 -136 -173
c0 -115 68 -188 152 -188c79 0 136 67 136 173c0 117 -67 188 -152 188z" />
    <glyph glyph-name="oslash" unicode="&#xf8;" horiz-adv-x="672" 
d="M613 512l-65 -74c28 -44 44 -100 44 -163c0 -168 -115 -291 -266 -291c-53 0 -101 15 -141 42l-13 -15c-7 -8 -14 -11 -25 -11h-76c-18 0 -23 11 -11 25l59 67c-32 46 -51 106 -51 174c0 169 114 287 266 287c57 0 109 -17 151 -47l17 20c7 8 14 11 25 11h75
c18 0 23 -11 11 -25zM185 277c0 -34 6 -65 17 -91l207 234c-25 20 -55 30 -87 30c-80 0 -137 -65 -137 -173zM474 262c0 29 -4 56 -12 79l-201 -229c23 -15 49 -23 76 -23c80 0 137 67 137 173z" />
    <glyph glyph-name="otilde" unicode="&#xf5;" horiz-adv-x="599" 
d="M250 744c69 0 89 -67 119 -67c15 0 21 13 23 30c2 13 8 20 20 20h31c13 0 20 -7 19 -20c-5 -52 -29 -106 -93 -106c-63 0 -78 67 -118 67c-17 0 -25 -14 -28 -31c-2 -12 -8 -19 -20 -19h-30c-13 0 -20 7 -19 19c4 59 28 107 96 107zM304 553c147 0 257 -112 257 -278
c0 -168 -115 -291 -266 -291c-147 0 -257 117 -257 282c0 169 114 287 266 287zM291 450c-79 0 -136 -65 -136 -173c0 -115 68 -188 152 -188c79 0 136 67 136 173c0 117 -67 188 -152 188z" />
    <glyph glyph-name="oe" unicode="&#x153;" horiz-adv-x="980" 
d="M707 554c165 0 243 -130 234 -293c0 -12 -8 -19 -20 -19h-361c6 -109 68 -154 148 -154c48 0 79 16 106 57c6 10 13 14 24 14h71c15 0 22 -9 16 -23c-41 -99 -126 -152 -227 -152c-84 0 -155 36 -200 98c-48 -61 -120 -98 -203 -98c-147 0 -257 117 -257 282
c0 169 114 287 266 287c82 0 153 -35 199 -95c47 60 117 96 204 96zM307 89c79 0 136 67 136 173c0 117 -67 188 -152 188c-79 0 -136 -65 -136 -173c0 -115 68 -188 152 -188zM567 334h254c-1 61 -43 116 -124 116c-82 0 -116 -57 -130 -116z" />
    <glyph glyph-name="p" unicode="p" horiz-adv-x="617" 
d="M358 553c131 0 221 -118 221 -279c0 -172 -103 -290 -244 -290c-61 0 -101 15 -140 49h-5l1 -233c0 -13 -7 -20 -20 -20h-83c-13 0 -20 7 -20 20l4 717c0 13 7 20 20 20h75c13 0 20 -7 20 -20l1 -53l8 1c37 60 99 88 162 88zM326 88c89 0 135 66 135 177
c0 119 -57 185 -136 185c-80 0 -144 -68 -144 -185c-3 -121 63 -177 145 -177z" />
    <glyph glyph-name="thorn" unicode="&#xfe;" horiz-adv-x="617" 
d="M358 553c131 0 221 -118 221 -279c0 -172 -103 -290 -244 -290c-61 0 -101 15 -140 49h-5l1 -233c0 -13 -7 -20 -20 -20h-83c-13 0 -20 7 -20 20l4 737l1 195c0 13 7 20 20 20h75c13 0 20 -7 20 -20v-268l8 1c37 60 99 88 162 88zM326 88c89 0 135 66 135 177
c0 119 -57 185 -136 185c-80 0 -144 -68 -144 -185c-3 -121 63 -177 145 -177z" />
    <glyph glyph-name="q" unicode="q" horiz-adv-x="616" 
d="M528 -220h-84c-13 0 -20 7 -20 20l3 233h-7c-36 -34 -76 -49 -131 -49c-152 0 -251 118 -251 289c0 164 90 280 220 280c64 0 125 -27 162 -89h8l1 53c0 13 7 20 20 20h75c13 0 20 -7 20 -20l4 -717c0 -13 -7 -20 -20 -20zM290 88c80 0 146 55 144 168
c2 127 -62 194 -143 194c-79 0 -136 -63 -136 -185c0 -111 47 -177 135 -177z" />
    <glyph glyph-name="r" unicode="r" horiz-adv-x="384" 
d="M361 532v-84c0 -13 -7 -20 -20 -20c-92 -3 -158 -32 -152 -169l2 -239c0 -13 -7 -20 -20 -20h-83c-13 0 -20 7 -20 20l4 497c0 13 7 20 20 20h75c13 0 20 -7 20 -20l1 -51h8c36 48 89 80 144 86c14 1 21 -6 21 -20z" />
    <glyph glyph-name="racute" unicode="&#x155;" horiz-adv-x="384" 
d="M325 739l-99 -124c-6 -9 -13 -12 -24 -12h-33c-16 0 -22 10 -14 24l65 122c6 10 13 14 24 14h70c17 0 22 -11 11 -24zM361 532v-84c0 -13 -7 -20 -20 -20c-92 -3 -158 -32 -152 -169l2 -239c0 -13 -7 -20 -20 -20h-83c-13 0 -20 7 -20 20l4 497c0 13 7 20 20 20h75
c13 0 20 -7 20 -20l1 -51h8c36 48 89 80 144 86c14 1 21 -6 21 -20z" />
    <glyph glyph-name="rcaron" unicode="&#x159;" horiz-adv-x="384" 
d="M52 762h58c10 0 18 -4 24 -12l59 -80h10l54 79c6 9 14 13 24 13h58c17 0 22 -11 11 -25l-104 -124c-7 -8 -14 -11 -25 -11h-50c-11 0 -18 3 -25 11l-105 124c-11 14 -6 25 11 25zM361 532v-84c0 -13 -7 -20 -20 -20c-92 -3 -158 -32 -152 -169l2 -239
c0 -13 -7 -20 -20 -20h-83c-13 0 -20 7 -20 20l4 497c0 13 7 20 20 20h75c13 0 20 -7 20 -20l1 -51h8c36 48 89 80 144 86c14 1 21 -6 21 -20z" />
    <glyph glyph-name="rcommaaccent" unicode="&#x157;" horiz-adv-x="384" 
d="M361 532v-84c0 -13 -7 -20 -20 -20c-92 -3 -158 -32 -152 -169l2 -239c0 -13 -7 -20 -20 -20h-83c-13 0 -20 7 -20 20l4 497c0 13 7 20 20 20h75c13 0 20 -7 20 -20l1 -51h8c36 48 89 80 144 86c14 1 21 -6 21 -20zM180 -87v-41c0 -71 -22 -116 -62 -145
c-9 -7 -17 -7 -27 -2c-13 7 -14 16 -4 28c25 30 29 65 3 85c-9 7 -14 13 -14 24v51c0 13 7 20 20 20h64c13 0 20 -7 20 -20z" />
    <glyph glyph-name="s" unicode="s" horiz-adv-x="540" 
d="M270 553c128 0 201 -79 219 -146c4 -13 -4 -21 -18 -21h-73c-11 0 -18 4 -25 13c-25 33 -61 51 -109 51c-54 0 -87 -26 -87 -59c0 -29 32 -43 107 -65l42 -12c129 -36 175 -87 175 -158c0 -104 -87 -172 -218 -172c-138 0 -210 74 -238 156c-4 13 3 22 17 22h82
c11 0 18 -5 24 -14c27 -45 66 -60 121 -60c58 0 92 16 92 57c0 31 -27 52 -109 75l-40 11c-101 28 -171 68 -171 153c0 98 91 169 209 169z" />
    <glyph glyph-name="sacute" unicode="&#x15b;" horiz-adv-x="540" 
d="M399 739l-99 -124c-6 -9 -13 -12 -24 -12h-33c-16 0 -22 10 -14 24l65 122c6 10 13 14 24 14h70c17 0 22 -11 11 -24zM270 553c128 0 201 -79 219 -146c4 -13 -4 -21 -18 -21h-73c-11 0 -18 4 -25 13c-25 33 -61 51 -109 51c-54 0 -87 -26 -87 -59c0 -29 32 -43 107 -65
l42 -12c129 -36 175 -87 175 -158c0 -104 -87 -172 -218 -172c-138 0 -210 74 -238 156c-4 13 3 22 17 22h82c11 0 18 -5 24 -14c27 -45 66 -60 121 -60c58 0 92 16 92 57c0 31 -27 52 -109 75l-40 11c-101 28 -171 68 -171 153c0 98 91 169 209 169z" />
    <glyph glyph-name="sacute.loclPLK" horiz-adv-x="540" 
d="M363 762l-51 -126c-4 -11 -11 -16 -23 -16h-33c-14 0 -21 8 -18 22l29 126c3 11 10 17 22 17h58c15 0 21 -9 16 -23zM270 553c128 0 201 -79 219 -146c4 -13 -4 -21 -18 -21h-73c-11 0 -18 4 -25 13c-25 33 -61 51 -109 51c-54 0 -87 -26 -87 -59c0 -29 32 -43 107 -65
l42 -12c129 -36 175 -87 175 -158c0 -104 -87 -172 -218 -172c-138 0 -210 74 -238 156c-4 13 3 22 17 22h82c11 0 18 -5 24 -14c27 -45 66 -60 121 -60c58 0 92 16 92 57c0 31 -27 52 -109 75l-40 11c-101 28 -171 68 -171 153c0 98 91 169 209 169z" />
    <glyph glyph-name="scaron" unicode="&#x161;" horiz-adv-x="540" 
d="M126 762h58c10 0 18 -4 24 -12l59 -80h10l54 79c6 9 14 13 24 13h58c17 0 22 -11 11 -25l-104 -124c-7 -8 -14 -11 -25 -11h-50c-11 0 -18 3 -25 11l-105 124c-11 14 -6 25 11 25zM270 553c128 0 201 -79 219 -146c4 -13 -4 -21 -18 -21h-73c-11 0 -18 4 -25 13
c-25 33 -61 51 -109 51c-54 0 -87 -26 -87 -59c0 -29 32 -43 107 -65l42 -12c129 -36 175 -87 175 -158c0 -104 -87 -172 -218 -172c-138 0 -210 74 -238 156c-4 13 3 22 17 22h82c11 0 18 -5 24 -14c27 -45 66 -60 121 -60c58 0 92 16 92 57c0 31 -27 52 -109 75l-40 11
c-101 28 -171 68 -171 153c0 98 91 169 209 169z" />
    <glyph glyph-name="scedilla" unicode="&#x15f;" horiz-adv-x="540" 
d="M501 156c0 -99 -78 -165 -198 -171l-13 -43c36 -8 68 -35 68 -84c0 -52 -37 -94 -107 -94c-21 0 -40 4 -61 14c-11 6 -14 15 -11 26l7 22c4 14 13 17 26 12c15 -6 28 -9 39 -9c18 0 34 13 34 26c0 16 -12 33 -53 32h-4c-15 0 -21 9 -17 23l23 77
c-106 16 -165 81 -189 153c-4 13 3 22 17 22h82c11 0 18 -5 24 -14c27 -45 66 -60 121 -60c58 0 92 16 92 57c0 31 -27 52 -109 75l-40 11c-101 28 -171 68 -171 153c0 98 91 169 209 169c128 0 201 -79 219 -146c4 -13 -4 -21 -18 -21h-73c-11 0 -18 4 -25 13
c-25 33 -61 51 -109 51c-54 0 -87 -26 -87 -59c0 -29 32 -43 107 -65l42 -12c129 -36 175 -87 175 -158z" />
    <glyph glyph-name="scommaaccent" unicode="&#x219;" horiz-adv-x="540" 
d="M270 553c128 0 201 -79 219 -146c4 -13 -4 -21 -18 -21h-73c-11 0 -18 4 -25 13c-25 33 -61 51 -109 51c-54 0 -87 -26 -87 -59c0 -29 32 -43 107 -65l42 -12c129 -36 175 -87 175 -158c0 -104 -87 -172 -218 -172c-138 0 -210 74 -238 156c-4 13 3 22 17 22h82
c11 0 18 -5 24 -14c27 -45 66 -60 121 -60c58 0 92 16 92 57c0 31 -27 52 -109 75l-40 11c-101 28 -171 68 -171 153c0 98 91 169 209 169zM322 -87v-41c0 -71 -22 -116 -62 -145c-9 -7 -17 -7 -27 -2c-13 7 -14 16 -4 28c25 30 29 65 3 85c-9 7 -14 13 -14 24v51
c0 13 7 20 20 20h64c13 0 20 -7 20 -20z" />
    <glyph glyph-name="sdotbelow" unicode="&#x1e63;" horiz-adv-x="540" 
d="M270 553c128 0 201 -79 219 -146c4 -13 -4 -21 -18 -21h-73c-11 0 -18 4 -25 13c-25 33 -61 51 -109 51c-54 0 -87 -26 -87 -59c0 -29 32 -43 107 -65l42 -12c129 -36 175 -87 175 -158c0 -104 -87 -172 -218 -172c-138 0 -210 74 -238 156c-4 13 3 22 17 22h82
c11 0 18 -5 24 -14c27 -45 66 -60 121 -60c58 0 92 16 92 57c0 31 -27 52 -109 75l-40 11c-101 28 -171 68 -171 153c0 98 91 169 209 169zM330 -86v-80c0 -13 -7 -20 -20 -20h-79c-13 0 -20 7 -20 20v80c0 13 7 20 20 20h79c13 0 20 -7 20 -20z" />
    <glyph glyph-name="germandbls" unicode="&#xdf;" horiz-adv-x="640" 
d="M462 378c94 -32 134 -98 134 -177c0 -109 -77 -207 -281 -213c-14 0 -21 7 -21 20v68c0 13 7 20 21 20c117 4 167 43 167 111c0 69 -44 109 -157 114c-14 0 -21 7 -21 20v58c0 13 7 20 20 21c92 6 128 55 128 114c0 69 -51 113 -121 113c-81 0 -140 -59 -139 -199l5 -428
c0 -13 -7 -20 -20 -20h-88c-13 0 -20 7 -20 20l4 428c2 172 88 302 261 302c151 0 230 -100 230 -204c0 -64 -30 -131 -102 -168z" />
    <glyph glyph-name="t" unicode="t" horiz-adv-x="367" 
d="M344 517v-58c0 -13 -7 -20 -20 -20h-86l2 -419c0 -13 -7 -20 -20 -20h-83c-13 0 -20 7 -20 20l2 419h-72c-13 0 -20 7 -20 20v58c0 13 7 20 20 20h73l1 184c0 13 7 20 20 20h75c13 0 20 -7 20 -20l1 -184h87c13 0 20 -7 20 -20z" />
    <glyph glyph-name="tbar" unicode="&#x167;" horiz-adv-x="367" 
d="M238 439v-81h55c13 0 20 -7 20 -20v-64c0 -13 -7 -20 -20 -20h-54l1 -234c0 -13 -7 -20 -20 -20h-83c-13 0 -20 7 -20 20l1 234h-47c-13 0 -20 7 -20 20v64c0 13 7 20 20 20h48v81h-72c-13 0 -20 7 -20 20v58c0 13 7 20 20 20h73l1 184c0 13 7 20 20 20h75
c13 0 20 -7 20 -20l1 -184h87c13 0 20 -7 20 -20v-58c0 -13 -7 -20 -20 -20h-86z" />
    <glyph glyph-name="tcaron" unicode="&#x165;" horiz-adv-x="367" 
d="M372 752h48c14 0 21 -8 18 -22l-24 -131c-2 -12 -9 -18 -21 -18h-35c-13 0 -20 8 -19 21l12 131c1 13 9 19 21 19zM237 537h87c13 0 20 -7 20 -20v-58c0 -13 -7 -20 -20 -20h-86l2 -419c0 -13 -7 -20 -20 -20h-83c-13 0 -20 7 -20 20l2 419h-72c-13 0 -20 7 -20 20v58
c0 13 7 20 20 20h73l1 184c0 13 7 20 20 20h75c13 0 20 -7 20 -20z" />
    <glyph glyph-name="tcedilla" unicode="&#x163;" horiz-adv-x="367" 
d="M344 517v-58c0 -13 -7 -20 -20 -20h-86l2 -419c0 -13 -7 -20 -20 -20h-9l-18 -58c36 -8 68 -35 68 -84c0 -52 -37 -94 -107 -94c-21 0 -40 4 -61 14c-11 6 -14 15 -11 26l7 22c4 14 13 17 26 12c15 -6 28 -9 39 -9c18 0 34 13 34 26c0 16 -12 33 -53 32h-4
c-15 0 -21 9 -17 23l27 90h-4c-13 0 -20 7 -20 20l2 419h-72c-13 0 -20 7 -20 20v58c0 13 7 20 20 20h73l1 184c0 13 7 20 20 20h75c13 0 20 -7 20 -20l1 -184h87c13 0 20 -7 20 -20z" />
    <glyph glyph-name="tcommaaccent" unicode="&#x21b;" horiz-adv-x="367" 
d="M344 517v-58c0 -13 -7 -20 -20 -20h-86l2 -419c0 -13 -7 -20 -20 -20h-83c-13 0 -20 7 -20 20l2 419h-72c-13 0 -20 7 -20 20v58c0 13 7 20 20 20h73l1 184c0 13 7 20 20 20h75c13 0 20 -7 20 -20l1 -184h87c13 0 20 -7 20 -20zM122 -138v51c0 13 7 20 20 20h64
c13 0 20 -7 20 -20v-41c0 -71 -22 -116 -62 -145c-9 -7 -17 -7 -27 -2c-13 7 -14 16 -4 28c25 30 29 65 3 85c-9 7 -14 13 -14 24z" />
    <glyph glyph-name="tdotbelow" unicode="&#x1e6d;" horiz-adv-x="367" 
d="M344 517v-58c0 -13 -7 -20 -20 -20h-86l2 -419c0 -13 -7 -20 -20 -20h-83c-13 0 -20 7 -20 20l2 419h-72c-13 0 -20 7 -20 20v58c0 13 7 20 20 20h73l1 184c0 13 7 20 20 20h75c13 0 20 -7 20 -20l1 -184h87c13 0 20 -7 20 -20zM114 -166v80c0 13 7 20 20 20h79
c13 0 20 -7 20 -20v-80c0 -13 -7 -20 -20 -20h-79c-13 0 -20 7 -20 20z" />
    <glyph glyph-name="u" unicode="u" horiz-adv-x="591" 
d="M518 517l5 -497c0 -13 -7 -20 -20 -20h-84c-13 0 -20 7 -19 20l1 53h-8c-37 -61 -90 -89 -152 -89c-104 0 -174 75 -173 219l2 314c0 13 7 20 20 20h75c13 0 20 -7 20 -20l2 -285c1 -95 34 -136 94 -136c72 0 125 58 120 185l3 236c0 13 7 20 20 20h74c13 0 20 -7 20 -20
z" />
    <glyph glyph-name="uacute" unicode="&#xfa;" horiz-adv-x="591" 
d="M423 739l-99 -124c-6 -9 -13 -12 -24 -12h-33c-16 0 -22 10 -14 24l65 122c6 10 13 14 24 14h70c17 0 22 -11 11 -24zM518 517l5 -497c0 -13 -7 -20 -20 -20h-84c-13 0 -20 7 -19 20l1 53h-8c-37 -61 -90 -89 -152 -89c-104 0 -174 75 -173 219l2 314c0 13 7 20 20 20h75
c13 0 20 -7 20 -20l2 -285c1 -95 34 -136 94 -136c72 0 125 58 120 185l3 236c0 13 7 20 20 20h74c13 0 20 -7 20 -20z" />
    <glyph glyph-name="ucaron" unicode="&#x1d4;" horiz-adv-x="591" 
d="M149 762h58c10 0 18 -4 24 -12l59 -80h10l54 79c6 9 14 13 24 13h58c17 0 22 -11 11 -25l-104 -124c-7 -8 -14 -11 -25 -11h-50c-11 0 -18 3 -25 11l-105 124c-11 14 -6 25 11 25zM518 517l5 -497c0 -13 -7 -20 -20 -20h-84c-13 0 -20 7 -19 20l1 53h-8
c-37 -61 -90 -89 -152 -89c-104 0 -174 75 -173 219l2 314c0 13 7 20 20 20h75c13 0 20 -7 20 -20l2 -285c1 -95 34 -136 94 -136c72 0 125 58 120 185l3 236c0 13 7 20 20 20h74c13 0 20 -7 20 -20z" />
    <glyph glyph-name="ucircumflex" unicode="&#xfb;" horiz-adv-x="591" 
d="M438 603h-58c-10 0 -18 4 -24 12l-59 80h-10l-54 -79c-6 -9 -14 -13 -24 -13h-58c-17 0 -22 11 -11 25l104 124c7 8 14 11 25 11h50c11 0 18 -3 25 -11l105 -124c11 -14 6 -25 -11 -25zM518 517l5 -497c0 -13 -7 -20 -20 -20h-84c-13 0 -20 7 -19 20l1 53h-8
c-37 -61 -90 -89 -152 -89c-104 0 -174 75 -173 219l2 314c0 13 7 20 20 20h75c13 0 20 -7 20 -20l2 -285c1 -95 34 -136 94 -136c72 0 125 58 120 185l3 236c0 13 7 20 20 20h74c13 0 20 -7 20 -20z" />
    <glyph glyph-name="udieresis" unicode="&#xfc;" horiz-adv-x="591" 
d="M269 733v-75c0 -13 -7 -20 -20 -20h-62c-13 0 -20 7 -20 20v75c0 13 7 20 20 20h62c13 0 20 -7 20 -20zM429 733v-75c0 -13 -7 -20 -20 -20h-62c-13 0 -20 7 -20 20v75c0 13 7 20 20 20h62c13 0 20 -7 20 -20zM518 517l5 -497c0 -13 -7 -20 -20 -20h-84
c-13 0 -20 7 -19 20l1 53h-8c-37 -61 -90 -89 -152 -89c-104 0 -174 75 -173 219l2 314c0 13 7 20 20 20h75c13 0 20 -7 20 -20l2 -285c1 -95 34 -136 94 -136c72 0 125 58 120 185l3 236c0 13 7 20 20 20h74c13 0 20 -7 20 -20z" />
    <glyph glyph-name="udotbelow" unicode="&#x1ee5;" horiz-adv-x="591" 
d="M518 517l5 -497c0 -13 -7 -20 -20 -20h-84c-13 0 -20 7 -19 20l1 53h-8c-37 -61 -90 -89 -152 -89c-104 0 -174 75 -173 219l2 314c0 13 7 20 20 20h75c13 0 20 -7 20 -20l2 -285c1 -95 34 -136 94 -136c72 0 125 58 120 185l3 236c0 13 7 20 20 20h74c13 0 20 -7 20 -20
zM360 -86v-80c0 -13 -7 -20 -20 -20h-79c-13 0 -20 7 -20 20v80c0 13 7 20 20 20h79c13 0 20 -7 20 -20z" />
    <glyph glyph-name="ugrave" unicode="&#xf9;" horiz-adv-x="591" 
d="M189 763h70c11 0 18 -4 24 -14l65 -122c8 -14 2 -24 -14 -24h-33c-11 0 -18 3 -24 12l-99 124c-11 13 -6 24 11 24zM518 517l5 -497c0 -13 -7 -20 -20 -20h-84c-13 0 -20 7 -19 20l1 53h-8c-37 -61 -90 -89 -152 -89c-104 0 -174 75 -173 219l2 314c0 13 7 20 20 20h75
c13 0 20 -7 20 -20l2 -285c1 -95 34 -136 94 -136c72 0 125 58 120 185l3 236c0 13 7 20 20 20h74c13 0 20 -7 20 -20z" />
    <glyph glyph-name="uhungarumlaut" unicode="&#x171;" horiz-adv-x="591" 
d="M360 741l-99 -124c-6 -9 -13 -12 -24 -12h-33c-16 0 -22 10 -14 24l65 122c6 10 13 14 24 14h70c17 0 22 -11 11 -24zM526 741l-99 -124c-6 -9 -13 -12 -24 -12h-33c-16 0 -22 10 -14 24l65 122c6 10 13 14 24 14h70c17 0 22 -11 11 -24zM518 517l5 -497
c0 -13 -7 -20 -20 -20h-84c-13 0 -20 7 -19 20l1 53h-8c-37 -61 -90 -89 -152 -89c-104 0 -174 75 -173 219l2 314c0 13 7 20 20 20h75c13 0 20 -7 20 -20l2 -285c1 -95 34 -136 94 -136c72 0 125 58 120 185l3 236c0 13 7 20 20 20h74c13 0 20 -7 20 -20z" />
    <glyph glyph-name="umacron" unicode="&#x16b;" horiz-adv-x="591" 
d="M422 715v-48c0 -13 -7 -20 -20 -20h-215c-13 0 -20 7 -20 20v48c0 13 7 20 20 20h215c13 0 20 -7 20 -20zM518 517l5 -497c0 -13 -7 -20 -20 -20h-84c-13 0 -20 7 -19 20l1 53h-8c-37 -61 -90 -89 -152 -89c-104 0 -174 75 -173 219l2 314c0 13 7 20 20 20h75
c13 0 20 -7 20 -20l2 -285c1 -95 34 -136 94 -136c72 0 125 58 120 185l3 236c0 13 7 20 20 20h74c13 0 20 -7 20 -20z" />
    <glyph glyph-name="uogonek" unicode="&#x173;" horiz-adv-x="591" 
d="M404 -118c0 -19 15 -31 47 -31c12 0 28 1 44 4c14 2 22 -4 22 -18v-41c0 -12 -5 -20 -17 -22c-19 -4 -38 -6 -53 -6c-80 0 -125 44 -125 110c0 49 27 96 77 139l2 56h-8c-37 -61 -90 -89 -152 -89c-104 0 -174 75 -173 219l2 314c0 13 7 20 20 20h75c13 0 20 -7 20 -20
l2 -285c1 -95 34 -136 94 -136c72 0 125 58 120 185l3 236c0 13 7 20 20 20h74c13 0 20 -7 20 -20l5 -501c0 -11 -10 -21 -30 -34c-55 -36 -89 -71 -89 -100z" />
    <glyph glyph-name="uring" unicode="&#x16f;" horiz-adv-x="591" 
d="M294 776c56 0 101 -40 101 -101s-45 -102 -101 -102s-102 41 -102 102s46 101 102 101zM294 716c-23 0 -41 -16 -41 -41s18 -41 41 -41c22 0 41 16 41 41s-19 41 -41 41zM518 517l5 -497c0 -13 -7 -20 -20 -20h-84c-13 0 -20 7 -19 20l1 53h-8c-37 -61 -90 -89 -152 -89
c-104 0 -174 75 -173 219l2 314c0 13 7 20 20 20h75c13 0 20 -7 20 -20l2 -285c1 -95 34 -136 94 -136c72 0 125 58 120 185l3 236c0 13 7 20 20 20h74c13 0 20 -7 20 -20z" />
    <glyph glyph-name="utilde" unicode="&#x169;" horiz-adv-x="591" 
d="M245 744c69 0 89 -67 119 -67c15 0 21 13 23 30c2 13 8 20 20 20h31c13 0 20 -7 19 -20c-5 -52 -29 -106 -93 -106c-63 0 -78 67 -118 67c-17 0 -25 -14 -28 -31c-2 -12 -8 -19 -20 -19h-30c-13 0 -20 7 -19 19c4 59 28 107 96 107zM518 517l5 -497c0 -13 -7 -20 -20 -20
h-84c-13 0 -20 7 -19 20l1 53h-8c-37 -61 -90 -89 -152 -89c-104 0 -174 75 -173 219l2 314c0 13 7 20 20 20h75c13 0 20 -7 20 -20l2 -285c1 -95 34 -136 94 -136c72 0 125 58 120 185l3 236c0 13 7 20 20 20h74c13 0 20 -7 20 -20z" />
    <glyph glyph-name="v" unicode="v" horiz-adv-x="549" 
d="M522 514l-166 -498c-3 -11 -11 -16 -22 -16h-119c-11 0 -19 5 -22 16l-166 498c-5 14 1 23 16 23h73c11 0 19 -5 22 -16l131 -394h12l130 394c3 11 11 16 22 16h73c15 0 21 -9 16 -23z" />
    <glyph glyph-name="w" unicode="w" horiz-adv-x="787" 
d="M674 537h70c14 0 21 -9 17 -22l-131 -498c-4 -11 -11 -17 -23 -17h-112c-12 0 -19 6 -22 17l-77 297h-7l-75 -297c-3 -11 -10 -17 -22 -17h-114c-12 0 -19 6 -22 17l-131 498c-4 14 3 22 17 22h73c12 0 19 -6 22 -17l95 -394h13l97 394c3 11 10 17 22 17h63
c12 0 19 -6 22 -17l95 -394h12l96 394c3 11 10 17 22 17z" />
    <glyph glyph-name="wacute" unicode="&#x1e83;" horiz-adv-x="787" 
d="M522 739l-99 -124c-6 -9 -13 -12 -24 -12h-33c-16 0 -22 10 -14 24l65 122c6 10 13 14 24 14h70c17 0 22 -11 11 -24zM674 537h70c14 0 21 -9 17 -22l-131 -498c-4 -11 -11 -17 -23 -17h-112c-12 0 -19 6 -22 17l-77 297h-7l-75 -297c-3 -11 -10 -17 -22 -17h-114
c-12 0 -19 6 -22 17l-131 498c-4 14 3 22 17 22h73c12 0 19 -6 22 -17l95 -394h13l97 394c3 11 10 17 22 17h63c12 0 19 -6 22 -17l95 -394h12l96 394c3 11 10 17 22 17z" />
    <glyph glyph-name="wcircumflex" unicode="&#x175;" horiz-adv-x="787" 
d="M387 695l-54 -79c-6 -9 -14 -13 -24 -13h-58c-17 0 -22 11 -11 25l104 124c7 8 14 11 25 11h50c11 0 18 -3 25 -11l105 -124c11 -14 6 -25 -11 -25h-58c-10 0 -18 4 -24 12l-59 80h-10zM674 537h70c14 0 21 -9 17 -22l-131 -498c-4 -11 -11 -17 -23 -17h-112
c-12 0 -19 6 -22 17l-77 297h-7l-75 -297c-3 -11 -10 -17 -22 -17h-114c-12 0 -19 6 -22 17l-131 498c-4 14 3 22 17 22h73c12 0 19 -6 22 -17l95 -394h13l97 394c3 11 10 17 22 17h63c12 0 19 -6 22 -17l95 -394h12l96 394c3 11 10 17 22 17z" />
    <glyph glyph-name="wdieresis" unicode="&#x1e85;" horiz-adv-x="787" 
d="M368 733v-75c0 -13 -7 -20 -20 -20h-62c-13 0 -20 7 -20 20v75c0 13 7 20 20 20h62c13 0 20 -7 20 -20zM528 733v-75c0 -13 -7 -20 -20 -20h-62c-13 0 -20 7 -20 20v75c0 13 7 20 20 20h62c13 0 20 -7 20 -20zM674 537h70c14 0 21 -9 17 -22l-131 -498
c-4 -11 -11 -17 -23 -17h-112c-12 0 -19 6 -22 17l-77 297h-7l-75 -297c-3 -11 -10 -17 -22 -17h-114c-12 0 -19 6 -22 17l-131 498c-4 14 3 22 17 22h73c12 0 19 -6 22 -17l95 -394h13l97 394c3 11 10 17 22 17h63c12 0 19 -6 22 -17l95 -394h12l96 394c3 11 10 17 22 17z
" />
    <glyph glyph-name="wgrave" unicode="&#x1e81;" horiz-adv-x="787" 
d="M433 603h-33c-11 0 -18 3 -24 12l-99 124c-11 13 -6 24 11 24h70c11 0 18 -4 24 -14l65 -122c8 -14 2 -24 -14 -24zM674 537h70c14 0 21 -9 17 -22l-131 -498c-4 -11 -11 -17 -23 -17h-112c-12 0 -19 6 -22 17l-77 297h-7l-75 -297c-3 -11 -10 -17 -22 -17h-114
c-12 0 -19 6 -22 17l-131 498c-4 14 3 22 17 22h73c12 0 19 -6 22 -17l95 -394h13l97 394c3 11 10 17 22 17h63c12 0 19 -6 22 -17l95 -394h12l96 394c3 11 10 17 22 17z" />
    <glyph glyph-name="x" unicode="x" horiz-adv-x="573" 
d="M361 263l163 -239c9 -13 3 -24 -13 -24h-89c-11 0 -19 4 -25 13l-116 176l-117 -176c-6 -9 -14 -13 -25 -13h-86c-17 0 -22 11 -13 24l181 256l-155 233c-9 13 -3 24 13 24h81c10 0 18 -4 24 -13l117 -172l119 172c6 9 14 13 24 13h77c17 0 23 -11 13 -24z" />
    <glyph glyph-name="y" unicode="y" horiz-adv-x="555" 
d="M440 537h72c15 0 21 -9 16 -23l-246 -718c-4 -11 -11 -16 -23 -16h-85c-14 0 -21 9 -16 23l61 167l-192 544c-5 14 2 23 16 23h73c11 0 19 -5 22 -16l131 -389h8l140 389c4 11 11 16 23 16z" />
    <glyph glyph-name="yacute" unicode="&#xfd;" horiz-adv-x="555" 
d="M409 739l-99 -124c-6 -9 -13 -12 -24 -12h-33c-16 0 -22 10 -14 24l65 122c6 10 13 14 24 14h70c17 0 22 -11 11 -24zM440 537h72c15 0 21 -9 16 -23l-246 -718c-4 -11 -11 -16 -23 -16h-85c-14 0 -21 9 -16 23l61 167l-192 544c-5 14 2 23 16 23h73c11 0 19 -5 22 -16
l131 -389h8l140 389c4 11 11 16 23 16z" />
    <glyph glyph-name="ycircumflex" unicode="&#x177;" horiz-adv-x="555" 
d="M273 695l-54 -79c-6 -9 -14 -13 -24 -13h-58c-17 0 -22 11 -11 25l104 124c7 8 14 11 25 11h50c11 0 18 -3 25 -11l105 -124c11 -14 6 -25 -11 -25h-58c-10 0 -18 4 -24 12l-59 80h-10zM440 537h72c15 0 21 -9 16 -23l-246 -718c-4 -11 -11 -16 -23 -16h-85
c-14 0 -21 9 -16 23l61 167l-192 544c-5 14 2 23 16 23h73c11 0 19 -5 22 -16l131 -389h8l140 389c4 11 11 16 23 16z" />
    <glyph glyph-name="ydieresis" unicode="&#xff;" horiz-adv-x="555" 
d="M255 733v-75c0 -13 -7 -20 -20 -20h-62c-13 0 -20 7 -20 20v75c0 13 7 20 20 20h62c13 0 20 -7 20 -20zM415 733v-75c0 -13 -7 -20 -20 -20h-62c-13 0 -20 7 -20 20v75c0 13 7 20 20 20h62c13 0 20 -7 20 -20zM440 537h72c15 0 21 -9 16 -23l-246 -718
c-4 -11 -11 -16 -23 -16h-85c-14 0 -21 9 -16 23l61 167l-192 544c-5 14 2 23 16 23h73c11 0 19 -5 22 -16l131 -389h8l140 389c4 11 11 16 23 16z" />
    <glyph glyph-name="ydotbelow" unicode="&#x1ef5;" horiz-adv-x="555" 
d="M440 537h72c15 0 21 -9 16 -23l-246 -718c-4 -11 -11 -16 -23 -16h-85c-14 0 -21 9 -16 23l61 167l-192 544c-5 14 2 23 16 23h73c11 0 19 -5 22 -16l131 -389h8l140 389c4 11 11 16 23 16zM397 -166v80c0 13 7 20 20 20h79c13 0 20 -7 20 -20v-80c0 -13 -7 -20 -20 -20
h-79c-13 0 -20 7 -20 20z" />
    <glyph glyph-name="ygrave" unicode="&#x1ef3;" horiz-adv-x="555" 
d="M320 603h-33c-11 0 -18 3 -24 12l-99 124c-11 13 -6 24 11 24h70c11 0 18 -4 24 -14l65 -122c8 -14 2 -24 -14 -24zM440 537h72c15 0 21 -9 16 -23l-246 -718c-4 -11 -11 -16 -23 -16h-85c-14 0 -21 9 -16 23l61 167l-192 544c-5 14 2 23 16 23h73c11 0 19 -5 22 -16
l131 -389h8l140 389c4 11 11 16 23 16z" />
    <glyph glyph-name="ytilde" unicode="&#x1ef9;" horiz-adv-x="555" 
d="M232 668c-17 0 -25 -14 -28 -31c-2 -12 -8 -19 -20 -19h-30c-13 0 -20 7 -19 20c4 59 29 106 96 106c69 0 89 -67 119 -67c15 0 21 13 23 30c2 13 8 20 20 20h31c13 0 20 -7 19 -20c-5 -52 -29 -106 -93 -106c-63 0 -78 67 -118 67zM440 537h72c15 0 21 -9 16 -23
l-246 -718c-4 -11 -11 -16 -23 -16h-85c-14 0 -21 9 -16 23l61 167l-192 544c-5 14 2 23 16 23h73c11 0 19 -5 22 -16l131 -389h8l140 389c4 11 11 16 23 16z" />
    <glyph glyph-name="z" unicode="z" horiz-adv-x="488" 
d="M444 517v-62v-1c0 -3 -6 -13 -11 -20l-256 -330v-6h253c13 0 20 -7 20 -20v-58c0 -13 -7 -20 -20 -20h-372c-13 0 -20 7 -20 20v62s5 13 10 20l265 330v7h-246c-13 0 -20 7 -20 20v58c0 13 7 20 20 20h357c13 0 20 -7 20 -20z" />
    <glyph glyph-name="zacute" unicode="&#x17a;" horiz-adv-x="488" 
d="M364 739l-99 -124c-6 -9 -13 -12 -24 -12h-33c-16 0 -22 10 -14 24l65 122c6 10 13 14 24 14h70c17 0 22 -11 11 -24zM444 517v-62v-1c0 -3 -6 -13 -11 -20l-256 -330v-6h253c13 0 20 -7 20 -20v-58c0 -13 -7 -20 -20 -20h-372c-13 0 -20 7 -20 20v62s5 13 10 20l265 330
v7h-246c-13 0 -20 7 -20 20v58c0 13 7 20 20 20h357c13 0 20 -7 20 -20z" />
    <glyph glyph-name="zacute.loclPLK" horiz-adv-x="488" 
d="M328 762l-51 -126c-4 -11 -11 -16 -23 -16h-33c-14 0 -21 8 -18 22l29 126c3 11 10 17 22 17h58c15 0 21 -9 16 -23zM444 517v-62v-1c0 -3 -6 -13 -11 -20l-256 -330v-6h253c13 0 20 -7 20 -20v-58c0 -13 -7 -20 -20 -20h-372c-13 0 -20 7 -20 20v62s5 13 10 20l265 330
v7h-246c-13 0 -20 7 -20 20v58c0 13 7 20 20 20h357c13 0 20 -7 20 -20z" />
    <glyph glyph-name="zcaron" unicode="&#x17e;" horiz-adv-x="488" 
d="M90 762h58c10 0 18 -4 24 -12l59 -80h10l54 79c6 9 14 13 24 13h58c17 0 22 -11 11 -25l-104 -124c-7 -8 -14 -11 -25 -11h-50c-11 0 -18 3 -25 11l-105 124c-11 14 -6 25 11 25zM444 517v-62v-1c0 -3 -6 -13 -11 -20l-256 -330v-6h253c13 0 20 -7 20 -20v-58
c0 -13 -7 -20 -20 -20h-372c-13 0 -20 7 -20 20v62s5 13 10 20l265 330v7h-246c-13 0 -20 7 -20 20v58c0 13 7 20 20 20h357c13 0 20 -7 20 -20z" />
    <glyph glyph-name="zdotaccent" unicode="&#x17c;" horiz-adv-x="488" 
d="M293 732v-75c0 -13 -7 -20 -20 -20h-75c-13 0 -20 7 -20 20v75c0 13 7 20 20 20h75c13 0 20 -7 20 -20zM444 517v-62v-1c0 -3 -6 -13 -11 -20l-256 -330v-6h253c13 0 20 -7 20 -20v-58c0 -13 -7 -20 -20 -20h-372c-13 0 -20 7 -20 20v62s5 13 10 20l265 330v7h-246
c-13 0 -20 7 -20 20v58c0 13 7 20 20 20h357c13 0 20 -7 20 -20z" />
    <glyph glyph-name="zdotbelow" unicode="&#x1e93;" horiz-adv-x="488" 
d="M444 517v-62v-1c0 -3 -6 -13 -11 -20l-256 -330v-6h253c13 0 20 -7 20 -20v-58c0 -13 -7 -20 -20 -20h-372c-13 0 -20 7 -20 20v62s5 13 10 20l265 330v7h-246c-13 0 -20 7 -20 20v58c0 13 7 20 20 20h357c13 0 20 -7 20 -20zM303 -86v-80c0 -13 -7 -20 -20 -20h-79
c-13 0 -20 7 -20 20v80c0 13 7 20 20 20h79c13 0 20 -7 20 -20z" />
    <glyph glyph-name="Acy" unicode="&#x410;" horiz-adv-x="693" 
d="M482 213h-269l-69 -197c-4 -11 -11 -16 -23 -16h-82c-15 0 -22 9 -17 23l255 693c4 11 11 16 23 16h95c12 0 19 -5 23 -16l255 -693c5 -14 -2 -23 -17 -23h-83c-12 0 -19 5 -23 16zM445 320l-94 268h-6l-94 -268h194z" />
    <glyph glyph-name="Becy" unicode="&#x411;" horiz-adv-x="651" 
d="M193 425h171c144 0 242 -84 242 -212s-98 -213 -242 -213h-275c-13 0 -20 7 -20 20l4 692c0 13 7 20 20 20h427c13 0 20 -7 20 -20v-67c0 -13 -7 -20 -20 -20h-328zM195 104h162c88 0 131 40 131 109c0 68 -48 107 -148 107h-146z" />
    <glyph glyph-name="Vecy" unicode="&#x412;" horiz-adv-x="692" 
d="M550 386c64 -36 97 -95 97 -165c0 -123 -94 -221 -240 -221h-318c-13 0 -20 7 -20 20l4 692c0 13 7 20 20 20h284c141 0 231 -85 231 -200c0 -57 -20 -108 -58 -146zM192 628l1 -203h190c68 0 107 36 107 99c0 64 -47 104 -127 104h-171zM195 104h203
c87 0 131 40 131 105c0 68 -51 111 -147 111h-188z" />
    <glyph glyph-name="Gecy" unicode="&#x413;" horiz-adv-x="547" 
d="M531 712v-67c0 -13 -7 -20 -20 -20h-319l4 -605c0 -13 -7 -20 -20 -20h-86c-13 0 -20 7 -20 20l3 692c0 13 7 20 20 20h418c13 0 20 -7 20 -20z" />
    <glyph glyph-name="Gjecy" unicode="&#x403;" horiz-adv-x="547" 
d="M422 933l-99 -124c-6 -9 -13 -12 -24 -12h-33c-16 0 -22 10 -14 24l65 122c6 10 13 14 24 14h70c17 0 22 -11 11 -24zM531 712v-67c0 -13 -7 -20 -20 -20h-319l4 -605c0 -13 -7 -20 -20 -20h-86c-13 0 -20 7 -20 20l3 692c0 13 7 20 20 20h418c13 0 20 -7 20 -20z" />
    <glyph glyph-name="Gheupturncy" unicode="&#x490;" horiz-adv-x="554" 
d="M523 862l15 -216c1 -14 -6 -21 -20 -21h-326l4 -605c0 -13 -7 -20 -20 -20h-86c-13 0 -20 7 -20 20l3 692c0 13 7 20 20 20h330l3 129c0 13 7 20 20 20h57c12 0 19 -7 20 -19z" />
    <glyph glyph-name="Decy" unicode="&#x414;" horiz-adv-x="817" 
d="M691 107h61c14 0 21 -7 20 -21l-15 -247c-1 -12 -8 -19 -20 -19h-57c-13 0 -20 7 -20 20l-3 160h-497l-3 -160c0 -13 -7 -20 -20 -20h-57c-12 0 -19 7 -20 19l-15 247c-1 14 6 21 20 21h72c39 25 69 75 82 167l59 439c2 13 9 19 22 19h367c13 0 20 -7 20 -20zM566 107
l2 518h-194l-43 -335c-11 -82 -27 -141 -51 -183h286z" />
    <glyph glyph-name="Iecy" unicode="&#x415;" horiz-adv-x="605" 
d="M192 625l1 -190h306c13 0 20 -7 20 -20v-67c0 -13 -7 -20 -20 -20h-305l1 -221h346c13 0 20 -7 20 -20v-67c0 -13 -7 -20 -20 -20h-452c-13 0 -20 7 -20 20l4 692c0 13 7 20 20 20h448c13 0 20 -7 20 -20v-67c0 -13 -7 -20 -20 -20h-349z" />
    <glyph glyph-name="Iocy" unicode="&#x401;" horiz-adv-x="605" 
d="M289 929v-75c0 -13 -7 -20 -20 -20h-62c-13 0 -20 7 -20 20v75c0 13 7 20 20 20h62c13 0 20 -7 20 -20zM449 929v-75c0 -13 -7 -20 -20 -20h-62c-13 0 -20 7 -20 20v75c0 13 7 20 20 20h62c13 0 20 -7 20 -20zM192 625l1 -190h306c13 0 20 -7 20 -20v-67
c0 -13 -7 -20 -20 -20h-305l1 -221h346c13 0 20 -7 20 -20v-67c0 -13 -7 -20 -20 -20h-452c-13 0 -20 7 -20 20l4 692c0 13 7 20 20 20h448c13 0 20 -7 20 -20v-67c0 -13 -7 -20 -20 -20h-349z" />
    <glyph glyph-name="Zhecy" unicode="&#x416;" horiz-adv-x="1080" 
d="M722 379l279 -355c10 -13 5 -24 -12 -24h-105c-11 0 -18 4 -24 12l-239 304h-21l2 -296c0 -13 -7 -20 -20 -20h-85c-13 0 -20 7 -20 20l1 296h-19l-239 -304c-6 -8 -13 -12 -24 -12h-105c-17 0 -22 11 -12 24l279 355l-286 328c-11 14 -6 25 12 25h97c11 0 18 -3 25 -11
l253 -296h20l1 287c0 13 7 20 20 20h78c13 0 20 -7 20 -20l2 -287h21l253 296c7 8 14 11 25 11h97c18 0 23 -11 12 -25z" />
    <glyph glyph-name="Zecy" unicode="&#x417;" horiz-adv-x="642" 
d="M469 390c90 -33 128 -99 128 -178c0 -117 -84 -224 -278 -224c-169 0 -258 97 -273 193c-2 13 6 21 19 21h79c12 0 18 -6 21 -18c16 -62 71 -92 158 -92c101 0 161 46 161 127c0 77 -49 117 -181 117h-60c-13 0 -20 7 -20 20v58c0 13 7 20 20 20h60c119 0 161 43 161 104
c0 64 -51 109 -144 109c-76 0 -126 -31 -148 -94c-4 -12 -11 -17 -22 -17h-71c-14 0 -21 8 -18 22c23 94 103 192 267 192c167 0 248 -101 248 -201c0 -64 -32 -125 -107 -159z" />
    <glyph glyph-name="Iicy" unicode="&#x418;" horiz-adv-x="746" 
d="M543 732h114c13 0 20 -7 20 -20l-4 -692c0 -13 -7 -20 -20 -20h-76c-13 0 -20 7 -20 20l-3 548l-318 -554c-6 -10 -13 -14 -24 -14h-119c-13 0 -20 7 -20 20l-4 692c0 13 7 20 20 20h84c13 0 20 -7 20 -20l-3 -571l329 577c6 10 13 14 24 14z" />
    <glyph glyph-name="Iishortcy" unicode="&#x419;" horiz-adv-x="746" 
d="M377 775c-85 0 -146 45 -146 144c0 10 7 16 20 16h45c13 0 20 -6 20 -16c0 -48 28 -69 61 -69c35 0 62 21 62 69c0 10 7 16 20 16h46c13 0 20 -6 20 -16c0 -99 -61 -144 -148 -144zM543 732h114c13 0 20 -7 20 -20l-4 -692c0 -13 -7 -20 -20 -20h-76c-13 0 -20 7 -20 20
l-3 548l-318 -554c-6 -10 -13 -14 -24 -14h-119c-13 0 -20 7 -20 20l-4 692c0 13 7 20 20 20h84c13 0 20 -7 20 -20l-3 -571l329 577c6 10 13 14 24 14z" />
    <glyph glyph-name="Kacy" unicode="&#x41a;" horiz-adv-x="712" 
d="M313 379l367 -354c13 -13 9 -25 -9 -25h-114c-10 0 -17 3 -24 10l-321 306h-18l2 -296c0 -13 -7 -20 -20 -20h-86c-13 0 -20 7 -20 20l3 692c0 13 7 20 20 20h78c13 0 20 -7 20 -20l2 -287h19l324 297c8 7 15 10 25 10h105c19 0 23 -12 10 -25z" />
    <glyph glyph-name="Kjecy" unicode="&#x40c;" horiz-adv-x="712" 
d="M261 934l-99 -124c-6 -9 -13 -12 -24 -12h-33c-16 0 -22 10 -14 24l65 122c6 10 13 14 24 14h70c17 0 22 -11 11 -24zM313 379l367 -354c13 -13 9 -25 -9 -25h-114c-10 0 -17 3 -24 10l-321 306h-18l2 -296c0 -13 -7 -20 -20 -20h-86c-13 0 -20 7 -20 20l3 692
c0 13 7 20 20 20h78c13 0 20 -7 20 -20l2 -287h19l324 297c8 7 15 10 25 10h105c19 0 23 -12 10 -25z" />
    <glyph glyph-name="Elcy" unicode="&#x41b;" horiz-adv-x="732" 
d="M643 0h-86c-13 0 -20 7 -20 20l3 605h-229l-29 -336c-18 -216 -83 -283 -252 -288c-13 0 -20 7 -20 20v65c0 13 7 20 20 21c102 5 129 55 140 167l41 439c1 13 9 19 21 19h407c13 0 20 -7 20 -20l4 -692c0 -13 -7 -20 -20 -20z" />
    <glyph glyph-name="Emcy" unicode="&#x41c;" horiz-adv-x="893" 
d="M804 0h-81c-13 0 -20 7 -20 20l-9 569l-184 -573c-3 -11 -11 -16 -22 -16h-79c-11 0 -19 5 -22 17l-188 589l-9 -586c0 -13 -7 -20 -20 -20h-81c-13 0 -20 7 -19 20l23 692c1 13 8 20 21 20h132c11 0 19 -5 22 -16l181 -557l180 557c3 11 11 16 22 16h128
c13 0 20 -7 21 -20l23 -692c1 -13 -6 -20 -19 -20z" />
    <glyph glyph-name="Ency" unicode="&#x41d;" horiz-adv-x="751" 
d="M662 0h-87c-13 0 -20 7 -20 20l2 308h-363l2 -308c0 -13 -7 -20 -20 -20h-87c-13 0 -20 7 -20 20l4 692c0 13 7 20 20 20h78c13 0 20 -7 20 -20l2 -277h365l2 277c0 13 7 20 20 20h78c13 0 20 -7 20 -20l4 -692c0 -13 -7 -20 -20 -20z" />
    <glyph glyph-name="Ocy" unicode="&#x41e;" horiz-adv-x="798" 
d="M405 748c200 0 348 -149 348 -370c0 -227 -155 -394 -359 -394c-200 0 -350 157 -350 382s156 382 361 382zM396 643c-132 0 -233 -93 -233 -269c0 -178 102 -284 239 -284c131 0 233 100 233 277c0 178 -103 276 -239 276z" />
    <glyph glyph-name="Pecy" unicode="&#x41f;" horiz-adv-x="732" 
d="M643 0h-86c-13 0 -20 7 -20 20l3 605h-348l4 -605c0 -13 -7 -20 -20 -20h-86c-13 0 -20 7 -20 20l3 692c0 13 7 20 20 20h545c13 0 20 -7 20 -20l5 -692c0 -13 -7 -20 -20 -20z" />
    <glyph glyph-name="Ercy" unicode="&#x420;" horiz-adv-x="685" 
d="M93 732h290c154 0 257 -93 257 -228c0 -136 -103 -241 -257 -241h-189l2 -243c0 -13 -7 -20 -20 -20h-87c-13 0 -20 7 -20 20l4 692c0 13 7 20 20 20zM194 367h180c97 0 148 47 148 125c0 84 -61 136 -148 136h-182z" />
    <glyph glyph-name="Escy" unicode="&#x421;" horiz-adv-x="766" 
d="M398 748c145 0 265 -80 313 -216c5 -14 -2 -23 -17 -23l-74 -1c-11 0 -18 4 -24 14c-46 78 -119 121 -205 121c-128 0 -228 -93 -228 -269c0 -178 100 -284 244 -284c100 0 158 50 193 124c5 10 12 15 24 15l74 -1c15 0 22 -9 17 -22c-37 -107 -141 -222 -319 -222
c-211 0 -352 157 -352 380c0 228 154 384 354 384z" />
    <glyph glyph-name="Tecy" unicode="&#x422;" horiz-adv-x="609" 
d="M593 712v-67c0 -13 -7 -20 -20 -20h-209l4 -605c0 -13 -7 -20 -20 -20h-86c-13 0 -20 7 -20 20l4 605h-209c-13 0 -20 7 -20 20v67c0 13 7 20 20 20h536c13 0 20 -7 20 -20z" />
    <glyph glyph-name="Ucy" unicode="&#x423;" horiz-adv-x="634" 
d="M518 732h80c16 0 22 -9 16 -23l-232 -524c-62 -141 -153 -185 -274 -185h-41c-13 0 -20 7 -20 20v64c0 13 7 20 20 20h19c73 0 130 19 170 88l-235 517c-7 13 -1 23 15 23h79c12 0 19 -5 24 -15l173 -390h7l175 390c5 10 12 15 24 15z" />
    <glyph glyph-name="Ushortcy" unicode="&#x40e;" horiz-adv-x="634" 
d="M310 775c-85 0 -146 45 -146 144c0 10 7 16 20 16h45c13 0 20 -6 20 -16c0 -48 28 -69 61 -69c35 0 62 21 62 69c0 10 7 16 20 16h46c13 0 20 -6 20 -16c0 -99 -61 -144 -148 -144zM518 732h80c16 0 22 -9 16 -23l-232 -524c-62 -141 -153 -185 -274 -185h-41
c-13 0 -20 7 -20 20v64c0 13 7 20 20 20h19c73 0 130 19 170 88l-235 517c-7 13 -1 23 15 23h79c12 0 19 -5 24 -15l173 -390h7l175 390c5 10 12 15 24 15z" />
    <glyph glyph-name="Efcy" unicode="&#x424;" horiz-adv-x="829" 
d="M784 379c0 -179 -130 -294 -311 -313v-61c0 -13 -7 -20 -20 -20h-85c-13 0 -20 7 -20 20v62c-181 21 -304 130 -304 298c0 169 127 279 307 300v64c0 13 7 20 20 20h78c13 0 20 -7 20 -20v-62c187 -17 315 -122 315 -288zM470 561l2 -388c120 15 194 81 194 198
c0 112 -77 175 -196 190zM163 371c0 -114 72 -180 186 -197l1 386c-116 -16 -187 -79 -187 -189z" />
    <glyph glyph-name="Hacy" unicode="&#x425;" horiz-adv-x="738" 
d="M665 0h-100c-11 0 -19 4 -24 13l-175 271l-175 -271c-5 -9 -13 -13 -24 -13h-94c-16 0 -22 11 -13 24l243 357l-211 327c-9 14 -4 24 13 24h84c11 0 19 -4 25 -13l169 -254l168 254c6 9 14 13 25 13h79c16 0 22 -11 13 -24l-223 -336l233 -348c9 -13 3 -24 -13 -24z" />
    <glyph glyph-name="Checy" unicode="&#x427;" horiz-adv-x="705" 
d="M616 0h-86c-13 0 -20 7 -20 20l2 278c-55 -45 -128 -76 -217 -76c-141 0 -252 92 -251 261l3 229c0 13 7 20 20 20h77c13 0 20 -7 20 -20l1 -222c0 -105 58 -156 154 -155c72 1 136 29 193 84l2 293c0 13 7 20 20 20h78c13 0 20 -7 20 -20l4 -692c0 -13 -7 -20 -20 -20z
" />
    <glyph glyph-name="Tsecy" unicode="&#x426;" horiz-adv-x="755" 
d="M662 107h62c14 0 21 -7 20 -21l-14 -247c-1 -12 -8 -19 -20 -19h-57c-13 0 -20 7 -20 20l-4 160h-539c-13 0 -20 7 -20 20l3 692c0 13 7 20 20 20h78c13 0 20 -7 20 -20l4 -605h342l3 605c0 13 7 20 20 20h78c13 0 20 -7 20 -20z" />
    <glyph glyph-name="Shacy" unicode="&#x428;" horiz-adv-x="998" 
d="M929 3v-1c1 -1 -8 -2 -23 -2h-814h-9c-10 1 -14 8 -14 19l4 693c0 13 7 20 20 20h78c13 0 20 -7 20 -20l4 -605h241l4 605c0 13 7 20 20 20h78c13 0 20 -7 20 -20l3 -605h242l3 605c0 13 7 20 20 20h78c13 0 20 -7 20 -20z" />
    <glyph glyph-name="Shchacy" unicode="&#x429;" horiz-adv-x="1020" 
d="M928 107h61c14 0 21 -7 20 -21l-15 -247c-1 -12 -8 -19 -20 -19h-57c-13 0 -20 7 -20 20l-3 160h-802h-9c-10 1 -14 8 -14 19l4 693c0 13 7 20 20 20h78c13 0 20 -7 20 -20l4 -605h241l4 605c0 13 7 20 20 20h78c13 0 20 -7 20 -20l3 -605h242l3 605c0 13 7 20 20 20h78
c13 0 20 -7 20 -20z" />
    <glyph glyph-name="Iacy" unicode="&#x42f;" horiz-adv-x="679" 
d="M590 0h-87c-13 0 -20 7 -20 20l2 284h-119l-193 -291c-6 -9 -14 -13 -25 -13h-104c-17 0 -22 11 -13 24l204 287c-116 23 -185 109 -185 211c0 121 96 210 247 210h289c13 0 20 -7 20 -20l4 -692c0 -13 -7 -20 -20 -20zM486 408l1 220h-176c-90 0 -143 -44 -143 -115
c0 -66 44 -105 143 -105h175z" />
    <glyph glyph-name="Softsigncy" unicode="&#x42c;" horiz-adv-x="651" 
d="M193 425h171c144 0 242 -84 242 -212s-98 -213 -242 -213h-275c-13 0 -20 7 -20 20l4 692c0 13 7 20 20 20h78c13 0 20 -7 20 -20zM195 104h162c88 0 131 40 131 109c0 68 -48 107 -148 107h-146z" />
    <glyph glyph-name="Hardsigncy" unicode="&#x42a;" horiz-adv-x="725" 
d="M268 425h170c145 0 243 -84 243 -212s-98 -213 -243 -213h-275c-13 0 -20 7 -20 20l3 605h-116c-13 0 -20 7 -20 20v67c0 13 7 20 20 20h216c13 0 20 -7 20 -20zM269 104h162c89 0 131 40 131 109c0 68 -48 107 -147 107h-147z" />
    <glyph glyph-name="Yerucy" unicode="&#x42b;" horiz-adv-x="887" 
d="M193 425h171c144 0 242 -84 242 -212s-98 -213 -242 -213h-275c-13 0 -20 7 -20 20l4 692c0 13 7 20 20 20h78c13 0 20 -7 20 -20zM814 712l4 -692c0 -13 -7 -20 -20 -20h-85c-13 0 -20 7 -20 20l3 692c0 13 7 20 20 20h78c13 0 20 -7 20 -20zM195 104h162
c88 0 131 40 131 109c0 68 -48 107 -148 107h-146z" />
    <glyph glyph-name="Dzecy" unicode="&#x405;" horiz-adv-x="676" 
d="M341 748c143 0 236 -80 273 -185c5 -14 -2 -23 -17 -23h-74c-11 0 -18 4 -24 14c-33 54 -90 88 -168 88c-92 0 -133 -38 -133 -88c0 -53 43 -82 169 -120l32 -10c173 -53 232 -134 232 -231c0 -134 -110 -209 -274 -209c-192 0 -285 111 -309 203c-3 14 4 22 18 22h79
c11 0 18 -5 23 -15c32 -62 90 -103 195 -103c98 0 146 30 146 86c0 54 -44 95 -171 137l-36 13c-140 46 -221 104 -226 209c-4 132 118 212 265 212z" />
    <glyph glyph-name="Ecy" unicode="&#x404;" horiz-adv-x="766" 
d="M624 229l74 -1c15 0 22 -9 17 -22c-37 -107 -141 -222 -319 -222c-211 0 -352 157 -352 380c0 228 154 384 354 384c145 0 265 -80 313 -216c5 -14 -2 -23 -17 -23l-74 -1c-11 0 -18 4 -24 14c-46 78 -119 121 -205 121c-117 0 -210 -77 -226 -224h307c13 0 20 -7 20 -20
v-56c0 -13 -7 -20 -20 -20h-306c17 -147 111 -233 241 -233c100 0 158 50 193 124c5 10 12 15 24 15z" />
    <glyph glyph-name="Ereversedcy" unicode="&#x42d;" horiz-adv-x="766" 
d="M368 748c200 0 354 -156 354 -384c0 -223 -141 -380 -352 -380c-178 0 -282 115 -319 222c-5 13 2 22 17 22l74 1c12 0 19 -5 24 -15c35 -74 93 -124 193 -124c130 0 224 86 241 233h-306c-13 0 -20 7 -20 20v56c0 13 7 20 20 20h307c-16 147 -109 224 -226 224
c-86 0 -159 -43 -205 -121c-6 -10 -13 -14 -24 -14l-74 1c-15 0 -22 9 -17 23c48 136 168 216 313 216z" />
    <glyph glyph-name="Icy" unicode="&#x406;" horiz-adv-x="385" 
d="M251 712l5 -692c0 -13 -7 -20 -20 -20h-86c-13 0 -20 7 -20 20l3 692c0 13 7 20 20 20h78c13 0 20 -7 20 -20z" />
    <glyph glyph-name="Yicy" unicode="&#x407;" horiz-adv-x="385" 
d="M167 929v-75c0 -13 -7 -20 -20 -20h-62c-13 0 -20 7 -20 20v75c0 13 7 20 20 20h62c13 0 20 -7 20 -20zM327 929v-75c0 -13 -7 -20 -20 -20h-62c-13 0 -20 7 -20 20v75c0 13 7 20 20 20h62c13 0 20 -7 20 -20zM251 712l5 -692c0 -13 -7 -20 -20 -20h-86
c-13 0 -20 7 -20 20l3 692c0 13 7 20 20 20h78c13 0 20 -7 20 -20z" />
    <glyph glyph-name="Jecy" unicode="&#x408;" horiz-adv-x="508" 
d="M376 713l3 -373c1 -258 -104 -334 -315 -339c-13 0 -20 7 -20 20v65c0 13 7 20 20 20c143 5 191 61 192 225l2 382c0 13 7 20 20 20h78c13 0 20 -7 20 -20z" />
    <glyph glyph-name="Iucy" unicode="&#x42e;" horiz-adv-x="994" 
d="M633 748c183 0 317 -138 317 -370c0 -238 -141 -394 -328 -394c-170 0 -297 124 -317 328h-111l2 -292c0 -13 -7 -20 -20 -20h-86c-13 0 -20 7 -20 20l3 692c0 13 7 20 20 20h78c13 0 20 -7 20 -20l2 -293h112c20 205 154 329 328 329zM629 90c127 0 203 110 203 277
c0 166 -79 276 -208 276c-126 0 -203 -108 -203 -269c0 -171 79 -284 208 -284z" />
    <glyph glyph-name="Yatcy" unicode="&#x462;" horiz-adv-x="651" 
d="M193 425h171c144 0 242 -84 242 -212s-98 -213 -242 -213h-275c-13 0 -20 7 -20 20l3 511h-85c-13 0 -20 7 -20 20v53c0 13 7 20 20 20h85l1 88c0 13 7 20 20 20h78c13 0 20 -7 20 -20l1 -88h136c13 0 20 -7 20 -20v-53c0 -13 -7 -20 -20 -20h-136zM195 104h162
c88 0 131 40 131 109c0 68 -48 107 -148 107h-146z" />
    <glyph glyph-name="Zedescendercy" unicode="&#x498;" horiz-adv-x="642" 
d="M597 212c0 -109 -73 -210 -241 -223l-15 -47c36 -8 68 -35 68 -84c0 -52 -37 -94 -107 -94c-21 0 -40 4 -61 14c-11 6 -14 15 -11 26l7 22c4 14 13 17 26 12c15 -6 28 -9 39 -9c18 0 34 13 34 26c0 16 -12 33 -53 32h-4c-15 0 -21 9 -17 23l24 79
c-147 12 -226 103 -240 192c-2 13 6 21 19 21h79c12 0 18 -6 21 -18c16 -62 71 -92 158 -92c101 0 161 46 161 127c0 77 -49 117 -181 117h-60c-13 0 -20 7 -20 20v58c0 13 7 20 20 20h60c119 0 161 43 161 104c0 64 -51 109 -144 109c-76 0 -126 -31 -148 -94
c-4 -12 -11 -17 -22 -17h-71c-14 0 -21 8 -18 22c23 94 103 192 267 192c167 0 248 -101 248 -201c0 -64 -32 -125 -107 -159c90 -33 128 -99 128 -178z" />
    <glyph glyph-name="Palochkacy" unicode="&#x4c0;" horiz-adv-x="385" 
d="M251 712l5 -692c0 -13 -7 -20 -20 -20h-86c-13 0 -20 7 -20 20l3 692c0 13 7 20 20 20h78c13 0 20 -7 20 -20z" />
    <glyph glyph-name="Adieresiscy.001" horiz-adv-x="693" 
d="M321 929v-75c0 -13 -7 -20 -20 -20h-62c-13 0 -20 7 -20 20v75c0 13 7 20 20 20h62c13 0 20 -7 20 -20zM481 929v-75c0 -13 -7 -20 -20 -20h-62c-13 0 -20 7 -20 20v75c0 13 7 20 20 20h62c13 0 20 -7 20 -20zM482 213h-269l-69 -197c-4 -11 -11 -16 -23 -16h-82
c-15 0 -22 9 -17 23l255 693c4 11 11 16 23 16h95c12 0 19 -5 23 -16l255 -693c5 -14 -2 -23 -17 -23h-83c-12 0 -19 5 -23 16zM445 320l-94 268h-6l-94 -268h194z" />
    <glyph glyph-name="Zhedieresiscy" unicode="&#x4dc;" horiz-adv-x="1080" 
d="M513 929v-75c0 -13 -7 -20 -20 -20h-62c-13 0 -20 7 -20 20v75c0 13 7 20 20 20h62c13 0 20 -7 20 -20zM673 929v-75c0 -13 -7 -20 -20 -20h-62c-13 0 -20 7 -20 20v75c0 13 7 20 20 20h62c13 0 20 -7 20 -20zM722 379l279 -355c10 -13 5 -24 -12 -24h-105
c-11 0 -18 4 -24 12l-239 304h-21l2 -296c0 -13 -7 -20 -20 -20h-85c-13 0 -20 7 -20 20l1 296h-19l-239 -304c-6 -8 -13 -12 -24 -12h-105c-17 0 -22 11 -12 24l279 355l-286 328c-11 14 -6 25 12 25h97c11 0 18 -3 25 -11l253 -296h20l1 287c0 13 7 20 20 20h78
c13 0 20 -7 20 -20l2 -287h21l253 296c7 8 14 11 25 11h97c18 0 23 -11 12 -25z" />
    <glyph glyph-name="Zedieresiscy" unicode="&#x4de;" horiz-adv-x="642" 
d="M296 928v-75c0 -13 -7 -20 -20 -20h-62c-13 0 -20 7 -20 20v75c0 13 7 20 20 20h62c13 0 20 -7 20 -20zM456 928v-75c0 -13 -7 -20 -20 -20h-62c-13 0 -20 7 -20 20v75c0 13 7 20 20 20h62c13 0 20 -7 20 -20zM469 390c90 -33 128 -99 128 -178
c0 -117 -84 -224 -278 -224c-169 0 -258 97 -273 193c-2 13 6 21 19 21h79c12 0 18 -6 21 -18c16 -62 71 -92 158 -92c101 0 161 46 161 127c0 77 -49 117 -181 117h-60c-13 0 -20 7 -20 20v58c0 13 7 20 20 20h60c119 0 161 43 161 104c0 64 -51 109 -144 109
c-76 0 -126 -31 -148 -94c-4 -12 -11 -17 -22 -17h-71c-14 0 -21 8 -18 22c23 94 103 192 267 192c167 0 248 -101 248 -201c0 -64 -32 -125 -107 -159z" />
    <glyph glyph-name="Imacroncy" unicode="&#x4e2;" horiz-adv-x="746" 
d="M506 910v-48c0 -13 -7 -20 -20 -20h-215c-13 0 -20 7 -20 20v48c0 13 7 20 20 20h215c13 0 20 -7 20 -20zM543 732h114c13 0 20 -7 20 -20l-4 -692c0 -13 -7 -20 -20 -20h-76c-13 0 -20 7 -20 20l-3 548l-318 -554c-6 -10 -13 -14 -24 -14h-119c-13 0 -20 7 -20 20
l-4 692c0 13 7 20 20 20h84c13 0 20 -7 20 -20l-3 -571l329 577c6 10 13 14 24 14z" />
    <glyph glyph-name="Idieresiscy" unicode="&#x4e4;" horiz-adv-x="746" 
d="M353 928v-75c0 -13 -7 -20 -20 -20h-62c-13 0 -20 7 -20 20v75c0 13 7 20 20 20h62c13 0 20 -7 20 -20zM513 928v-75c0 -13 -7 -20 -20 -20h-62c-13 0 -20 7 -20 20v75c0 13 7 20 20 20h62c13 0 20 -7 20 -20zM543 732h114c13 0 20 -7 20 -20l-4 -692
c0 -13 -7 -20 -20 -20h-76c-13 0 -20 7 -20 20l-3 548l-318 -554c-6 -10 -13 -14 -24 -14h-119c-13 0 -20 7 -20 20l-4 692c0 13 7 20 20 20h84c13 0 20 -7 20 -20l-3 -571l329 577c6 10 13 14 24 14z" />
    <glyph glyph-name="Odieresiscy" unicode="&#x4e6;" horiz-adv-x="798" 
d="M373 934v-75c0 -13 -7 -20 -20 -20h-62c-13 0 -20 7 -20 20v75c0 13 7 20 20 20h62c13 0 20 -7 20 -20zM533 934v-75c0 -13 -7 -20 -20 -20h-62c-13 0 -20 7 -20 20v75c0 13 7 20 20 20h62c13 0 20 -7 20 -20zM405 748c200 0 348 -149 348 -370
c0 -227 -155 -394 -359 -394c-200 0 -350 157 -350 382s156 382 361 382zM396 643c-132 0 -233 -93 -233 -269c0 -178 102 -284 239 -284c131 0 233 100 233 277c0 178 -103 276 -239 276z" />
    <glyph glyph-name="Umacroncy" unicode="&#x4ee;" horiz-adv-x="634" 
d="M439 910v-48c0 -13 -7 -20 -20 -20h-215c-13 0 -20 7 -20 20v48c0 13 7 20 20 20h215c13 0 20 -7 20 -20zM518 732h80c16 0 22 -9 16 -23l-232 -524c-62 -141 -153 -185 -274 -185h-41c-13 0 -20 7 -20 20v64c0 13 7 20 20 20h19c73 0 130 19 170 88l-235 517
c-7 13 -1 23 15 23h79c12 0 19 -5 24 -15l173 -390h7l175 390c5 10 12 15 24 15z" />
    <glyph glyph-name="Udieresiscy" unicode="&#x4f0;" horiz-adv-x="634" 
d="M286 928v-75c0 -13 -7 -20 -20 -20h-62c-13 0 -20 7 -20 20v75c0 13 7 20 20 20h62c13 0 20 -7 20 -20zM446 928v-75c0 -13 -7 -20 -20 -20h-62c-13 0 -20 7 -20 20v75c0 13 7 20 20 20h62c13 0 20 -7 20 -20zM518 732h80c16 0 22 -9 16 -23l-232 -524
c-62 -141 -153 -185 -274 -185h-41c-13 0 -20 7 -20 20v64c0 13 7 20 20 20h19c73 0 130 19 170 88l-235 517c-7 13 -1 23 15 23h79c12 0 19 -5 24 -15l173 -390h7l175 390c5 10 12 15 24 15z" />
    <glyph glyph-name="Chedieresiscy" unicode="&#x4f4;" horiz-adv-x="705" 
d="M310 927v-75c0 -13 -7 -20 -20 -20h-62c-13 0 -20 7 -20 20v75c0 13 7 20 20 20h62c13 0 20 -7 20 -20zM470 927v-75c0 -13 -7 -20 -20 -20h-62c-13 0 -20 7 -20 20v75c0 13 7 20 20 20h62c13 0 20 -7 20 -20zM616 0h-86c-13 0 -20 7 -20 20l2 278
c-55 -45 -128 -76 -217 -76c-141 0 -252 92 -251 261l3 229c0 13 7 20 20 20h77c13 0 20 -7 20 -20l1 -222c0 -105 58 -156 154 -155c72 1 136 29 193 84l2 293c0 13 7 20 20 20h78c13 0 20 -7 20 -20l4 -692c0 -13 -7 -20 -20 -20z" />
    <glyph glyph-name="acy" unicode="&#x430;" horiz-adv-x="576" 
d="M294 553c127 0 210 -70 210 -191l4 -342c0 -13 -7 -20 -20 -20h-79c-13 0 -20 7 -20 20l1 61h-8c-36 -55 -101 -92 -181 -92c-96 0 -162 55 -162 152c0 113 88 164 285 187c44 5 66 22 66 53c0 42 -41 72 -104 72c-54 0 -88 -21 -104 -60c-5 -11 -12 -16 -23 -16h-71
c-14 0 -22 7 -19 18c25 94 102 158 225 158zM389 252l-5 3c-17 -6 -44 -12 -70 -16c-100 -16 -160 -38 -160 -91c0 -35 25 -57 75 -57c99 0 164 76 161 134z" />
    <glyph glyph-name="becy" unicode="&#x431;" horiz-adv-x="617" 
d="M335 520c141 0 244 -114 244 -275c0 -144 -90 -261 -256 -261c-167 0 -256 118 -254 280l2 190c3 198 107 298 297 298c47 0 78 1 117 10c14 4 22 -3 22 -17v-64c0 -11 -5 -19 -17 -22c-34 -10 -66 -11 -118 -11c-124 0 -186 -56 -186 -166v-13h6c38 30 94 51 143 51z
M325 416c-83 0 -147 -67 -141 -174v7c0 -107 63 -161 142 -161c88 0 135 66 135 159c0 103 -56 169 -136 169z" />
    <glyph glyph-name="vecy" unicode="&#x432;" horiz-adv-x="582" 
d="M457 278c57 -22 88 -66 88 -125c0 -90 -77 -153 -182 -153h-275c-13 0 -20 7 -20 20l4 497c0 13 7 20 20 20h241c110 0 176 -74 176 -153c0 -42 -20 -80 -52 -106zM188 434l1 -124h141c39 0 66 27 66 63c0 31 -22 61 -66 61h-142zM190 104h137c78 0 100 29 100 60
c0 35 -28 62 -100 62h-138z" />
    <glyph glyph-name="gecy" unicode="&#x433;" horiz-adv-x="488" 
d="M465 517v-67c0 -13 -7 -20 -20 -20h-257l3 -410c0 -13 -7 -20 -20 -20h-83c-13 0 -20 7 -20 20l4 497c0 13 7 20 20 20h353c13 0 20 -7 20 -20z" />
    <glyph glyph-name="gjecy" unicode="&#x453;" horiz-adv-x="488" 
d="M373 739l-99 -124c-6 -9 -13 -12 -24 -12h-33c-16 0 -22 10 -14 24l65 122c6 10 13 14 24 14h70c17 0 22 -11 11 -24zM465 517v-67c0 -13 -7 -20 -20 -20h-257l3 -410c0 -13 -7 -20 -20 -20h-83c-13 0 -20 7 -20 20l4 497c0 13 7 20 20 20h353c13 0 20 -7 20 -20z" />
    <glyph glyph-name="gheupturncy" unicode="&#x491;" horiz-adv-x="496" 
d="M465 532l6 -81c0 -14 -6 -21 -20 -21h-263l3 -410c0 -13 -7 -20 -20 -20h-83c-13 0 -20 7 -20 20l4 497c0 13 7 20 20 20h270l3 107c0 13 7 20 20 20h52c12 0 19 -7 20 -19l8 -108v-5z" />
    <glyph glyph-name="decy" unicode="&#x434;" horiz-adv-x="697" 
d="M565 107h71c14 0 21 -7 20 -21l-14 -247c-1 -12 -8 -19 -20 -19h-52c-13 0 -20 7 -20 20l-3 160h-397l-3 -160c0 -13 -7 -20 -20 -20h-51c-12 0 -19 7 -20 19l-15 247c-1 14 6 21 20 21h55c26 23 39 55 43 99l37 312c1 13 8 19 21 19h325c13 0 20 -7 20 -20zM444 107
l2 323h-156l-22 -209c-5 -47 -13 -85 -26 -114h202z" />
    <glyph glyph-name="iecy" unicode="&#x435;" horiz-adv-x="574" 
d="M302 554c165 0 243 -130 234 -293c-1 -12 -9 -19 -21 -19h-360c5 -109 68 -154 148 -154c47 0 79 16 105 57c6 10 13 14 24 14h71c15 0 22 -9 16 -23c-41 -99 -125 -152 -226 -152c-148 0 -255 111 -255 281s106 289 264 289zM292 450c-83 0 -117 -57 -131 -116h255
c-1 61 -43 116 -124 116z" />
    <glyph glyph-name="iocy" unicode="&#x451;" horiz-adv-x="574" 
d="M261 733v-75c0 -13 -7 -20 -20 -20h-62c-13 0 -20 7 -20 20v75c0 13 7 20 20 20h62c13 0 20 -7 20 -20zM421 733v-75c0 -13 -7 -20 -20 -20h-62c-13 0 -20 7 -20 20v75c0 13 7 20 20 20h62c13 0 20 -7 20 -20zM302 554c165 0 243 -130 234 -293c-1 -12 -9 -19 -21 -19
h-360c5 -109 68 -154 148 -154c47 0 79 16 105 57c6 10 13 14 24 14h71c15 0 22 -9 16 -23c-41 -99 -125 -152 -226 -152c-148 0 -255 111 -255 281s106 289 264 289zM292 450c-83 0 -117 -57 -131 -116h255c-1 61 -43 116 -124 116z" />
    <glyph glyph-name="zhecy" unicode="&#x436;" horiz-adv-x="873" 
d="M614 275l215 -250c11 -14 6 -25 -11 -25h-110c-11 0 -18 3 -24 12l-175 220h-15l2 -212c0 -13 -7 -20 -20 -20h-81c-13 0 -20 7 -20 20l2 212h-13l-175 -220c-6 -9 -13 -12 -24 -12h-110c-17 0 -22 11 -11 25l215 250l-213 237c-12 13 -6 25 11 25h104c11 0 18 -3 25 -11
l178 -214h14l2 205c0 13 7 20 20 20h72c13 0 20 -7 20 -20l2 -205h15l179 214c7 8 14 11 25 11h103c17 0 23 -12 11 -25z" />
    <glyph glyph-name="zecy" unicode="&#x437;" horiz-adv-x="540" 
d="M388 279c82 -23 115 -72 115 -131c0 -87 -82 -164 -237 -164c-132 0 -210 69 -225 137c-3 13 5 21 18 21h76c12 0 18 -5 23 -15c17 -31 56 -46 111 -46c74 0 117 25 117 72c0 48 -35 74 -132 74h-45c-13 0 -20 7 -20 20v53c0 13 7 20 20 20h45c81 0 111 30 111 74
c0 42 -37 65 -102 65c-45 0 -82 -14 -100 -45c-6 -10 -12 -15 -24 -15h-69c-14 0 -22 9 -17 22c22 65 89 132 224 132c118 0 199 -73 199 -150c0 -50 -26 -98 -88 -124z" />
    <glyph glyph-name="iicy" unicode="&#x438;" horiz-adv-x="627" 
d="M539 0h-78c-13 0 -20 7 -20 20l3 364l-225 -371c-6 -9 -13 -13 -24 -13h-107c-13 0 -20 7 -20 20l4 497c0 13 7 20 20 20h70c13 0 20 -7 20 -20l3 -361l222 367c6 10 13 14 24 14h104c13 0 20 -7 20 -20l4 -497c0 -13 -7 -20 -20 -20z" />
    <glyph glyph-name="iishortcy" unicode="&#x439;" horiz-adv-x="627" 
d="M319 579c-85 0 -146 45 -146 144c0 10 7 16 20 16h45c13 0 20 -6 20 -16c0 -48 28 -69 61 -69c35 0 62 21 62 69c0 10 7 16 20 16h46c13 0 20 -6 20 -16c0 -99 -61 -144 -148 -144zM539 0h-78c-13 0 -20 7 -20 20l3 364l-225 -371c-6 -9 -13 -13 -24 -13h-107
c-13 0 -20 7 -20 20l4 497c0 13 7 20 20 20h70c13 0 20 -7 20 -20l3 -361l222 367c6 10 13 14 24 14h104c13 0 20 -7 20 -20l4 -497c0 -13 -7 -20 -20 -20z" />
    <glyph glyph-name="kacy" unicode="&#x43a;" horiz-adv-x="595" 
d="M318 275l231 -250c12 -13 7 -25 -10 -25h-109c-11 0 -18 3 -25 11l-197 221h-19l2 -212c0 -13 -7 -20 -20 -20h-83c-13 0 -20 7 -20 20l4 497c0 13 7 20 20 20h75c13 0 20 -7 20 -20l2 -205h19l201 214c7 8 14 11 25 11h103c18 0 23 -12 10 -25z" />
    <glyph glyph-name="kjecy" unicode="&#x45c;" horiz-adv-x="595" 
d="M426 739l-99 -124c-6 -9 -13 -12 -24 -12h-33c-16 0 -22 10 -14 24l65 122c6 10 13 14 24 14h70c17 0 22 -11 11 -24zM318 275l231 -250c12 -13 7 -25 -10 -25h-109c-11 0 -18 3 -25 11l-197 221h-19l2 -212c0 -13 -7 -20 -20 -20h-83c-13 0 -20 7 -20 20l4 497
c0 13 7 20 20 20h75c13 0 20 -7 20 -20l2 -205h19l201 214c7 8 14 11 25 11h103c18 0 23 -12 10 -25z" />
    <glyph glyph-name="elcy" unicode="&#x43b;" horiz-adv-x="618" 
d="M530 0h-84c-13 0 -20 7 -20 20l4 410h-168l-15 -209c-12 -162 -81 -216 -204 -221c-13 0 -20 7 -20 20v65c0 13 7 20 20 21c56 4 86 35 91 100l27 312c1 12 9 19 21 19h343c13 0 20 -7 20 -20l5 -497c0 -13 -7 -20 -20 -20z" />
    <glyph glyph-name="emcy" unicode="&#x43c;" horiz-adv-x="759" 
d="M692 0h-75c-13 0 -20 7 -20 20l-6 400l-145 -404c-4 -11 -11 -16 -23 -16h-83c-12 0 -19 5 -23 16l-148 419l-7 -415c0 -13 -7 -20 -20 -20h-74c-13 0 -20 7 -19 20l18 495c1 13 8 20 21 20h127c12 0 19 -5 23 -16l143 -397l143 397c4 11 11 16 23 16h124
c13 0 20 -7 21 -20l19 -495c1 -13 -6 -20 -19 -20z" />
    <glyph glyph-name="ency" unicode="&#x43d;" horiz-adv-x="620" 
d="M532 0h-84c-13 0 -20 7 -20 20l2 209h-241l2 -209c0 -13 -7 -20 -20 -20h-83c-13 0 -20 7 -20 20l4 497c0 13 7 20 20 20h75c13 0 20 -7 20 -20l1 -181h243l2 181c0 13 7 20 20 20h75c13 0 20 -7 20 -20l4 -497c0 -13 -7 -20 -20 -20z" />
    <glyph glyph-name="ocy" unicode="&#x43e;" horiz-adv-x="599" 
d="M304 553c147 0 257 -112 257 -278c0 -168 -115 -291 -266 -291c-147 0 -257 117 -257 282c0 169 114 287 266 287zM291 450c-79 0 -136 -65 -136 -173c0 -115 68 -188 152 -188c79 0 136 67 136 173c0 117 -67 188 -152 188z" />
    <glyph glyph-name="pecy" unicode="&#x43f;" horiz-adv-x="610" 
d="M522 0h-83c-13 0 -20 7 -20 20l3 410h-234l3 -410c0 -13 -7 -20 -20 -20h-83c-13 0 -20 7 -20 20l4 497c0 13 7 20 20 20h426c13 0 20 -7 20 -20l4 -497c0 -13 -7 -20 -20 -20z" />
    <glyph glyph-name="ercy" unicode="&#x440;" horiz-adv-x="617" 
d="M358 553c131 0 221 -118 221 -279c0 -172 -103 -290 -244 -290c-61 0 -101 15 -140 49h-5l1 -233c0 -13 -7 -20 -20 -20h-83c-13 0 -20 7 -20 20l4 717c0 13 7 20 20 20h75c13 0 20 -7 20 -20l1 -53l8 1c37 60 99 88 162 88zM326 88c89 0 135 66 135 177
c0 119 -57 185 -136 185c-80 0 -144 -68 -144 -185c-3 -121 63 -177 145 -177z" />
    <glyph glyph-name="escy" unicode="&#x441;" horiz-adv-x="544" 
d="M291 554c127 0 209 -83 230 -166c3 -14 -4 -22 -18 -22h-72c-11 0 -18 5 -23 15c-25 45 -59 69 -116 69c-81 0 -137 -47 -137 -185c0 -130 56 -176 143 -176c59 0 87 25 106 59c5 10 12 15 23 15h72c15 0 22 -9 17 -22c-28 -77 -103 -157 -229 -157
c-152 0 -249 110 -249 278c0 181 104 292 253 292z" />
    <glyph glyph-name="tecy" unicode="&#x442;" horiz-adv-x="528" 
d="M505 517v-67c0 -13 -7 -20 -20 -20h-164l4 -410c0 -13 -7 -20 -20 -20h-84c-13 0 -20 7 -20 20l3 410h-161c-13 0 -20 7 -20 20v67c0 13 7 20 20 20h442c13 0 20 -7 20 -20z" />
    <glyph glyph-name="ucy" unicode="&#x443;" horiz-adv-x="555" 
d="M440 537h72c15 0 21 -9 16 -23l-190 -558c-44 -129 -115 -176 -242 -176h-27c-13 0 -20 7 -20 20v64c0 13 7 20 19 20c85 0 127 25 151 85l-192 545c-5 14 2 23 16 23h73c11 0 19 -5 22 -16l131 -389h9l139 389c4 11 11 16 23 16z" />
    <glyph glyph-name="ushortcy" unicode="&#x45e;" horiz-adv-x="555" 
d="M279 581c-85 0 -146 45 -146 144c0 10 7 16 20 16h45c13 0 20 -6 20 -16c0 -48 28 -69 61 -69c35 0 62 21 62 69c0 10 7 16 20 16h46c13 0 20 -6 20 -16c0 -99 -61 -144 -148 -144zM440 537h72c15 0 21 -9 16 -23l-190 -558c-44 -129 -115 -176 -242 -176h-27
c-13 0 -20 7 -20 20v64c0 13 7 20 19 20c85 0 127 25 151 85l-192 545c-5 14 2 23 16 23h73c11 0 19 -5 22 -16l131 -389h9l139 389c4 11 11 16 23 16z" />
    <glyph glyph-name="efcy" unicode="&#x444;" horiz-adv-x="779" 
d="M741 275c0 -157 -107 -271 -289 -293l1 -182c0 -13 -7 -20 -20 -20h-84c-13 0 -20 7 -20 20l1 181c-183 18 -292 130 -292 285c0 156 110 269 295 290l1 176c0 13 7 20 20 20h75c13 0 20 -7 20 -20l1 -176c182 -18 291 -128 291 -281zM148 277c0 -98 67 -172 183 -193
l1 373c-116 -15 -184 -86 -184 -180zM450 454l2 -371c112 17 178 86 178 179c0 97 -66 171 -180 192z" />
    <glyph glyph-name="hacy" unicode="&#x445;" horiz-adv-x="573" 
d="M361 263l163 -239c9 -13 3 -24 -13 -24h-89c-11 0 -19 4 -25 13l-116 176l-117 -176c-6 -9 -14 -13 -25 -13h-86c-17 0 -22 11 -13 24l181 256l-155 233c-9 13 -3 24 13 24h81c10 0 18 -4 24 -13l117 -172l119 172c6 9 14 13 24 13h77c17 0 23 -11 13 -24z" />
    <glyph glyph-name="checy" unicode="&#x447;" horiz-adv-x="564" 
d="M476 0h-83c-13 0 -20 7 -20 20l1 160c-42 -30 -97 -46 -152 -46c-114 0 -185 72 -184 200l2 183c0 13 7 20 20 20h76c13 0 20 -7 20 -20l-2 -154c-1 -79 34 -117 97 -117c52 0 92 17 124 48l2 223c0 13 7 20 20 20h75c13 0 20 -7 20 -20l4 -497c0 -13 -7 -20 -20 -20z
" />
    <glyph glyph-name="tsecy" unicode="&#x446;" horiz-adv-x="646" 
d="M545 107h57c14 0 21 -7 20 -21l-15 -247c-1 -12 -8 -19 -20 -19h-51c-13 0 -20 7 -20 20l-3 160h-425c-13 0 -20 7 -20 20l4 497c0 13 7 20 20 20h75c13 0 20 -7 20 -20l3 -410h233l3 410c0 13 7 20 20 20h75c13 0 20 -7 20 -20z" />
    <glyph glyph-name="shacy" unicode="&#x448;" horiz-adv-x="925" 
d="M853 517l4 -497c0 -13 -7 -20 -20 -20h-749c-13 0 -20 7 -20 20l4 497c0 13 7 20 20 20h75c13 0 20 -7 20 -20l3 -410h212l3 410c0 13 7 20 20 20h75c13 0 20 -7 20 -20l3 -410h212l3 410c0 13 7 20 20 20h75c13 0 20 -7 20 -20z" />
    <glyph glyph-name="shchacy" unicode="&#x449;" horiz-adv-x="925" 
d="M856 107h44c14 0 21 -7 20 -21l-15 -247c-1 -12 -8 -19 -20 -19h-51c-13 0 -20 7 -20 20l-4 160h-722c-13 0 -20 7 -20 20l4 497c0 13 7 20 20 20h75c13 0 20 -7 20 -20l3 -410h212l3 410c0 13 7 20 20 20h75c13 0 20 -7 20 -20l3 -410h212l3 410c0 13 7 20 20 20h75
c13 0 20 -7 20 -20z" />
    <glyph glyph-name="iacy" unicode="&#x44f;" horiz-adv-x="600" 
d="M512 0h-83c-13 0 -20 7 -20 20l1 169h-104l-115 -176c-6 -9 -14 -13 -25 -13h-98c-17 0 -22 11 -12 24l128 179c-72 26 -118 88 -118 160c0 94 87 174 198 174h244c13 0 20 -7 20 -20l4 -497c0 -13 -7 -20 -20 -20zM411 294l1 140h-141c-54 0 -86 -36 -86 -71
c0 -36 37 -69 103 -69h123z" />
    <glyph glyph-name="softsigncy" unicode="&#x44c;" horiz-adv-x="587" 
d="M188 352h159c120 0 202 -81 202 -175c0 -93 -86 -177 -202 -177h-259c-13 0 -20 7 -20 20l4 497c0 13 7 20 20 20h75c13 0 20 -7 20 -20zM190 104h150c59 0 91 39 91 73s-37 71 -107 71h-135z" />
    <glyph glyph-name="hardsigncy" unicode="&#x44a;" horiz-adv-x="659" 
d="M261 352h158c120 0 202 -81 202 -175c0 -93 -86 -177 -202 -177h-259c-13 0 -20 7 -20 20l4 410h-101c-13 0 -20 7 -20 20v67c0 13 7 20 20 20h196c13 0 20 -7 20 -20zM263 104h150c59 0 90 39 90 73s-37 71 -107 71h-134z" />
    <glyph glyph-name="yerucy" unicode="&#x44b;" horiz-adv-x="817" 
d="M188 352h159c120 0 202 -81 202 -175c0 -93 -86 -177 -202 -177h-259c-13 0 -20 7 -20 20l4 497c0 13 7 20 20 20h75c13 0 20 -7 20 -20zM745 517l4 -497c0 -13 -7 -20 -20 -20h-83c-13 0 -20 7 -20 20l4 497c0 13 7 20 20 20h75c13 0 20 -7 20 -20zM190 104h150
c59 0 91 39 91 73s-37 71 -107 71h-135z" />
    <glyph glyph-name="dzecy" unicode="&#x455;" horiz-adv-x="540" 
d="M270 553c128 0 201 -79 219 -146c4 -13 -4 -21 -18 -21h-73c-11 0 -18 4 -25 13c-25 33 -61 51 -109 51c-54 0 -87 -26 -87 -59c0 -29 32 -43 107 -65l42 -12c129 -36 175 -87 175 -158c0 -104 -87 -172 -218 -172c-138 0 -210 74 -238 156c-4 13 3 22 17 22h82
c11 0 18 -5 24 -14c27 -45 66 -60 121 -60c58 0 92 16 92 57c0 31 -27 52 -109 75l-40 11c-101 28 -171 68 -171 153c0 98 91 169 209 169z" />
    <glyph glyph-name="ecy" unicode="&#x454;" horiz-adv-x="563" 
d="M298 89c59 0 87 25 106 59c5 10 12 15 23 15h72c15 0 22 -9 17 -22c-28 -77 -103 -157 -229 -157c-152 0 -249 110 -249 278c0 181 104 292 253 292c127 0 209 -83 230 -166c3 -14 -4 -22 -18 -22h-72c-11 0 -18 5 -23 15c-25 45 -59 69 -116 69
c-70 0 -121 -35 -134 -134h170c13 0 20 -7 20 -20v-56c0 -13 -7 -20 -20 -20h-170c12 -96 64 -131 140 -131z" />
    <glyph glyph-name="ereversedcy" unicode="&#x44d;" horiz-adv-x="563" 
d="M272 554c149 0 253 -111 253 -292c0 -168 -97 -278 -249 -278c-126 0 -201 80 -229 157c-5 13 2 22 17 22h72c11 0 18 -5 23 -15c19 -34 47 -59 106 -59c76 0 128 35 140 131h-170c-13 0 -20 7 -20 20v56c0 13 7 20 20 20h170c-13 99 -64 134 -134 134
c-57 0 -91 -24 -116 -69c-5 -10 -12 -15 -23 -15h-72c-14 0 -21 6 -19 15c18 86 101 173 231 173z" />
    <glyph glyph-name="icy" unicode="&#x456;" horiz-adv-x="279" 
d="M198 732v-75c0 -13 -7 -20 -20 -20h-75c-13 0 -20 7 -20 20v75c0 13 7 20 20 20h75c13 0 20 -7 20 -20zM197 517l4 -497c0 -13 -7 -20 -20 -20h-83c-13 0 -20 7 -20 20l4 497c0 13 7 20 20 20h75c13 0 20 -7 20 -20z" />
    <glyph glyph-name="yicy" unicode="&#x457;" horiz-adv-x="279" 
d="M115 733v-75c0 -13 -7 -20 -20 -20h-62c-13 0 -20 7 -20 20v75c0 13 7 20 20 20h62c13 0 20 -7 20 -20zM275 733v-75c0 -13 -7 -20 -20 -20h-62c-13 0 -20 7 -20 20v75c0 13 7 20 20 20h62c13 0 20 -7 20 -20zM197 517l4 -497c0 -13 -7 -20 -20 -20h-83
c-13 0 -20 7 -20 20l4 497c0 13 7 20 20 20h75c13 0 20 -7 20 -20z" />
    <glyph glyph-name="jecy" unicode="&#x458;" horiz-adv-x="303" 
d="M212 732v-75c0 -13 -7 -20 -20 -20h-75c-13 0 -20 7 -20 20v75c0 13 7 20 20 20h75c13 0 20 -7 20 -20zM212 517l4 -517c1 -144 -71 -214 -222 -220c-14 0 -21 7 -21 20v64c0 13 7 20 20 21c72 6 99 35 100 105l4 527c0 13 7 20 20 20h75c13 0 20 -7 20 -20z" />
    <glyph glyph-name="iucy" unicode="&#x44e;" horiz-adv-x="819" 
d="M533 553c142 0 248 -112 248 -278c0 -168 -111 -291 -256 -291c-127 0 -225 93 -244 231h-92l2 -195c0 -13 -7 -20 -20 -20h-83c-13 0 -20 7 -20 20l4 497c0 13 7 20 20 20h75c13 0 20 -7 20 -20l2 -196h92c21 139 122 232 252 232zM536 89c74 0 127 67 127 173
c0 117 -64 188 -142 188c-74 0 -127 -65 -127 -173c0 -115 65 -188 142 -188z" />
    <glyph glyph-name="yatcy" unicode="&#x463;" horiz-adv-x="644" 
d="M247 352h157c120 0 202 -81 202 -175c0 -93 -86 -177 -202 -177h-259c-13 0 -20 7 -20 20l2 425h-84c-13 0 -20 7 -20 20v52c0 13 7 20 20 20h85l1 195c0 13 7 20 20 20h75c13 0 20 -7 20 -20l1 -195h139c13 0 20 -7 20 -20v-52c0 -13 -7 -20 -20 -20h-138zM248 104h149
c60 0 91 39 91 73s-37 71 -107 71h-134z" />
    <glyph glyph-name="zedescendercy" unicode="&#x499;" horiz-adv-x="540" 
d="M503 148c0 -80 -69 -151 -200 -162l-14 -44c36 -8 68 -35 68 -84c0 -52 -37 -94 -107 -94c-21 0 -40 4 -61 14c-11 6 -14 15 -11 26l7 22c4 14 13 17 26 12c15 -6 28 -9 39 -9c18 0 34 13 34 26c0 16 -12 33 -53 32h-4c-15 0 -21 9 -17 23l23 76
c-112 10 -179 73 -192 135c-3 13 5 21 18 21h76c12 0 18 -5 23 -15c17 -31 56 -46 111 -46c74 0 117 25 117 72c0 48 -35 74 -132 74h-45c-13 0 -20 7 -20 20v53c0 13 7 20 20 20h45c81 0 111 30 111 74c0 42 -37 65 -102 65c-45 0 -82 -14 -100 -45c-6 -10 -12 -15 -24 -15
h-69c-14 0 -22 9 -17 22c22 65 89 132 224 132c118 0 199 -73 199 -150c0 -50 -26 -98 -88 -124c82 -23 115 -72 115 -131z" />
    <glyph glyph-name="shhacy" unicode="&#x4bb;" horiz-adv-x="593" 
d="M189 464h9c37 57 89 83 152 83c104 0 172 -73 173 -201l2 -326c0 -13 -7 -20 -20 -20h-84c-13 0 -20 7 -20 20l3 296c1 81 -35 118 -94 118c-73 0 -128 -56 -121 -178l2 -236c0 -13 -7 -20 -20 -20h-83c-13 0 -20 7 -20 20l4 712c0 13 7 20 20 20h75c13 0 20 -7 20 -20z
" />
    <glyph glyph-name="adieresiscy" unicode="&#x4d3;" horiz-adv-x="576" 
d="M259 733v-75c0 -13 -7 -20 -20 -20h-62c-13 0 -20 7 -20 20v75c0 13 7 20 20 20h62c13 0 20 -7 20 -20zM419 733v-75c0 -13 -7 -20 -20 -20h-62c-13 0 -20 7 -20 20v75c0 13 7 20 20 20h62c13 0 20 -7 20 -20zM294 553c127 0 210 -70 210 -191l4 -342
c0 -13 -7 -20 -20 -20h-79c-13 0 -20 7 -20 20l1 61h-8c-36 -55 -101 -92 -181 -92c-96 0 -162 55 -162 152c0 113 88 164 285 187c44 5 66 22 66 53c0 42 -41 72 -104 72c-54 0 -88 -21 -104 -60c-5 -11 -12 -16 -23 -16h-71c-14 0 -22 7 -19 18c25 94 102 158 225 158z
M389 252l-5 3c-17 -6 -44 -12 -70 -16c-100 -16 -160 -38 -160 -91c0 -35 25 -57 75 -57c99 0 164 76 161 134z" />
    <glyph glyph-name="zhedieresiscy" unicode="&#x4dd;" horiz-adv-x="873" 
d="M411 733v-75c0 -13 -7 -20 -20 -20h-62c-13 0 -20 7 -20 20v75c0 13 7 20 20 20h62c13 0 20 -7 20 -20zM571 733v-75c0 -13 -7 -20 -20 -20h-62c-13 0 -20 7 -20 20v75c0 13 7 20 20 20h62c13 0 20 -7 20 -20zM614 275l215 -250c11 -14 6 -25 -11 -25h-110
c-11 0 -18 3 -24 12l-175 220h-15l2 -212c0 -13 -7 -20 -20 -20h-81c-13 0 -20 7 -20 20l2 212h-13l-175 -220c-6 -9 -13 -12 -24 -12h-110c-17 0 -22 11 -11 25l215 250l-213 237c-12 13 -6 25 11 25h104c11 0 18 -3 25 -11l178 -214h14l2 205c0 13 7 20 20 20h72
c13 0 20 -7 20 -20l2 -205h15l179 214c7 8 14 11 25 11h103c17 0 23 -12 11 -25z" />
    <glyph glyph-name="zedieresiscy" unicode="&#x4df;" horiz-adv-x="540" 
d="M245 733v-75c0 -13 -7 -20 -20 -20h-62c-13 0 -20 7 -20 20v75c0 13 7 20 20 20h62c13 0 20 -7 20 -20zM405 733v-75c0 -13 -7 -20 -20 -20h-62c-13 0 -20 7 -20 20v75c0 13 7 20 20 20h62c13 0 20 -7 20 -20zM388 279c82 -23 115 -72 115 -131c0 -87 -82 -164 -237 -164
c-132 0 -210 69 -225 137c-3 13 5 21 18 21h76c12 0 18 -5 23 -15c17 -31 56 -46 111 -46c74 0 117 25 117 72c0 48 -35 74 -132 74h-45c-13 0 -20 7 -20 20v53c0 13 7 20 20 20h45c81 0 111 30 111 74c0 42 -37 65 -102 65c-45 0 -82 -14 -100 -45c-6 -10 -12 -15 -24 -15
h-69c-14 0 -22 9 -17 22c22 65 89 132 224 132c118 0 199 -73 199 -150c0 -50 -26 -98 -88 -124z" />
    <glyph glyph-name="imacroncy" unicode="&#x4e3;" horiz-adv-x="627" 
d="M447 713v-48c0 -13 -7 -20 -20 -20h-215c-13 0 -20 7 -20 20v48c0 13 7 20 20 20h215c13 0 20 -7 20 -20zM539 0h-78c-13 0 -20 7 -20 20l3 364l-225 -371c-6 -9 -13 -13 -24 -13h-107c-13 0 -20 7 -20 20l4 497c0 13 7 20 20 20h70c13 0 20 -7 20 -20l3 -361l222 367
c6 10 13 14 24 14h104c13 0 20 -7 20 -20l4 -497c0 -13 -7 -20 -20 -20z" />
    <glyph glyph-name="idieresiscy" unicode="&#x4e5;" horiz-adv-x="627" 
d="M294 731v-75c0 -13 -7 -20 -20 -20h-62c-13 0 -20 7 -20 20v75c0 13 7 20 20 20h62c13 0 20 -7 20 -20zM454 731v-75c0 -13 -7 -20 -20 -20h-62c-13 0 -20 7 -20 20v75c0 13 7 20 20 20h62c13 0 20 -7 20 -20zM539 0h-78c-13 0 -20 7 -20 20l3 364l-225 -371
c-6 -9 -13 -13 -24 -13h-107c-13 0 -20 7 -20 20l4 497c0 13 7 20 20 20h70c13 0 20 -7 20 -20l3 -361l222 367c6 10 13 14 24 14h104c13 0 20 -7 20 -20l4 -497c0 -13 -7 -20 -20 -20z" />
    <glyph glyph-name="odieresiscy" unicode="&#x4e7;" horiz-adv-x="599" 
d="M274 733v-75c0 -13 -7 -20 -20 -20h-62c-13 0 -20 7 -20 20v75c0 13 7 20 20 20h62c13 0 20 -7 20 -20zM434 733v-75c0 -13 -7 -20 -20 -20h-62c-13 0 -20 7 -20 20v75c0 13 7 20 20 20h62c13 0 20 -7 20 -20zM304 553c147 0 257 -112 257 -278
c0 -168 -115 -291 -266 -291c-147 0 -257 117 -257 282c0 169 114 287 266 287zM291 450c-79 0 -136 -65 -136 -173c0 -115 68 -188 152 -188c79 0 136 67 136 173c0 117 -67 188 -152 188z" />
    <glyph glyph-name="umacroncy" unicode="&#x4ef;" horiz-adv-x="555" 
d="M408 715v-48c0 -13 -7 -20 -20 -20h-215c-13 0 -20 7 -20 20v48c0 13 7 20 20 20h215c13 0 20 -7 20 -20zM440 537h72c15 0 21 -9 16 -23l-190 -558c-44 -129 -115 -176 -242 -176h-27c-13 0 -20 7 -20 20v64c0 13 7 20 19 20c85 0 127 25 151 85l-192 545
c-5 14 2 23 16 23h73c11 0 19 -5 22 -16l131 -389h9l139 389c4 11 11 16 23 16z" />
    <glyph glyph-name="udieresiscy" unicode="&#x4f1;" horiz-adv-x="555" 
d="M255 733v-75c0 -13 -7 -20 -20 -20h-62c-13 0 -20 7 -20 20v75c0 13 7 20 20 20h62c13 0 20 -7 20 -20zM415 733v-75c0 -13 -7 -20 -20 -20h-62c-13 0 -20 7 -20 20v75c0 13 7 20 20 20h62c13 0 20 -7 20 -20zM440 537h72c15 0 21 -9 16 -23l-190 -558
c-44 -129 -115 -176 -242 -176h-27c-13 0 -20 7 -20 20v64c0 13 7 20 19 20c85 0 127 25 151 85l-192 545c-5 14 2 23 16 23h73c11 0 19 -5 22 -16l131 -389h9l139 389c4 11 11 16 23 16z" />
    <glyph glyph-name="chedieresiscy" unicode="&#x4f5;" horiz-adv-x="564" 
d="M240 733v-75c0 -13 -7 -20 -20 -20h-62c-13 0 -20 7 -20 20v75c0 13 7 20 20 20h62c13 0 20 -7 20 -20zM400 733v-75c0 -13 -7 -20 -20 -20h-62c-13 0 -20 7 -20 20v75c0 13 7 20 20 20h62c13 0 20 -7 20 -20zM476 0h-83c-13 0 -20 7 -20 20l1 160
c-42 -30 -97 -46 -152 -46c-114 0 -185 72 -184 200l2 183c0 13 7 20 20 20h76c13 0 20 -7 20 -20l-2 -154c-1 -79 34 -117 97 -117c52 0 92 17 124 48l2 223c0 13 7 20 20 20h75c13 0 20 -7 20 -20l4 -497c0 -13 -7 -20 -20 -20z" />
    <glyph glyph-name="Aiecy" unicode="&#x4d4;" horiz-adv-x="979" 
d="M615 626v-191h258c13 0 20 -7 20 -20v-67c0 -13 -7 -20 -20 -20h-258v-221h299c13 0 20 -7 20 -20v-67c0 -13 -7 -20 -20 -20h-397c-13 0 -20 7 -20 20v193h-239l-112 -199c-6 -10 -13 -14 -24 -14h-84c-16 0 -22 10 -14 24l396 695c6 10 13 14 24 14h471
c13 0 20 -7 20 -20v-67c0 -13 -7 -20 -20 -20h-300zM497 320v317l-179 -317h179z" />
    <glyph glyph-name="aiecy" unicode="&#x4d5;" horiz-adv-x="928" 
d="M646 554c153 0 231 -119 229 -269c0 -8 0 -16 -1 -24c0 -12 -8 -19 -20 -19h-346c6 -109 69 -154 140 -154c47 0 74 16 100 57c6 10 13 14 24 14h71c15 0 22 -9 16 -23c-41 -99 -120 -152 -221 -152c-84 0 -157 41 -201 112h-9c-41 -61 -128 -107 -227 -107
c-96 0 -162 54 -163 152c0 123 107 177 319 193l32 2v45c0 42 -40 72 -103 72c-54 0 -88 -21 -105 -60c-5 -11 -11 -16 -23 -16h-71c-14 0 -22 8 -18 22c27 92 103 154 224 154c78 0 139 -26 176 -75c44 48 106 76 177 76zM515 334h239c0 61 -43 116 -118 116
c-73 0 -107 -57 -121 -116zM390 249l-29 -2c-154 -11 -207 -47 -207 -99c0 -35 24 -58 74 -58c99 0 161 89 161 144z" />
    <glyph glyph-name="zero" unicode="0" horiz-adv-x="618" 
d="M313 743c160 0 260 -131 260 -367c0 -243 -104 -386 -268 -386c-160 0 -261 137 -261 375c0 241 105 378 269 378zM303 640c-95 0 -140 -85 -140 -260c0 -194 57 -287 153 -287c94 0 140 89 140 264c0 194 -58 283 -153 283z" />
    <glyph glyph-name="one" unicode="1" horiz-adv-x="553" 
d="M414 0h-87c-13 0 -20 7 -20 20l4 618h-8l-174 -149c-10 -9 -20 -8 -28 2l-43 47c-9 10 -8 20 2 28l187 158c8 6 15 9 25 9h138c13 0 20 -7 20 -20l4 -693c0 -13 -7 -20 -20 -20z" />
    <glyph glyph-name="two" unicode="2" horiz-adv-x="617" 
d="M255 108h297c13 0 20 -7 20 -20v-68c0 -13 -7 -20 -20 -20h-444c-13 0 -20 7 -20 20v56c0 10 0 20 12 33l191 197c89 93 149 167 149 237c0 59 -46 104 -121 104c-62 0 -112 -31 -136 -94c-4 -12 -11 -17 -22 -17h-71c-15 0 -22 8 -18 22c25 96 109 192 254 192
c150 0 225 -102 225 -204c0 -101 -78 -194 -181 -307l-115 -126v-5z" />
    <glyph glyph-name="three" unicode="3" horiz-adv-x="613" 
d="M438 390c92 -33 130 -99 130 -179c0 -116 -81 -223 -252 -223c-163 0 -254 97 -270 193c-2 13 6 21 19 21h79c12 0 18 -6 22 -18c17 -62 73 -92 143 -92c90 0 146 46 146 126c0 78 -49 118 -191 118h-27c-13 0 -20 7 -20 20v58c0 13 7 20 20 20h27c128 0 171 43 171 103
c0 65 -49 110 -125 110c-64 0 -114 -31 -138 -94c-4 -12 -11 -17 -22 -17h-71c-14 0 -21 8 -18 22c24 94 106 192 256 192c151 0 229 -101 229 -202c0 -64 -31 -125 -108 -158z" />
    <glyph glyph-name="four" unicode="4" horiz-adv-x="670" 
d="M626 226v-62c0 -13 -7 -20 -20 -20h-101l1 -124c0 -13 -7 -20 -20 -20h-80c-13 0 -20 7 -20 20l1 124h-323c-13 0 -20 7 -20 20v58c0 28 3 39 12 53l316 439c9 13 17 19 32 19h77c13 0 20 -7 20 -20l3 -467h102c13 0 20 -7 20 -20zM387 246l2 319h-5l-225 -316v-3h228z
" />
    <glyph glyph-name="five" unicode="5" horiz-adv-x="612" 
d="M539 713v-67c0 -13 -7 -20 -20 -20h-306l-17 -181h9c43 20 80 28 124 28c149 0 238 -107 238 -244c0 -125 -75 -241 -250 -241c-159 0 -256 97 -271 193c-2 14 6 21 19 21h79c12 0 19 -6 22 -18c17 -59 68 -92 147 -92c91 0 141 43 141 137c0 93 -48 140 -141 140
c-51 0 -86 -14 -117 -35c-8 -6 -15 -8 -25 -7l-71 2c-14 1 -20 8 -19 22l33 363c1 13 9 19 21 19h384c13 0 20 -7 20 -20z" />
    <glyph glyph-name="six" unicode="6" horiz-adv-x="630" 
d="M335 459c154 0 250 -104 250 -236c0 -159 -115 -239 -255 -239c-172 0 -289 113 -289 372c0 236 113 394 291 394c129 0 213 -82 235 -186c3 -13 -4 -21 -18 -21l-69 -1c-12 0 -19 6 -23 17c-21 58 -72 86 -129 86c-101 0 -160 -88 -172 -235h12c48 29 102 49 167 49z
M326 89c88 0 149 46 149 127c0 65 -39 138 -157 138c-63 0 -117 -20 -163 -52c10 -154 70 -213 171 -213z" />
    <glyph glyph-name="seven" unicode="7" horiz-adv-x="599" 
d="M64 733h470c13 0 20 -7 20 -20v-53c0 -12 -4 -25 -13 -41c-104 -183 -197 -384 -280 -603c-4 -11 -11 -16 -23 -16h-98c-15 0 -21 9 -15 23c90 216 190 414 298 594v9h-359c-13 0 -20 7 -20 20v67c0 13 7 20 20 20z" />
    <glyph glyph-name="eight" unicode="8" horiz-adv-x="622" 
d="M311 748c142 0 235 -90 235 -206c0 -70 -34 -120 -85 -152v-3c66 -29 120 -92 120 -188c0 -135 -107 -221 -270 -221c-161 0 -270 86 -270 221c0 100 61 160 113 188v4c-48 31 -77 81 -77 148c0 120 92 209 234 209zM311 649c-75 0 -123 -47 -123 -113
c0 -63 44 -113 123 -113s123 50 123 113c0 66 -49 113 -123 113zM311 336c-92 0 -153 -55 -153 -132c0 -73 56 -122 153 -122c99 0 153 49 153 122c0 77 -61 132 -153 132z" />
    <glyph glyph-name="nine" unicode="9" horiz-adv-x="652" 
d="M326 750c148 0 285 -92 285 -372c0 -251 -113 -394 -293 -394c-134 0 -220 82 -243 185c-3 13 4 21 18 22l74 2c12 0 19 -6 23 -18c19 -59 73 -85 132 -85c106 0 165 86 175 240h-13c-49 -29 -103 -49 -169 -49c-146 0 -238 96 -238 227c0 138 95 242 249 242zM335 384
c60 0 115 21 161 51c-13 172 -87 211 -168 211c-86 0 -141 -48 -141 -141c0 -57 35 -121 148 -121z" />
    <glyph glyph-name="zerosuperior" unicode="&#x2070;" horiz-adv-x="317" 
d="M161 737c65 0 112 -47 112 -135c0 -90 -49 -140 -115 -140s-114 48 -114 137s49 138 117 138zM156 670c-22 0 -38 -21 -38 -68c0 -57 24 -73 43 -73c22 0 38 20 38 69c0 56 -23 72 -43 72z" />
    <glyph glyph-name="onesuperior" unicode="&#xb9;" horiz-adv-x="296" 
d="M225 712l3 -225c0 -13 -7 -20 -20 -20h-42c-13 0 -20 7 -20 20l1 183h-4l-38 -35c-10 -9 -20 -9 -29 1l-18 20c-9 10 -9 20 1 28l43 39c8 6 15 9 25 9h78c13 0 20 -7 20 -20z" />
    <glyph glyph-name="twosuperior" unicode="&#xb2;" horiz-adv-x="339" 
d="M188 737c71 0 102 -45 102 -85c0 -26 -13 -59 -56 -93l-33 -27v-5h73c13 0 20 -7 20 -20v-20c0 -13 -7 -20 -20 -20h-173c-13 0 -20 7 -20 20v19c0 7 0 13 8 19l92 76c23 18 34 29 34 43c0 15 -11 26 -32 26c-12 0 -26 -3 -35 -15c-8 -9 -13 -14 -24 -14h-33
c-14 0 -22 4 -20 12c8 37 44 84 117 84z" />
    <glyph glyph-name="threesuperior" unicode="&#xb3;" horiz-adv-x="321" 
d="M221 603c30 -9 55 -28 55 -62c0 -43 -39 -79 -113 -79c-72 0 -107 36 -116 69c-4 13 5 21 18 21h36c12 0 17 -6 24 -15c7 -10 18 -14 38 -14c23 0 39 5 39 22s-17 27 -69 27c-12 0 -18 7 -18 20v13c0 13 6 20 18 20c51 0 61 13 61 26c0 14 -16 24 -37 24
c-11 0 -22 -2 -29 -9c-8 -8 -13 -14 -24 -14h-33c-14 0 -23 9 -18 22c12 30 44 63 112 63c73 0 101 -39 101 -74c0 -18 -8 -45 -45 -60z" />
    <glyph glyph-name="foursuperior" unicode="&#x2074;" horiz-adv-x="345" 
d="M300 540v-17c0 -13 -7 -20 -20 -20h-33v-16c0 -13 -7 -20 -20 -20h-31c-13 0 -20 7 -20 20v16h-112c-13 0 -20 7 -20 20v23c0 19 1 26 8 35l115 140c6 7 11 11 20 11h39c13 0 20 -7 20 -20l1 -152h33c13 0 20 -7 20 -20zM177 560v81h-2l-64 -79v-2h66z" />
    <glyph glyph-name="fivesuperior" unicode="&#x2075;" horiz-adv-x="317" 
d="M188 649c47 0 85 -32 85 -87c0 -56 -38 -100 -114 -100c-64 0 -99 30 -111 64c-4 13 4 21 18 21h37c10 0 16 -5 24 -13c10 -8 23 -11 36 -11c25 0 35 14 35 31c0 20 -13 33 -36 33c-11 0 -21 -1 -29 -3c-9 -3 -16 -5 -25 -5h-36c-13 0 -20 8 -19 21l13 113
c1 13 8 19 21 19h156c13 0 20 -7 20 -20v-21c0 -13 -7 -20 -20 -20h-113l-5 -37h6c16 10 36 15 57 15z" />
    <glyph glyph-name="sixsuperior" unicode="&#x2076;" horiz-adv-x="321" 
d="M185 635c56 0 92 -35 92 -82c0 -56 -54 -91 -112 -91c-67 0 -124 42 -124 134c0 84 49 141 124 141c51 0 89 -27 102 -58c6 -13 -3 -22 -17 -22h-32c-11 0 -16 5 -25 11c-6 6 -16 9 -27 9c-30 0 -46 -24 -50 -57h4c17 8 40 15 65 15zM171 522c15 0 32 5 32 26
c0 13 -7 31 -37 31c-14 0 -32 -3 -48 -11c8 -34 30 -46 53 -46z" />
    <glyph glyph-name="sevensuperior" unicode="&#x2077;" horiz-adv-x="309" 
d="M64 732h181c13 0 20 -7 20 -20v-18c0 -8 -4 -16 -9 -26c-31 -56 -64 -124 -89 -185c-4 -11 -11 -16 -23 -16h-47c-15 0 -21 10 -14 24c28 57 60 117 94 170v6l-113 -1c-13 0 -20 7 -20 20v26c0 13 7 20 20 20z" />
    <glyph glyph-name="eightsuperior" unicode="&#x2078;" horiz-adv-x="306" 
d="M153 737c61 0 102 -33 102 -75c0 -19 -8 -42 -38 -55v-3c24 -8 48 -31 48 -65c0 -44 -39 -77 -111 -77c-70 0 -113 32 -113 77c0 36 28 56 50 65v4c-32 10 -39 33 -39 52c0 44 40 77 101 77zM153 683c-21 0 -34 -10 -34 -24s11 -24 34 -24c25 0 34 11 34 24
c0 15 -13 24 -34 24zM153 572c-27 0 -40 -13 -40 -28c0 -17 13 -30 40 -30c28 0 40 13 40 30c0 15 -12 28 -40 28z" />
    <glyph glyph-name="ninesuperior" unicode="&#x2079;" horiz-adv-x="354" 
d="M190 737c66 0 123 -41 123 -134c0 -84 -49 -141 -129 -141c-55 0 -90 27 -105 58c-6 13 2 22 17 22l32 1c10 0 16 -5 24 -12c8 -6 19 -9 31 -9c36 0 52 27 55 57h-4c-17 -9 -40 -15 -66 -15c-56 0 -92 33 -92 83c0 57 55 90 114 90zM187 621c14 0 32 2 48 10
c-9 38 -33 48 -53 48c-19 0 -32 -10 -32 -27c0 -13 7 -31 37 -31z" />
    <glyph glyph-name="asterisk" unicode="*" horiz-adv-x="482" 
d="M297 559l95 -40c13 -5 16 -15 9 -27l-22 -38c-7 -12 -17 -14 -28 -6l-81 62l12 -101c1 -13 -6 -21 -19 -21h-45c-13 0 -20 8 -18 21l13 102l-83 -62c-11 -8 -21 -6 -28 6l-22 38c-6 12 -3 22 10 27l94 40l-94 41c-13 5 -16 15 -9 26l22 38c7 12 17 14 28 6l83 -63
l-13 104c-1 13 6 21 19 21l44 -1c13 0 20 -8 18 -21l-12 -103l83 62c11 8 21 6 27 -6l22 -38c6 -12 3 -22 -10 -27z" />
    <glyph glyph-name="backslash" unicode="\" horiz-adv-x="436" 
d="M49 731h84c12 0 19 -5 23 -16l247 -692c5 -14 -2 -23 -16 -23h-85c-12 0 -19 5 -23 16l-246 692c-5 14 2 23 16 23z" />
    <glyph glyph-name="periodcentered" unicode="&#xb7;" horiz-adv-x="377" 
d="M254 324v-80c0 -13 -7 -20 -20 -20h-92c-13 0 -20 7 -20 20v80c0 13 7 20 20 20h92c13 0 20 -7 20 -20z" />
    <glyph glyph-name="bullet" unicode="&#x2022;" horiz-adv-x="561" 
d="M281 448c87 0 158 -70 158 -158s-71 -158 -158 -158c-88 0 -159 70 -159 158s71 158 159 158z" />
    <glyph glyph-name="colon" unicode=":" horiz-adv-x="343" 
d="M238 534v-86c0 -13 -7 -20 -20 -20h-97c-13 0 -20 7 -20 20v86c0 13 7 20 20 20h97c13 0 20 -7 20 -20zM237 117v-87c0 -13 -7 -20 -20 -20h-97c-13 0 -20 7 -20 20v87c0 13 7 20 20 20h97c13 0 20 -7 20 -20z" />
    <glyph glyph-name="comma" unicode="," horiz-adv-x="380" 
d="M258 102v-70c0 -106 -25 -165 -80 -218c-8 -9 -17 -9 -27 -4l-9 5c-12 6 -14 16 -5 28c42 58 50 118 -2 149c-10 6 -15 12 -15 23v87c0 13 7 20 20 20h98c13 0 20 -7 20 -20z" />
    <glyph glyph-name="ellipsis" unicode="&#x2026;" horiz-adv-x="953" 
d="M237 128v-86c0 -13 -7 -20 -20 -20h-97c-13 0 -20 7 -20 20v86c0 13 7 20 20 20h97c13 0 20 -7 20 -20zM543 128v-86c0 -13 -7 -20 -20 -20h-98c-13 0 -20 7 -20 20v86c0 13 7 20 20 20h98c13 0 20 -7 20 -20zM848 128v-86c0 -13 -7 -20 -20 -20h-97c-13 0 -20 7 -20 20
v86c0 13 7 20 20 20h97c13 0 20 -7 20 -20z" />
    <glyph glyph-name="exclam" unicode="!" horiz-adv-x="382" 
d="M253 718l5 -467c0 -13 -7 -20 -20 -20h-84c-13 0 -20 7 -20 20l5 467c0 13 7 20 20 20h74c13 0 20 -7 20 -20zM260 107v-87c0 -13 -7 -20 -20 -20h-98c-13 0 -20 7 -20 20v87c0 13 7 20 20 20h98c13 0 20 -7 20 -20z" />
    <glyph glyph-name="exclamdown" unicode="&#xa1;" horiz-adv-x="338" 
d="M100 441v87c0 13 7 20 20 20h98c13 0 20 -7 20 -20v-87c0 -13 -7 -20 -20 -20h-98c-13 0 -20 7 -20 20zM106 -170l-4 467c0 13 7 20 20 20h84c13 0 20 -7 20 -20l-5 -467c0 -13 -7 -20 -20 -20h-75c-13 0 -20 7 -20 20z" />
    <glyph glyph-name="numbersign" unicode="#" horiz-adv-x="766" 
d="M562 446l-23 -111h113c14 0 20 -8 18 -22l-11 -53c-3 -12 -10 -18 -22 -18h-117l-46 -224c-3 -12 -10 -18 -22 -18h-59c-14 0 -20 8 -17 22l46 220h-137l-46 -224c-3 -12 -10 -18 -22 -18h-59c-14 0 -20 8 -17 22l46 220h-115c-14 0 -20 8 -17 22l11 53c3 12 10 18 22 18
h118l23 111h-114c-14 0 -20 8 -18 22l11 53c3 12 10 18 22 18h119l36 174c3 12 10 18 22 18h56c14 0 20 -8 18 -22l-35 -170h138l36 174c3 12 10 18 22 18h56c14 0 20 -8 18 -22l-35 -170h113c14 0 20 -8 18 -22l-11 -53c-3 -12 -10 -18 -22 -18h-117zM465 446h-138
l-23 -111h137z" />
    <glyph glyph-name="period" unicode="." horiz-adv-x="332" 
d="M232 101v-80c0 -13 -7 -20 -20 -20h-92c-13 0 -20 7 -20 20v80c0 13 7 20 20 20h92c13 0 20 -7 20 -20z" />
    <glyph glyph-name="question" unicode="?" horiz-adv-x="599" 
d="M314 750c156 0 235 -100 235 -214c0 -104 -63 -186 -195 -253v-54c0 -13 -7 -20 -20 -20h-86c-13 0 -20 7 -20 20v84c0 12 5 19 16 24c146 68 188 125 188 192c0 72 -49 112 -125 112c-62 0 -115 -27 -136 -88c-4 -11 -11 -17 -23 -17h-76c-14 0 -21 5 -20 14
c18 95 103 200 262 200zM335 89v-80c0 -13 -7 -20 -20 -20h-92c-13 0 -20 7 -20 20v80c0 13 7 20 20 20h92c13 0 20 -7 20 -20z" />
    <glyph glyph-name="questiondown" unicode="&#xbf;" horiz-adv-x="599" 
d="M264 448v80c0 13 7 20 20 20h92c13 0 20 -7 20 -20v-80c0 -13 -7 -20 -20 -20h-92c-13 0 -20 7 -20 20zM285 -213c-156 0 -235 100 -235 214c0 104 63 186 195 253v54c0 13 7 20 20 20h85c13 0 20 -7 20 -20v-85c0 -11 -5 -18 -16 -23c-145 -68 -187 -125 -187 -192
c0 -72 48 -112 125 -112c61 0 115 28 136 88c4 11 11 17 23 17h76c14 0 21 -5 20 -14c-19 -95 -103 -200 -262 -200z" />
    <glyph glyph-name="quotedbl" unicode="&#x22;" horiz-adv-x="530" 
d="M261 718l-41 -227c-2 -12 -9 -18 -21 -18h-53c-14 0 -21 8 -19 21l31 227c2 13 9 19 22 19h63c14 0 21 -8 18 -22zM441 718l-40 -227c-2 -12 -9 -18 -21 -18h-53c-14 0 -21 8 -19 21l31 227c2 13 9 19 22 19h62c14 0 21 -8 18 -22z" />
    <glyph glyph-name="quotesingle" unicode="'" horiz-adv-x="349" 
d="M261 718l-41 -227c-2 -12 -9 -18 -21 -18h-53c-14 0 -21 8 -19 21l31 227c2 13 9 19 22 19h63c14 0 21 -8 18 -22z" />
    <glyph glyph-name="semicolon" unicode=";" horiz-adv-x="336" 
d="M236 534v-86c0 -13 -7 -20 -20 -20h-98c-13 0 -20 7 -20 20v86c0 13 7 20 20 20h98c13 0 20 -7 20 -20zM236 102v-70c0 -106 -25 -165 -80 -218c-8 -9 -17 -9 -27 -4l-9 5c-12 6 -14 16 -5 28c41 58 49 118 -2 149c-10 6 -15 12 -15 23v87c0 13 7 20 20 20h98
c13 0 20 -7 20 -20z" />
    <glyph glyph-name="slash" unicode="/" horiz-adv-x="436" 
d="M403 708l-246 -692c-4 -11 -11 -16 -23 -16h-85c-14 0 -21 9 -16 23l247 692c4 11 11 16 23 16h84c14 0 21 -9 16 -23z" />
    <glyph glyph-name="underscore" unicode="_" horiz-adv-x="646" 
d="M609 -81v-43c0 -13 -7 -20 -20 -20h-531c-13 0 -20 7 -20 20v43c0 13 7 20 20 20h531c13 0 20 -7 20 -20z" />
    <glyph glyph-name="braceleft" unicode="{" horiz-adv-x="466" 
d="M396 730v-58c0 -13 -7 -20 -20 -20h-2c-68 0 -100 -28 -100 -112v-144c0 -84 -25 -117 -60 -135v-8c35 -16 60 -62 60 -143v-137c0 -84 32 -111 100 -111h2c13 0 20 -7 20 -20v-59c0 -13 -7 -20 -20 -20h-17c-132 0 -194 56 -194 205v121c0 71 -7 110 -50 117
c-12 2 -19 8 -19 20v62c0 12 7 18 19 20c43 7 50 46 50 117v125c0 148 62 200 194 200h17c13 0 20 -7 20 -20z" />
    <glyph glyph-name="braceright" unicode="}" horiz-adv-x="466" 
d="M70 -217v59c0 13 7 20 20 20h2c68 0 100 27 100 111v145c0 84 25 116 60 134v8c-35 16 -60 62 -60 144v136c0 84 -32 112 -100 112h-2c-13 0 -20 7 -20 20v58c0 13 7 20 20 20h17c132 0 194 -56 194 -205v-121c0 -71 7 -109 50 -116c12 -2 19 -8 19 -20v-63
c0 -12 -7 -18 -19 -20c-43 -7 -50 -46 -50 -117v-124c0 -148 -62 -201 -194 -201h-17c-13 0 -20 7 -20 20z" />
    <glyph glyph-name="bracketleft" unicode="[" horiz-adv-x="438" 
d="M201 637l5 -764h142c13 0 20 -7 20 -20v-53c0 -13 -7 -20 -20 -20h-232c-13 0 -20 7 -20 20l4 910c0 13 7 20 20 20h228c13 0 20 -7 20 -20v-53c0 -13 -7 -20 -20 -20h-147z" />
    <glyph glyph-name="bracketright" unicode="]" horiz-adv-x="438" 
d="M90 730h233c13 0 20 -7 20 -20l-5 -910c0 -13 -7 -20 -20 -20h-228c-13 0 -20 7 -20 20v53c0 13 7 20 20 20h147l-4 764h-143c-13 0 -20 7 -20 20v53c0 13 7 20 20 20z" />
    <glyph glyph-name="braceleft.case" horiz-adv-x="466" 
d="M396 830v-58c0 -13 -7 -20 -20 -20h-2c-68 0 -100 -28 -100 -112v-144c0 -84 -25 -117 -60 -135v-8c35 -16 60 -62 60 -143v-137c0 -84 32 -111 100 -111h2c13 0 20 -7 20 -20v-59c0 -13 -7 -20 -20 -20h-17c-132 0 -194 56 -194 205v121c0 71 -7 110 -50 117
c-12 2 -19 8 -19 20v62c0 12 7 18 19 20c43 7 50 46 50 117v125c0 148 62 200 194 200h17c13 0 20 -7 20 -20z" />
    <glyph glyph-name="braceright.case" horiz-adv-x="466" 
d="M70 -117v59c0 13 7 20 20 20h2c68 0 100 27 100 111v145c0 84 25 116 60 134v8c-35 16 -60 62 -60 144v136c0 84 -32 112 -100 112h-2c-13 0 -20 7 -20 20v58c0 13 7 20 20 20h17c132 0 194 -56 194 -205v-121c0 -71 7 -109 50 -116c12 -2 19 -8 19 -20v-63
c0 -12 -7 -18 -19 -20c-43 -7 -50 -46 -50 -117v-124c0 -148 -62 -201 -194 -201h-17c-13 0 -20 7 -20 20z" />
    <glyph glyph-name="bracketleft.case" horiz-adv-x="438" 
d="M201 737l5 -764h142c13 0 20 -7 20 -20v-53c0 -13 -7 -20 -20 -20h-232c-13 0 -20 7 -20 20l4 910c0 13 7 20 20 20h228c13 0 20 -7 20 -20v-53c0 -13 -7 -20 -20 -20h-147z" />
    <glyph glyph-name="bracketright.case" horiz-adv-x="438" 
d="M90 830h233c13 0 20 -7 20 -20l-5 -910c0 -13 -7 -20 -20 -20h-228c-13 0 -20 7 -20 20v53c0 13 7 20 20 20h147l-4 764h-143c-13 0 -20 7 -20 20v53c0 13 7 20 20 20z" />
    <glyph glyph-name="parenleft.case" horiz-adv-x="437" 
d="M317 839l24 -17c10 -8 12 -17 5 -28c-76 -112 -120 -261 -120 -436c0 -174 44 -324 120 -437c7 -11 5 -20 -6 -27l-23 -16c-10 -8 -20 -7 -28 1c-117 113 -191 289 -191 479s74 366 191 479c9 8 18 9 28 2z" />
    <glyph glyph-name="parenright.case" horiz-adv-x="437" 
d="M119 -123l-23 16c-10 8 -12 17 -5 28c76 113 120 262 120 437c0 174 -44 324 -120 436c-7 11 -5 20 5 28l23 17c10 7 20 6 28 -2c118 -113 192 -290 192 -479c0 -191 -74 -366 -192 -479c-9 -8 -18 -9 -28 -2z" />
    <glyph glyph-name="parenleft" unicode="(" horiz-adv-x="437" 
d="M317 739l24 -17c10 -8 12 -17 5 -28c-76 -112 -120 -261 -120 -436c0 -174 44 -324 120 -437c7 -11 5 -20 -6 -27l-23 -16c-10 -8 -20 -7 -28 1c-117 113 -191 289 -191 479s74 366 191 479c9 8 18 9 28 2z" />
    <glyph glyph-name="parenright" unicode=")" horiz-adv-x="437" 
d="M119 -223l-23 16c-10 8 -12 17 -5 28c76 113 120 262 120 437c0 174 -44 324 -120 436c-7 11 -5 20 5 28l23 17c10 7 20 6 28 -2c118 -113 192 -290 192 -479c0 -191 -74 -366 -192 -479c-9 -8 -18 -9 -28 -2z" />
    <glyph glyph-name="emdash" unicode="&#x2014;" horiz-adv-x="934" 
d="M848 314v-64c0 -13 -7 -20 -20 -20h-721c-13 0 -20 7 -20 20v64c0 13 7 20 20 20h721c13 0 20 -7 20 -20z" />
    <glyph glyph-name="endash" unicode="&#x2013;" horiz-adv-x="744" 
d="M657 314v-64c0 -13 -7 -20 -20 -20h-530c-13 0 -20 7 -20 20v64c0 13 7 20 20 20h530c13 0 20 -7 20 -20z" />
    <glyph glyph-name="hyphen" unicode="-" horiz-adv-x="621" 
d="M501 313v-64c0 -13 -7 -20 -20 -20h-341c-13 0 -20 7 -20 20v64c0 13 7 20 20 20h341c13 0 20 -7 20 -20z" />
    <glyph glyph-name="guillemetleft.case" horiz-adv-x="637" 
d="M102 335v88c0 11 4 19 13 25l163 106c13 9 24 3 24 -13v-64c0 -11 -4 -19 -13 -25l-112 -73l112 -73c9 -5 13 -13 13 -24v-64c0 -16 -10 -22 -24 -13l-163 106c-9 5 -13 13 -13 24zM534 541v-64c0 -11 -4 -19 -13 -25l-112 -73l112 -73c9 -5 13 -13 13 -24v-64
c0 -16 -10 -22 -24 -13l-163 106c-9 5 -13 13 -13 24v88c0 11 4 19 13 25l163 106c13 9 24 3 24 -13z" />
    <glyph glyph-name="guillemetright.case" horiz-adv-x="637" 
d="M102 477v64c0 16 10 22 24 13l163 -106c9 -5 13 -13 13 -24v-88c0 -11 -4 -19 -13 -25l-163 -106c-13 -9 -24 -3 -24 13v64c0 11 4 19 13 25l112 73l-112 73c-9 5 -13 13 -13 24zM358 554l163 -106c9 -5 13 -13 13 -24v-88c0 -11 -4 -19 -13 -25l-163 -106
c-13 -9 -24 -3 -24 13v64c0 11 4 19 13 25l112 73l-112 73c-9 5 -13 13 -13 24v64c0 16 11 22 24 13z" />
    <glyph glyph-name="guilsinglleft.case" horiz-adv-x="404" 
d="M302 530v-54c0 -11 -4 -19 -13 -24l-112 -73l112 -73c9 -5 13 -13 13 -24v-53c0 -16 -10 -22 -24 -13l-163 106c-9 5 -13 13 -13 24v66c0 11 4 19 13 25l163 106c13 9 24 3 24 -13z" />
    <glyph glyph-name="guilsinglright.case" horiz-adv-x="404" 
d="M126 543l163 -106c9 -5 13 -13 13 -24v-66c0 -11 -4 -19 -13 -25l-163 -106c-13 -9 -24 -3 -24 13v54c0 11 4 19 13 24l112 73l-112 73c-9 5 -13 13 -13 24v53c0 16 11 22 24 13z" />
    <glyph glyph-name="guillemetleft" unicode="&#xab;" horiz-adv-x="637" 
d="M102 235v88c0 11 4 19 13 25l163 106c13 9 24 3 24 -13v-64c0 -11 -4 -19 -13 -25l-112 -73l112 -73c9 -5 13 -13 13 -24v-64c0 -16 -10 -22 -24 -13l-163 106c-9 5 -13 13 -13 24zM534 441v-64c0 -11 -4 -19 -13 -25l-112 -73l112 -73c9 -5 13 -13 13 -24v-64
c0 -16 -10 -22 -24 -13l-163 106c-9 5 -13 13 -13 24v88c0 11 4 19 13 25l163 106c13 9 24 3 24 -13z" />
    <glyph glyph-name="guillemetright" unicode="&#xbb;" horiz-adv-x="637" 
d="M102 377v64c0 16 10 22 24 13l163 -106c9 -5 13 -13 13 -24v-88c0 -11 -4 -19 -13 -25l-163 -106c-13 -9 -24 -3 -24 13v64c0 11 4 19 13 25l112 73l-112 73c-9 5 -13 13 -13 24zM358 454l163 -106c9 -5 13 -13 13 -24v-88c0 -11 -4 -19 -13 -25l-163 -106
c-13 -9 -24 -3 -24 13v64c0 11 4 19 13 25l112 73l-112 73c-9 5 -13 13 -13 24v64c0 16 11 22 24 13z" />
    <glyph glyph-name="guilsinglleft" unicode="&#x2039;" horiz-adv-x="404" 
d="M302 441v-64c0 -11 -4 -19 -13 -25l-112 -73l112 -73c9 -5 13 -13 13 -24v-64c0 -16 -10 -22 -24 -13l-163 106c-9 5 -13 13 -13 24v88c0 11 4 19 13 25l163 106c13 9 24 3 24 -13z" />
    <glyph glyph-name="guilsinglright" unicode="&#x203a;" horiz-adv-x="404" 
d="M126 454l163 -106c9 -5 13 -13 13 -24v-88c0 -11 -4 -19 -13 -25l-163 -106c-13 -9 -24 -3 -24 13v64c0 11 4 19 13 25l112 73l-112 73c-9 5 -13 13 -13 24v64c0 16 11 22 24 13z" />
    <glyph glyph-name="quotedblbase" unicode="&#x201e;" horiz-adv-x="300" 
d="M140 122h98c13 0 20 -7 20 -20v-70c0 -106 -25 -165 -80 -218c-8 -9 -17 -9 -27 -4l-9 5c-12 6 -14 16 -5 28c42 58 50 118 -2 149c-10 6 -15 12 -15 23v87c0 13 7 20 20 20z" />
    <glyph glyph-name="quotedblleft" unicode="&#x201c;" horiz-adv-x="572" 
d="M126 446v70c0 106 25 165 80 218c8 9 17 9 27 4l9 -5c12 -6 14 -16 5 -28c-42 -58 -50 -118 2 -149c10 -6 15 -12 15 -23v-87c0 -13 -7 -20 -20 -20h-98c-13 0 -20 7 -20 20zM354 446v70c0 106 25 165 80 218c8 9 17 9 27 4l9 -5c12 -6 14 -16 5 -28
c-42 -58 -50 -118 2 -149c10 -6 15 -12 15 -23v-87c0 -13 -7 -20 -20 -20h-98c-13 0 -20 7 -20 20z" />
    <glyph glyph-name="quotedblright" unicode="&#x201d;" horiz-adv-x="489" 
d="M218 712v-70c0 -106 -25 -165 -79 -218c-9 -9 -18 -9 -28 -4l-8 5c-12 6 -14 16 -6 27c42 59 50 119 -2 150c-10 6 -15 12 -15 23v87c0 13 7 20 20 20h98c13 0 20 -7 20 -20zM446 712v-70c0 -106 -25 -165 -79 -218c-9 -9 -18 -9 -28 -4l-8 5c-12 6 -14 16 -6 27
c42 59 50 119 -2 150c-10 6 -15 12 -15 23v87c0 13 7 20 20 20h98c13 0 20 -7 20 -20z" />
    <glyph glyph-name="quoteleft" unicode="&#x2018;" horiz-adv-x="344" 
d="M127 446v70c0 106 24 165 79 218c9 9 18 9 28 4l8 -5c12 -6 14 -16 6 -27c-42 -59 -50 -119 1 -150c10 -6 15 -12 15 -23v-87c0 -13 -7 -20 -20 -20h-97c-13 0 -20 7 -20 20z" />
    <glyph glyph-name="quoteright" unicode="&#x2019;" horiz-adv-x="261" 
d="M218 717v-70c0 -106 -25 -164 -80 -217c-8 -9 -17 -10 -27 -4l-8 4c-13 6 -14 16 -6 28c42 59 50 119 -2 149c-10 6 -15 12 -15 23v87c0 13 7 20 20 20h98c13 0 20 -7 20 -20z" />
    <glyph glyph-name="quotesinglbase" unicode="&#x201a;" horiz-adv-x="300" 
d="M258 102v-70c0 -106 -25 -165 -80 -218c-8 -9 -17 -9 -27 -4l-9 5c-12 6 -14 16 -5 28c42 58 50 118 -2 149c-10 6 -15 12 -15 23v87c0 13 7 20 20 20h98c13 0 20 -7 20 -20z" />
    <glyph glyph-name="space" unicode=" " horiz-adv-x="197" 
 />
    <glyph glyph-name="cent" unicode="&#xa2;" horiz-adv-x="544" 
d="M298 179c59 0 87 25 106 60c5 10 12 15 23 15h72c15 0 22 -9 17 -22c-24 -68 -84 -137 -183 -154l3 -120c1 -13 -6 -20 -19 -20h-55c-13 0 -20 7 -19 20l3 119c-128 18 -208 124 -208 275c0 162 83 268 208 288l-3 121c-1 13 6 20 19 20h55c13 0 20 -7 19 -20l-3 -120
c103 -16 170 -90 188 -163c3 -14 -4 -22 -18 -22h-72c-11 0 -18 5 -23 15c-25 45 -59 70 -116 70c-81 0 -137 -47 -137 -185c0 -131 56 -177 143 -177z" />
    <glyph glyph-name="currency" unicode="&#xa4;" horiz-adv-x="720" 
d="M536 264c0 -31 -8 -61 -23 -87l43 -43c9 -9 9 -19 0 -28l-37 -38c-9 -10 -19 -10 -28 -1l-44 44c-26 -15 -55 -23 -87 -23c-31 0 -61 8 -86 23l-43 -44c-9 -9 -19 -9 -28 0l-38 39c-9 9 -9 19 0 28l43 43c-15 25 -24 55 -24 87s8 62 23 87l-43 43c-9 9 -9 19 0 28l39 37
c9 9 19 9 28 0l42 -42c26 15 55 23 87 23s62 -9 88 -24l43 43c9 9 19 9 28 0l37 -37c9 -9 9 -19 0 -28l-42 -44c14 -25 22 -55 22 -86zM266 264c0 -51 42 -93 94 -93c51 0 93 42 93 93c0 52 -42 94 -93 94c-52 0 -94 -42 -94 -94z" />
    <glyph glyph-name="dollar" unicode="$" horiz-adv-x="647" 
d="M602 208c0 -114 -93 -180 -234 -187l3 -119c1 -13 -6 -20 -19 -20h-61c-13 0 -20 7 -19 20l3 123c-137 20 -206 104 -226 175c-4 14 3 22 18 22h72c11 0 18 -5 23 -14c31 -55 86 -92 185 -92c93 0 138 27 138 77c0 49 -41 86 -161 124l-35 11c-134 41 -210 94 -214 188
c-4 104 84 172 200 188l-3 115c-1 13 6 20 19 20h61c13 0 20 -7 19 -20l-3 -114c111 -14 184 -79 216 -162c6 -14 -1 -23 -16 -23h-69c-11 0 -18 4 -24 14c-32 48 -85 78 -158 78c-88 0 -127 -35 -127 -80c0 -47 41 -73 160 -107l31 -10c164 -48 221 -120 221 -207z" />
    <glyph glyph-name="euro" unicode="&#x20ac;" horiz-adv-x="734" 
d="M488 90c49 0 93 11 135 28c13 5 22 1 25 -13l13 -56c3 -11 -1 -20 -11 -26c-53 -27 -113 -39 -172 -39c-174 0 -297 101 -340 253h-74c-13 0 -20 7 -20 20v53c0 13 7 20 20 20h59c-1 10 -1 21 -1 32c0 12 0 24 1 36h-59c-13 0 -20 7 -20 20v53c0 13 7 20 20 20h75
c45 159 174 259 341 259c54 0 113 -11 169 -39c11 -6 14 -15 11 -26l-17 -62c-4 -13 -13 -17 -26 -12c-42 18 -94 34 -147 34c-99 0 -179 -53 -213 -154l218 -1c13 0 20 -7 20 -20v-53c0 -13 -7 -20 -20 -20l-234 1l-1 -24c0 -15 1 -30 2 -44l233 -1c13 0 20 -7 20 -20v-52
c0 -13 -7 -20 -20 -20h-211c38 -94 118 -147 224 -147z" />
    <glyph glyph-name="ruble" unicode="&#x20bd;" horiz-adv-x="685" 
d="M93 732h290c154 0 257 -93 257 -228c0 -136 -103 -241 -257 -241h-189l1 -57h156c13 0 20 -7 20 -20v-64c0 -13 -7 -20 -20 -20h-156l1 -82c0 -13 -7 -20 -20 -20h-87c-13 0 -20 7 -20 20l1 82h-55c-13 0 -20 7 -20 20v64c0 13 7 20 20 20h55l3 506c0 13 7 20 20 20z
M194 367h180c97 0 148 47 148 125c0 84 -61 136 -148 136h-182z" />
    <glyph glyph-name="sterling" unicode="&#xa3;" horiz-adv-x="692" 
d="M231 108h373c13 0 20 -7 20 -20v-68c0 -13 -7 -20 -20 -20h-515c-13 0 -20 7 -20 20v62c0 10 4 17 13 24c76 53 79 96 79 186h-29c-13 0 -20 7 -20 20v64c0 13 7 20 20 20h29v121c0 132 92 233 236 233s207 -98 224 -193c2 -13 -5 -21 -19 -21h-70c-12 0 -19 6 -22 18
c-18 61 -59 93 -118 93c-69 0 -118 -44 -118 -141v-110h198c13 0 20 -7 20 -20v-64c0 -13 -7 -20 -20 -20h-198v-6c0 -77 -14 -133 -43 -170v-8z" />
    <glyph glyph-name="yen" unicode="&#xa5;" horiz-adv-x="613" 
d="M407 367h80c13 0 20 -7 20 -20v-41c0 -13 -7 -20 -20 -20h-119l1 -63h118c13 0 20 -7 20 -20v-41c0 -13 -7 -20 -20 -20h-117l1 -122c0 -13 -7 -20 -20 -20h-86c-13 0 -20 7 -20 20l1 122h-100c-13 0 -20 7 -20 20v41c0 13 7 20 20 20h101v63h-101c-13 0 -20 7 -20 20v41
c0 13 7 20 20 20h62l-185 341c-8 14 -2 24 14 24h87c11 0 18 -4 24 -14l158 -299h8l156 299c6 10 13 14 24 14h82c16 0 22 -10 14 -24z" />
    <glyph glyph-name="asciitilde" unicode="~" horiz-adv-x="667" 
d="M252 386c99 0 129 -86 171 -86c23 0 31 20 34 44c1 13 8 20 20 20h60c13 0 20 -7 19 -20c-5 -68 -39 -140 -133 -140c-90 0 -112 85 -169 85c-25 0 -36 -20 -40 -44c-2 -12 -8 -19 -20 -19h-60c-13 0 -20 6 -20 17c5 78 38 143 138 143z" />
    <glyph glyph-name="divide" unicode="&#xf7;" horiz-adv-x="811" 
d="M447 512v-80c0 -13 -7 -20 -20 -20h-92c-13 0 -20 7 -20 20v80c0 13 7 20 20 20h92c13 0 20 -7 20 -20zM691 299v-64c0 -13 -7 -20 -20 -20h-531c-13 0 -20 7 -20 20v64c0 13 7 20 20 20h531c13 0 20 -7 20 -20zM447 92v-80c0 -13 -7 -20 -20 -20h-92c-13 0 -20 7 -20 20
v80c0 13 7 20 20 20h92c13 0 20 -7 20 -20z" />
    <glyph glyph-name="equal" unicode="=" horiz-adv-x="770" 
d="M649 398v-59c0 -13 -7 -20 -20 -20h-489c-13 0 -20 7 -20 20v59c0 13 7 20 20 20h489c13 0 20 -7 20 -20zM649 169v-58c0 -13 -7 -20 -20 -20h-489c-13 0 -20 7 -20 20v58c0 13 7 20 20 20h489c13 0 20 -7 20 -20z" />
    <glyph glyph-name="greater" unicode="&#x3e;" horiz-adv-x="715" 
d="M143 508l437 -182c10 -4 15 -11 15 -23v-64c0 -12 -5 -19 -15 -24l-437 -186c-14 -6 -23 0 -23 15v62c0 12 5 19 15 23l340 141l-339 138c-11 4 -16 11 -16 23v62c0 15 9 21 23 15z" />
    <glyph glyph-name="greaterequal" unicode="&#x2265;" horiz-adv-x="660" 
d="M143 499l381 -130c11 -4 16 -11 16 -23v-51c0 -11 -5 -19 -16 -22l-381 -126c-14 -4 -23 2 -23 17v48c0 11 5 19 17 22l273 87l-274 90c-11 3 -16 11 -16 22v50c0 15 9 21 23 16zM120 28v47c0 13 7 20 20 20h380c13 0 20 -7 20 -20v-47c0 -13 -7 -20 -20 -20h-380
c-13 0 -20 7 -20 20z" />
    <glyph glyph-name="infinity" unicode="&#x221e;" horiz-adv-x="1076" 
d="M757 516c118 0 199 -97 199 -220c0 -122 -80 -216 -212 -216c-81 0 -138 35 -214 124c-64 -76 -128 -124 -211 -124c-118 0 -199 97 -199 219s80 217 212 217c81 0 138 -34 215 -124c62 77 127 124 210 124zM332 195c51 0 95 42 140 104c-54 80 -92 108 -141 108
c-57 0 -94 -40 -94 -99c0 -69 37 -113 95 -113zM744 189c58 0 94 39 94 99c0 69 -37 113 -94 113c-52 0 -96 -43 -140 -104c55 -80 92 -108 140 -108z" />
    <glyph glyph-name="less" unicode="&#x3c;" horiz-adv-x="715" 
d="M595 493v-62c0 -12 -5 -19 -15 -23l-340 -141l339 -138c11 -4 16 -11 16 -23v-62c0 -15 -9 -21 -23 -15l-437 182c-10 4 -15 11 -15 23v64c0 12 5 19 15 24l437 186c14 6 23 0 23 -15z" />
    <glyph glyph-name="lessequal" unicode="&#x2264;" horiz-adv-x="660" 
d="M540 483v-50c0 -11 -5 -19 -16 -22l-274 -90l273 -87c12 -3 17 -11 17 -22v-48c0 -15 -9 -21 -23 -17l-381 126c-11 3 -16 11 -16 22v51c0 12 5 19 16 23l381 130c14 5 23 -1 23 -16zM120 28v47c0 13 7 20 20 20h380c13 0 20 -7 20 -20v-47c0 -13 -7 -20 -20 -20h-380
c-13 0 -20 7 -20 20z" />
    <glyph glyph-name="micro" unicode="&#xb5;" horiz-adv-x="593" 
d="M505 0h-84c-13 0 -20 7 -19 20l2 53h-9c-37 -61 -89 -89 -152 -89c-28 0 -53 5 -75 16l-7 -4c18 -65 28 -131 30 -196c0 -13 -7 -20 -20 -20h-83c-13 0 -20 7 -20 20l2 388v15l2 314c0 13 7 20 20 20h75c13 0 20 -7 20 -20l2 -285c1 -95 34 -136 94 -136
c72 0 126 58 121 185l2 236c0 13 7 20 20 20h75c13 0 20 -7 20 -20l4 -497c0 -13 -7 -20 -20 -20z" />
    <glyph glyph-name="minus" unicode="&#x2212;" horiz-adv-x="811" 
d="M741 298v-64c0 -13 -7 -20 -20 -20h-531c-13 0 -20 7 -20 20v64c0 13 7 20 20 20h531c13 0 20 -7 20 -20z" />
    <glyph glyph-name="multiply" unicode="&#xd7;" horiz-adv-x="660" 
d="M396 235l130 -130c9 -9 9 -19 0 -28l-38 -39c-9 -9 -19 -9 -28 0l-130 130l-130 -130c-9 -9 -19 -9 -28 0l-38 39c-9 9 -9 19 0 28l130 130l-130 130c-9 9 -9 19 0 28l38 37c9 9 19 9 28 0l130 -130l130 130c9 9 19 9 28 0l38 -37c9 -9 9 -19 0 -28z" />
    <glyph glyph-name="notequal" unicode="&#x2260;" horiz-adv-x="770" 
d="M486 319l-61 -130h204c13 0 20 -7 20 -20v-58c0 -13 -7 -20 -20 -20h-249l-61 -130c-5 -10 -12 -15 -23 -15h-65c-15 0 -22 10 -15 24l57 121h-133c-13 0 -20 7 -20 20v58c0 13 7 20 20 20h179l60 130h-239c-13 0 -20 7 -20 20v59c0 13 7 20 20 20h286l60 129
c5 10 12 15 23 15h64c15 0 22 -10 15 -24l-56 -120h97c13 0 20 -7 20 -20v-59c0 -13 -7 -20 -20 -20h-143z" />
    <glyph glyph-name="percent" unicode="%" horiz-adv-x="821" 
d="M200 741c86 0 155 -70 155 -156s-69 -155 -155 -155s-156 69 -156 155s70 156 156 156zM713 706l-495 -694c-6 -8 -14 -12 -24 -12h-68c-17 0 -22 11 -13 24l497 694c6 8 14 12 24 12h66c17 0 22 -11 13 -24zM200 653c-38 0 -68 -30 -68 -68c0 -37 30 -68 68 -68
c37 0 68 31 68 68c0 38 -31 68 -68 68zM624 300c86 0 155 -69 155 -155s-69 -156 -155 -156s-156 70 -156 156s70 155 156 155zM624 213c-38 0 -68 -30 -68 -68c0 -37 30 -68 68 -68c37 0 68 31 68 68c0 38 -31 68 -68 68z" />
    <glyph glyph-name="perthousand" unicode="&#x2030;" horiz-adv-x="1172" 
d="M200 741c86 0 155 -70 155 -156s-69 -155 -155 -155s-156 69 -156 155s70 156 156 156zM713 706l-495 -694c-6 -8 -14 -12 -24 -12h-68c-17 0 -22 11 -13 24l497 694c6 8 14 12 24 12h66c17 0 22 -11 13 -24zM200 653c-38 0 -68 -30 -68 -68c0 -37 30 -68 68 -68
c37 0 68 31 68 68c0 38 -31 68 -68 68zM624 300c86 0 155 -69 155 -155s-69 -156 -155 -156s-156 70 -156 156s70 155 156 155zM973 300c86 0 155 -69 155 -155s-69 -156 -155 -156s-156 70 -156 156s70 155 156 155zM624 213c-38 0 -68 -30 -68 -68c0 -37 30 -68 68 -68
c37 0 68 31 68 68c0 38 -31 68 -68 68zM973 213c-38 0 -69 -30 -69 -68c0 -37 31 -68 69 -68c37 0 68 31 68 68c0 38 -31 68 -68 68z" />
    <glyph glyph-name="plus" unicode="+" horiz-adv-x="767" 
d="M647 299v-60c0 -13 -7 -20 -20 -20h-191v-194c0 -13 -7 -20 -20 -20h-64c-13 0 -20 7 -20 20v194h-192c-13 0 -20 7 -20 20v60c0 13 7 20 20 20h192v193c0 13 7 20 20 20h64c13 0 20 -7 20 -20v-193h191c13 0 20 -7 20 -20z" />
    <glyph glyph-name="lozenge" unicode="&#x25ca;" horiz-adv-x="618" 
d="M344 0h-70c-11 0 -18 4 -24 14l-198 330c-5 10 -5 18 0 28l204 331c5 9 13 13 24 13h58c11 0 19 -4 24 -13l204 -331c5 -10 5 -18 0 -28l-198 -330c-6 -10 -13 -14 -24 -14zM444 358l-132 210h-6l-132 -210l132 -210h6z" />
    <glyph glyph-name="apple" unicode="&#xf8ff;" horiz-adv-x="575" 
d="M374 532c14 4 23 -5 21 -19c-4 -23 -14 -45 -29 -62c-14 -19 -36 -34 -59 -38c-12 -2 -21 5 -20 18c2 25 15 48 28 64c15 18 37 32 59 37zM393 405c17 0 57 -4 86 -36c10 -11 6 -20 -4 -29c-17 -15 -42 -45 -42 -91c2 -55 36 -85 57 -99c10 -7 14 -15 10 -27
c-6 -14 -16 -35 -32 -57c-21 -33 -45 -67 -82 -67c-34 0 -47 22 -87 22c-43 0 -56 -22 -88 -22c-37 0 -63 35 -86 68c-30 43 -55 111 -56 175c0 84 49 161 134 163c35 1 66 -24 88 -24c20 0 59 24 102 24z" />
    <glyph glyph-name="bar" unicode="|" horiz-adv-x="401" 
d="M251 755l5 -980c0 -13 -7 -20 -20 -20h-70c-13 0 -20 7 -20 20l4 980c0 13 7 20 20 20h61c13 0 20 -7 20 -20z" />
    <glyph glyph-name="brokenbar" unicode="&#xa6;" horiz-adv-x="401" 
d="M251 755l5 -300c0 -13 -7 -20 -20 -20h-70c-13 0 -20 7 -20 20l4 300c0 13 7 20 20 20h61c13 0 20 -7 20 -20zM251 75l5 -300c0 -13 -7 -20 -20 -20h-70c-13 0 -20 7 -20 20l4 300c0 13 7 20 20 20h61c13 0 20 -7 20 -20z" />
    <glyph glyph-name="at" unicode="@" horiz-adv-x="933" 
d="M475 655c229 0 389 -154 389 -373c0 -135 -61 -207 -156 -207c-60 0 -107 28 -132 76h-5c-29 -52 -72 -83 -135 -83c-97 0 -165 73 -165 191c0 126 77 204 166 204c44 0 82 -20 101 -46h3v15c0 13 7 20 20 20h57c13 0 20 -7 20 -20v-164c0 -60 22 -95 61 -95
s63 36 63 112c0 165 -115 267 -280 267c-173 0 -306 -110 -306 -295c0 -163 104 -276 307 -276c32 0 71 2 117 9c14 2 22 -5 22 -19v-59c0 -12 -6 -19 -18 -22c-48 -10 -94 -12 -123 -12c-254 0 -412 151 -412 378c0 240 174 399 406 399zM455 364c-53 0 -82 -40 -82 -97
c0 -65 38 -101 85 -101c49 0 78 40 78 99v8c0 55 -31 91 -81 91z" />
    <glyph glyph-name="ampersand" unicode="&#x26;" horiz-adv-x="782" 
d="M703 0h-100c-11 0 -18 3 -25 11l-30 32c-56 -42 -131 -65 -217 -65c-153 0 -262 74 -262 195c0 93 64 156 163 217c-56 69 -77 113 -77 171c0 105 75 187 201 187c125 0 194 -80 194 -179c0 -78 -41 -142 -147 -209l135 -146c6 21 9 44 9 68c0 9 0 18 -1 29
c-1 13 6 21 19 21h71c12 0 20 -6 22 -18c2 -13 3 -26 3 -41c0 -57 -14 -107 -39 -149l92 -99c12 -13 7 -25 -11 -25zM355 649c-58 0 -88 -43 -88 -85c0 -31 18 -69 68 -129c63 41 103 78 103 129c0 42 -25 85 -83 85zM338 82c58 0 104 14 138 40l-177 192
c-79 -50 -113 -91 -113 -135c0 -57 55 -97 152 -97z" />
    <glyph glyph-name="paragraph" unicode="&#xb6;" horiz-adv-x="739" 
d="M243 616h153c13 0 20 -7 20 -20v-676c0 -13 -7 -20 -20 -20h-69c-13 0 -20 7 -20 20v311h-64c-126 0 -205 81 -205 194c0 112 79 191 205 191zM557 616h75c13 0 20 -7 20 -20v-676c0 -13 -7 -20 -20 -20h-75c-13 0 -20 7 -20 20v676c0 13 7 20 20 20z" />
    <glyph glyph-name="copyright" unicode="&#xa9;" horiz-adv-x="869" 
d="M434 731c203 0 366 -145 366 -365s-163 -365 -366 -365c-201 0 -365 145 -365 365s164 365 365 365zM434 654c-159 0 -288 -115 -288 -288s129 -288 288 -288s289 115 289 288s-130 288 -289 288zM441 571c91 0 152 -58 169 -118c4 -14 -4 -22 -18 -22h-45
c-11 0 -18 5 -23 15c-17 31 -42 48 -83 48c-60 0 -101 -34 -101 -133c0 -92 43 -125 106 -125c42 0 63 17 78 41c5 9 12 14 23 14h41c15 0 22 -9 17 -22c-22 -55 -78 -111 -168 -111c-111 0 -184 80 -184 201c0 131 77 212 188 212z" />
    </font>
</defs>
</svg>
